{
    "asset" : {
        "generator" : "Khronos glTF Blender I/O v1.8.19",
        "version" : "2.0"
    },
    "scene" : 0,
    "scenes" : [
        {
            "name" : "Scene",
            "nodes" : [
                5
            ]
        }
    ],
    "nodes" : [
        {
            "mesh" : 0,
            "name" : "array_frame",
            "translation" : [
                0.6336396932601929,
                -0.06946295499801636,
                0.0009023420861922204
            ]
        },
        {
            "mesh" : 1,
            "name" : "Band",
            "translation" : [
                -0.2743285298347473,
                -0.2936626374721527,
                0.27326273918151855
            ]
        },
        {
            "mesh" : 2,
            "name" : "black_krinkle",
            "translation" : [
                -0.0009847606997936964,
                -0.35966750979423523,
                0.0009015256073325872
            ]
        },
        {
            "mesh" : 3,
            "name" : "metal_instruments",
            "translation" : [
                0.6336396932601929,
                -0.06946295499801636,
                0.0009023420861922204
            ]
        },
        {
            "mesh" : 4,
            "name" : "shiny_panel",
            "translation" : [
                -0.0009856369579210877,
                -0.06946295499801636,
                0.6355260014533997
            ]
        },
        {
            "children" : [
                0,
                1,
                2,
                3,
                4
            ],
            "mesh" : 5,
            "name" : "BUS",
            "translation" : [
                0.0009847756009548903,
                0.35966747999191284,
                -0.0009015107061713934
            ]
        }
    ],
    "materials" : [
        {
            "name" : "tex_01",
            "normalTexture" : {
                "index" : 0,
                "scale" : 0.20000004768371582
            },
            "pbrMetallicRoughness" : {
                "baseColorTexture" : {
                    "index" : 1
                },
                "metallicRoughnessTexture" : {
                    "index" : 2
                }
            }
        },
        {
            "name" : "aluminum",
            "pbrMetallicRoughness" : {
                "baseColorFactor" : [
                    0.9646862149238586,
                    0.964686393737793,
                    0.9646864533424377,
                    1
                ],
                "roughnessFactor" : 0.30000001192092896
            }
        },
        {
            "name" : "black_krinkle",
            "normalTexture" : {
                "index" : 3
            },
            "pbrMetallicRoughness" : {
                "baseColorFactor" : [
                    0.01960664987564087,
                    0.01960664987564087,
                    0.01960664987564087,
                    1
                ],
                "metallicFactor" : 0,
                "roughnessFactor" : 0.6000000238418579
            }
        },
        {
            "name" : "shiny_panel",
            "normalTexture" : {
                "index" : 4
            },
            "pbrMetallicRoughness" : {
                "baseColorTexture" : {
                    "index" : 5
                },
                "metallicRoughnessTexture" : {
                    "index" : 6
                }
            }
        },
        {
            "name" : "foil_gold",
            "normalTexture" : {
                "index" : 7
            },
            "pbrMetallicRoughness" : {
                "baseColorFactor" : [
                    0.9999998807907104,
                    0.6583749055862427,
                    0.08228273689746857,
                    1
                ],
                "roughnessFactor" : 0.30000001192092896
            }
        }
    ],
    "meshes" : [
        {
            "name" : "Layer 1.011",
            "primitives" : [
                {
                    "attributes" : {
                        "POSITION" : 0,
                        "NORMAL" : 1,
                        "TANGENT" : 2,
                        "TEXCOORD_0" : 3
                    },
                    "indices" : 4,
                    "material" : 0
                }
            ]
        },
        {
            "name" : "Plane.007",
            "primitives" : [
                {
                    "attributes" : {
                        "POSITION" : 5,
                        "NORMAL" : 6,
                        "TANGENT" : 7,
                        "TEXCOORD_0" : 8
                    },
                    "indices" : 9,
                    "material" : 0
                },
                {
                    "attributes" : {
                        "POSITION" : 10,
                        "NORMAL" : 11,
                        "TANGENT" : 12,
                        "TEXCOORD_0" : 13
                    },
                    "indices" : 14,
                    "material" : 1
                }
            ]
        },
        {
            "name" : "Cylinder.007",
            "primitives" : [
                {
                    "attributes" : {
                        "POSITION" : 15,
                        "NORMAL" : 16,
                        "TEXCOORD_0" : 17
                    },
                    "indices" : 18,
                    "material" : 2
                }
            ]
        },
        {
            "name" : "Layer 1.008",
            "primitives" : [
                {
                    "attributes" : {
                        "POSITION" : 19,
                        "NORMAL" : 20,
                        "TEXCOORD_0" : 21
                    },
                    "indices" : 22,
                    "material" : 1
                }
            ]
        },
        {
            "name" : "Layer 1.024",
            "primitives" : [
                {
                    "attributes" : {
                        "POSITION" : 23,
                        "NORMAL" : 24,
                        "TANGENT" : 25,
                        "TEXCOORD_0" : 26
                    },
                    "indices" : 27,
                    "material" : 3
                }
            ]
        },
        {
            "name" : "Layer 1.001",
            "primitives" : [
                {
                    "attributes" : {
                        "POSITION" : 28,
                        "NORMAL" : 29,
                        "TEXCOORD_0" : 30
                    },
                    "indices" : 31,
                    "material" : 4
                },
                {
                    "attributes" : {
                        "POSITION" : 32,
                        "NORMAL" : 33,
                        "TEXCOORD_0" : 34
                    },
                    "indices" : 35,
                    "material" : 1
                }
            ]
        }
    ],
    "textures" : [
        {
            "sampler" : 0,
            "source" : 0
        },
        {
            "sampler" : 0,
            "source" : 1
        },
        {
            "sampler" : 0,
            "source" : 2
        },
        {
            "sampler" : 0,
            "source" : 3
        },
        {
            "sampler" : 0,
            "source" : 0
        },
        {
            "sampler" : 0,
            "source" : 1
        },
        {
            "sampler" : 0,
            "source" : 2
        },
        {
            "sampler" : 0,
            "source" : 3
        }
    ],
    "images" : [
        {
            "mimeType" : "image/png",
            "name" : "acrimsat_normal",
            "uri" : "acrimsat_normal.png"
        },
        {
            "mimeType" : "image/jpeg",
            "name" : "acrimsat_albedo",
            "uri" : "acrimsat_albedo.jpg"
        },
        {
            "mimeType" : "image/jpeg",
            "name" : "acrimsat_pbr",
            "uri" : "acrimsat_pbr.jpg"
        },
        {
            "mimeType" : "image/png",
            "name" : "foil_n",
            "uri" : "foil_n.png"
        }
    ],
    "accessors" : [
        {
            "bufferView" : 0,
            "componentType" : 5126,
            "count" : 464,
            "max" : [
                0.2644807696342468,
                0.014507289975881577,
                0.8991044163703918
            ],
            "min" : [
                -1.5337296724319458,
                -2.3173877039539548e-08,
                -0.8991060256958008
            ],
            "type" : "VEC3"
        },
        {
            "bufferView" : 1,
            "componentType" : 5126,
            "count" : 464,
            "type" : "VEC3"
        },
        {
            "bufferView" : 2,
            "componentType" : 5126,
            "count" : 464,
            "type" : "VEC4"
        },
        {
            "bufferView" : 3,
            "componentType" : 5126,
            "count" : 464,
            "type" : "VEC2"
        },
        {
            "bufferView" : 4,
            "componentType" : 5123,
            "count" : 696,
            "type" : "SCALAR"
        },
        {
            "bufferView" : 5,
            "componentType" : 5126,
            "count" : 32,
            "max" : [
                0.6599905490875244,
                0.10421905666589737,
                0.1142856627702713
            ],
            "min" : [
                -0.1133030354976654,
                -0.10421905666589737,
                -0.6590080261230469
            ],
            "type" : "VEC3"
        },
        {
            "bufferView" : 6,
            "componentType" : 5126,
            "count" : 32,
            "type" : "VEC3"
        },
        {
            "bufferView" : 7,
            "componentType" : 5126,
            "count" : 32,
            "type" : "VEC4"
        },
        {
            "bufferView" : 8,
            "componentType" : 5126,
            "count" : 32,
            "type" : "VEC2"
        },
        {
            "bufferView" : 9,
            "componentType" : 5123,
            "count" : 48,
            "type" : "SCALAR"
        },
        {
            "bufferView" : 10,
            "componentType" : 5126,
            "count" : 128,
            "max" : [
                0.6599905490875244,
                0.10421905666589737,
                0.1142856627702713
            ],
            "min" : [
                -0.1133030354976654,
                -0.10421905666589737,
                -0.6590080261230469
            ],
            "type" : "VEC3"
        },
        {
            "bufferView" : 11,
            "componentType" : 5126,
            "count" : 128,
            "type" : "VEC3"
        },
        {
            "bufferView" : 12,
            "componentType" : 5126,
            "count" : 128,
            "type" : "VEC4"
        },
        {
            "bufferView" : 13,
            "componentType" : 5126,
            "count" : 128,
            "type" : "VEC2"
        },
        {
            "bufferView" : 14,
            "componentType" : 5123,
            "count" : 192,
            "type" : "SCALAR"
        },
        {
            "bufferView" : 15,
            "componentType" : 5126,
            "count" : 438,
            "max" : [
                0.8757098913192749,
                0.3157750964164734,
                0.8757098913192749
            ],
            "min" : [
                -0.8757098913192749,
                -0.3347921073436737,
                -0.8757098913192749
            ],
            "type" : "VEC3"
        },
        {
            "bufferView" : 16,
            "componentType" : 5126,
            "count" : 438,
            "type" : "VEC3"
        },
        {
            "bufferView" : 17,
            "componentType" : 5126,
            "count" : 438,
            "type" : "VEC2"
        },
        {
            "bufferView" : 18,
            "componentType" : 5123,
            "count" : 2100,
            "type" : "SCALAR"
        },
        {
            "bufferView" : 19,
            "componentType" : 5126,
            "count" : 263,
            "max" : [
                -0.37915676832199097,
                0.04360305517911911,
                0.2545706033706665
            ],
            "min" : [
                -0.9264123439788818,
                -0.03276821970939636,
                -0.25455984473228455
            ],
            "type" : "VEC3"
        },
        {
            "bufferView" : 20,
            "componentType" : 5126,
            "count" : 263,
            "type" : "VEC3"
        },
        {
            "bufferView" : 21,
            "componentType" : 5126,
            "count" : 263,
            "type" : "VEC2"
        },
        {
            "bufferView" : 22,
            "componentType" : 5123,
            "count" : 855,
            "type" : "SCALAR"
        },
        {
            "bufferView" : 23,
            "componentType" : 5126,
            "count" : 16,
            "max" : [
                0.8877988457679749,
                0.014507297426462173,
                0.2531735301017761
            ],
            "min" : [
                -0.8877972960472107,
                0.014507279731333256,
                -1.522422432899475
            ],
            "type" : "VEC3"
        },
        {
            "bufferView" : 24,
            "componentType" : 5126,
            "count" : 16,
            "type" : "VEC3"
        },
        {
            "bufferView" : 25,
            "componentType" : 5126,
            "count" : 16,
            "type" : "VEC4"
        },
        {
            "bufferView" : 26,
            "componentType" : 5126,
            "count" : 16,
            "type" : "VEC2"
        },
        {
            "bufferView" : 27,
            "componentType" : 5123,
            "count" : 24,
            "type" : "SCALAR"
        },
        {
            "bufferView" : 28,
            "componentType" : 5126,
            "count" : 1480,
            "max" : [
                0.38456666469573975,
                0.010899841785430908,
                0.38468486070632935
            ],
            "min" : [
                -0.3818213641643524,
                -0.7158232927322388,
                -0.38170310854911804
            ],
            "type" : "VEC3"
        },
        {
            "bufferView" : 29,
            "componentType" : 5126,
            "count" : 1480,
            "type" : "VEC3"
        },
        {
            "bufferView" : 30,
            "componentType" : 5126,
            "count" : 1480,
            "type" : "VEC2"
        },
        {
            "bufferView" : 31,
            "componentType" : 5123,
            "count" : 7746,
            "type" : "SCALAR"
        },
        {
            "bufferView" : 32,
            "componentType" : 5126,
            "count" : 180,
            "max" : [
                0.03667610138654709,
                0.01030456367880106,
                0.04945097863674164
            ],
            "min" : [
                -0.05511248856782913,
                0.005905807018280029,
                -0.050786737352609634
            ],
            "type" : "VEC3"
        },
        {
            "bufferView" : 33,
            "componentType" : 5126,
            "count" : 180,
            "type" : "VEC3"
        },
        {
            "bufferView" : 34,
            "componentType" : 5126,
            "count" : 180,
            "type" : "VEC2"
        },
        {
            "bufferView" : 35,
            "componentType" : 5123,
            "count" : 432,
            "type" : "SCALAR"
        }
    ],
    "bufferViews" : [
        {
            "buffer" : 0,
            "byteLength" : 5568,
            "byteOffset" : 0
        },
        {
            "buffer" : 0,
            "byteLength" : 5568,
            "byteOffset" : 5568
        },
        {
            "buffer" : 0,
            "byteLength" : 7424,
            "byteOffset" : 11136
        },
        {
            "buffer" : 0,
            "byteLength" : 3712,
            "byteOffset" : 18560
        },
        {
            "buffer" : 0,
            "byteLength" : 1392,
            "byteOffset" : 22272
        },
        {
            "buffer" : 0,
            "byteLength" : 384,
            "byteOffset" : 23664
        },
        {
            "buffer" : 0,
            "byteLength" : 384,
            "byteOffset" : 24048
        },
        {
            "buffer" : 0,
            "byteLength" : 512,
            "byteOffset" : 24432
        },
        {
            "buffer" : 0,
            "byteLength" : 256,
            "byteOffset" : 24944
        },
        {
            "buffer" : 0,
            "byteLength" : 96,
            "byteOffset" : 25200
        },
        {
            "buffer" : 0,
            "byteLength" : 1536,
            "byteOffset" : 25296
        },
        {
            "buffer" : 0,
            "byteLength" : 1536,
            "byteOffset" : 26832
        },
        {
            "buffer" : 0,
            "byteLength" : 2048,
            "byteOffset" : 28368
        },
        {
            "buffer" : 0,
            "byteLength" : 1024,
            "byteOffset" : 30416
        },
        {
            "buffer" : 0,
            "byteLength" : 384,
            "byteOffset" : 31440
        },
        {
            "buffer" : 0,
            "byteLength" : 5256,
            "byteOffset" : 31824
        },
        {
            "buffer" : 0,
            "byteLength" : 5256,
            "byteOffset" : 37080
        },
        {
            "buffer" : 0,
            "byteLength" : 3504,
            "byteOffset" : 42336
        },
        {
            "buffer" : 0,
            "byteLength" : 4200,
            "byteOffset" : 45840
        },
        {
            "buffer" : 0,
            "byteLength" : 3156,
            "byteOffset" : 50040
        },
        {
            "buffer" : 0,
            "byteLength" : 3156,
            "byteOffset" : 53196
        },
        {
            "buffer" : 0,
            "byteLength" : 2104,
            "byteOffset" : 56352
        },
        {
            "buffer" : 0,
            "byteLength" : 1710,
            "byteOffset" : 58456
        },
        {
            "buffer" : 0,
            "byteLength" : 192,
            "byteOffset" : 60168
        },
        {
            "buffer" : 0,
            "byteLength" : 192,
            "byteOffset" : 60360
        },
        {
            "buffer" : 0,
            "byteLength" : 256,
            "byteOffset" : 60552
        },
        {
            "buffer" : 0,
            "byteLength" : 128,
            "byteOffset" : 60808
        },
        {
            "buffer" : 0,
            "byteLength" : 48,
            "byteOffset" : 60936
        },
        {
            "buffer" : 0,
            "byteLength" : 17760,
            "byteOffset" : 60984
        },
        {
            "buffer" : 0,
            "byteLength" : 17760,
            "byteOffset" : 78744
        },
        {
            "buffer" : 0,
            "byteLength" : 11840,
            "byteOffset" : 96504
        },
        {
            "buffer" : 0,
            "byteLength" : 15492,
            "byteOffset" : 108344
        },
        {
            "buffer" : 0,
            "byteLength" : 2160,
            "byteOffset" : 123836
        },
        {
            "buffer" : 0,
            "byteLength" : 2160,
            "byteOffset" : 125996
        },
        {
            "buffer" : 0,
            "byteLength" : 1440,
            "byteOffset" : 128156
        },
        {
            "buffer" : 0,
            "byteLength" : 864,
            "byteOffset" : 129596
        }
    ],
    "samplers" : [
        {
            "magFilter" : 9729,
            "minFilter" : 9987
        }
    ],
    "buffers" : [
        {
            "byteLength" : 130460,
            "uri" : "acrimsat.bin"
        }
    ]
}
