{
    "asset" : {
        "generator" : "Khronos glTF Blender I/O v1.3.48",
        "version" : "2.0"
    },
    "scene" : 0,
    "scenes" : [
        {
            "name" : "Scene",
            "nodes" : [
                6
            ]
        }
    ],
    "nodes" : [
        {
            "mesh" : 0,
            "name" : "AO_axial_ant"
        },
        {
            "mesh" : 1,
            "name" : "AO_helix_ant",
            "translation" : [
                -0.9155949354171753,
                0.8787153959274292,
                -0.34375837445259094
            ]
        },
        {
            "mesh" : 2,
            "name" : "foil_red"
        },
        {
            "mesh" : 3,
            "name" : "shiny_panel"
        },
        {
            "mesh" : 4,
            "name" : "shiny_panel3"
        },
        {
            "mesh" : 5,
            "name" : "tex_IMAGE"
        },
        {
            "children" : [
                0,
                1,
                2,
                3,
                4,
                5
            ],
            "mesh" : 6,
            "name" : "BUS_shiny_panel2"
        }
    ],
    "materials" : [
        {
            "emissiveFactor" : [
                0,
                0,
                0
            ],
            "name" : "AO_axial_ant",
            "pbrMetallicRoughness" : {
                "baseColorTexture" : {
                    "index" : 0,
                    "texCoord" : 0
                },
                "metallicFactor" : 1,
                "roughnessFactor" : 0.5
            }
        },
        {
            "emissiveFactor" : [
                0,
                0,
                0
            ],
            "name" : "AO_helix_ant",
            "pbrMetallicRoughness" : {
                "baseColorTexture" : {
                    "index" : 1,
                    "texCoord" : 0
                },
                "metallicFactor" : 0.20000000298023224,
                "roughnessFactor" : 0.5
            }
        },
        {
            "emissiveFactor" : [
                0,
                0,
                0
            ],
            "name" : "foil_red",
            "normalTexture" : {
                "index" : 2,
                "texCoord" : 0
            },
            "pbrMetallicRoughness" : {
                "baseColorFactor" : [
                    1,
                    0.06517088413238525,
                    0.019999980926513672,
                    1
                ],
                "metallicFactor" : 1,
                "roughnessFactor" : 0.30000001192092896
            }
        },
        {
            "emissiveFactor" : [
                0,
                0,
                0
            ],
            "name" : "shiny_panel",
            "normalTexture" : {
                "index" : 3,
                "texCoord" : 0
            },
            "pbrMetallicRoughness" : {
                "baseColorTexture" : {
                    "index" : 4,
                    "texCoord" : 0
                },
                "metallicRoughnessTexture" : {
                    "index" : 5,
                    "texCoord" : 0
                }
            }
        },
        {
            "emissiveFactor" : [
                0,
                0,
                0
            ],
            "name" : "shiny_panel3",
            "normalTexture" : {
                "index" : 6,
                "scale" : 0.20000000298023224,
                "texCoord" : 0
            },
            "pbrMetallicRoughness" : {
                "baseColorTexture" : {
                    "index" : 7,
                    "texCoord" : 0
                },
                "metallicRoughnessTexture" : {
                    "index" : 8,
                    "texCoord" : 0
                }
            }
        },
        {
            "emissiveFactor" : [
                0,
                0,
                0
            ],
            "name" : "tex_IMAGE",
            "normalTexture" : {
                "index" : 9,
                "texCoord" : 0
            },
            "pbrMetallicRoughness" : {
                "baseColorTexture" : {
                    "index" : 10,
                    "texCoord" : 0
                },
                "metallicRoughnessTexture" : {
                    "index" : 11,
                    "texCoord" : 0
                }
            }
        },
        {
            "emissiveFactor" : [
                0,
                0,
                0
            ],
            "name" : "shiny_panel2",
            "normalTexture" : {
                "index" : 12,
                "scale" : 0.20000000298023224,
                "texCoord" : 0
            },
            "pbrMetallicRoughness" : {
                "baseColorTexture" : {
                    "index" : 13,
                    "texCoord" : 0
                },
                "metallicRoughnessTexture" : {
                    "index" : 14,
                    "texCoord" : 0
                }
            }
        }
    ],
    "meshes" : [
        {
            "name" : "BODY.001",
            "primitives" : [
                {
                    "attributes" : {
                        "POSITION" : 0,
                        "NORMAL" : 1,
                        "TEXCOORD_0" : 2
                    },
                    "indices" : 3,
                    "material" : 0
                }
            ]
        },
        {
            "name" : "Cylinder.003",
            "primitives" : [
                {
                    "attributes" : {
                        "POSITION" : 4,
                        "NORMAL" : 5,
                        "TEXCOORD_0" : 6
                    },
                    "indices" : 7,
                    "material" : 1
                }
            ]
        },
        {
            "name" : "Cylinder.004",
            "primitives" : [
                {
                    "attributes" : {
                        "POSITION" : 8,
                        "NORMAL" : 9,
                        "TEXCOORD_0" : 10
                    },
                    "indices" : 11,
                    "material" : 2
                }
            ]
        },
        {
            "name" : "Cylinder.009",
            "primitives" : [
                {
                    "attributes" : {
                        "POSITION" : 12,
                        "NORMAL" : 13,
                        "TEXCOORD_0" : 14
                    },
                    "indices" : 15,
                    "material" : 3
                }
            ]
        },
        {
            "name" : "Cylinder.013",
            "primitives" : [
                {
                    "attributes" : {
                        "POSITION" : 16,
                        "NORMAL" : 17,
                        "TEXCOORD_0" : 18
                    },
                    "indices" : 19,
                    "material" : 4
                }
            ]
        },
        {
            "name" : "Cylinder.002",
            "primitives" : [
                {
                    "attributes" : {
                        "POSITION" : 20,
                        "NORMAL" : 21,
                        "TEXCOORD_0" : 22
                    },
                    "indices" : 23,
                    "material" : 5
                }
            ]
        },
        {
            "name" : "Cylinder",
            "primitives" : [
                {
                    "attributes" : {
                        "POSITION" : 24,
                        "NORMAL" : 25,
                        "TEXCOORD_0" : 26
                    },
                    "indices" : 27,
                    "material" : 6
                }
            ]
        }
    ],
    "textures" : [
        {
            "source" : 0
        },
        {
            "source" : 1
        },
        {
            "source" : 2
        },
        {
            "source" : 3
        },
        {
            "source" : 4
        },
        {
            "source" : 5
        },
        {
            "source" : 6
        },
        {
            "source" : 7
        },
        {
            "source" : 8
        },
        {
            "source" : 3
        },
        {
            "source" : 4
        },
        {
            "source" : 5
        },
        {
            "source" : 9
        },
        {
            "source" : 10
        },
        {
            "source" : 11
        }
    ],
    "images" : [
        {
            "mimeType" : "image/jpeg",
            "name" : "image_axial_ant_ao",
            "uri" : "image_axial_ant_ao.jpg"
        },
        {
            "mimeType" : "image/jpeg",
            "name" : "image_helix_ant_ao",
            "uri" : "image_helix_ant_ao.jpg"
        },
        {
            "mimeType" : "image/png",
            "name" : "foil_normal.png",
            "uri" : "foil_normal_png.png"
        },
        {
            "mimeType" : "image/png",
            "name" : "tex_image_normal",
            "uri" : "tex_image_normal.png"
        },
        {
            "mimeType" : "image/jpeg",
            "name" : "tex_image_albedo",
            "uri" : "tex_image_albedo.jpg"
        },
        {
            "mimeType" : "image/jpeg",
            "name" : "tex_image_pbr",
            "uri" : "tex_image_pbr.jpg"
        },
        {
            "mimeType" : "image/png",
            "name" : "image_tex_body2_normal",
            "uri" : "image_tex_body2_normal.png"
        },
        {
            "mimeType" : "image/jpeg",
            "name" : "image_tex_body2_albedo",
            "uri" : "image_tex_body2_albedo.jpg"
        },
        {
            "mimeType" : "image/jpeg",
            "name" : "image_tex_body2_pbr",
            "uri" : "image_tex_body2_pbr.jpg"
        },
        {
            "mimeType" : "image/png",
            "name" : "image_tex_body_normal",
            "uri" : "image_tex_body_normal.png"
        },
        {
            "mimeType" : "image/jpeg",
            "name" : "image_tex_body_albedo",
            "uri" : "image_tex_body_albedo.jpg"
        },
        {
            "mimeType" : "image/jpeg",
            "name" : "image_tex_body_pbr",
            "uri" : "image_tex_body_pbr.jpg"
        }
    ],
    "accessors" : [
        {
            "bufferView" : 0,
            "componentType" : 5126,
            "count" : 11266,
            "max" : [
                0.20228458940982819,
                10.397414207458496,
                0.204315647482872
            ],
            "min" : [
                -0.20228418707847595,
                -10.39741325378418,
                -0.2043137401342392
            ],
            "type" : "VEC3"
        },
        {
            "bufferView" : 1,
            "componentType" : 5126,
            "count" : 11266,
            "type" : "VEC3"
        },
        {
            "bufferView" : 2,
            "componentType" : 5126,
            "count" : 11266,
            "type" : "VEC2"
        },
        {
            "bufferView" : 3,
            "componentType" : 5123,
            "count" : 18594,
            "type" : "SCALAR"
        },
        {
            "bufferView" : 4,
            "componentType" : 5126,
            "count" : 817,
            "max" : [
                0.17898142337799072,
                0.8448371887207031,
                0.7100467681884766
            ],
            "min" : [
                -0.17898140847682953,
                -1.7387397289276123,
                -0.17898142337799072
            ],
            "type" : "VEC3"
        },
        {
            "bufferView" : 5,
            "componentType" : 5126,
            "count" : 817,
            "type" : "VEC3"
        },
        {
            "bufferView" : 6,
            "componentType" : 5126,
            "count" : 817,
            "type" : "VEC2"
        },
        {
            "bufferView" : 7,
            "componentType" : 5123,
            "count" : 2400,
            "type" : "SCALAR"
        },
        {
            "bufferView" : 8,
            "componentType" : 5126,
            "count" : 158,
            "max" : [
                0.8017734289169312,
                0.37689831852912903,
                1.0682790279388428
            ],
            "min" : [
                -0.9303494691848755,
                -0.1798713356256485,
                -1.0838611125946045
            ],
            "type" : "VEC3"
        },
        {
            "bufferView" : 9,
            "componentType" : 5126,
            "count" : 158,
            "type" : "VEC3"
        },
        {
            "bufferView" : 10,
            "componentType" : 5126,
            "count" : 158,
            "type" : "VEC2"
        },
        {
            "bufferView" : 11,
            "componentType" : 5123,
            "count" : 744,
            "type" : "SCALAR"
        },
        {
            "bufferView" : 12,
            "componentType" : 5126,
            "count" : 390,
            "max" : [
                1.1378860473632812,
                0.18448658287525177,
                1.1378860473632812
            ],
            "min" : [
                -1.1305180788040161,
                -0.42072346806526184,
                -1.1305181980133057
            ],
            "type" : "VEC3"
        },
        {
            "bufferView" : 13,
            "componentType" : 5126,
            "count" : 390,
            "type" : "VEC3"
        },
        {
            "bufferView" : 14,
            "componentType" : 5126,
            "count" : 390,
            "type" : "VEC2"
        },
        {
            "bufferView" : 15,
            "componentType" : 5123,
            "count" : 540,
            "type" : "SCALAR"
        },
        {
            "bufferView" : 16,
            "componentType" : 5126,
            "count" : 268,
            "max" : [
                1.125000238418579,
                0.7599999904632568,
                1.125000238418579
            ],
            "min" : [
                -1.125,
                -0.7599999904632568,
                -1.1250001192092896
            ],
            "type" : "VEC3"
        },
        {
            "bufferView" : 17,
            "componentType" : 5126,
            "count" : 268,
            "type" : "VEC3"
        },
        {
            "bufferView" : 18,
            "componentType" : 5126,
            "count" : 268,
            "type" : "VEC2"
        },
        {
            "bufferView" : 19,
            "componentType" : 5123,
            "count" : 294,
            "type" : "SCALAR"
        },
        {
            "bufferView" : 20,
            "componentType" : 5126,
            "count" : 2842,
            "max" : [
                250.95849609375,
                0.7599999904632568,
                250.95846557617188
            ],
            "min" : [
                -250.95849609375,
                -0.9172825217247009,
                -250.95846557617188
            ],
            "type" : "VEC3"
        },
        {
            "bufferView" : 21,
            "componentType" : 5126,
            "count" : 2842,
            "type" : "VEC3"
        },
        {
            "bufferView" : 22,
            "componentType" : 5126,
            "count" : 2842,
            "type" : "VEC2"
        },
        {
            "bufferView" : 23,
            "componentType" : 5123,
            "count" : 7260,
            "type" : "SCALAR"
        },
        {
            "bufferView" : 24,
            "componentType" : 5126,
            "count" : 296,
            "max" : [
                1.125000238418579,
                0.7599999904632568,
                1.125000238418579
            ],
            "min" : [
                -1.125000238418579,
                -0.7599999904632568,
                -1.125000238418579
            ],
            "type" : "VEC3"
        },
        {
            "bufferView" : 25,
            "componentType" : 5126,
            "count" : 296,
            "type" : "VEC3"
        },
        {
            "bufferView" : 26,
            "componentType" : 5126,
            "count" : 296,
            "type" : "VEC2"
        },
        {
            "bufferView" : 27,
            "componentType" : 5123,
            "count" : 366,
            "type" : "SCALAR"
        }
    ],
    "bufferViews" : [
        {
            "buffer" : 0,
            "byteLength" : 135192,
            "byteOffset" : 0
        },
        {
            "buffer" : 0,
            "byteLength" : 135192,
            "byteOffset" : 135192
        },
        {
            "buffer" : 0,
            "byteLength" : 90128,
            "byteOffset" : 270384
        },
        {
            "buffer" : 0,
            "byteLength" : 37188,
            "byteOffset" : 360512
        },
        {
            "buffer" : 0,
            "byteLength" : 9804,
            "byteOffset" : 397700
        },
        {
            "buffer" : 0,
            "byteLength" : 9804,
            "byteOffset" : 407504
        },
        {
            "buffer" : 0,
            "byteLength" : 6536,
            "byteOffset" : 417308
        },
        {
            "buffer" : 0,
            "byteLength" : 4800,
            "byteOffset" : 423844
        },
        {
            "buffer" : 0,
            "byteLength" : 1896,
            "byteOffset" : 428644
        },
        {
            "buffer" : 0,
            "byteLength" : 1896,
            "byteOffset" : 430540
        },
        {
            "buffer" : 0,
            "byteLength" : 1264,
            "byteOffset" : 432436
        },
        {
            "buffer" : 0,
            "byteLength" : 1488,
            "byteOffset" : 433700
        },
        {
            "buffer" : 0,
            "byteLength" : 4680,
            "byteOffset" : 435188
        },
        {
            "buffer" : 0,
            "byteLength" : 4680,
            "byteOffset" : 439868
        },
        {
            "buffer" : 0,
            "byteLength" : 3120,
            "byteOffset" : 444548
        },
        {
            "buffer" : 0,
            "byteLength" : 1080,
            "byteOffset" : 447668
        },
        {
            "buffer" : 0,
            "byteLength" : 3216,
            "byteOffset" : 448748
        },
        {
            "buffer" : 0,
            "byteLength" : 3216,
            "byteOffset" : 451964
        },
        {
            "buffer" : 0,
            "byteLength" : 2144,
            "byteOffset" : 455180
        },
        {
            "buffer" : 0,
            "byteLength" : 588,
            "byteOffset" : 457324
        },
        {
            "buffer" : 0,
            "byteLength" : 34104,
            "byteOffset" : 457912
        },
        {
            "buffer" : 0,
            "byteLength" : 34104,
            "byteOffset" : 492016
        },
        {
            "buffer" : 0,
            "byteLength" : 22736,
            "byteOffset" : 526120
        },
        {
            "buffer" : 0,
            "byteLength" : 14520,
            "byteOffset" : 548856
        },
        {
            "buffer" : 0,
            "byteLength" : 3552,
            "byteOffset" : 563376
        },
        {
            "buffer" : 0,
            "byteLength" : 3552,
            "byteOffset" : 566928
        },
        {
            "buffer" : 0,
            "byteLength" : 2368,
            "byteOffset" : 570480
        },
        {
            "buffer" : 0,
            "byteLength" : 732,
            "byteOffset" : 572848
        }
    ],
    "buffers" : [
        {
            "byteLength" : 573580,
            "uri" : "image.bin"
        }
    ]
}
