{
    "asset" : {
        "generator" : "Khronos glTF Blender I/O v1.8.19",
        "version" : "2.0"
    },
    "scene" : 0,
    "scenes" : [
        {
            "name" : "Scene",
            "nodes" : [
                5
            ]
        }
    ],
    "nodes" : [
        {
            "mesh" : 0,
            "name" : "AO_geotail",
            "scale" : [
                0.16913817822933197,
                0.16913817822933197,
                0.16913817822933197
            ],
            "translation" : [
                0,
                0.9629653692245483,
                0
            ]
        },
        {
            "mesh" : 1,
            "name" : "AO_masts",
            "rotation" : [
                0.2244337797164917,
                -0.6705441474914551,
                0.2244337648153305,
                0.6705442070960999
            ],
            "scale" : [
                0.4845753312110901,
                0.4845752418041229,
                0.4845753312110901
            ],
            "translation" : [
                0,
                -0.19386348128318787,
                0
            ]
        },
        {
            "mesh" : 2,
            "name" : "foil_gold",
            "rotation" : [
                0,
                0.342020183801651,
                0,
                0.9396926164627075
            ],
            "scale" : [
                0.16913817822933197,
                0.16913817822933197,
                0.16913817822933197
            ],
            "translation" : [
                0,
                1.1408931016921997,
                0
            ]
        },
        {
            "mesh" : 3,
            "name" : "Geotail_tex",
            "scale" : [
                0.16913817822933197,
                0.16913817822933197,
                0.16913817822933197
            ],
            "translation" : [
                0,
                0.9629653692245483,
                0
            ]
        },
        {
            "mesh" : 4,
            "name" : "shiny_panel",
            "scale" : [
                0.02892700769007206,
                0.02892700769007206,
                0.02892700769007206
            ]
        },
        {
            "children" : [
                0,
                1,
                2,
                3,
                4
            ],
            "mesh" : 5,
            "name" : "_root"
        }
    ],
    "materials" : [
        {
            "doubleSided" : true,
            "name" : "AO_geotail",
            "pbrMetallicRoughness" : {
                "baseColorTexture" : {
                    "index" : 0
                },
                "roughnessFactor" : 0.5
            }
        },
        {
            "doubleSided" : true,
            "name" : "AO_masts",
            "pbrMetallicRoughness" : {
                "baseColorTexture" : {
                    "index" : 1
                },
                "roughnessFactor" : 0.30000001192092896
            }
        },
        {
            "doubleSided" : true,
            "name" : "foil_gold",
            "normalTexture" : {
                "index" : 2
            },
            "pbrMetallicRoughness" : {
                "baseColorFactor" : [
                    0.9999998807907104,
                    0.6583749055862427,
                    0.08228273689746857,
                    1
                ],
                "roughnessFactor" : 0.30000001192092896
            }
        },
        {
            "doubleSided" : true,
            "name" : "Geotail_tex",
            "pbrMetallicRoughness" : {
                "baseColorTexture" : {
                    "index" : 3
                },
                "roughnessFactor" : 0.30000001192092896
            }
        },
        {
            "doubleSided" : true,
            "name" : "shiny_panel",
            "pbrMetallicRoughness" : {
                "baseColorTexture" : {
                    "index" : 4
                },
                "metallicFactor" : 0.5,
                "roughnessFactor" : 0.05000000074505806
            }
        }
    ],
    "meshes" : [
        {
            "name" : "Cylinder.002",
            "primitives" : [
                {
                    "attributes" : {
                        "POSITION" : 0,
                        "NORMAL" : 1,
                        "TANGENT" : 2,
                        "TEXCOORD_0" : 3
                    },
                    "indices" : 4,
                    "material" : 0
                }
            ]
        },
        {
            "name" : "BODY.001",
            "primitives" : [
                {
                    "attributes" : {
                        "POSITION" : 5,
                        "NORMAL" : 6,
                        "TANGENT" : 7,
                        "TEXCOORD_0" : 8
                    },
                    "indices" : 9,
                    "material" : 1
                }
            ]
        },
        {
            "name" : "Cylinder.003",
            "primitives" : [
                {
                    "attributes" : {
                        "POSITION" : 10,
                        "NORMAL" : 11,
                        "TANGENT" : 12,
                        "TEXCOORD_0" : 13
                    },
                    "indices" : 14,
                    "material" : 2
                }
            ]
        },
        {
            "name" : "Cylinder.001",
            "primitives" : [
                {
                    "attributes" : {
                        "POSITION" : 15,
                        "NORMAL" : 16,
                        "TANGENT" : 17,
                        "TEXCOORD_0" : 18
                    },
                    "indices" : 19,
                    "material" : 3
                }
            ]
        },
        {
            "name" : "Giotto.003",
            "primitives" : [
                {
                    "attributes" : {
                        "POSITION" : 20,
                        "NORMAL" : 21,
                        "TANGENT" : 22,
                        "TEXCOORD_0" : 23
                    },
                    "indices" : 24,
                    "material" : 4
                }
            ]
        },
        {
            "name" : "Cube.001",
            "primitives" : [
                {
                    "attributes" : {
                        "POSITION" : 25,
                        "NORMAL" : 26
                    },
                    "indices" : 27
                }
            ]
        }
    ],
    "textures" : [
        {
            "sampler" : 0,
            "source" : 0
        },
        {
            "sampler" : 0,
            "source" : 1
        },
        {
            "sampler" : 0,
            "source" : 2
        },
        {
            "sampler" : 0,
            "source" : 3
        },
        {
            "sampler" : 0,
            "source" : 3
        }
    ],
    "images" : [
        {
            "mimeType" : "image/jpeg",
            "name" : "geotail_AO",
            "uri" : "geotail_ao.jpg"
        },
        {
            "mimeType" : "image/jpeg",
            "name" : "geotail_AO_masts",
            "uri" : "geotail_ao_masts.jpg"
        },
        {
            "mimeType" : "image/jpeg",
            "name" : "foil_normal",
            "uri" : "foil_normal.jpg"
        },
        {
            "mimeType" : "image/jpeg",
            "name" : "geotail_tex_01",
            "uri" : "geotail_tex_01.jpg"
        }
    ],
    "accessors" : [
        {
            "bufferView" : 0,
            "componentType" : 5126,
            "count" : 1984,
            "max" : [
                6.503549098968506,
                2.0450503826141357,
                6.503549098968506
            ],
            "min" : [
                -6.503548622131348,
                -11.524642944335938,
                -6.503548622131348
            ],
            "type" : "VEC3"
        },
        {
            "bufferView" : 1,
            "componentType" : 5126,
            "count" : 1984,
            "type" : "VEC3"
        },
        {
            "bufferView" : 2,
            "componentType" : 5126,
            "count" : 1984,
            "type" : "VEC4"
        },
        {
            "bufferView" : 3,
            "componentType" : 5126,
            "count" : 1984,
            "type" : "VEC2"
        },
        {
            "bufferView" : 4,
            "componentType" : 5123,
            "count" : 4728,
            "type" : "SCALAR"
        },
        {
            "bufferView" : 5,
            "componentType" : 5126,
            "count" : 10708,
            "max" : [
                0.17438913881778717,
                8.74690055847168,
                11.033782005310059
            ],
            "min" : [
                -0.1743893027305603,
                -8.27651596069336,
                -11.388384819030762
            ],
            "type" : "VEC3"
        },
        {
            "bufferView" : 6,
            "componentType" : 5126,
            "count" : 10708,
            "type" : "VEC3"
        },
        {
            "bufferView" : 7,
            "componentType" : 5126,
            "count" : 10708,
            "type" : "VEC4"
        },
        {
            "bufferView" : 8,
            "componentType" : 5126,
            "count" : 10708,
            "type" : "VEC2"
        },
        {
            "bufferView" : 9,
            "componentType" : 5123,
            "count" : 18486,
            "type" : "SCALAR"
        },
        {
            "bufferView" : 10,
            "componentType" : 5126,
            "count" : 409,
            "max" : [
                1.3029613494873047,
                0.6820054054260254,
                0.6048499345779419
            ],
            "min" : [
                -1.8561091423034668,
                -0.8034205436706543,
                -0.46301332116127014
            ],
            "type" : "VEC3"
        },
        {
            "bufferView" : 11,
            "componentType" : 5126,
            "count" : 409,
            "type" : "VEC3"
        },
        {
            "bufferView" : 12,
            "componentType" : 5126,
            "count" : 409,
            "type" : "VEC4"
        },
        {
            "bufferView" : 13,
            "componentType" : 5126,
            "count" : 409,
            "type" : "VEC2"
        },
        {
            "bufferView" : 14,
            "componentType" : 5123,
            "count" : 1710,
            "type" : "SCALAR"
        },
        {
            "bufferView" : 15,
            "componentType" : 5126,
            "count" : 1133,
            "max" : [
                273.49664306640625,
                1.7339720726013184,
                273.4966735839844
            ],
            "min" : [
                -273.49664306640625,
                -10.969443321228027,
                -273.4966735839844
            ],
            "type" : "VEC3"
        },
        {
            "bufferView" : 16,
            "componentType" : 5126,
            "count" : 1133,
            "type" : "VEC3"
        },
        {
            "bufferView" : 17,
            "componentType" : 5126,
            "count" : 1133,
            "type" : "VEC4"
        },
        {
            "bufferView" : 18,
            "componentType" : 5126,
            "count" : 1133,
            "type" : "VEC2"
        },
        {
            "bufferView" : 19,
            "componentType" : 5123,
            "count" : 3108,
            "type" : "SCALAR"
        },
        {
            "bufferView" : 20,
            "componentType" : 5126,
            "count" : 222,
            "max" : [
                38.02668762207031,
                27.65581703186035,
                38.02669143676758
            ],
            "min" : [
                -38.02669143676758,
                -27.65581703186035,
                -38.02668762207031
            ],
            "type" : "VEC3"
        },
        {
            "bufferView" : 21,
            "componentType" : 5126,
            "count" : 222,
            "type" : "VEC3"
        },
        {
            "bufferView" : 22,
            "componentType" : 5126,
            "count" : 222,
            "type" : "VEC4"
        },
        {
            "bufferView" : 23,
            "componentType" : 5126,
            "count" : 222,
            "type" : "VEC2"
        },
        {
            "bufferView" : 24,
            "componentType" : 5123,
            "count" : 696,
            "type" : "SCALAR"
        },
        {
            "bufferView" : 25,
            "componentType" : 5126,
            "count" : 24,
            "max" : [
                0.5000002384185791,
                0.5,
                0.5000002980232239
            ],
            "min" : [
                -0.5000001788139343,
                -0.5,
                -0.5000001788139343
            ],
            "type" : "VEC3"
        },
        {
            "bufferView" : 26,
            "componentType" : 5126,
            "count" : 24,
            "type" : "VEC3"
        },
        {
            "bufferView" : 27,
            "componentType" : 5123,
            "count" : 36,
            "type" : "SCALAR"
        }
    ],
    "bufferViews" : [
        {
            "buffer" : 0,
            "byteLength" : 23808,
            "byteOffset" : 0
        },
        {
            "buffer" : 0,
            "byteLength" : 23808,
            "byteOffset" : 23808
        },
        {
            "buffer" : 0,
            "byteLength" : 31744,
            "byteOffset" : 47616
        },
        {
            "buffer" : 0,
            "byteLength" : 15872,
            "byteOffset" : 79360
        },
        {
            "buffer" : 0,
            "byteLength" : 9456,
            "byteOffset" : 95232
        },
        {
            "buffer" : 0,
            "byteLength" : 128496,
            "byteOffset" : 104688
        },
        {
            "buffer" : 0,
            "byteLength" : 128496,
            "byteOffset" : 233184
        },
        {
            "buffer" : 0,
            "byteLength" : 171328,
            "byteOffset" : 361680
        },
        {
            "buffer" : 0,
            "byteLength" : 85664,
            "byteOffset" : 533008
        },
        {
            "buffer" : 0,
            "byteLength" : 36972,
            "byteOffset" : 618672
        },
        {
            "buffer" : 0,
            "byteLength" : 4908,
            "byteOffset" : 655644
        },
        {
            "buffer" : 0,
            "byteLength" : 4908,
            "byteOffset" : 660552
        },
        {
            "buffer" : 0,
            "byteLength" : 6544,
            "byteOffset" : 665460
        },
        {
            "buffer" : 0,
            "byteLength" : 3272,
            "byteOffset" : 672004
        },
        {
            "buffer" : 0,
            "byteLength" : 3420,
            "byteOffset" : 675276
        },
        {
            "buffer" : 0,
            "byteLength" : 13596,
            "byteOffset" : 678696
        },
        {
            "buffer" : 0,
            "byteLength" : 13596,
            "byteOffset" : 692292
        },
        {
            "buffer" : 0,
            "byteLength" : 18128,
            "byteOffset" : 705888
        },
        {
            "buffer" : 0,
            "byteLength" : 9064,
            "byteOffset" : 724016
        },
        {
            "buffer" : 0,
            "byteLength" : 6216,
            "byteOffset" : 733080
        },
        {
            "buffer" : 0,
            "byteLength" : 2664,
            "byteOffset" : 739296
        },
        {
            "buffer" : 0,
            "byteLength" : 2664,
            "byteOffset" : 741960
        },
        {
            "buffer" : 0,
            "byteLength" : 3552,
            "byteOffset" : 744624
        },
        {
            "buffer" : 0,
            "byteLength" : 1776,
            "byteOffset" : 748176
        },
        {
            "buffer" : 0,
            "byteLength" : 1392,
            "byteOffset" : 749952
        },
        {
            "buffer" : 0,
            "byteLength" : 288,
            "byteOffset" : 751344
        },
        {
            "buffer" : 0,
            "byteLength" : 288,
            "byteOffset" : 751632
        },
        {
            "buffer" : 0,
            "byteLength" : 72,
            "byteOffset" : 751920
        }
    ],
    "samplers" : [
        {
            "magFilter" : 9729,
            "minFilter" : 9987
        }
    ],
    "buffers" : [
        {
            "byteLength" : 751992,
            "uri" : "geotail.bin"
        }
    ]
}
