{
	"asset":{
		"generator":"Khronos glTF Blender I/O v3.6.27",
		"version":"2.0"
	},
	"scene":0,
	"scenes":[
		{
			"name":"Scene",
			"nodes":[
				0,
				1,
				2
			]
		}
	],
	"nodes":[
		{
			"mesh":0,
			"name":"BUS",
			"rotation":[
				0.70710688829422,
				0,
				0,
				0.7071066498756409
			],
			"translation":[
				-0.0027135894633829594,
				1.2817106246948242,
				0
			]
		},
		{
			"mesh":1,
			"name":"tex_02_AO",
			"rotation":[
				0.70710688829422,
				0,
				0,
				0.7071066498756409
			],
			"translation":[
				-0.0027135894633829594,
				1.2817106246948242,
				0
			]
		},
		{
			"mesh":2,
			"name":"tex_02_AO_dark",
			"rotation":[
				0.70710688829422,
				0,
				0,
				0.7071066498756409
			],
			"translation":[
				-0.0027135894633829594,
				1.2817106246948242,
				0
			]
		}
	],
	"materials":[
		{
			"doubleSided":true,
			"name":"tex_01",
			"normalTexture":{
				"index":0,
				"scale":0.5
			},
			"pbrMetallicRoughness":{
				"baseColorTexture":{
					"index":1
				},
				"metallicRoughnessTexture":{
					"index":2
				}
			}
		},
		{
			"doubleSided":true,
			"name":"brass.001",
			"pbrMetallicRoughness":{
				"baseColorFactor":[
					1,
					0.8259424567222595,
					0.3185468018054962,
					1
				],
				"roughnessFactor":0.3499999940395355
			}
		},
		{
			"doubleSided":true,
			"name":"black_krinkle",
			"normalTexture":{
				"index":3
			},
			"pbrMetallicRoughness":{
				"baseColorFactor":[
					0.01960664987564087,
					0.01960664987564087,
					0.01960664987564087,
					1
				],
				"metallicFactor":0,
				"roughnessFactor":0.6000000238418579
			}
		},
		{
			"doubleSided":true,
			"name":"tex_02_AO",
			"pbrMetallicRoughness":{
				"baseColorTexture":{
					"index":4
				},
				"metallicFactor":0,
				"roughnessFactor":0.5
			}
		},
		{
			"doubleSided":true,
			"name":"tex_02_AO_other",
			"pbrMetallicRoughness":{
				"baseColorTexture":{
					"index":5
				},
				"metallicFactor":0,
				"roughnessFactor":0.5
			}
		}
	],
	"meshes":[
		{
			"name":"BODY.040",
			"primitives":[
				{
					"attributes":{
						"POSITION":0,
						"NORMAL":1,
						"TEXCOORD_0":2,
						"TANGENT":3
					},
					"indices":4,
					"material":0
				},
				{
					"attributes":{
						"POSITION":5,
						"NORMAL":6,
						"TEXCOORD_0":7,
						"TANGENT":8
					},
					"indices":9,
					"material":1
				},
				{
					"attributes":{
						"POSITION":10,
						"NORMAL":11,
						"TEXCOORD_0":12,
						"TANGENT":13
					},
					"indices":14,
					"material":2
				}
			]
		},
		{
			"name":"BODY.000",
			"primitives":[
				{
					"attributes":{
						"POSITION":15,
						"NORMAL":16,
						"TEXCOORD_0":17,
						"TANGENT":18
					},
					"indices":19,
					"material":3
				}
			]
		},
		{
			"name":"BODY.002",
			"primitives":[
				{
					"attributes":{
						"POSITION":20,
						"NORMAL":21,
						"TEXCOORD_0":22,
						"TANGENT":23
					},
					"indices":24,
					"material":4
				}
			]
		}
	],
	"textures":[
		{
			"sampler":0,
			"source":0
		},
		{
			"sampler":0,
			"source":1
		},
		{
			"sampler":0,
			"source":2
		},
		{
			"sampler":0,
			"source":3
		},
		{
			"sampler":0,
			"source":4
		},
		{
			"sampler":0,
			"source":5
		}
	],
	"images":[
		{
			"mimeType":"image/png",
			"name":"voyager_normal",
			"uri":"voyager_normal.png"
		},
		{
			"mimeType":"image/jpeg",
			"name":"voyager_albedo",
			"uri":"voyager_albedo.jpg"
		},
		{
			"mimeType":"image/jpeg",
			"name":"voyager_pbr",
			"uri":"voyager_pbr.jpg"
		},
		{
			"mimeType":"image/png",
			"name":"foil_n",
			"uri":"foil_n.png"
		},
		{
			"mimeType":"image/png",
			"name":"dish_ao",
			"uri":"dish_ao.png"
		},
		{
			"mimeType":"image/png",
			"name":"dish_other_ao",
			"uri":"dish_other_ao.png"
		}
	],
	"accessors":[
		{
			"bufferView":0,
			"componentType":5126,
			"count":23822,
			"max":[
				1.22190523147583,
				12.700529098510742,
				2.4542288780212402
			],
			"min":[
				-0.99772709608078,
				-4.2085371017456055,
				-7.721958160400391
			],
			"type":"VEC3"
		},
		{
			"bufferView":1,
			"componentType":5126,
			"count":23822,
			"type":"VEC3"
		},
		{
			"bufferView":2,
			"componentType":5126,
			"count":23822,
			"type":"VEC2"
		},
		{
			"bufferView":3,
			"componentType":5126,
			"count":23822,
			"type":"VEC4"
		},
		{
			"bufferView":4,
			"componentType":5123,
			"count":48987,
			"type":"SCALAR"
		},
		{
			"bufferView":5,
			"componentType":5126,
			"count":36,
			"max":[
				3.8759188652038574,
				2.747720956802368,
				3.3154120445251465
			],
			"min":[
				-3.8763067722320557,
				1.0764590501785278,
				1.073880910873413
			],
			"type":"VEC3"
		},
		{
			"bufferView":6,
			"componentType":5126,
			"count":36,
			"type":"VEC3"
		},
		{
			"bufferView":7,
			"componentType":5126,
			"count":36,
			"type":"VEC2"
		},
		{
			"bufferView":8,
			"componentType":5126,
			"count":36,
			"type":"VEC4"
		},
		{
			"bufferView":9,
			"componentType":5123,
			"count":96,
			"type":"SCALAR"
		},
		{
			"bufferView":10,
			"componentType":5126,
			"count":650,
			"max":[
				0.8191700577735901,
				0.8396213054656982,
				1.0468038320541382
			],
			"min":[
				-0.8633439540863037,
				-0.842892587184906,
				0.6963802576065063
			],
			"type":"VEC3"
		},
		{
			"bufferView":11,
			"componentType":5126,
			"count":650,
			"type":"VEC3"
		},
		{
			"bufferView":12,
			"componentType":5126,
			"count":650,
			"type":"VEC2"
		},
		{
			"bufferView":13,
			"componentType":5126,
			"count":650,
			"type":"VEC4"
		},
		{
			"bufferView":14,
			"componentType":5123,
			"count":3765,
			"type":"SCALAR"
		},
		{
			"bufferView":15,
			"componentType":5126,
			"count":1781,
			"max":[
				1.9060672521591187,
				1.9060697555541992,
				0.5773927569389343
			],
			"min":[
				-1.9060672521591187,
				-1.9060697555541992,
				-1.0294886827468872
			],
			"type":"VEC3"
		},
		{
			"bufferView":16,
			"componentType":5126,
			"count":1781,
			"type":"VEC3"
		},
		{
			"bufferView":17,
			"componentType":5126,
			"count":1781,
			"type":"VEC2"
		},
		{
			"bufferView":18,
			"componentType":5126,
			"count":1781,
			"type":"VEC4"
		},
		{
			"bufferView":19,
			"componentType":5123,
			"count":6960,
			"type":"SCALAR"
		},
		{
			"bufferView":20,
			"componentType":5126,
			"count":616,
			"max":[
				0.9216865301132202,
				0.9216890335083008,
				0.6775355339050293
			],
			"min":[
				-0.921686589717865,
				-0.9216888546943665,
				0.27484238147735596
			],
			"type":"VEC3"
		},
		{
			"bufferView":21,
			"componentType":5126,
			"count":616,
			"type":"VEC3"
		},
		{
			"bufferView":22,
			"componentType":5126,
			"count":616,
			"type":"VEC2"
		},
		{
			"bufferView":23,
			"componentType":5126,
			"count":616,
			"type":"VEC4"
		},
		{
			"bufferView":24,
			"componentType":5123,
			"count":1368,
			"type":"SCALAR"
		}
	],
	"bufferViews":[
		{
			"buffer":0,
			"byteLength":285864,
			"byteOffset":0,
			"target":34962
		},
		{
			"buffer":0,
			"byteLength":285864,
			"byteOffset":285864,
			"target":34962
		},
		{
			"buffer":0,
			"byteLength":190576,
			"byteOffset":571728,
			"target":34962
		},
		{
			"buffer":0,
			"byteLength":381152,
			"byteOffset":762304,
			"target":34962
		},
		{
			"buffer":0,
			"byteLength":97974,
			"byteOffset":1143456,
			"target":34963
		},
		{
			"buffer":0,
			"byteLength":432,
			"byteOffset":1241432,
			"target":34962
		},
		{
			"buffer":0,
			"byteLength":432,
			"byteOffset":1241864,
			"target":34962
		},
		{
			"buffer":0,
			"byteLength":288,
			"byteOffset":1242296,
			"target":34962
		},
		{
			"buffer":0,
			"byteLength":576,
			"byteOffset":1242584,
			"target":34962
		},
		{
			"buffer":0,
			"byteLength":192,
			"byteOffset":1243160,
			"target":34963
		},
		{
			"buffer":0,
			"byteLength":7800,
			"byteOffset":1243352,
			"target":34962
		},
		{
			"buffer":0,
			"byteLength":7800,
			"byteOffset":1251152,
			"target":34962
		},
		{
			"buffer":0,
			"byteLength":5200,
			"byteOffset":1258952,
			"target":34962
		},
		{
			"buffer":0,
			"byteLength":10400,
			"byteOffset":1264152,
			"target":34962
		},
		{
			"buffer":0,
			"byteLength":7530,
			"byteOffset":1274552,
			"target":34963
		},
		{
			"buffer":0,
			"byteLength":21372,
			"byteOffset":1282084,
			"target":34962
		},
		{
			"buffer":0,
			"byteLength":21372,
			"byteOffset":1303456,
			"target":34962
		},
		{
			"buffer":0,
			"byteLength":14248,
			"byteOffset":1324828,
			"target":34962
		},
		{
			"buffer":0,
			"byteLength":28496,
			"byteOffset":1339076,
			"target":34962
		},
		{
			"buffer":0,
			"byteLength":13920,
			"byteOffset":1367572,
			"target":34963
		},
		{
			"buffer":0,
			"byteLength":7392,
			"byteOffset":1381492,
			"target":34962
		},
		{
			"buffer":0,
			"byteLength":7392,
			"byteOffset":1388884,
			"target":34962
		},
		{
			"buffer":0,
			"byteLength":4928,
			"byteOffset":1396276,
			"target":34962
		},
		{
			"buffer":0,
			"byteLength":9856,
			"byteOffset":1401204,
			"target":34962
		},
		{
			"buffer":0,
			"byteLength":2736,
			"byteOffset":1411060,
			"target":34963
		}
	],
	"samplers":[
		{
			"magFilter":9729,
			"minFilter":9987
		}
	],
	"buffers":[
		{
			"byteLength":1413796,
			"uri":"voyager.bin"
		}
	]
}
