{
    "asset" : {
        "generator" : "Khronos glTF Blender I/O v1.3.48",
        "version" : "2.0"
    },
    "scene" : 0,
    "scenes" : [
        {
            "name" : "Scene",
            "nodes" : [
                8
            ]
        }
    ],
    "nodes" : [
        {
            "mesh" : 0,
            "name" : "alpha"
        },
        {
            "mesh" : 1,
            "name" : "AO_1"
        },
        {
            "mesh" : 2,
            "name" : "AO_dish"
        },
        {
            "mesh" : 3,
            "name" : "AO_rtg"
        },
        {
            "mesh" : 4,
            "name" : "foil_gold"
        },
        {
            "mesh" : 5,
            "name" : "normal_silver"
        },
        {
            "mesh" : 6,
            "name" : "silver"
        },
        {
            "mesh" : 7,
            "name" : "tex_01"
        },
        {
            "children" : [
                0,
                1,
                2,
                3,
                4,
                5,
                6,
                7
            ],
            "mesh" : 8,
            "name" : "Pioneer"
        }
    ],
    "materials" : [
        {
            "alphaMode" : "BLEND",
            "doubleSided" : true,
            "emissiveFactor" : [
                0,
                0,
                0
            ],
            "name" : "alpha",
            "pbrMetallicRoughness" : {
                "baseColorTexture" : {
                    "index" : 0,
                    "texCoord" : 0
                },
                "metallicRoughnessTexture" : {
                    "index" : 1,
                    "texCoord" : 0
                }
            }
        },
        {
            "emissiveFactor" : [
                0,
                0,
                0
            ],
            "name" : "AO_1",
            "pbrMetallicRoughness" : {
                "baseColorTexture" : {
                    "index" : 2,
                    "texCoord" : 0
                },
                "metallicFactor" : 1,
                "roughnessFactor" : 0.3499999940395355
            }
        },
        {
            "emissiveFactor" : [
                0,
                0,
                0
            ],
            "name" : "AO_dish",
            "pbrMetallicRoughness" : {
                "baseColorTexture" : {
                    "index" : 3,
                    "texCoord" : 0
                },
                "metallicFactor" : 0.10000000149011612,
                "roughnessFactor" : 0.5
            }
        },
        {
            "emissiveFactor" : [
                0,
                0,
                0
            ],
            "name" : "AO_rtg",
            "pbrMetallicRoughness" : {
                "baseColorFactor" : [
                    0.020510194823145866,
                    0.020510194823145866,
                    0.020510194823145866,
                    1
                ],
                "metallicRoughnessTexture" : {
                    "index" : 4,
                    "texCoord" : 0
                },
                "roughnessFactor" : 0.6090909242630005
            }
        },
        {
            "emissiveFactor" : [
                0,
                0,
                0
            ],
            "name" : "foil_gold.001",
            "normalTexture" : {
                "index" : 5,
                "texCoord" : 0
            },
            "pbrMetallicRoughness" : {
                "baseColorFactor" : [
                    0.9999998807907104,
                    0.6583749055862427,
                    0.08228273689746857,
                    1
                ],
                "metallicFactor" : 1,
                "roughnessFactor" : 0.30000001192092896
            }
        },
        {
            "emissiveFactor" : [
                0,
                0,
                0
            ],
            "name" : "normal_silver",
            "pbrMetallicRoughness" : {
                "baseColorFactor" : [
                    0.5830618143081665,
                    0.5830612778663635,
                    0.5830618143081665,
                    1
                ],
                "metallicFactor" : 1,
                "roughnessFactor" : 0.3499999940395355
            }
        },
        {
            "emissiveFactor" : [
                0,
                0,
                0
            ],
            "name" : "silver",
            "pbrMetallicRoughness" : {
                "baseColorFactor" : [
                    1,
                    0.999999463558197,
                    1,
                    1
                ],
                "metallicFactor" : 1,
                "roughnessFactor" : 0.30000001192092896
            }
        },
        {
            "emissiveFactor" : [
                0,
                0,
                0
            ],
            "name" : "tex_01",
            "pbrMetallicRoughness" : {
                "baseColorTexture" : {
                    "index" : 6,
                    "texCoord" : 0
                },
                "metallicFactor" : 1,
                "roughnessFactor" : 0.3499999940395355
            }
        },
        {
            "emissiveFactor" : [
                0,
                0,
                0
            ],
            "name" : "foil_silver.001",
            "normalTexture" : {
                "index" : 7,
                "texCoord" : 0
            },
            "pbrMetallicRoughness" : {
                "baseColorFactor" : [
                    1,
                    0.999999463558197,
                    1,
                    1
                ],
                "metallicFactor" : 1,
                "roughnessFactor" : 0.30000001192092896
            }
        }
    ],
    "meshes" : [
        {
            "name" : "Pioneer.042",
            "primitives" : [
                {
                    "attributes" : {
                        "POSITION" : 0,
                        "NORMAL" : 1,
                        "TEXCOORD_0" : 2
                    },
                    "indices" : 3,
                    "material" : 0
                }
            ]
        },
        {
            "name" : "Pioneer.030",
            "primitives" : [
                {
                    "attributes" : {
                        "POSITION" : 4,
                        "NORMAL" : 5,
                        "TEXCOORD_0" : 6
                    },
                    "indices" : 7,
                    "material" : 1
                }
            ]
        },
        {
            "name" : "Pioneer.014",
            "primitives" : [
                {
                    "attributes" : {
                        "POSITION" : 8,
                        "NORMAL" : 9,
                        "TEXCOORD_0" : 10
                    },
                    "indices" : 11,
                    "material" : 2
                }
            ]
        },
        {
            "name" : "Pioneer.005",
            "primitives" : [
                {
                    "attributes" : {
                        "POSITION" : 12,
                        "NORMAL" : 13,
                        "TEXCOORD_0" : 14
                    },
                    "indices" : 15,
                    "material" : 3
                }
            ]
        },
        {
            "name" : "Pioneer.020",
            "primitives" : [
                {
                    "attributes" : {
                        "POSITION" : 16,
                        "NORMAL" : 17,
                        "TEXCOORD_0" : 18
                    },
                    "indices" : 19,
                    "material" : 4
                }
            ]
        },
        {
            "name" : "Pioneer.031",
            "primitives" : [
                {
                    "attributes" : {
                        "POSITION" : 20,
                        "NORMAL" : 21,
                        "TEXCOORD_0" : 22
                    },
                    "indices" : 23,
                    "material" : 5
                }
            ]
        },
        {
            "name" : "Pioneer.040",
            "primitives" : [
                {
                    "attributes" : {
                        "POSITION" : 24,
                        "NORMAL" : 25,
                        "TEXCOORD_0" : 26
                    },
                    "indices" : 27,
                    "material" : 6
                }
            ]
        },
        {
            "name" : "Pioneer.022",
            "primitives" : [
                {
                    "attributes" : {
                        "POSITION" : 28,
                        "NORMAL" : 29,
                        "TEXCOORD_0" : 30
                    },
                    "indices" : 31,
                    "material" : 7
                }
            ]
        },
        {
            "name" : "Pioneer.007",
            "primitives" : [
                {
                    "attributes" : {
                        "POSITION" : 32,
                        "NORMAL" : 33,
                        "TEXCOORD_0" : 34
                    },
                    "indices" : 35,
                    "material" : 8
                }
            ]
        }
    ],
    "textures" : [
        {
            "source" : 0
        },
        {
            "source" : 1
        },
        {
            "source" : 2
        },
        {
            "source" : 3
        },
        {
            "source" : 4
        },
        {
            "source" : 5
        },
        {
            "source" : 6
        },
        {
            "source" : 7
        }
    ],
    "images" : [
        {
            "mimeType" : "image/png",
            "name" : "40_gray",
            "uri" : "40_gray.png"
        },
        {
            "mimeType" : "image/png",
            "name" : "40_gray",
            "uri" : "40_gray-1.png"
        },
        {
            "mimeType" : "image/png",
            "name" : "pioneer_1_ao",
            "uri" : "pioneer_1_ao.png"
        },
        {
            "mimeType" : "image/png",
            "name" : "pioneer_dish_ao",
            "uri" : "pioneer_dish_ao.png"
        },
        {
            "mimeType" : "image/png",
            "name" : "pioneer_AO_rtg",
            "uri" : "pioneer_ao_rtg.png"
        },
        {
            "mimeType" : "image/png",
            "name" : "foil_n",
            "uri" : "foil_n.png"
        },
        {
            "mimeType" : "image/png",
            "name" : "pioneer_albedo",
            "uri" : "pioneer_albedo.png"
        },
        {
            "mimeType" : "image/jpeg",
            "name" : "foil_n",
            "uri" : "foil_n-1.jpg"
        }
    ],
    "accessors" : [
        {
            "bufferView" : 0,
            "componentType" : 5126,
            "count" : 6,
            "max" : [
                0.14360499382019043,
                0.8747872114181519,
                0.38422077894210815
            ],
            "min" : [
                -0.14992952346801758,
                0.5330414175987244,
                0.2822128236293793
            ],
            "type" : "VEC3"
        },
        {
            "bufferView" : 1,
            "componentType" : 5126,
            "count" : 6,
            "type" : "VEC3"
        },
        {
            "bufferView" : 2,
            "componentType" : 5126,
            "count" : 6,
            "type" : "VEC2"
        },
        {
            "bufferView" : 3,
            "componentType" : 5123,
            "count" : 6,
            "type" : "SCALAR"
        },
        {
            "bufferView" : 4,
            "componentType" : 5126,
            "count" : 78,
            "max" : [
                0.2112269401550293,
                0.16879823803901672,
                0.26944267749786377
            ],
            "min" : [
                -0.8693767189979553,
                -0.4569834768772125,
                -1.179614782333374
            ],
            "type" : "VEC3"
        },
        {
            "bufferView" : 5,
            "componentType" : 5126,
            "count" : 78,
            "type" : "VEC3"
        },
        {
            "bufferView" : 6,
            "componentType" : 5126,
            "count" : 78,
            "type" : "VEC2"
        },
        {
            "bufferView" : 7,
            "componentType" : 5123,
            "count" : 96,
            "type" : "SCALAR"
        },
        {
            "bufferView" : 8,
            "componentType" : 5126,
            "count" : 807,
            "max" : [
                1.369993805885315,
                1.4121578931808472,
                0.007113724946975708
            ],
            "min" : [
                -1.369993805885315,
                -1.4155728816986084,
                -1.7805203199386597
            ],
            "type" : "VEC3"
        },
        {
            "bufferView" : 9,
            "componentType" : 5126,
            "count" : 807,
            "type" : "VEC3"
        },
        {
            "bufferView" : 10,
            "componentType" : 5126,
            "count" : 807,
            "type" : "VEC2"
        },
        {
            "bufferView" : 11,
            "componentType" : 5123,
            "count" : 3756,
            "type" : "SCALAR"
        },
        {
            "bufferView" : 12,
            "componentType" : 5126,
            "count" : 1902,
            "max" : [
                2.25583553314209,
                1.377278447151184,
                0.22637587785720825
            ],
            "min" : [
                -2.2603816986083984,
                0.9682853817939758,
                -0.07597056776285172
            ],
            "type" : "VEC3"
        },
        {
            "bufferView" : 13,
            "componentType" : 5126,
            "count" : 1902,
            "type" : "VEC3"
        },
        {
            "bufferView" : 14,
            "componentType" : 5126,
            "count" : 1902,
            "type" : "VEC2"
        },
        {
            "bufferView" : 15,
            "componentType" : 5123,
            "count" : 4332,
            "type" : "SCALAR"
        },
        {
            "bufferView" : 16,
            "componentType" : 5126,
            "count" : 1014,
            "max" : [
                1.3899314403533936,
                0.4280715882778168,
                0.6990538835525513
            ],
            "min" : [
                -1.3954367637634277,
                -6.744184970855713,
                -1.179614782333374
            ],
            "type" : "VEC3"
        },
        {
            "bufferView" : 17,
            "componentType" : 5126,
            "count" : 1014,
            "type" : "VEC3"
        },
        {
            "bufferView" : 18,
            "componentType" : 5126,
            "count" : 1014,
            "type" : "VEC2"
        },
        {
            "bufferView" : 19,
            "componentType" : 5123,
            "count" : 2154,
            "type" : "SCALAR"
        },
        {
            "bufferView" : 20,
            "componentType" : 5126,
            "count" : 76,
            "max" : [
                1.1252187490463257,
                0.5414587259292603,
                -0.1155809760093689
            ],
            "min" : [
                -1.1541006565093994,
                -1.175665259361267,
                -0.37097474932670593
            ],
            "type" : "VEC3"
        },
        {
            "bufferView" : 21,
            "componentType" : 5126,
            "count" : 76,
            "type" : "VEC3"
        },
        {
            "bufferView" : 22,
            "componentType" : 5126,
            "count" : 76,
            "type" : "VEC2"
        },
        {
            "bufferView" : 23,
            "componentType" : 5123,
            "count" : 78,
            "type" : "SCALAR"
        },
        {
            "bufferView" : 24,
            "componentType" : 5126,
            "count" : 4069,
            "max" : [
                1.1252187490463257,
                0.8927605748176575,
                0.44803550839424133
            ],
            "min" : [
                -1.3857733011245728,
                -1.175665259361267,
                -1.5371149778366089
            ],
            "type" : "VEC3"
        },
        {
            "bufferView" : 25,
            "componentType" : 5126,
            "count" : 4069,
            "type" : "VEC3"
        },
        {
            "bufferView" : 26,
            "componentType" : 5126,
            "count" : 4069,
            "type" : "VEC2"
        },
        {
            "bufferView" : 27,
            "componentType" : 5123,
            "count" : 8148,
            "type" : "SCALAR"
        },
        {
            "bufferView" : 28,
            "componentType" : 5126,
            "count" : 2251,
            "max" : [
                2.06724214553833,
                1.2308964729309082,
                0.7494929432868958
            ],
            "min" : [
                -2.069650650024414,
                -6.829837799072266,
                -1.791386365890503
            ],
            "type" : "VEC3"
        },
        {
            "bufferView" : 29,
            "componentType" : 5126,
            "count" : 2251,
            "type" : "VEC3"
        },
        {
            "bufferView" : 30,
            "componentType" : 5126,
            "count" : 2251,
            "type" : "VEC2"
        },
        {
            "bufferView" : 31,
            "componentType" : 5123,
            "count" : 4752,
            "type" : "SCALAR"
        },
        {
            "bufferView" : 32,
            "componentType" : 5126,
            "count" : 562,
            "max" : [
                1.3899314403533936,
                0.4280778765678406,
                0.2850448489189148
            ],
            "min" : [
                -1.3954367637634277,
                -0.7769598960876465,
                -0.5463858842849731
            ],
            "type" : "VEC3"
        },
        {
            "bufferView" : 33,
            "componentType" : 5126,
            "count" : 562,
            "type" : "VEC3"
        },
        {
            "bufferView" : 34,
            "componentType" : 5126,
            "count" : 562,
            "type" : "VEC2"
        },
        {
            "bufferView" : 35,
            "componentType" : 5123,
            "count" : 1263,
            "type" : "SCALAR"
        }
    ],
    "bufferViews" : [
        {
            "buffer" : 0,
            "byteLength" : 72,
            "byteOffset" : 0
        },
        {
            "buffer" : 0,
            "byteLength" : 72,
            "byteOffset" : 72
        },
        {
            "buffer" : 0,
            "byteLength" : 48,
            "byteOffset" : 144
        },
        {
            "buffer" : 0,
            "byteLength" : 12,
            "byteOffset" : 192
        },
        {
            "buffer" : 0,
            "byteLength" : 936,
            "byteOffset" : 204
        },
        {
            "buffer" : 0,
            "byteLength" : 936,
            "byteOffset" : 1140
        },
        {
            "buffer" : 0,
            "byteLength" : 624,
            "byteOffset" : 2076
        },
        {
            "buffer" : 0,
            "byteLength" : 192,
            "byteOffset" : 2700
        },
        {
            "buffer" : 0,
            "byteLength" : 9684,
            "byteOffset" : 2892
        },
        {
            "buffer" : 0,
            "byteLength" : 9684,
            "byteOffset" : 12576
        },
        {
            "buffer" : 0,
            "byteLength" : 6456,
            "byteOffset" : 22260
        },
        {
            "buffer" : 0,
            "byteLength" : 7512,
            "byteOffset" : 28716
        },
        {
            "buffer" : 0,
            "byteLength" : 22824,
            "byteOffset" : 36228
        },
        {
            "buffer" : 0,
            "byteLength" : 22824,
            "byteOffset" : 59052
        },
        {
            "buffer" : 0,
            "byteLength" : 15216,
            "byteOffset" : 81876
        },
        {
            "buffer" : 0,
            "byteLength" : 8664,
            "byteOffset" : 97092
        },
        {
            "buffer" : 0,
            "byteLength" : 12168,
            "byteOffset" : 105756
        },
        {
            "buffer" : 0,
            "byteLength" : 12168,
            "byteOffset" : 117924
        },
        {
            "buffer" : 0,
            "byteLength" : 8112,
            "byteOffset" : 130092
        },
        {
            "buffer" : 0,
            "byteLength" : 4308,
            "byteOffset" : 138204
        },
        {
            "buffer" : 0,
            "byteLength" : 912,
            "byteOffset" : 142512
        },
        {
            "buffer" : 0,
            "byteLength" : 912,
            "byteOffset" : 143424
        },
        {
            "buffer" : 0,
            "byteLength" : 608,
            "byteOffset" : 144336
        },
        {
            "buffer" : 0,
            "byteLength" : 156,
            "byteOffset" : 144944
        },
        {
            "buffer" : 0,
            "byteLength" : 48828,
            "byteOffset" : 145100
        },
        {
            "buffer" : 0,
            "byteLength" : 48828,
            "byteOffset" : 193928
        },
        {
            "buffer" : 0,
            "byteLength" : 32552,
            "byteOffset" : 242756
        },
        {
            "buffer" : 0,
            "byteLength" : 16296,
            "byteOffset" : 275308
        },
        {
            "buffer" : 0,
            "byteLength" : 27012,
            "byteOffset" : 291604
        },
        {
            "buffer" : 0,
            "byteLength" : 27012,
            "byteOffset" : 318616
        },
        {
            "buffer" : 0,
            "byteLength" : 18008,
            "byteOffset" : 345628
        },
        {
            "buffer" : 0,
            "byteLength" : 9504,
            "byteOffset" : 363636
        },
        {
            "buffer" : 0,
            "byteLength" : 6744,
            "byteOffset" : 373140
        },
        {
            "buffer" : 0,
            "byteLength" : 6744,
            "byteOffset" : 379884
        },
        {
            "buffer" : 0,
            "byteLength" : 4496,
            "byteOffset" : 386628
        },
        {
            "buffer" : 0,
            "byteLength" : 2526,
            "byteOffset" : 391124
        }
    ],
    "buffers" : [
        {
            "byteLength" : 393652,
            "uri" : "pioneer.bin"
        }
    ]
}
