{
    "asset" : {
        "generator" : "Khronos glTF Blender I/O v1.8.19",
        "version" : "2.0"
    },
    "scene" : 0,
    "scenes" : [
        {
            "name" : "Scene",
            "nodes" : [
                1
            ]
        }
    ],
    "nodes" : [
        {
            "mesh" : 0,
            "name" : "antenna",
            "rotation" : [
                0,
                0,
                0.4617486298084259,
                0.8870108127593994
            ],
            "translation" : [
                0,
                0.16797368228435516,
                0
            ]
        },
        {
            "children" : [
                0
            ],
            "mesh" : 1,
            "name" : "GRIFEX",
            "rotation" : [
                0,
                1,
                0,
                7.549790126404332e-08
            ]
        }
    ],
    "materials" : [
        {
            "name" : "tex_01",
            "normalTexture" : {
                "index" : 0
            },
            "pbrMetallicRoughness" : {
                "baseColorTexture" : {
                    "index" : 1
                },
                "metallicRoughnessTexture" : {
                    "index" : 2
                }
            }
        }
    ],
    "meshes" : [
        {
            "name" : "ac0_object.001",
            "primitives" : [
                {
                    "attributes" : {
                        "POSITION" : 0,
                        "NORMAL" : 1,
                        "TANGENT" : 2,
                        "TEXCOORD_0" : 3
                    },
                    "indices" : 4,
                    "material" : 0
                }
            ]
        },
        {
            "name" : "Cube.001",
            "primitives" : [
                {
                    "attributes" : {
                        "POSITION" : 5,
                        "NORMAL" : 6,
                        "TANGENT" : 7,
                        "TEXCOORD_0" : 8
                    },
                    "indices" : 9,
                    "material" : 0
                }
            ]
        }
    ],
    "textures" : [
        {
            "sampler" : 0,
            "source" : 0
        },
        {
            "sampler" : 0,
            "source" : 1
        },
        {
            "sampler" : 0,
            "source" : 2
        }
    ],
    "images" : [
        {
            "mimeType" : "image/png",
            "name" : "grifex_normal",
            "uri" : "grifex_normal.png"
        },
        {
            "mimeType" : "image/jpeg",
            "name" : "grifex_albedo",
            "uri" : "grifex_albedo.jpg"
        },
        {
            "mimeType" : "image/jpeg",
            "name" : "grifex_pbr",
            "uri" : "grifex_pbr.jpg"
        }
    ],
    "accessors" : [
        {
            "bufferView" : 0,
            "componentType" : 5126,
            "count" : 56,
            "max" : [
                0.12807729840278625,
                0.08936206996440887,
                0.006350010167807341
            ],
            "min" : [
                -0.0027584454510360956,
                -0.0028755576349794865,
                -0.0063500250689685345
            ],
            "type" : "VEC3"
        },
        {
            "bufferView" : 1,
            "componentType" : 5126,
            "count" : 56,
            "type" : "VEC3"
        },
        {
            "bufferView" : 2,
            "componentType" : 5126,
            "count" : 56,
            "type" : "VEC4"
        },
        {
            "bufferView" : 3,
            "componentType" : 5126,
            "count" : 56,
            "type" : "VEC2"
        },
        {
            "bufferView" : 4,
            "componentType" : 5123,
            "count" : 84,
            "type" : "SCALAR"
        },
        {
            "bufferView" : 5,
            "componentType" : 5126,
            "count" : 1041,
            "max" : [
                0.050000034272670746,
                0.17532189190387726,
                0.050000034272670746
            ],
            "min" : [
                -0.05245627462863922,
                -0.17025016248226166,
                -0.050000037997961044
            ],
            "type" : "VEC3"
        },
        {
            "bufferView" : 6,
            "componentType" : 5126,
            "count" : 1041,
            "type" : "VEC3"
        },
        {
            "bufferView" : 7,
            "componentType" : 5126,
            "count" : 1041,
            "type" : "VEC4"
        },
        {
            "bufferView" : 8,
            "componentType" : 5126,
            "count" : 1041,
            "type" : "VEC2"
        },
        {
            "bufferView" : 9,
            "componentType" : 5123,
            "count" : 1590,
            "type" : "SCALAR"
        }
    ],
    "bufferViews" : [
        {
            "buffer" : 0,
            "byteLength" : 672,
            "byteOffset" : 0
        },
        {
            "buffer" : 0,
            "byteLength" : 672,
            "byteOffset" : 672
        },
        {
            "buffer" : 0,
            "byteLength" : 896,
            "byteOffset" : 1344
        },
        {
            "buffer" : 0,
            "byteLength" : 448,
            "byteOffset" : 2240
        },
        {
            "buffer" : 0,
            "byteLength" : 168,
            "byteOffset" : 2688
        },
        {
            "buffer" : 0,
            "byteLength" : 12492,
            "byteOffset" : 2856
        },
        {
            "buffer" : 0,
            "byteLength" : 12492,
            "byteOffset" : 15348
        },
        {
            "buffer" : 0,
            "byteLength" : 16656,
            "byteOffset" : 27840
        },
        {
            "buffer" : 0,
            "byteLength" : 8328,
            "byteOffset" : 44496
        },
        {
            "buffer" : 0,
            "byteLength" : 3180,
            "byteOffset" : 52824
        }
    ],
    "samplers" : [
        {
            "magFilter" : 9729,
            "minFilter" : 9987
        }
    ],
    "buffers" : [
        {
            "byteLength" : 56004,
            "uri" : "grifex.bin"
        }
    ]
}
