{
    "asset" : {
        "generator" : "Khronos glTF Blender I/O v1.8.19",
        "version" : "2.0"
    },
    "scene" : 0,
    "scenes" : [
        {
            "name" : "Scene",
            "nodes" : [
                6
            ]
        }
    ],
    "nodes" : [
        {
            "mesh" : 0,
            "name" : "Array"
        },
        {
            "mesh" : 1,
            "name" : "array_support",
            "translation" : [
                -1.4413597583770752,
                -0.00878774095326662,
                -9.84409125521779e-05
            ]
        },
        {
            "mesh" : 2,
            "name" : "BUS_brass"
        },
        {
            "mesh" : 3,
            "name" : "foil_boxes"
        },
        {
            "mesh" : 4,
            "name" : "reflectors",
            "translation" : [
                4.0732943489274476e-06,
                0,
                0
            ]
        },
        {
            "mesh" : 5,
            "name" : "star_tracker"
        },
        {
            "children" : [
                0,
                1,
                2,
                3,
                4,
                5
            ],
            "mesh" : 6,
            "name" : "BUS"
        }
    ],
    "materials" : [
        {
            "name" : "DIFFUSE",
            "normalTexture" : {
                "index" : 0
            },
            "pbrMetallicRoughness" : {
                "baseColorTexture" : {
                    "index" : 1
                },
                "metallicRoughnessTexture" : {
                    "index" : 2
                }
            }
        },
        {
            "name" : "shiny_panels.002",
            "normalTexture" : {
                "index" : 3,
                "scale" : 0.20000000298023224
            },
            "pbrMetallicRoughness" : {
                "baseColorTexture" : {
                    "index" : 4
                },
                "metallicRoughnessTexture" : {
                    "index" : 5
                }
            }
        },
        {
            "name" : "gunmetal",
            "pbrMetallicRoughness" : {
                "baseColorFactor" : [
                    0.3012221157550812,
                    0.2849656343460083,
                    0.2849656343460083,
                    1
                ],
                "roughnessFactor" : 0.3499999940395355
            }
        },
        {
            "name" : "foil_silver.014",
            "normalTexture" : {
                "index" : 6
            },
            "pbrMetallicRoughness" : {
                "baseColorFactor" : [
                    1,
                    0.999999463558197,
                    1,
                    1
                ],
                "roughnessFactor" : 0.30000001192092896
            }
        },
        {
            "name" : "_reflectors",
            "pbrMetallicRoughness" : {
                "baseColorFactor" : [
                    0.800000011920929,
                    0.800000011920929,
                    0.800000011920929,
                    1
                ],
                "roughnessFactor" : 0.08636364340782166
            }
        },
        {
            "name" : "foil_orange",
            "normalTexture" : {
                "index" : 7
            },
            "pbrMetallicRoughness" : {
                "baseColorFactor" : [
                    1,
                    0.3290739059448242,
                    0,
                    1
                ],
                "roughnessFactor" : 0.30000001192092896
            }
        },
        {
            "name" : "foil_white",
            "normalTexture" : {
                "index" : 8
            },
            "pbrMetallicRoughness" : {
                "metallicFactor" : 0.25,
                "roughnessFactor" : 0.6000000238418579
            }
        },
        {
            "name" : "_dark",
            "pbrMetallicRoughness" : {
                "baseColorFactor" : [
                    0,
                    0,
                    0,
                    1
                ],
                "metallicFactor" : 0,
                "roughnessFactor" : 0.8500000238418579
            }
        }
    ],
    "meshes" : [
        {
            "name" : "Group 2.003",
            "primitives" : [
                {
                    "attributes" : {
                        "POSITION" : 0,
                        "NORMAL" : 1,
                        "TANGENT" : 2,
                        "TEXCOORD_0" : 3
                    },
                    "indices" : 4,
                    "material" : 0
                },
                {
                    "attributes" : {
                        "POSITION" : 5,
                        "NORMAL" : 6,
                        "TANGENT" : 7,
                        "TEXCOORD_0" : 8
                    },
                    "indices" : 9,
                    "material" : 1
                }
            ]
        },
        {
            "name" : "Group 13.003",
            "primitives" : [
                {
                    "attributes" : {
                        "POSITION" : 10,
                        "NORMAL" : 11,
                        "TANGENT" : 12,
                        "TEXCOORD_0" : 13
                    },
                    "indices" : 14,
                    "material" : 2
                }
            ]
        },
        {
            "name" : "Group 2.001",
            "primitives" : [
                {
                    "attributes" : {
                        "POSITION" : 15,
                        "NORMAL" : 16,
                        "TEXCOORD_0" : 17
                    },
                    "indices" : 18,
                    "material" : 0
                }
            ]
        },
        {
            "name" : "Group 11.002",
            "primitives" : [
                {
                    "attributes" : {
                        "POSITION" : 19,
                        "NORMAL" : 20,
                        "TANGENT" : 21,
                        "TEXCOORD_0" : 22
                    },
                    "indices" : 23,
                    "material" : 3
                }
            ]
        },
        {
            "name" : "Group 2.015",
            "primitives" : [
                {
                    "attributes" : {
                        "POSITION" : 24,
                        "NORMAL" : 25,
                        "TANGENT" : 26,
                        "TEXCOORD_0" : 27
                    },
                    "indices" : 28,
                    "material" : 4
                }
            ]
        },
        {
            "name" : "Group 9.005",
            "primitives" : [
                {
                    "attributes" : {
                        "POSITION" : 29,
                        "NORMAL" : 30,
                        "TANGENT" : 31,
                        "TEXCOORD_0" : 32
                    },
                    "indices" : 33,
                    "material" : 5
                }
            ]
        },
        {
            "name" : "Group 2",
            "primitives" : [
                {
                    "attributes" : {
                        "POSITION" : 34,
                        "NORMAL" : 35,
                        "TEXCOORD_0" : 36
                    },
                    "indices" : 37,
                    "material" : 5
                },
                {
                    "attributes" : {
                        "POSITION" : 38,
                        "NORMAL" : 39,
                        "TEXCOORD_0" : 40
                    },
                    "indices" : 41,
                    "material" : 6
                },
                {
                    "attributes" : {
                        "POSITION" : 42,
                        "NORMAL" : 43,
                        "TEXCOORD_0" : 44
                    },
                    "indices" : 45,
                    "material" : 7
                }
            ]
        }
    ],
    "textures" : [
        {
            "sampler" : 0,
            "source" : 0
        },
        {
            "sampler" : 0,
            "source" : 1
        },
        {
            "sampler" : 0,
            "source" : 2
        },
        {
            "sampler" : 0,
            "source" : 0
        },
        {
            "sampler" : 0,
            "source" : 1
        },
        {
            "sampler" : 0,
            "source" : 2
        },
        {
            "sampler" : 0,
            "source" : 3
        },
        {
            "sampler" : 0,
            "source" : 3
        },
        {
            "sampler" : 0,
            "source" : 3
        }
    ],
    "images" : [
        {
            "mimeType" : "image/png",
            "name" : "lcross_normal",
            "uri" : "lcross_normal.png"
        },
        {
            "mimeType" : "image/jpeg",
            "name" : "lcross_albedo",
            "uri" : "lcross_albedo.jpg"
        },
        {
            "mimeType" : "image/jpeg",
            "name" : "lcross_pbr",
            "uri" : "lcross_pbr.jpg"
        },
        {
            "mimeType" : "image/png",
            "name" : "foil_normal",
            "uri" : "foil_normal.png"
        }
    ],
    "accessors" : [
        {
            "bufferView" : 0,
            "componentType" : 5126,
            "count" : 66,
            "max" : [
                -1.450846791267395,
                0.9225074052810669,
                0.949494481086731
            ],
            "min" : [
                -1.5011967420578003,
                -0.9484266042709351,
                -0.9495298266410828
            ],
            "type" : "VEC3"
        },
        {
            "bufferView" : 1,
            "componentType" : 5126,
            "count" : 66,
            "type" : "VEC3"
        },
        {
            "bufferView" : 2,
            "componentType" : 5126,
            "count" : 66,
            "type" : "VEC4"
        },
        {
            "bufferView" : 3,
            "componentType" : 5126,
            "count" : 66,
            "type" : "VEC2"
        },
        {
            "bufferView" : 4,
            "componentType" : 5123,
            "count" : 132,
            "type" : "SCALAR"
        },
        {
            "bufferView" : 5,
            "componentType" : 5126,
            "count" : 6,
            "max" : [
                -1.5011967420578003,
                0.9185797572135925,
                0.8488795757293701
            ],
            "min" : [
                -1.5011967420578003,
                -0.9414567351341248,
                -0.8488919734954834
            ],
            "type" : "VEC3"
        },
        {
            "bufferView" : 6,
            "componentType" : 5126,
            "count" : 6,
            "type" : "VEC3"
        },
        {
            "bufferView" : 7,
            "componentType" : 5126,
            "count" : 6,
            "type" : "VEC4"
        },
        {
            "bufferView" : 8,
            "componentType" : 5126,
            "count" : 6,
            "type" : "VEC2"
        },
        {
            "bufferView" : 9,
            "componentType" : 5123,
            "count" : 12,
            "type" : "SCALAR"
        },
        {
            "bufferView" : 10,
            "componentType" : 5126,
            "count" : 212,
            "max" : [
                0.010107379406690598,
                0.6554369926452637,
                0.6225897669792175
            ],
            "min" : [
                -0.010107412002980709,
                -0.672784149646759,
                -0.6225900650024414
            ],
            "type" : "VEC3"
        },
        {
            "bufferView" : 11,
            "componentType" : 5126,
            "count" : 212,
            "type" : "VEC3"
        },
        {
            "bufferView" : 12,
            "componentType" : 5126,
            "count" : 212,
            "type" : "VEC4"
        },
        {
            "bufferView" : 13,
            "componentType" : 5126,
            "count" : 212,
            "type" : "VEC2"
        },
        {
            "bufferView" : 14,
            "componentType" : 5123,
            "count" : 312,
            "type" : "SCALAR"
        },
        {
            "bufferView" : 15,
            "componentType" : 5126,
            "count" : 1500,
            "max" : [
                0.9947831034660339,
                1.5694047212600708,
                1.4276906251907349
            ],
            "min" : [
                -0.9947832226753235,
                -0.8698928356170654,
                -0.9947831630706787
            ],
            "type" : "VEC3"
        },
        {
            "bufferView" : 16,
            "componentType" : 5126,
            "count" : 1500,
            "type" : "VEC3"
        },
        {
            "bufferView" : 17,
            "componentType" : 5126,
            "count" : 1500,
            "type" : "VEC2"
        },
        {
            "bufferView" : 18,
            "componentType" : 5123,
            "count" : 4596,
            "type" : "SCALAR"
        },
        {
            "bufferView" : 19,
            "componentType" : 5126,
            "count" : 189,
            "max" : [
                1.0029679536819458,
                1.5065295696258545,
                0.05898134410381317
            ],
            "min" : [
                -1.002968192100525,
                1.4064494371414185,
                -0.7663509845733643
            ],
            "type" : "VEC3"
        },
        {
            "bufferView" : 20,
            "componentType" : 5126,
            "count" : 189,
            "type" : "VEC3"
        },
        {
            "bufferView" : 21,
            "componentType" : 5126,
            "count" : 189,
            "type" : "VEC4"
        },
        {
            "bufferView" : 22,
            "componentType" : 5126,
            "count" : 189,
            "type" : "VEC2"
        },
        {
            "bufferView" : 23,
            "componentType" : 5123,
            "count" : 594,
            "type" : "SCALAR"
        },
        {
            "bufferView" : 24,
            "componentType" : 5126,
            "count" : 56,
            "max" : [
                1.5284111499786377,
                0.3997223675251007,
                1.5821470022201538
            ],
            "min" : [
                -1.1825902462005615,
                -0.4348528981208801,
                -1.5536978244781494
            ],
            "type" : "VEC3"
        },
        {
            "bufferView" : 25,
            "componentType" : 5126,
            "count" : 56,
            "type" : "VEC3"
        },
        {
            "bufferView" : 26,
            "componentType" : 5126,
            "count" : 56,
            "type" : "VEC4"
        },
        {
            "bufferView" : 27,
            "componentType" : 5126,
            "count" : 56,
            "type" : "VEC2"
        },
        {
            "bufferView" : 28,
            "componentType" : 5123,
            "count" : 84,
            "type" : "SCALAR"
        },
        {
            "bufferView" : 29,
            "componentType" : 5126,
            "count" : 239,
            "max" : [
                1.5636203289031982,
                -0.3180849254131317,
                -0.06184608116745949
            ],
            "min" : [
                1.1567214727401733,
                -1.0870627164840698,
                -0.357186883687973
            ],
            "type" : "VEC3"
        },
        {
            "bufferView" : 30,
            "componentType" : 5126,
            "count" : 239,
            "type" : "VEC3"
        },
        {
            "bufferView" : 31,
            "componentType" : 5126,
            "count" : 239,
            "type" : "VEC4"
        },
        {
            "bufferView" : 32,
            "componentType" : 5126,
            "count" : 239,
            "type" : "VEC2"
        },
        {
            "bufferView" : 33,
            "componentType" : 5123,
            "count" : 978,
            "type" : "SCALAR"
        },
        {
            "bufferView" : 34,
            "componentType" : 5126,
            "count" : 3267,
            "max" : [
                1.5320558547973633,
                0.7278913855552673,
                1.7982118129730225
            ],
            "min" : [
                -1.4720324277877808,
                -0.8541630506515503,
                -1.7982118129730225
            ],
            "type" : "VEC3"
        },
        {
            "bufferView" : 35,
            "componentType" : 5126,
            "count" : 3267,
            "type" : "VEC3"
        },
        {
            "bufferView" : 36,
            "componentType" : 5126,
            "count" : 3267,
            "type" : "VEC2"
        },
        {
            "bufferView" : 37,
            "componentType" : 5123,
            "count" : 16248,
            "type" : "SCALAR"
        },
        {
            "bufferView" : 38,
            "componentType" : 5126,
            "count" : 818,
            "max" : [
                0.9115320444107056,
                1.5838769674301147,
                0.9115321040153503
            ],
            "min" : [
                -0.911544144153595,
                0.516867995262146,
                -0.911569356918335
            ],
            "type" : "VEC3"
        },
        {
            "bufferView" : 39,
            "componentType" : 5126,
            "count" : 818,
            "type" : "VEC3"
        },
        {
            "bufferView" : 40,
            "componentType" : 5126,
            "count" : 818,
            "type" : "VEC2"
        },
        {
            "bufferView" : 41,
            "componentType" : 5123,
            "count" : 4632,
            "type" : "SCALAR"
        },
        {
            "bufferView" : 42,
            "componentType" : 5126,
            "count" : 102,
            "max" : [
                1.2087570428848267,
                0.5291585326194763,
                1.1148563623428345
            ],
            "min" : [
                -1.2087570428848267,
                -0.7047649621963501,
                -1.1148555278778076
            ],
            "type" : "VEC3"
        },
        {
            "bufferView" : 43,
            "componentType" : 5126,
            "count" : 102,
            "type" : "VEC3"
        },
        {
            "bufferView" : 44,
            "componentType" : 5126,
            "count" : 102,
            "type" : "VEC2"
        },
        {
            "bufferView" : 45,
            "componentType" : 5123,
            "count" : 432,
            "type" : "SCALAR"
        }
    ],
    "bufferViews" : [
        {
            "buffer" : 0,
            "byteLength" : 792,
            "byteOffset" : 0
        },
        {
            "buffer" : 0,
            "byteLength" : 792,
            "byteOffset" : 792
        },
        {
            "buffer" : 0,
            "byteLength" : 1056,
            "byteOffset" : 1584
        },
        {
            "buffer" : 0,
            "byteLength" : 528,
            "byteOffset" : 2640
        },
        {
            "buffer" : 0,
            "byteLength" : 264,
            "byteOffset" : 3168
        },
        {
            "buffer" : 0,
            "byteLength" : 72,
            "byteOffset" : 3432
        },
        {
            "buffer" : 0,
            "byteLength" : 72,
            "byteOffset" : 3504
        },
        {
            "buffer" : 0,
            "byteLength" : 96,
            "byteOffset" : 3576
        },
        {
            "buffer" : 0,
            "byteLength" : 48,
            "byteOffset" : 3672
        },
        {
            "buffer" : 0,
            "byteLength" : 24,
            "byteOffset" : 3720
        },
        {
            "buffer" : 0,
            "byteLength" : 2544,
            "byteOffset" : 3744
        },
        {
            "buffer" : 0,
            "byteLength" : 2544,
            "byteOffset" : 6288
        },
        {
            "buffer" : 0,
            "byteLength" : 3392,
            "byteOffset" : 8832
        },
        {
            "buffer" : 0,
            "byteLength" : 1696,
            "byteOffset" : 12224
        },
        {
            "buffer" : 0,
            "byteLength" : 624,
            "byteOffset" : 13920
        },
        {
            "buffer" : 0,
            "byteLength" : 18000,
            "byteOffset" : 14544
        },
        {
            "buffer" : 0,
            "byteLength" : 18000,
            "byteOffset" : 32544
        },
        {
            "buffer" : 0,
            "byteLength" : 12000,
            "byteOffset" : 50544
        },
        {
            "buffer" : 0,
            "byteLength" : 9192,
            "byteOffset" : 62544
        },
        {
            "buffer" : 0,
            "byteLength" : 2268,
            "byteOffset" : 71736
        },
        {
            "buffer" : 0,
            "byteLength" : 2268,
            "byteOffset" : 74004
        },
        {
            "buffer" : 0,
            "byteLength" : 3024,
            "byteOffset" : 76272
        },
        {
            "buffer" : 0,
            "byteLength" : 1512,
            "byteOffset" : 79296
        },
        {
            "buffer" : 0,
            "byteLength" : 1188,
            "byteOffset" : 80808
        },
        {
            "buffer" : 0,
            "byteLength" : 672,
            "byteOffset" : 81996
        },
        {
            "buffer" : 0,
            "byteLength" : 672,
            "byteOffset" : 82668
        },
        {
            "buffer" : 0,
            "byteLength" : 896,
            "byteOffset" : 83340
        },
        {
            "buffer" : 0,
            "byteLength" : 448,
            "byteOffset" : 84236
        },
        {
            "buffer" : 0,
            "byteLength" : 168,
            "byteOffset" : 84684
        },
        {
            "buffer" : 0,
            "byteLength" : 2868,
            "byteOffset" : 84852
        },
        {
            "buffer" : 0,
            "byteLength" : 2868,
            "byteOffset" : 87720
        },
        {
            "buffer" : 0,
            "byteLength" : 3824,
            "byteOffset" : 90588
        },
        {
            "buffer" : 0,
            "byteLength" : 1912,
            "byteOffset" : 94412
        },
        {
            "buffer" : 0,
            "byteLength" : 1956,
            "byteOffset" : 96324
        },
        {
            "buffer" : 0,
            "byteLength" : 39204,
            "byteOffset" : 98280
        },
        {
            "buffer" : 0,
            "byteLength" : 39204,
            "byteOffset" : 137484
        },
        {
            "buffer" : 0,
            "byteLength" : 26136,
            "byteOffset" : 176688
        },
        {
            "buffer" : 0,
            "byteLength" : 32496,
            "byteOffset" : 202824
        },
        {
            "buffer" : 0,
            "byteLength" : 9816,
            "byteOffset" : 235320
        },
        {
            "buffer" : 0,
            "byteLength" : 9816,
            "byteOffset" : 245136
        },
        {
            "buffer" : 0,
            "byteLength" : 6544,
            "byteOffset" : 254952
        },
        {
            "buffer" : 0,
            "byteLength" : 9264,
            "byteOffset" : 261496
        },
        {
            "buffer" : 0,
            "byteLength" : 1224,
            "byteOffset" : 270760
        },
        {
            "buffer" : 0,
            "byteLength" : 1224,
            "byteOffset" : 271984
        },
        {
            "buffer" : 0,
            "byteLength" : 816,
            "byteOffset" : 273208
        },
        {
            "buffer" : 0,
            "byteLength" : 864,
            "byteOffset" : 274024
        }
    ],
    "samplers" : [
        {
            "magFilter" : 9729,
            "minFilter" : 9987
        }
    ],
    "buffers" : [
        {
            "byteLength" : 274888,
            "uri" : "lcross.bin"
        }
    ]
}
