{
	"asset":{
		"generator":"Khronos glTF Blender I/O v3.6.27",
		"version":"2.0"
	},
	"scene":0,
	"scenes":[
		{
			"name":"Scene",
			"nodes":[
				9
			]
		}
	],
	"nodes":[
		{
			"mesh":0,
			"name":"aluminum",
			"translation":[
				-0.008510828018188477,
				-2.439955949783325,
				-4.659529685974121
			]
		},
		{
			"mesh":1,
			"name":"black_krinkle",
			"translation":[
				-0.4891597032546997,
				-0.7433894872665405,
				-0.00020556151866912842
			]
		},
		{
			"mesh":2,
			"name":"dish",
			"translation":[
				0.002198457717895508,
				1.9320663213729858,
				-0.10118189454078674
			]
		},
		{
			"mesh":3,
			"name":"foil_gold_2",
			"translation":[
				0.06722390651702881,
				0.6237049102783203,
				0.060459695756435394
			]
		},
		{
			"mesh":4,
			"name":"huygens_probe"
		},
		{
			"mesh":5,
			"name":"plastic_dark.001",
			"translation":[
				-0.03393101692199707,
				-2.6896824836730957,
				0.02681358903646469
			]
		},
		{
			"mesh":6,
			"name":"plastic_white",
			"translation":[
				0,
				1.142520546913147,
				-0.000235055573284626
			]
		},
		{
			"mesh":7,
			"name":"RTG",
			"translation":[
				-0.28373754024505615,
				-0.8733749389648438,
				0
			]
		},
		{
			"mesh":8,
			"name":"vents",
			"translation":[
				0.515190601348877,
				1.0511356592178345,
				-0.8987593650817871
			]
		},
		{
			"children":[
				0,
				1,
				2,
				3,
				4,
				5,
				6,
				7,
				8
			],
			"mesh":9,
			"name":"BUS"
		}
	],
	"materials":[
		{
			"doubleSided":true,
			"name":"aluminum",
			"pbrMetallicRoughness":{
				"baseColorFactor":[
					0.9646862149238586,
					0.964686393737793,
					0.9646864533424377,
					1
				],
				"roughnessFactor":0.30000001192092896
			}
		},
		{
			"doubleSided":true,
			"name":"nozzles",
			"pbrMetallicRoughness":{
				"baseColorFactor":[
					0.3012221157550812,
					0.25270169973373413,
					0.16586950421333313,
					1
				],
				"roughnessFactor":0.3499999940395355
			}
		},
		{
			"doubleSided":true,
			"name":"black_krinkle",
			"normalTexture":{
				"index":0
			},
			"pbrMetallicRoughness":{
				"baseColorFactor":[
					0.01960664987564087,
					0.01960664987564087,
					0.01960664987564087,
					1
				],
				"metallicFactor":0,
				"roughnessFactor":0.6000000238418579
			}
		},
		{
			"name":"dish_AO",
			"pbrMetallicRoughness":{
				"baseColorTexture":{
					"index":1
				},
				"roughnessFactor":0.5
			}
		},
		{
			"doubleSided":true,
			"name":"foil_gold",
			"normalTexture":{
				"index":2
			},
			"pbrMetallicRoughness":{
				"baseColorFactor":[
					0.9999998807907104,
					0.6583749055862427,
					0.08228273689746857,
					1
				],
				"roughnessFactor":0.30000001192092896
			}
		},
		{
			"doubleSided":true,
			"name":"plasic white",
			"pbrMetallicRoughness":{
				"metallicFactor":0,
				"roughnessFactor":0.20000000298023224
			}
		},
		{
			"name":"tex_01",
			"normalTexture":{
				"index":3
			},
			"pbrMetallicRoughness":{
				"baseColorTexture":{
					"index":4
				},
				"metallicRoughnessTexture":{
					"index":5
				}
			}
		},
		{
			"doubleSided":true,
			"name":"plastic black",
			"pbrMetallicRoughness":{
				"baseColorFactor":[
					0.026453394442796707,
					0.026453394442796707,
					0.026453394442796707,
					1
				],
				"metallicFactor":0,
				"roughnessFactor":0.20000000298023224
			}
		}
	],
	"meshes":[
		{
			"name":"Mesh.108",
			"primitives":[
				{
					"attributes":{
						"POSITION":0,
						"NORMAL":1,
						"TEXCOORD_0":2,
						"TANGENT":3
					},
					"indices":4,
					"material":0
				},
				{
					"attributes":{
						"POSITION":5,
						"NORMAL":6,
						"TEXCOORD_0":7,
						"TANGENT":8
					},
					"indices":9,
					"material":1
				}
			]
		},
		{
			"name":"Mesh.131",
			"primitives":[
				{
					"attributes":{
						"POSITION":10,
						"NORMAL":11,
						"TEXCOORD_0":12,
						"TANGENT":13
					},
					"indices":14,
					"material":2
				}
			]
		},
		{
			"name":"Mesh.098",
			"primitives":[
				{
					"attributes":{
						"POSITION":15,
						"NORMAL":16,
						"TEXCOORD_0":17,
						"TANGENT":18
					},
					"indices":19,
					"material":3
				}
			]
		},
		{
			"name":"Mesh.003",
			"primitives":[
				{
					"attributes":{
						"POSITION":20,
						"NORMAL":21,
						"TEXCOORD_0":22,
						"TANGENT":23
					},
					"indices":24,
					"material":4
				}
			]
		},
		{
			"name":"Cube.001",
			"primitives":[
				{
					"attributes":{
						"POSITION":25,
						"NORMAL":26,
						"TEXCOORD_0":27,
						"TANGENT":28
					},
					"indices":29,
					"material":5
				},
				{
					"attributes":{
						"POSITION":30,
						"NORMAL":31,
						"TEXCOORD_0":32,
						"TANGENT":33
					},
					"indices":34,
					"material":4
				}
			]
		},
		{
			"name":"Mesh.005",
			"primitives":[
				{
					"attributes":{
						"POSITION":35,
						"NORMAL":36,
						"TEXCOORD_0":37,
						"TANGENT":38
					},
					"indices":39,
					"material":6
				}
			]
		},
		{
			"name":"Mesh.001",
			"primitives":[
				{
					"attributes":{
						"POSITION":40,
						"NORMAL":41,
						"TEXCOORD_0":42,
						"TANGENT":43
					},
					"indices":44,
					"material":3
				}
			]
		},
		{
			"name":"Mesh.019",
			"primitives":[
				{
					"attributes":{
						"POSITION":45,
						"NORMAL":46,
						"TEXCOORD_0":47,
						"TANGENT":48
					},
					"indices":49,
					"material":7
				},
				{
					"attributes":{
						"POSITION":50,
						"NORMAL":51,
						"TEXCOORD_0":52,
						"TANGENT":53
					},
					"indices":54,
					"material":4
				},
				{
					"attributes":{
						"POSITION":55,
						"NORMAL":56,
						"TEXCOORD_0":57,
						"TANGENT":58
					},
					"indices":59,
					"material":1
				},
				{
					"attributes":{
						"POSITION":60,
						"NORMAL":61,
						"TEXCOORD_0":62,
						"TANGENT":63
					},
					"indices":64,
					"material":0
				}
			]
		},
		{
			"name":"Cube.034",
			"primitives":[
				{
					"attributes":{
						"POSITION":65,
						"NORMAL":66,
						"TEXCOORD_0":67,
						"TANGENT":68
					},
					"indices":69,
					"material":0
				}
			]
		},
		{
			"name":"Cube.043",
			"primitives":[
				{
					"attributes":{
						"POSITION":70,
						"NORMAL":71,
						"TEXCOORD_0":72,
						"TANGENT":73
					},
					"indices":74,
					"material":4
				}
			]
		}
	],
	"textures":[
		{
			"sampler":0,
			"source":0
		},
		{
			"sampler":0,
			"source":1
		},
		{
			"sampler":0,
			"source":0
		},
		{
			"sampler":0,
			"source":2
		},
		{
			"sampler":0,
			"source":3
		},
		{
			"sampler":0,
			"source":4
		}
	],
	"images":[
		{
			"mimeType":"image/png",
			"name":"foil_normal",
			"uri":"foil_normal.png"
		},
		{
			"mimeType":"image/jpeg",
			"name":"cassini_dish_ao",
			"uri":"cassini_dish_ao.jpg"
		},
		{
			"mimeType":"image/png",
			"name":"cassini_normal",
			"uri":"cassini_normal.png"
		},
		{
			"mimeType":"image/jpeg",
			"name":"cassini_albedo",
			"uri":"cassini_albedo.jpg"
		},
		{
			"mimeType":"image/jpeg",
			"name":"cassini_pbr",
			"uri":"cassini_pbr.jpg"
		}
	],
	"accessors":[
		{
			"bufferView":0,
			"componentType":5126,
			"count":5572,
			"max":[
				8.991480827331543,
				5.8311767578125,
				6.409691333770752
			],
			"min":[
				-8.991480827331543,
				-5.831176280975342,
				-6.409690856933594
			],
			"type":"VEC3"
		},
		{
			"bufferView":1,
			"componentType":5126,
			"count":5572,
			"type":"VEC3"
		},
		{
			"bufferView":2,
			"componentType":5126,
			"count":5572,
			"type":"VEC2"
		},
		{
			"bufferView":3,
			"componentType":5126,
			"count":5572,
			"type":"VEC4"
		},
		{
			"bufferView":4,
			"componentType":5123,
			"count":7932,
			"type":"SCALAR"
		},
		{
			"bufferView":5,
			"componentType":5126,
			"count":1080,
			"max":[
				0.18406330049037933,
				-0.42698201537132263,
				5.077452659606934
			],
			"min":[
				-0.0954044833779335,
				-0.8280425071716309,
				4.241604804992676
			],
			"type":"VEC3"
		},
		{
			"bufferView":6,
			"componentType":5126,
			"count":1080,
			"type":"VEC3"
		},
		{
			"bufferView":7,
			"componentType":5126,
			"count":1080,
			"type":"VEC2"
		},
		{
			"bufferView":8,
			"componentType":5126,
			"count":1080,
			"type":"VEC4"
		},
		{
			"bufferView":9,
			"componentType":5123,
			"count":1512,
			"type":"SCALAR"
		},
		{
			"bufferView":10,
			"componentType":5126,
			"count":1140,
			"max":[
				1.507037878036499,
				1.4193682670593262,
				2.0374743938446045
			],
			"min":[
				-1.5128756761550903,
				-2.0719738006591797,
				-2.0374748706817627
			],
			"type":"VEC3"
		},
		{
			"bufferView":11,
			"componentType":5126,
			"count":1140,
			"type":"VEC3"
		},
		{
			"bufferView":12,
			"componentType":5126,
			"count":1140,
			"type":"VEC2"
		},
		{
			"bufferView":13,
			"componentType":5126,
			"count":1140,
			"type":"VEC4"
		},
		{
			"bufferView":14,
			"componentType":5123,
			"count":3843,
			"type":"SCALAR"
		},
		{
			"bufferView":15,
			"componentType":5126,
			"count":4287,
			"max":[
				2.002303123474121,
				0.4016978144645691,
				2.1001980304718018
			],
			"min":[
				-2.006700038909912,
				-0.4797382652759552,
				-1.8983041048049927
			],
			"type":"VEC3"
		},
		{
			"bufferView":16,
			"componentType":5126,
			"count":4287,
			"type":"VEC3"
		},
		{
			"bufferView":17,
			"componentType":5126,
			"count":4287,
			"type":"VEC2"
		},
		{
			"bufferView":18,
			"componentType":5126,
			"count":4287,
			"type":"VEC4"
		},
		{
			"bufferView":19,
			"componentType":5123,
			"count":8358,
			"type":"SCALAR"
		},
		{
			"bufferView":20,
			"componentType":5126,
			"count":258,
			"max":[
				1.009366512298584,
				0.3195508122444153,
				1.0099958181381226
			],
			"min":[
				-1.1396018266677856,
				-0.1491241455078125,
				-1.138971209526062
			],
			"type":"VEC3"
		},
		{
			"bufferView":21,
			"componentType":5126,
			"count":258,
			"type":"VEC3"
		},
		{
			"bufferView":22,
			"componentType":5126,
			"count":258,
			"type":"VEC2"
		},
		{
			"bufferView":23,
			"componentType":5126,
			"count":258,
			"type":"VEC4"
		},
		{
			"bufferView":24,
			"componentType":5123,
			"count":648,
			"type":"SCALAR"
		},
		{
			"bufferView":25,
			"componentType":5126,
			"count":14,
			"max":[
				1.7583595514297485,
				-1.359703779220581,
				0.3326171934604645
			],
			"min":[
				1.6699162721633911,
				-1.6484253406524658,
				-0.3331073820590973
			],
			"type":"VEC3"
		},
		{
			"bufferView":26,
			"componentType":5126,
			"count":14,
			"type":"VEC3"
		},
		{
			"bufferView":27,
			"componentType":5126,
			"count":14,
			"type":"VEC2"
		},
		{
			"bufferView":28,
			"componentType":5126,
			"count":14,
			"type":"VEC4"
		},
		{
			"bufferView":29,
			"componentType":5123,
			"count":36,
			"type":"SCALAR"
		},
		{
			"bufferView":30,
			"componentType":5126,
			"count":368,
			"max":[
				1.8076142072677612,
				0.19311738014221191,
				1.3074288368225098
			],
			"min":[
				1.0018361806869507,
				-2.422229766845703,
				-1.3079183101654053
			],
			"type":"VEC3"
		},
		{
			"bufferView":31,
			"componentType":5126,
			"count":368,
			"type":"VEC3"
		},
		{
			"bufferView":32,
			"componentType":5126,
			"count":368,
			"type":"VEC2"
		},
		{
			"bufferView":33,
			"componentType":5126,
			"count":368,
			"type":"VEC4"
		},
		{
			"bufferView":34,
			"componentType":5123,
			"count":1980,
			"type":"SCALAR"
		},
		{
			"bufferView":35,
			"componentType":5126,
			"count":438,
			"max":[
				0.16200831532478333,
				0.5150482654571533,
				1.9981991052627563
			],
			"min":[
				-1.7743135690689087,
				0.2592694163322449,
				-2.0406811237335205
			],
			"type":"VEC3"
		},
		{
			"bufferView":36,
			"componentType":5126,
			"count":438,
			"type":"VEC3"
		},
		{
			"bufferView":37,
			"componentType":5126,
			"count":438,
			"type":"VEC2"
		},
		{
			"bufferView":38,
			"componentType":5126,
			"count":438,
			"type":"VEC4"
		},
		{
			"bufferView":39,
			"componentType":5123,
			"count":1296,
			"type":"SCALAR"
		},
		{
			"bufferView":40,
			"componentType":5126,
			"count":1880,
			"max":[
				1.0834864377975464,
				2.1225790977478027,
				1.1541807651519775
			],
			"min":[
				-1.7362903356552124,
				-2.1225790977478027,
				-1.6071696281433105
			],
			"type":"VEC3"
		},
		{
			"bufferView":41,
			"componentType":5126,
			"count":1880,
			"type":"VEC3"
		},
		{
			"bufferView":42,
			"componentType":5126,
			"count":1880,
			"type":"VEC2"
		},
		{
			"bufferView":43,
			"componentType":5126,
			"count":1880,
			"type":"VEC4"
		},
		{
			"bufferView":44,
			"componentType":5123,
			"count":3066,
			"type":"SCALAR"
		},
		{
			"bufferView":45,
			"componentType":5126,
			"count":13719,
			"max":[
				1.5395359992980957,
				1.7263154983520508,
				2.0025994777679443
			],
			"min":[
				-1.5395359992980957,
				-2.227342128753662,
				-2.0025999546051025
			],
			"type":"VEC3"
		},
		{
			"bufferView":46,
			"componentType":5126,
			"count":13719,
			"type":"VEC3"
		},
		{
			"bufferView":47,
			"componentType":5126,
			"count":13719,
			"type":"VEC2"
		},
		{
			"bufferView":48,
			"componentType":5126,
			"count":13719,
			"type":"VEC4"
		},
		{
			"bufferView":49,
			"componentType":5123,
			"count":13719,
			"type":"SCALAR"
		},
		{
			"bufferView":50,
			"componentType":5126,
			"count":306,
			"max":[
				0.39465463161468506,
				-1.5434596538543701,
				1.5221657752990723
			],
			"min":[
				-1.075896143913269,
				-1.6237775087356567,
				-1.5219780206680298
			],
			"type":"VEC3"
		},
		{
			"bufferView":51,
			"componentType":5126,
			"count":306,
			"type":"VEC3"
		},
		{
			"bufferView":52,
			"componentType":5126,
			"count":306,
			"type":"VEC2"
		},
		{
			"bufferView":53,
			"componentType":5126,
			"count":306,
			"type":"VEC4"
		},
		{
			"bufferView":54,
			"componentType":5123,
			"count":306,
			"type":"SCALAR"
		},
		{
			"bufferView":55,
			"componentType":5126,
			"count":180,
			"max":[
				0.38008803129196167,
				-1.5405499935150146,
				1.5285561084747314
			],
			"min":[
				-1.0804712772369385,
				-1.5759761333465576,
				-1.5283681154251099
			],
			"type":"VEC3"
		},
		{
			"bufferView":56,
			"componentType":5126,
			"count":180,
			"type":"VEC3"
		},
		{
			"bufferView":57,
			"componentType":5126,
			"count":180,
			"type":"VEC2"
		},
		{
			"bufferView":58,
			"componentType":5126,
			"count":180,
			"type":"VEC4"
		},
		{
			"bufferView":59,
			"componentType":5123,
			"count":180,
			"type":"SCALAR"
		},
		{
			"bufferView":60,
			"componentType":5126,
			"count":648,
			"max":[
				0.38853463530540466,
				-1.3245091438293457,
				2.0305371284484863
			],
			"min":[
				-1.5271583795547485,
				-1.5337879657745361,
				-2.0305376052856445
			],
			"type":"VEC3"
		},
		{
			"bufferView":61,
			"componentType":5126,
			"count":648,
			"type":"VEC3"
		},
		{
			"bufferView":62,
			"componentType":5126,
			"count":648,
			"type":"VEC2"
		},
		{
			"bufferView":63,
			"componentType":5126,
			"count":648,
			"type":"VEC4"
		},
		{
			"bufferView":64,
			"componentType":5123,
			"count":648,
			"type":"SCALAR"
		},
		{
			"bufferView":65,
			"componentType":5126,
			"count":8106,
			"max":[
				0.5923510789871216,
				0.3114278316497803,
				2.1715753078460693
			],
			"min":[
				-2.0146915912628174,
				-1.5028834342956543,
				-0.1193203553557396
			],
			"type":"VEC3"
		},
		{
			"bufferView":66,
			"componentType":5126,
			"count":8106,
			"type":"VEC3"
		},
		{
			"bufferView":67,
			"componentType":5126,
			"count":8106,
			"type":"VEC2"
		},
		{
			"bufferView":68,
			"componentType":5126,
			"count":8106,
			"type":"VEC4"
		},
		{
			"bufferView":69,
			"componentType":5123,
			"count":8154,
			"type":"SCALAR"
		},
		{
			"bufferView":70,
			"componentType":5126,
			"count":8795,
			"max":[
				1.9197666645050049,
				1.4498836994171143,
				1.7211308479309082
			],
			"min":[
				-1.7528728246688843,
				-2.8922457695007324,
				-10.896296501159668
			],
			"type":"VEC3"
		},
		{
			"bufferView":71,
			"componentType":5126,
			"count":8795,
			"type":"VEC3"
		},
		{
			"bufferView":72,
			"componentType":5126,
			"count":8795,
			"type":"VEC2"
		},
		{
			"bufferView":73,
			"componentType":5126,
			"count":8795,
			"type":"VEC4"
		},
		{
			"bufferView":74,
			"componentType":5123,
			"count":26346,
			"type":"SCALAR"
		}
	],
	"bufferViews":[
		{
			"buffer":0,
			"byteLength":66864,
			"byteOffset":0,
			"target":34962
		},
		{
			"buffer":0,
			"byteLength":66864,
			"byteOffset":66864,
			"target":34962
		},
		{
			"buffer":0,
			"byteLength":44576,
			"byteOffset":133728,
			"target":34962
		},
		{
			"buffer":0,
			"byteLength":89152,
			"byteOffset":178304,
			"target":34962
		},
		{
			"buffer":0,
			"byteLength":15864,
			"byteOffset":267456,
			"target":34963
		},
		{
			"buffer":0,
			"byteLength":12960,
			"byteOffset":283320,
			"target":34962
		},
		{
			"buffer":0,
			"byteLength":12960,
			"byteOffset":296280,
			"target":34962
		},
		{
			"buffer":0,
			"byteLength":8640,
			"byteOffset":309240,
			"target":34962
		},
		{
			"buffer":0,
			"byteLength":17280,
			"byteOffset":317880,
			"target":34962
		},
		{
			"buffer":0,
			"byteLength":3024,
			"byteOffset":335160,
			"target":34963
		},
		{
			"buffer":0,
			"byteLength":13680,
			"byteOffset":338184,
			"target":34962
		},
		{
			"buffer":0,
			"byteLength":13680,
			"byteOffset":351864,
			"target":34962
		},
		{
			"buffer":0,
			"byteLength":9120,
			"byteOffset":365544,
			"target":34962
		},
		{
			"buffer":0,
			"byteLength":18240,
			"byteOffset":374664,
			"target":34962
		},
		{
			"buffer":0,
			"byteLength":7686,
			"byteOffset":392904,
			"target":34963
		},
		{
			"buffer":0,
			"byteLength":51444,
			"byteOffset":400592,
			"target":34962
		},
		{
			"buffer":0,
			"byteLength":51444,
			"byteOffset":452036,
			"target":34962
		},
		{
			"buffer":0,
			"byteLength":34296,
			"byteOffset":503480,
			"target":34962
		},
		{
			"buffer":0,
			"byteLength":68592,
			"byteOffset":537776,
			"target":34962
		},
		{
			"buffer":0,
			"byteLength":16716,
			"byteOffset":606368,
			"target":34963
		},
		{
			"buffer":0,
			"byteLength":3096,
			"byteOffset":623084,
			"target":34962
		},
		{
			"buffer":0,
			"byteLength":3096,
			"byteOffset":626180,
			"target":34962
		},
		{
			"buffer":0,
			"byteLength":2064,
			"byteOffset":629276,
			"target":34962
		},
		{
			"buffer":0,
			"byteLength":4128,
			"byteOffset":631340,
			"target":34962
		},
		{
			"buffer":0,
			"byteLength":1296,
			"byteOffset":635468,
			"target":34963
		},
		{
			"buffer":0,
			"byteLength":168,
			"byteOffset":636764,
			"target":34962
		},
		{
			"buffer":0,
			"byteLength":168,
			"byteOffset":636932,
			"target":34962
		},
		{
			"buffer":0,
			"byteLength":112,
			"byteOffset":637100,
			"target":34962
		},
		{
			"buffer":0,
			"byteLength":224,
			"byteOffset":637212,
			"target":34962
		},
		{
			"buffer":0,
			"byteLength":72,
			"byteOffset":637436,
			"target":34963
		},
		{
			"buffer":0,
			"byteLength":4416,
			"byteOffset":637508,
			"target":34962
		},
		{
			"buffer":0,
			"byteLength":4416,
			"byteOffset":641924,
			"target":34962
		},
		{
			"buffer":0,
			"byteLength":2944,
			"byteOffset":646340,
			"target":34962
		},
		{
			"buffer":0,
			"byteLength":5888,
			"byteOffset":649284,
			"target":34962
		},
		{
			"buffer":0,
			"byteLength":3960,
			"byteOffset":655172,
			"target":34963
		},
		{
			"buffer":0,
			"byteLength":5256,
			"byteOffset":659132,
			"target":34962
		},
		{
			"buffer":0,
			"byteLength":5256,
			"byteOffset":664388,
			"target":34962
		},
		{
			"buffer":0,
			"byteLength":3504,
			"byteOffset":669644,
			"target":34962
		},
		{
			"buffer":0,
			"byteLength":7008,
			"byteOffset":673148,
			"target":34962
		},
		{
			"buffer":0,
			"byteLength":2592,
			"byteOffset":680156,
			"target":34963
		},
		{
			"buffer":0,
			"byteLength":22560,
			"byteOffset":682748,
			"target":34962
		},
		{
			"buffer":0,
			"byteLength":22560,
			"byteOffset":705308,
			"target":34962
		},
		{
			"buffer":0,
			"byteLength":15040,
			"byteOffset":727868,
			"target":34962
		},
		{
			"buffer":0,
			"byteLength":30080,
			"byteOffset":742908,
			"target":34962
		},
		{
			"buffer":0,
			"byteLength":6132,
			"byteOffset":772988,
			"target":34963
		},
		{
			"buffer":0,
			"byteLength":164628,
			"byteOffset":779120,
			"target":34962
		},
		{
			"buffer":0,
			"byteLength":164628,
			"byteOffset":943748,
			"target":34962
		},
		{
			"buffer":0,
			"byteLength":109752,
			"byteOffset":1108376,
			"target":34962
		},
		{
			"buffer":0,
			"byteLength":219504,
			"byteOffset":1218128,
			"target":34962
		},
		{
			"buffer":0,
			"byteLength":27438,
			"byteOffset":1437632,
			"target":34963
		},
		{
			"buffer":0,
			"byteLength":3672,
			"byteOffset":1465072,
			"target":34962
		},
		{
			"buffer":0,
			"byteLength":3672,
			"byteOffset":1468744,
			"target":34962
		},
		{
			"buffer":0,
			"byteLength":2448,
			"byteOffset":1472416,
			"target":34962
		},
		{
			"buffer":0,
			"byteLength":4896,
			"byteOffset":1474864,
			"target":34962
		},
		{
			"buffer":0,
			"byteLength":612,
			"byteOffset":1479760,
			"target":34963
		},
		{
			"buffer":0,
			"byteLength":2160,
			"byteOffset":1480372,
			"target":34962
		},
		{
			"buffer":0,
			"byteLength":2160,
			"byteOffset":1482532,
			"target":34962
		},
		{
			"buffer":0,
			"byteLength":1440,
			"byteOffset":1484692,
			"target":34962
		},
		{
			"buffer":0,
			"byteLength":2880,
			"byteOffset":1486132,
			"target":34962
		},
		{
			"buffer":0,
			"byteLength":360,
			"byteOffset":1489012,
			"target":34963
		},
		{
			"buffer":0,
			"byteLength":7776,
			"byteOffset":1489372,
			"target":34962
		},
		{
			"buffer":0,
			"byteLength":7776,
			"byteOffset":1497148,
			"target":34962
		},
		{
			"buffer":0,
			"byteLength":5184,
			"byteOffset":1504924,
			"target":34962
		},
		{
			"buffer":0,
			"byteLength":10368,
			"byteOffset":1510108,
			"target":34962
		},
		{
			"buffer":0,
			"byteLength":1296,
			"byteOffset":1520476,
			"target":34963
		},
		{
			"buffer":0,
			"byteLength":97272,
			"byteOffset":1521772,
			"target":34962
		},
		{
			"buffer":0,
			"byteLength":97272,
			"byteOffset":1619044,
			"target":34962
		},
		{
			"buffer":0,
			"byteLength":64848,
			"byteOffset":1716316,
			"target":34962
		},
		{
			"buffer":0,
			"byteLength":129696,
			"byteOffset":1781164,
			"target":34962
		},
		{
			"buffer":0,
			"byteLength":16308,
			"byteOffset":1910860,
			"target":34963
		},
		{
			"buffer":0,
			"byteLength":105540,
			"byteOffset":1927168,
			"target":34962
		},
		{
			"buffer":0,
			"byteLength":105540,
			"byteOffset":2032708,
			"target":34962
		},
		{
			"buffer":0,
			"byteLength":70360,
			"byteOffset":2138248,
			"target":34962
		},
		{
			"buffer":0,
			"byteLength":140720,
			"byteOffset":2208608,
			"target":34962
		},
		{
			"buffer":0,
			"byteLength":52692,
			"byteOffset":2349328,
			"target":34963
		}
	],
	"samplers":[
		{
			"magFilter":9729,
			"minFilter":9987
		}
	],
	"buffers":[
		{
			"byteLength":2402020,
			"uri":"cassini.bin"
		}
	]
}
