{
    "asset" : {
        "generator" : "Khronos glTF Blender I/O v1.3.48",
        "version" : "2.0"
    },
    "extensionsUsed" : [
        "KHR_materials_clearcoat"
    ],
    "scene" : 0,
    "scenes" : [
        {
            "name" : "Scene",
            "nodes" : [
                7
            ]
        }
    ],
    "nodes" : [
        {
            "mesh" : 0,
            "name" : "AO",
            "rotation" : [
                0,
                -0.7071067094802856,
                -0.7071068286895752,
                -5.338507946817117e-08
            ],
            "scale" : [
                0.03429187834262848,
                0.3005085587501526,
                0.03429187834262848
            ]
        },
        {
            "mesh" : 1,
            "name" : "black",
            "rotation" : [
                0,
                -0.7071067094802856,
                -0.7071068286895752,
                -5.338507946817117e-08
            ],
            "scale" : [
                0.03429187834262848,
                0.3005085587501526,
                0.03429187834262848
            ]
        },
        {
            "mesh" : 2,
            "name" : "dark grey",
            "rotation" : [
                0,
                -0.7071067094802856,
                -0.7071068286895752,
                -5.338507946817117e-08
            ],
            "scale" : [
                0.17190124094486237,
                0.0985230952501297,
                0.17190124094486237
            ]
        },
        {
            "mesh" : 3,
            "name" : "foil_silver",
            "translation" : [
                -0.792136013507843,
                0.007827025838196278,
                -2.5453572273254395
            ]
        },
        {
            "mesh" : 4,
            "name" : "krinkle",
            "rotation" : [
                0,
                -0.7071067094802856,
                -0.7071068286895752,
                -5.338507946817117e-08
            ]
        },
        {
            "mesh" : 5,
            "name" : "shiny_panel",
            "rotation" : [
                0,
                0,
                0.7071067094802856,
                0.70710688829422
            ],
            "scale" : [
                0.09075579792261124,
                0.09987378865480423,
                0.09075579792261124
            ]
        },
        {
            "mesh" : 6,
            "name" : "tex",
            "rotation" : [
                0,
                0,
                0.7071067094802856,
                0.70710688829422
            ],
            "scale" : [
                0.09075579792261124,
                0.09987378865480423,
                0.09075579792261124
            ]
        },
        {
            "children" : [
                0,
                1,
                2,
                3,
                4,
                5,
                6
            ],
            "mesh" : 7,
            "name" : "foil_gold",
            "rotation" : [
                0,
                -0.7071067094802856,
                -0.7071068286895752,
                5.338507591545749e-08
            ]
        }
    ],
    "materials" : [
        {
            "emissiveFactor" : [
                0,
                0,
                0
            ],
            "name" : "AO",
            "pbrMetallicRoughness" : {
                "baseColorTexture" : {
                    "index" : 0,
                    "texCoord" : 0
                },
                "metallicFactor" : 0.550000011920929,
                "roughnessFactor" : 0.5
            }
        },
        {
            "emissiveFactor" : [
                0,
                0,
                0
            ],
            "name" : "black",
            "pbrMetallicRoughness" : {
                "baseColorFactor" : [
                    0.0020000000949949026,
                    0.0020000000949949026,
                    0.0020000000949949026,
                    1
                ],
                "metallicFactor" : 0,
                "roughnessFactor" : 0.5
            }
        },
        {
            "emissiveFactor" : [
                0,
                0,
                0
            ],
            "name" : "dark grey",
            "pbrMetallicRoughness" : {
                "baseColorFactor" : [
                    0.03205886483192444,
                    0.03205886483192444,
                    0.03205886483192444,
                    1
                ],
                "metallicFactor" : 0.5545454621315002,
                "roughnessFactor" : 0.6045454740524292
            }
        },
        {
            "emissiveFactor" : [
                0,
                0,
                0
            ],
            "name" : "foil_silver",
            "normalTexture" : {
                "index" : 1,
                "texCoord" : 0
            },
            "pbrMetallicRoughness" : {
                "baseColorFactor" : [
                    1,
                    0.999999463558197,
                    1,
                    1
                ],
                "metallicFactor" : 1,
                "roughnessFactor" : 0.30000001192092896
            }
        },
        {
            "emissiveFactor" : [
                0,
                0,
                0
            ],
            "name" : "black_krinkle",
            "pbrMetallicRoughness" : {
                "baseColorFactor" : [
                    0.01960664987564087,
                    0.01960664987564087,
                    0.01960664987564087,
                    1
                ],
                "metallicFactor" : 0,
                "roughnessFactor" : 0.6000000238418579
            }
        },
        {
            "emissiveFactor" : [
                0,
                0,
                0
            ],
            "extensions" : {
                "KHR_materials_clearcoat" : {
                    "clearcoatFactor" : 1,
                    "clearcoatRoughnessFactor" : 0.029999999329447746
                }
            },
            "name" : "shiny_panel",
            "normalTexture" : {
                "index" : 2,
                "texCoord" : 0
            },
            "pbrMetallicRoughness" : {
                "baseColorTexture" : {
                    "index" : 3,
                    "texCoord" : 0
                },
                "metallicRoughnessTexture" : {
                    "index" : 4,
                    "texCoord" : 0
                }
            }
        },
        {
            "emissiveFactor" : [
                0,
                0,
                0
            ],
            "name" : "tex",
            "normalTexture" : {
                "index" : 5,
                "texCoord" : 0
            },
            "pbrMetallicRoughness" : {
                "baseColorTexture" : {
                    "index" : 6,
                    "texCoord" : 0
                },
                "metallicRoughnessTexture" : {
                    "index" : 7,
                    "texCoord" : 0
                }
            }
        },
        {
            "emissiveFactor" : [
                0,
                0,
                0
            ],
            "name" : "foil_gold",
            "normalTexture" : {
                "index" : 8,
                "texCoord" : 0
            },
            "pbrMetallicRoughness" : {
                "baseColorFactor" : [
                    0.9999998807907104,
                    0.6583749055862427,
                    0.08228273689746857,
                    1
                ],
                "metallicFactor" : 1,
                "roughnessFactor" : 0.30000001192092896
            }
        }
    ],
    "meshes" : [
        {
            "name" : "Cylinder.003",
            "primitives" : [
                {
                    "attributes" : {
                        "POSITION" : 0,
                        "NORMAL" : 1,
                        "TEXCOORD_0" : 2
                    },
                    "indices" : 3,
                    "material" : 0
                }
            ]
        },
        {
            "name" : "Cylinder.012",
            "primitives" : [
                {
                    "attributes" : {
                        "POSITION" : 4,
                        "NORMAL" : 5,
                        "TEXCOORD_0" : 6
                    },
                    "indices" : 7,
                    "material" : 1
                }
            ]
        },
        {
            "name" : "Cylinder.016",
            "primitives" : [
                {
                    "attributes" : {
                        "POSITION" : 8,
                        "NORMAL" : 9,
                        "TEXCOORD_0" : 10
                    },
                    "indices" : 11,
                    "material" : 2
                }
            ]
        },
        {
            "name" : "Cube.003",
            "primitives" : [
                {
                    "attributes" : {
                        "POSITION" : 12,
                        "NORMAL" : 13,
                        "TEXCOORD_0" : 14
                    },
                    "indices" : 15,
                    "material" : 3
                }
            ]
        },
        {
            "name" : "Cylinder.011",
            "primitives" : [
                {
                    "attributes" : {
                        "POSITION" : 16,
                        "NORMAL" : 17,
                        "TEXCOORD_0" : 18
                    },
                    "indices" : 19,
                    "material" : 4
                }
            ]
        },
        {
            "name" : "Cylinder.001",
            "primitives" : [
                {
                    "attributes" : {
                        "POSITION" : 20,
                        "NORMAL" : 21,
                        "TEXCOORD_0" : 22
                    },
                    "indices" : 23,
                    "material" : 5
                }
            ]
        },
        {
            "name" : "Cylinder.000",
            "primitives" : [
                {
                    "attributes" : {
                        "POSITION" : 24,
                        "NORMAL" : 25,
                        "TEXCOORD_0" : 26
                    },
                    "indices" : 27,
                    "material" : 6
                }
            ]
        },
        {
            "name" : "Cube.004",
            "primitives" : [
                {
                    "attributes" : {
                        "POSITION" : 28,
                        "NORMAL" : 29,
                        "TEXCOORD_0" : 30
                    },
                    "indices" : 31,
                    "material" : 7
                }
            ]
        }
    ],
    "textures" : [
        {
            "source" : 0
        },
        {
            "source" : 1
        },
        {
            "source" : 2
        },
        {
            "source" : 3
        },
        {
            "source" : 4
        },
        {
            "source" : 2
        },
        {
            "source" : 3
        },
        {
            "source" : 4
        },
        {
            "source" : 5
        }
    ],
    "images" : [
        {
            "mimeType" : "image/jpeg",
            "name" : "marsglobalsurveyor_ao",
            "uri" : "marsglobalsurveyor_ao.jpg"
        },
        {
            "mimeType" : "image/png",
            "name" : "foil_dish_normal",
            "uri" : "foil_dish_normal.png"
        },
        {
            "mimeType" : "image/png",
            "name" : "marsglobalsurveyor_tex_normal",
            "uri" : "marsglobalsurveyor_tex_normal.png"
        },
        {
            "mimeType" : "image/jpeg",
            "name" : "marsglobalsurveyor_tex_albedo",
            "uri" : "marsglobalsurveyor_tex_albedo.jpg"
        },
        {
            "mimeType" : "image/jpeg",
            "name" : "marsglobalsurveyor_tex_pbr",
            "uri" : "marsglobalsurveyor_tex_pbr.jpg"
        },
        {
            "mimeType" : "image/png",
            "name" : "foil_n",
            "uri" : "foil_n.png"
        }
    ],
    "accessors" : [
        {
            "bufferView" : 0,
            "componentType" : 5126,
            "count" : 806,
            "max" : [
                18.082263946533203,
                6.484174728393555,
                17.593273162841797
            ],
            "min" : [
                -24.130210876464844,
                -6.507258415222168,
                -14.257582664489746
            ],
            "type" : "VEC3"
        },
        {
            "bufferView" : 1,
            "componentType" : 5126,
            "count" : 806,
            "type" : "VEC3"
        },
        {
            "bufferView" : 2,
            "componentType" : 5126,
            "count" : 806,
            "type" : "VEC2"
        },
        {
            "bufferView" : 3,
            "componentType" : 5123,
            "count" : 2142,
            "type" : "SCALAR"
        },
        {
            "bufferView" : 4,
            "componentType" : 5126,
            "count" : 146,
            "max" : [
                -5.853334426879883,
                5.6474928855896,
                17.30914878845215
            ],
            "min" : [
                -23.88675308227539,
                3.740325450897217,
                -13.731057167053223
            ],
            "type" : "VEC3"
        },
        {
            "bufferView" : 5,
            "componentType" : 5126,
            "count" : 146,
            "type" : "VEC3"
        },
        {
            "bufferView" : 6,
            "componentType" : 5126,
            "count" : 146,
            "type" : "VEC2"
        },
        {
            "bufferView" : 7,
            "componentType" : 5123,
            "count" : 432,
            "type" : "SCALAR"
        },
        {
            "bufferView" : 8,
            "componentType" : 5126,
            "count" : 505,
            "max" : [
                0.6480032205581665,
                -1.5701485872268677,
                0.6480028033256531
            ],
            "min" : [
                -0.648003101348877,
                -5.601792335510254,
                -0.6480034589767456
            ],
            "type" : "VEC3"
        },
        {
            "bufferView" : 9,
            "componentType" : 5126,
            "count" : 505,
            "type" : "VEC3"
        },
        {
            "bufferView" : 10,
            "componentType" : 5126,
            "count" : 505,
            "type" : "VEC2"
        },
        {
            "bufferView" : 11,
            "componentType" : 5123,
            "count" : 2520,
            "type" : "SCALAR"
        },
        {
            "bufferView" : 12,
            "componentType" : 5126,
            "count" : 65,
            "max" : [
                0.13552649319171906,
                0.6415181159973145,
                0.6414089202880859
            ],
            "min" : [
                -0.13055084645748138,
                -0.6411254405975342,
                -0.641228437423706
            ],
            "type" : "VEC3"
        },
        {
            "bufferView" : 13,
            "componentType" : 5126,
            "count" : 65,
            "type" : "VEC3"
        },
        {
            "bufferView" : 14,
            "componentType" : 5126,
            "count" : 65,
            "type" : "VEC2"
        },
        {
            "bufferView" : 15,
            "componentType" : 5123,
            "count" : 288,
            "type" : "SCALAR"
        },
        {
            "bufferView" : 16,
            "componentType" : 5126,
            "count" : 126,
            "max" : [
                0.3078385293483734,
                1.5159629583358765,
                -0.11328678578138351
            ],
            "min" : [
                0.12889450788497925,
                1.2767292261123657,
                -0.2922309637069702
            ],
            "type" : "VEC3"
        },
        {
            "bufferView" : 17,
            "componentType" : 5126,
            "count" : 126,
            "type" : "VEC3"
        },
        {
            "bufferView" : 18,
            "componentType" : 5126,
            "count" : 126,
            "type" : "VEC2"
        },
        {
            "bufferView" : 19,
            "componentType" : 5123,
            "count" : 672,
            "type" : "SCALAR"
        },
        {
            "bufferView" : 20,
            "componentType" : 5126,
            "count" : 110,
            "max" : [
                51.226478576660156,
                0.16451728343963623,
                11.814294815063477
            ],
            "min" : [
                -51.226478576660156,
                -0.16393497586250305,
                -5.40998649597168
            ],
            "type" : "VEC3"
        },
        {
            "bufferView" : 21,
            "componentType" : 5126,
            "count" : 110,
            "type" : "VEC3"
        },
        {
            "bufferView" : 22,
            "componentType" : 5126,
            "count" : 110,
            "type" : "VEC2"
        },
        {
            "bufferView" : 23,
            "componentType" : 5123,
            "count" : 168,
            "type" : "SCALAR"
        },
        {
            "bufferView" : 24,
            "componentType" : 5126,
            "count" : 1928,
            "max" : [
                57.93965148925781,
                6.4861345291137695,
                18.684310913085938
            ],
            "min" : [
                -57.93964385986328,
                -6.486133098602295,
                -26.181684494018555
            ],
            "type" : "VEC3"
        },
        {
            "bufferView" : 25,
            "componentType" : 5126,
            "count" : 1928,
            "type" : "VEC3"
        },
        {
            "bufferView" : 26,
            "componentType" : 5126,
            "count" : 1928,
            "type" : "VEC2"
        },
        {
            "bufferView" : 27,
            "componentType" : 5123,
            "count" : 4218,
            "type" : "SCALAR"
        },
        {
            "bufferView" : 28,
            "componentType" : 5126,
            "count" : 1718,
            "max" : [
                0.775321900844574,
                1.2441643476486206,
                1.6971200704574585
            ],
            "min" : [
                -0.6771200299263,
                -1.2441641092300415,
                -3.196676254272461
            ],
            "type" : "VEC3"
        },
        {
            "bufferView" : 29,
            "componentType" : 5126,
            "count" : 1718,
            "type" : "VEC3"
        },
        {
            "bufferView" : 30,
            "componentType" : 5126,
            "count" : 1718,
            "type" : "VEC2"
        },
        {
            "bufferView" : 31,
            "componentType" : 5123,
            "count" : 8142,
            "type" : "SCALAR"
        }
    ],
    "bufferViews" : [
        {
            "buffer" : 0,
            "byteLength" : 9672,
            "byteOffset" : 0
        },
        {
            "buffer" : 0,
            "byteLength" : 9672,
            "byteOffset" : 9672
        },
        {
            "buffer" : 0,
            "byteLength" : 6448,
            "byteOffset" : 19344
        },
        {
            "buffer" : 0,
            "byteLength" : 4284,
            "byteOffset" : 25792
        },
        {
            "buffer" : 0,
            "byteLength" : 1752,
            "byteOffset" : 30076
        },
        {
            "buffer" : 0,
            "byteLength" : 1752,
            "byteOffset" : 31828
        },
        {
            "buffer" : 0,
            "byteLength" : 1168,
            "byteOffset" : 33580
        },
        {
            "buffer" : 0,
            "byteLength" : 864,
            "byteOffset" : 34748
        },
        {
            "buffer" : 0,
            "byteLength" : 6060,
            "byteOffset" : 35612
        },
        {
            "buffer" : 0,
            "byteLength" : 6060,
            "byteOffset" : 41672
        },
        {
            "buffer" : 0,
            "byteLength" : 4040,
            "byteOffset" : 47732
        },
        {
            "buffer" : 0,
            "byteLength" : 5040,
            "byteOffset" : 51772
        },
        {
            "buffer" : 0,
            "byteLength" : 780,
            "byteOffset" : 56812
        },
        {
            "buffer" : 0,
            "byteLength" : 780,
            "byteOffset" : 57592
        },
        {
            "buffer" : 0,
            "byteLength" : 520,
            "byteOffset" : 58372
        },
        {
            "buffer" : 0,
            "byteLength" : 576,
            "byteOffset" : 58892
        },
        {
            "buffer" : 0,
            "byteLength" : 1512,
            "byteOffset" : 59468
        },
        {
            "buffer" : 0,
            "byteLength" : 1512,
            "byteOffset" : 60980
        },
        {
            "buffer" : 0,
            "byteLength" : 1008,
            "byteOffset" : 62492
        },
        {
            "buffer" : 0,
            "byteLength" : 1344,
            "byteOffset" : 63500
        },
        {
            "buffer" : 0,
            "byteLength" : 1320,
            "byteOffset" : 64844
        },
        {
            "buffer" : 0,
            "byteLength" : 1320,
            "byteOffset" : 66164
        },
        {
            "buffer" : 0,
            "byteLength" : 880,
            "byteOffset" : 67484
        },
        {
            "buffer" : 0,
            "byteLength" : 336,
            "byteOffset" : 68364
        },
        {
            "buffer" : 0,
            "byteLength" : 23136,
            "byteOffset" : 68700
        },
        {
            "buffer" : 0,
            "byteLength" : 23136,
            "byteOffset" : 91836
        },
        {
            "buffer" : 0,
            "byteLength" : 15424,
            "byteOffset" : 114972
        },
        {
            "buffer" : 0,
            "byteLength" : 8436,
            "byteOffset" : 130396
        },
        {
            "buffer" : 0,
            "byteLength" : 20616,
            "byteOffset" : 138832
        },
        {
            "buffer" : 0,
            "byteLength" : 20616,
            "byteOffset" : 159448
        },
        {
            "buffer" : 0,
            "byteLength" : 13744,
            "byteOffset" : 180064
        },
        {
            "buffer" : 0,
            "byteLength" : 16284,
            "byteOffset" : 193808
        }
    ],
    "buffers" : [
        {
            "byteLength" : 210092,
            "uri" : "mars_global_surveyor.bin"
        }
    ]
}
