{
    "asset" : {
        "generator" : "Khronos glTF Blender I/O v1.8.19",
        "version" : "2.0"
    },
    "scene" : 0,
    "scenes" : [
        {
            "name" : "Scene",
            "nodes" : [
                4
            ]
        }
    ],
    "nodes" : [
        {
            "mesh" : 0,
            "name" : "Stardust_tex_01_c2",
            "rotation" : [
                0.6755903363227844,
                0,
                0,
                0.7372772693634033
            ],
            "translation" : [
                0,
                0.4522246718406677,
                -28.653087615966797
            ]
        },
        {
            "mesh" : 1,
            "name" : "Stardust_tex_02_c",
            "translation" : [
                0,
                2.1335928440093994,
                108.42991638183594
            ]
        },
        {
            "mesh" : 2,
            "name" : "Stardust_tex_03_c",
            "translation" : [
                0,
                0.00018423795700073242,
                -11.422170639038086
            ]
        },
        {
            "mesh" : 3,
            "name" : "Stardust_tex_03_c2",
            "rotation" : [
                0.6755903363227844,
                0,
                0,
                0.7372772693634033
            ],
            "translation" : [
                0,
                0.2830098569393158,
                -15.779763221740723
            ]
        },
        {
            "children" : [
                0,
                1,
                2,
                3
            ],
            "mesh" : 4,
            "name" : "Stardust_tex_01_c",
            "scale" : [
                0.00929567776620388,
                0.00929567776620388,
                0.00929567776620388
            ],
            "translation" : [
                0,
                -0.00562926335260272,
                0.1281754970550537
            ]
        }
    ],
    "materials" : [
        {
            "name" : "Stardust_tex_01",
            "pbrMetallicRoughness" : {
                "baseColorFactor" : [
                    0.800000011920929,
                    0.800000011920929,
                    0.800000011920929,
                    1
                ],
                "metallicFactor" : 0,
                "roughnessFactor" : 0.5
            }
        },
        {
            "name" : "Stardust_tex_02",
            "pbrMetallicRoughness" : {
                "baseColorFactor" : [
                    0.800000011920929,
                    0.800000011920929,
                    0.800000011920929,
                    1
                ],
                "metallicFactor" : 0,
                "roughnessFactor" : 0.5
            }
        },
        {
            "name" : "Stardust_tex_03",
            "pbrMetallicRoughness" : {
                "baseColorFactor" : [
                    0.800000011920929,
                    0.800000011920929,
                    0.800000011920929,
                    1
                ],
                "metallicFactor" : 0,
                "roughnessFactor" : 0.5
            }
        },
        {
            "name" : "Stardust_tex_01.001",
            "normalTexture" : {
                "index" : 0
            },
            "pbrMetallicRoughness" : {
                "baseColorTexture" : {
                    "index" : 1
                },
                "metallicFactor" : 0,
                "roughnessFactor" : 0.5
            }
        }
    ],
    "meshes" : [
        {
            "name" : "Mesh.002",
            "primitives" : [
                {
                    "attributes" : {
                        "POSITION" : 0,
                        "NORMAL" : 1,
                        "TANGENT" : 2,
                        "TEXCOORD_0" : 3
                    },
                    "indices" : 4,
                    "material" : 0
                }
            ]
        },
        {
            "name" : "Mesh.016",
            "primitives" : [
                {
                    "attributes" : {
                        "POSITION" : 5,
                        "NORMAL" : 6,
                        "TANGENT" : 7,
                        "TEXCOORD_0" : 8
                    },
                    "indices" : 9,
                    "material" : 1
                }
            ]
        },
        {
            "name" : "Mesh.010",
            "primitives" : [
                {
                    "attributes" : {
                        "POSITION" : 10,
                        "NORMAL" : 11,
                        "TANGENT" : 12,
                        "TEXCOORD_0" : 13
                    },
                    "indices" : 14,
                    "material" : 2
                }
            ]
        },
        {
            "name" : "Mesh.001",
            "primitives" : [
                {
                    "attributes" : {
                        "POSITION" : 15,
                        "NORMAL" : 16,
                        "TANGENT" : 17,
                        "TEXCOORD_0" : 18
                    },
                    "indices" : 19,
                    "material" : 2
                }
            ]
        },
        {
            "name" : "Mesh.000",
            "primitives" : [
                {
                    "attributes" : {
                        "POSITION" : 20,
                        "NORMAL" : 21,
                        "TANGENT" : 22,
                        "TEXCOORD_0" : 23
                    },
                    "indices" : 24,
                    "material" : 3
                }
            ]
        }
    ],
    "textures" : [
        {
            "sampler" : 0,
            "source" : 0
        },
        {
            "sampler" : 0,
            "source" : 1
        }
    ],
    "images" : [
        {
            "mimeType" : "image/png",
            "name" : "stardust_01_normal",
            "uri" : "stardust_01_normal.png"
        },
        {
            "mimeType" : "image/jpeg",
            "name" : "stardust_01_albedo",
            "uri" : "stardust_01_albedo.jpg"
        }
    ],
    "accessors" : [
        {
            "bufferView" : 0,
            "componentType" : 5126,
            "count" : 1242,
            "max" : [
                38.8994140625,
                24.127527236938477,
                39.89220428466797
            ],
            "min" : [
                -38.8994140625,
                -12.259132385253906,
                -37.610565185546875
            ],
            "type" : "VEC3"
        },
        {
            "bufferView" : 1,
            "componentType" : 5126,
            "count" : 1242,
            "type" : "VEC3"
        },
        {
            "bufferView" : 2,
            "componentType" : 5126,
            "count" : 1242,
            "type" : "VEC4"
        },
        {
            "bufferView" : 3,
            "componentType" : 5126,
            "count" : 1242,
            "type" : "VEC2"
        },
        {
            "bufferView" : 4,
            "componentType" : 5123,
            "count" : 2802,
            "type" : "SCALAR"
        },
        {
            "bufferView" : 5,
            "componentType" : 5126,
            "count" : 640,
            "max" : [
                18.16518783569336,
                17.58633804321289,
                -96.8498764038086
            ],
            "min" : [
                -18.165180206298828,
                -23.015655517578125,
                -97.00748443603516
            ],
            "type" : "VEC3"
        },
        {
            "bufferView" : 6,
            "componentType" : 5126,
            "count" : 640,
            "type" : "VEC3"
        },
        {
            "bufferView" : 7,
            "componentType" : 5126,
            "count" : 640,
            "type" : "VEC4"
        },
        {
            "bufferView" : 8,
            "componentType" : 5126,
            "count" : 640,
            "type" : "VEC2"
        },
        {
            "bufferView" : 9,
            "componentType" : 5123,
            "count" : 864,
            "type" : "SCALAR"
        },
        {
            "bufferView" : 10,
            "componentType" : 5126,
            "count" : 216,
            "max" : [
                32.17292022705078,
                32.17292022705078,
                0
            ],
            "min" : [
                -32.17292022705078,
                -32.17292022705078,
                0
            ],
            "type" : "VEC3"
        },
        {
            "bufferView" : 11,
            "componentType" : 5126,
            "count" : 216,
            "type" : "VEC3"
        },
        {
            "bufferView" : 12,
            "componentType" : 5126,
            "count" : 216,
            "type" : "VEC4"
        },
        {
            "bufferView" : 13,
            "componentType" : 5126,
            "count" : 216,
            "type" : "VEC2"
        },
        {
            "bufferView" : 14,
            "componentType" : 5123,
            "count" : 402,
            "type" : "SCALAR"
        },
        {
            "bufferView" : 15,
            "componentType" : 5126,
            "count" : 710,
            "max" : [
                34.61655044555664,
                7.333213806152344,
                35.14633560180664
            ],
            "min" : [
                -34.61655044555664,
                -6.421043395996094,
                -33.823299407958984
            ],
            "type" : "VEC3"
        },
        {
            "bufferView" : 16,
            "componentType" : 5126,
            "count" : 710,
            "type" : "VEC3"
        },
        {
            "bufferView" : 17,
            "componentType" : 5126,
            "count" : 710,
            "type" : "VEC4"
        },
        {
            "bufferView" : 18,
            "componentType" : 5126,
            "count" : 710,
            "type" : "VEC2"
        },
        {
            "bufferView" : 19,
            "componentType" : 5123,
            "count" : 996,
            "type" : "SCALAR"
        },
        {
            "bufferView" : 20,
            "componentType" : 5126,
            "count" : 536,
            "max" : [
                34.61655044555664,
                34.616729736328125,
                11.422480583190918
            ],
            "min" : [
                -34.61655044555664,
                -34.616363525390625,
                -11.422436714172363
            ],
            "type" : "VEC3"
        },
        {
            "bufferView" : 21,
            "componentType" : 5126,
            "count" : 536,
            "type" : "VEC3"
        },
        {
            "bufferView" : 22,
            "componentType" : 5126,
            "count" : 536,
            "type" : "VEC4"
        },
        {
            "bufferView" : 23,
            "componentType" : 5126,
            "count" : 536,
            "type" : "VEC2"
        },
        {
            "bufferView" : 24,
            "componentType" : 5123,
            "count" : 1578,
            "type" : "SCALAR"
        }
    ],
    "bufferViews" : [
        {
            "buffer" : 0,
            "byteLength" : 14904,
            "byteOffset" : 0
        },
        {
            "buffer" : 0,
            "byteLength" : 14904,
            "byteOffset" : 14904
        },
        {
            "buffer" : 0,
            "byteLength" : 19872,
            "byteOffset" : 29808
        },
        {
            "buffer" : 0,
            "byteLength" : 9936,
            "byteOffset" : 49680
        },
        {
            "buffer" : 0,
            "byteLength" : 5604,
            "byteOffset" : 59616
        },
        {
            "buffer" : 0,
            "byteLength" : 7680,
            "byteOffset" : 65220
        },
        {
            "buffer" : 0,
            "byteLength" : 7680,
            "byteOffset" : 72900
        },
        {
            "buffer" : 0,
            "byteLength" : 10240,
            "byteOffset" : 80580
        },
        {
            "buffer" : 0,
            "byteLength" : 5120,
            "byteOffset" : 90820
        },
        {
            "buffer" : 0,
            "byteLength" : 1728,
            "byteOffset" : 95940
        },
        {
            "buffer" : 0,
            "byteLength" : 2592,
            "byteOffset" : 97668
        },
        {
            "buffer" : 0,
            "byteLength" : 2592,
            "byteOffset" : 100260
        },
        {
            "buffer" : 0,
            "byteLength" : 3456,
            "byteOffset" : 102852
        },
        {
            "buffer" : 0,
            "byteLength" : 1728,
            "byteOffset" : 106308
        },
        {
            "buffer" : 0,
            "byteLength" : 804,
            "byteOffset" : 108036
        },
        {
            "buffer" : 0,
            "byteLength" : 8520,
            "byteOffset" : 108840
        },
        {
            "buffer" : 0,
            "byteLength" : 8520,
            "byteOffset" : 117360
        },
        {
            "buffer" : 0,
            "byteLength" : 11360,
            "byteOffset" : 125880
        },
        {
            "buffer" : 0,
            "byteLength" : 5680,
            "byteOffset" : 137240
        },
        {
            "buffer" : 0,
            "byteLength" : 1992,
            "byteOffset" : 142920
        },
        {
            "buffer" : 0,
            "byteLength" : 6432,
            "byteOffset" : 144912
        },
        {
            "buffer" : 0,
            "byteLength" : 6432,
            "byteOffset" : 151344
        },
        {
            "buffer" : 0,
            "byteLength" : 8576,
            "byteOffset" : 157776
        },
        {
            "buffer" : 0,
            "byteLength" : 4288,
            "byteOffset" : 166352
        },
        {
            "buffer" : 0,
            "byteLength" : 3156,
            "byteOffset" : 170640
        }
    ],
    "samplers" : [
        {
            "magFilter" : 9729,
            "minFilter" : 9987
        }
    ],
    "buffers" : [
        {
            "byteLength" : 173796,
            "uri" : "stardust_capsule.bin"
        }
    ]
}
