{
    "asset" : {
        "generator" : "Khronos glTF Blender I/O v1.8.19",
        "version" : "2.0"
    },
    "scene" : 0,
    "scenes" : [
        {
            "name" : "Scene",
            "nodes" : [
                5
            ]
        }
    ],
    "nodes" : [
        {
            "mesh" : 0,
            "name" : "dish_AO"
        },
        {
            "mesh" : 1,
            "name" : "foil_silver"
        },
        {
            "mesh" : 2,
            "name" : "kepler_texture"
        },
        {
            "mesh" : 3,
            "name" : "ring_AO"
        },
        {
            "mesh" : 4,
            "name" : "shiny_panel"
        },
        {
            "children" : [
                0,
                1,
                2,
                3,
                4
            ],
            "mesh" : 5,
            "name" : "Kepler"
        }
    ],
    "materials" : [
        {
            "name" : "dish_AO",
            "pbrMetallicRoughness" : {
                "baseColorTexture" : {
                    "index" : 0
                },
                "metallicFactor" : 0.5,
                "roughnessFactor" : 0.800000011920929
            }
        },
        {
            "name" : "foil_silver",
            "normalTexture" : {
                "index" : 1
            },
            "pbrMetallicRoughness" : {
                "baseColorFactor" : [
                    1,
                    0.999999463558197,
                    1,
                    1
                ],
                "roughnessFactor" : 0.30000001192092896
            }
        },
        {
            "name" : "kepler_texture",
            "normalTexture" : {
                "index" : 2
            },
            "pbrMetallicRoughness" : {
                "baseColorTexture" : {
                    "index" : 3
                },
                "metallicRoughnessTexture" : {
                    "index" : 4
                }
            }
        },
        {
            "name" : "Lens",
            "pbrMetallicRoughness" : {
                "baseColorFactor" : [
                    0.0020000000949949026,
                    0.0011679561575874686,
                    0.00020000005315523595,
                    1
                ],
                "metallicFactor" : 0,
                "roughnessFactor" : 0.09999999403953552
            }
        },
        {
            "name" : "ring_AO",
            "pbrMetallicRoughness" : {
                "baseColorTexture" : {
                    "index" : 5
                },
                "metallicFactor" : 0.25,
                "roughnessFactor" : 0.7727272510528564
            }
        },
        {
            "name" : "shiny_panel",
            "normalTexture" : {
                "index" : 6,
                "scale" : 0.10000000149011612
            },
            "pbrMetallicRoughness" : {
                "baseColorTexture" : {
                    "index" : 7
                },
                "metallicRoughnessTexture" : {
                    "index" : 8
                }
            }
        },
        {
            "name" : "foil_gold",
            "normalTexture" : {
                "index" : 9
            },
            "pbrMetallicRoughness" : {
                "baseColorFactor" : [
                    0.9999998807907104,
                    0.6583749055862427,
                    0.08228273689746857,
                    1
                ],
                "roughnessFactor" : 0.30000001192092896
            }
        }
    ],
    "meshes" : [
        {
            "name" : "Default.005",
            "primitives" : [
                {
                    "attributes" : {
                        "POSITION" : 0,
                        "NORMAL" : 1,
                        "TANGENT" : 2,
                        "TEXCOORD_0" : 3
                    },
                    "indices" : 4,
                    "material" : 0
                }
            ]
        },
        {
            "name" : "Default.002",
            "primitives" : [
                {
                    "attributes" : {
                        "POSITION" : 5,
                        "NORMAL" : 6,
                        "TANGENT" : 7,
                        "TEXCOORD_0" : 8
                    },
                    "indices" : 9,
                    "material" : 1
                }
            ]
        },
        {
            "name" : "Default.003",
            "primitives" : [
                {
                    "attributes" : {
                        "POSITION" : 10,
                        "NORMAL" : 11,
                        "TANGENT" : 12,
                        "TEXCOORD_0" : 13
                    },
                    "indices" : 14,
                    "material" : 2
                },
                {
                    "attributes" : {
                        "POSITION" : 15,
                        "NORMAL" : 16,
                        "TANGENT" : 17,
                        "TEXCOORD_0" : 18
                    },
                    "indices" : 19,
                    "material" : 3
                }
            ]
        },
        {
            "name" : "Default.004",
            "primitives" : [
                {
                    "attributes" : {
                        "POSITION" : 20,
                        "NORMAL" : 21,
                        "TANGENT" : 22,
                        "TEXCOORD_0" : 23
                    },
                    "indices" : 24,
                    "material" : 4
                }
            ]
        },
        {
            "name" : "Default.000",
            "primitives" : [
                {
                    "attributes" : {
                        "POSITION" : 25,
                        "NORMAL" : 26,
                        "TANGENT" : 27,
                        "TEXCOORD_0" : 28
                    },
                    "indices" : 29,
                    "material" : 5
                }
            ]
        },
        {
            "name" : "Default.001",
            "primitives" : [
                {
                    "attributes" : {
                        "POSITION" : 30,
                        "NORMAL" : 31,
                        "TANGENT" : 32,
                        "TEXCOORD_0" : 33
                    },
                    "indices" : 34,
                    "material" : 6
                }
            ]
        }
    ],
    "textures" : [
        {
            "sampler" : 0,
            "source" : 0
        },
        {
            "sampler" : 0,
            "source" : 1
        },
        {
            "sampler" : 0,
            "source" : 2
        },
        {
            "sampler" : 0,
            "source" : 3
        },
        {
            "sampler" : 0,
            "source" : 4
        },
        {
            "sampler" : 0,
            "source" : 5
        },
        {
            "sampler" : 0,
            "source" : 2
        },
        {
            "sampler" : 0,
            "source" : 3
        },
        {
            "sampler" : 0,
            "source" : 4
        },
        {
            "sampler" : 0,
            "source" : 1
        }
    ],
    "images" : [
        {
            "mimeType" : "image/jpeg",
            "name" : "kepler_dish_ao",
            "uri" : "kepler_dish_ao.jpg"
        },
        {
            "mimeType" : "image/png",
            "name" : "foil_normal",
            "uri" : "foil_normal.png"
        },
        {
            "mimeType" : "image/png",
            "name" : "kepler_texture_normal",
            "uri" : "kepler_texture_normal.png"
        },
        {
            "mimeType" : "image/jpeg",
            "name" : "kepler_texture_albedo",
            "uri" : "kepler_texture_albedo.jpg"
        },
        {
            "mimeType" : "image/jpeg",
            "name" : "kepler_texture_pbr",
            "uri" : "kepler_texture_pbr.jpg"
        },
        {
            "mimeType" : "image/jpeg",
            "name" : "kepler_ring_ao",
            "uri" : "kepler_ring_ao.jpg"
        }
    ],
    "accessors" : [
        {
            "bufferView" : 0,
            "componentType" : 5126,
            "count" : 726,
            "max" : [
                0.19348889589309692,
                -1.0373516082763672,
                -1.0035207271575928
            ],
            "min" : [
                -0.6701485514640808,
                -1.9009857177734375,
                -1.3606584072113037
            ],
            "type" : "VEC3"
        },
        {
            "bufferView" : 1,
            "componentType" : 5126,
            "count" : 726,
            "type" : "VEC3"
        },
        {
            "bufferView" : 2,
            "componentType" : 5126,
            "count" : 726,
            "type" : "VEC4"
        },
        {
            "bufferView" : 3,
            "componentType" : 5126,
            "count" : 726,
            "type" : "VEC2"
        },
        {
            "bufferView" : 4,
            "componentType" : 5123,
            "count" : 2640,
            "type" : "SCALAR"
        },
        {
            "bufferView" : 5,
            "componentType" : 5126,
            "count" : 2074,
            "max" : [
                1.2635310888290405,
                -0.8282406330108643,
                1.090057373046875
            ],
            "min" : [
                -1.2584279775619507,
                -1.5988171100616455,
                -1.147825002670288
            ],
            "type" : "VEC3"
        },
        {
            "bufferView" : 6,
            "componentType" : 5126,
            "count" : 2074,
            "type" : "VEC3"
        },
        {
            "bufferView" : 7,
            "componentType" : 5126,
            "count" : 2074,
            "type" : "VEC4"
        },
        {
            "bufferView" : 8,
            "componentType" : 5126,
            "count" : 2074,
            "type" : "VEC2"
        },
        {
            "bufferView" : 9,
            "componentType" : 5123,
            "count" : 6228,
            "type" : "SCALAR"
        },
        {
            "bufferView" : 10,
            "componentType" : 5126,
            "count" : 4460,
            "max" : [
                1.2823073863983154,
                3.099364995956421,
                1.3023757934570312
            ],
            "min" : [
                -1.3686604499816895,
                -1.6269080638885498,
                -1.0622832775115967
            ],
            "type" : "VEC3"
        },
        {
            "bufferView" : 11,
            "componentType" : 5126,
            "count" : 4460,
            "type" : "VEC3"
        },
        {
            "bufferView" : 12,
            "componentType" : 5126,
            "count" : 4460,
            "type" : "VEC4"
        },
        {
            "bufferView" : 13,
            "componentType" : 5126,
            "count" : 4460,
            "type" : "VEC2"
        },
        {
            "bufferView" : 14,
            "componentType" : 5123,
            "count" : 6342,
            "type" : "SCALAR"
        },
        {
            "bufferView" : 15,
            "componentType" : 5126,
            "count" : 54,
            "max" : [
                0.5991933345794678,
                1.819962739944458,
                0.5871980786323547
            ],
            "min" : [
                -0.6075061559677124,
                1.819962739944458,
                -0.6195012927055359
            ],
            "type" : "VEC3"
        },
        {
            "bufferView" : 16,
            "componentType" : 5126,
            "count" : 54,
            "type" : "VEC3"
        },
        {
            "bufferView" : 17,
            "componentType" : 5126,
            "count" : 54,
            "type" : "VEC4"
        },
        {
            "bufferView" : 18,
            "componentType" : 5126,
            "count" : 54,
            "type" : "VEC2"
        },
        {
            "bufferView" : 19,
            "componentType" : 5123,
            "count" : 54,
            "type" : "SCALAR"
        },
        {
            "bufferView" : 20,
            "componentType" : 5126,
            "count" : 688,
            "max" : [
                0.5021556615829468,
                -1.4723107814788818,
                0.5020467042922974
            ],
            "min" : [
                -0.5019758939743042,
                -1.6269080638885498,
                -0.5020467042922974
            ],
            "type" : "VEC3"
        },
        {
            "bufferView" : 21,
            "componentType" : 5126,
            "count" : 688,
            "type" : "VEC3"
        },
        {
            "bufferView" : 22,
            "componentType" : 5126,
            "count" : 688,
            "type" : "VEC4"
        },
        {
            "bufferView" : 23,
            "componentType" : 5126,
            "count" : 688,
            "type" : "VEC2"
        },
        {
            "bufferView" : 24,
            "componentType" : 5123,
            "count" : 1632,
            "type" : "SCALAR"
        },
        {
            "bufferView" : 25,
            "componentType" : 5126,
            "count" : 430,
            "max" : [
                0.5027785301208496,
                2.208402633666992,
                0.971474289894104
            ],
            "min" : [
                -1.0983293056488037,
                -0.7409738898277283,
                -0.989052951335907
            ],
            "type" : "VEC3"
        },
        {
            "bufferView" : 26,
            "componentType" : 5126,
            "count" : 430,
            "type" : "VEC3"
        },
        {
            "bufferView" : 27,
            "componentType" : 5126,
            "count" : 430,
            "type" : "VEC4"
        },
        {
            "bufferView" : 28,
            "componentType" : 5126,
            "count" : 430,
            "type" : "VEC2"
        },
        {
            "bufferView" : 29,
            "componentType" : 5123,
            "count" : 546,
            "type" : "SCALAR"
        },
        {
            "bufferView" : 30,
            "componentType" : 5126,
            "count" : 3523,
            "max" : [
                1.2246434688568115,
                3.099364995956421,
                1.0572811365127563
            ],
            "min" : [
                -1.2154548168182373,
                -1.9076745510101318,
                -1.2816710472106934
            ],
            "type" : "VEC3"
        },
        {
            "bufferView" : 31,
            "componentType" : 5126,
            "count" : 3523,
            "type" : "VEC3"
        },
        {
            "bufferView" : 32,
            "componentType" : 5126,
            "count" : 3523,
            "type" : "VEC4"
        },
        {
            "bufferView" : 33,
            "componentType" : 5126,
            "count" : 3523,
            "type" : "VEC2"
        },
        {
            "bufferView" : 34,
            "componentType" : 5123,
            "count" : 9786,
            "type" : "SCALAR"
        }
    ],
    "bufferViews" : [
        {
            "buffer" : 0,
            "byteLength" : 8712,
            "byteOffset" : 0
        },
        {
            "buffer" : 0,
            "byteLength" : 8712,
            "byteOffset" : 8712
        },
        {
            "buffer" : 0,
            "byteLength" : 11616,
            "byteOffset" : 17424
        },
        {
            "buffer" : 0,
            "byteLength" : 5808,
            "byteOffset" : 29040
        },
        {
            "buffer" : 0,
            "byteLength" : 5280,
            "byteOffset" : 34848
        },
        {
            "buffer" : 0,
            "byteLength" : 24888,
            "byteOffset" : 40128
        },
        {
            "buffer" : 0,
            "byteLength" : 24888,
            "byteOffset" : 65016
        },
        {
            "buffer" : 0,
            "byteLength" : 33184,
            "byteOffset" : 89904
        },
        {
            "buffer" : 0,
            "byteLength" : 16592,
            "byteOffset" : 123088
        },
        {
            "buffer" : 0,
            "byteLength" : 12456,
            "byteOffset" : 139680
        },
        {
            "buffer" : 0,
            "byteLength" : 53520,
            "byteOffset" : 152136
        },
        {
            "buffer" : 0,
            "byteLength" : 53520,
            "byteOffset" : 205656
        },
        {
            "buffer" : 0,
            "byteLength" : 71360,
            "byteOffset" : 259176
        },
        {
            "buffer" : 0,
            "byteLength" : 35680,
            "byteOffset" : 330536
        },
        {
            "buffer" : 0,
            "byteLength" : 12684,
            "byteOffset" : 366216
        },
        {
            "buffer" : 0,
            "byteLength" : 648,
            "byteOffset" : 378900
        },
        {
            "buffer" : 0,
            "byteLength" : 648,
            "byteOffset" : 379548
        },
        {
            "buffer" : 0,
            "byteLength" : 864,
            "byteOffset" : 380196
        },
        {
            "buffer" : 0,
            "byteLength" : 432,
            "byteOffset" : 381060
        },
        {
            "buffer" : 0,
            "byteLength" : 108,
            "byteOffset" : 381492
        },
        {
            "buffer" : 0,
            "byteLength" : 8256,
            "byteOffset" : 381600
        },
        {
            "buffer" : 0,
            "byteLength" : 8256,
            "byteOffset" : 389856
        },
        {
            "buffer" : 0,
            "byteLength" : 11008,
            "byteOffset" : 398112
        },
        {
            "buffer" : 0,
            "byteLength" : 5504,
            "byteOffset" : 409120
        },
        {
            "buffer" : 0,
            "byteLength" : 3264,
            "byteOffset" : 414624
        },
        {
            "buffer" : 0,
            "byteLength" : 5160,
            "byteOffset" : 417888
        },
        {
            "buffer" : 0,
            "byteLength" : 5160,
            "byteOffset" : 423048
        },
        {
            "buffer" : 0,
            "byteLength" : 6880,
            "byteOffset" : 428208
        },
        {
            "buffer" : 0,
            "byteLength" : 3440,
            "byteOffset" : 435088
        },
        {
            "buffer" : 0,
            "byteLength" : 1092,
            "byteOffset" : 438528
        },
        {
            "buffer" : 0,
            "byteLength" : 42276,
            "byteOffset" : 439620
        },
        {
            "buffer" : 0,
            "byteLength" : 42276,
            "byteOffset" : 481896
        },
        {
            "buffer" : 0,
            "byteLength" : 56368,
            "byteOffset" : 524172
        },
        {
            "buffer" : 0,
            "byteLength" : 28184,
            "byteOffset" : 580540
        },
        {
            "buffer" : 0,
            "byteLength" : 19572,
            "byteOffset" : 608724
        }
    ],
    "samplers" : [
        {
            "magFilter" : 9729,
            "minFilter" : 9987
        }
    ],
    "buffers" : [
        {
            "byteLength" : 628296,
            "uri" : "kepler.bin"
        }
    ]
}
