{
    "asset" : {
        "generator" : "Khronos glTF Blender I/O v1.8.19",
        "version" : "2.0"
    },
    "scene" : 0,
    "scenes" : [
        {
            "name" : "Scene",
            "nodes" : [
                6
            ]
        }
    ],
    "nodes" : [
        {
            "mesh" : 0,
            "name" : "AO_other"
        },
        {
            "mesh" : 1,
            "name" : "foil_silver",
            "rotation" : [
                0,
                -0.5832298994064331,
                0,
                0.8123071193695068
            ]
        },
        {
            "mesh" : 2,
            "name" : "krinkle"
        },
        {
            "mesh" : 3,
            "name" : "shiny_panel"
        },
        {
            "mesh" : 4,
            "name" : "tex_01"
        },
        {
            "mesh" : 5,
            "name" : "tex_02",
            "rotation" : [
                0,
                -0.5832298994064331,
                0,
                0.8123071193695068
            ]
        },
        {
            "children" : [
                0,
                1,
                2,
                3,
                4,
                5
            ],
            "mesh" : 6,
            "name" : "BUS_foil_gold"
        }
    ],
    "materials" : [
        {
            "name" : "AO_other",
            "pbrMetallicRoughness" : {
                "baseColorTexture" : {
                    "index" : 0
                },
                "roughnessFactor" : 0.5
            }
        },
        {
            "name" : "foil_silver",
            "normalTexture" : {
                "index" : 1
            },
            "pbrMetallicRoughness" : {
                "baseColorFactor" : [
                    1,
                    0.999999463558197,
                    1,
                    1
                ],
                "roughnessFactor" : 0.30000001192092896
            }
        },
        {
            "name" : "black_krinkle",
            "normalTexture" : {
                "index" : 2
            },
            "pbrMetallicRoughness" : {
                "baseColorFactor" : [
                    0.01960664987564087,
                    0.01960664987564087,
                    0.01960664987564087,
                    1
                ],
                "metallicFactor" : 0,
                "roughnessFactor" : 0.6000000238418579
            }
        },
        {
            "name" : "shiny_panel",
            "pbrMetallicRoughness" : {
                "baseColorTexture" : {
                    "index" : 3
                },
                "metallicRoughnessTexture" : {
                    "index" : 4
                }
            }
        },
        {
            "name" : "tex_01",
            "normalTexture" : {
                "index" : 5
            },
            "pbrMetallicRoughness" : {
                "baseColorTexture" : {
                    "index" : 6
                },
                "metallicRoughnessTexture" : {
                    "index" : 7
                }
            }
        },
        {
            "name" : "tex_02",
            "pbrMetallicRoughness" : {
                "baseColorTexture" : {
                    "index" : 8
                },
                "metallicRoughnessTexture" : {
                    "index" : 9
                }
            }
        },
        {
            "name" : "foil_gold",
            "normalTexture" : {
                "index" : 10
            },
            "pbrMetallicRoughness" : {
                "baseColorFactor" : [
                    1,
                    0.6583749651908875,
                    0.08228272199630737,
                    1
                ],
                "roughnessFactor" : 0.30000001192092896
            }
        }
    ],
    "meshes" : [
        {
            "name" : "Ulysses.016",
            "primitives" : [
                {
                    "attributes" : {
                        "POSITION" : 0,
                        "NORMAL" : 1,
                        "TANGENT" : 2,
                        "TEXCOORD_0" : 3
                    },
                    "indices" : 4,
                    "material" : 0
                }
            ]
        },
        {
            "name" : "Ulysses.044",
            "primitives" : [
                {
                    "attributes" : {
                        "POSITION" : 5,
                        "NORMAL" : 6,
                        "TANGENT" : 7,
                        "TEXCOORD_0" : 8
                    },
                    "indices" : 9,
                    "material" : 1
                }
            ]
        },
        {
            "name" : "Ulysses.028",
            "primitives" : [
                {
                    "attributes" : {
                        "POSITION" : 10,
                        "NORMAL" : 11,
                        "TANGENT" : 12,
                        "TEXCOORD_0" : 13
                    },
                    "indices" : 14,
                    "material" : 2
                }
            ]
        },
        {
            "name" : "default.001",
            "primitives" : [
                {
                    "attributes" : {
                        "POSITION" : 15,
                        "NORMAL" : 16,
                        "TANGENT" : 17,
                        "TEXCOORD_0" : 18
                    },
                    "indices" : 19,
                    "material" : 3
                }
            ]
        },
        {
            "name" : "default.002",
            "primitives" : [
                {
                    "attributes" : {
                        "POSITION" : 20,
                        "NORMAL" : 21,
                        "TEXCOORD_0" : 22
                    },
                    "indices" : 23,
                    "material" : 4
                }
            ]
        },
        {
            "name" : "Ulysses.042",
            "primitives" : [
                {
                    "attributes" : {
                        "POSITION" : 24,
                        "NORMAL" : 25,
                        "TANGENT" : 26,
                        "TEXCOORD_0" : 27
                    },
                    "indices" : 28,
                    "material" : 5
                }
            ]
        },
        {
            "name" : "Cylinder",
            "primitives" : [
                {
                    "attributes" : {
                        "POSITION" : 29,
                        "NORMAL" : 30,
                        "TEXCOORD_0" : 31
                    },
                    "indices" : 32,
                    "material" : 6
                }
            ]
        }
    ],
    "textures" : [
        {
            "sampler" : 0,
            "source" : 0
        },
        {
            "sampler" : 0,
            "source" : 1
        },
        {
            "sampler" : 0,
            "source" : 1
        },
        {
            "sampler" : 0,
            "source" : 2
        },
        {
            "sampler" : 0,
            "source" : 3
        },
        {
            "sampler" : 0,
            "source" : 4
        },
        {
            "sampler" : 0,
            "source" : 5
        },
        {
            "sampler" : 0,
            "source" : 6
        },
        {
            "sampler" : 0,
            "source" : 7
        },
        {
            "sampler" : 0,
            "source" : 8
        },
        {
            "sampler" : 0,
            "source" : 1
        }
    ],
    "images" : [
        {
            "mimeType" : "image/jpeg",
            "name" : "ulysses_other_ao",
            "uri" : "ulysses_other_ao.jpg"
        },
        {
            "mimeType" : "image/png",
            "name" : "foil_normal.png",
            "uri" : "foil_normal_png.png"
        },
        {
            "mimeType" : "image/jpeg",
            "name" : "ulysses_dish_ao",
            "uri" : "ulysses_dish_ao.jpg"
        },
        {
            "mimeType" : "image/jpeg",
            "name" : "ulysses_dish_pbr",
            "uri" : "ulysses_dish_pbr.jpg"
        },
        {
            "mimeType" : "image/png",
            "name" : "ulysses_tex_01_normal",
            "uri" : "ulysses_tex_01_normal.png"
        },
        {
            "mimeType" : "image/jpeg",
            "name" : "ulysses_tex_01_albedo",
            "uri" : "ulysses_tex_01_albedo.jpg"
        },
        {
            "mimeType" : "image/jpeg",
            "name" : "ulysses_tex_01_pbr",
            "uri" : "ulysses_tex_01_pbr.jpg"
        },
        {
            "mimeType" : "image/jpeg",
            "name" : "ulysses_tex_02_albedo",
            "uri" : "ulysses_tex_02_albedo.jpg"
        },
        {
            "mimeType" : "image/jpeg",
            "name" : "ulysses_tex_02_pbr",
            "uri" : "ulysses_tex_02_pbr.jpg"
        }
    ],
    "accessors" : [
        {
            "bufferView" : 0,
            "componentType" : 5126,
            "count" : 162,
            "max" : [
                0.14935767650604248,
                0.12350627034902573,
                1.75590980052948
            ],
            "min" : [
                -0.14952370524406433,
                -0.17537511885166168,
                1.7416942119598389
            ],
            "type" : "VEC3"
        },
        {
            "bufferView" : 1,
            "componentType" : 5126,
            "count" : 162,
            "type" : "VEC3"
        },
        {
            "bufferView" : 2,
            "componentType" : 5126,
            "count" : 162,
            "type" : "VEC4"
        },
        {
            "bufferView" : 3,
            "componentType" : 5126,
            "count" : 162,
            "type" : "VEC2"
        },
        {
            "bufferView" : 4,
            "componentType" : 5123,
            "count" : 384,
            "type" : "SCALAR"
        },
        {
            "bufferView" : 5,
            "componentType" : 5126,
            "count" : 545,
            "max" : [
                -0.7272530794143677,
                0.11702165752649307,
                -0.6984118819236755
            ],
            "min" : [
                -5.353970050811768,
                -0.12266626209020615,
                -2.0289480686187744
            ],
            "type" : "VEC3"
        },
        {
            "bufferView" : 6,
            "componentType" : 5126,
            "count" : 545,
            "type" : "VEC3"
        },
        {
            "bufferView" : 7,
            "componentType" : 5126,
            "count" : 545,
            "type" : "VEC4"
        },
        {
            "bufferView" : 8,
            "componentType" : 5126,
            "count" : 545,
            "type" : "VEC2"
        },
        {
            "bufferView" : 9,
            "componentType" : 5123,
            "count" : 1788,
            "type" : "SCALAR"
        },
        {
            "bufferView" : 10,
            "componentType" : 5126,
            "count" : 187,
            "max" : [
                1.0097472667694092,
                0.032419219613075256,
                -0.6573268175125122
            ],
            "min" : [
                0.15096399188041687,
                -0.5297497510910034,
                -5.974374294281006
            ],
            "type" : "VEC3"
        },
        {
            "bufferView" : 11,
            "componentType" : 5126,
            "count" : 187,
            "type" : "VEC3"
        },
        {
            "bufferView" : 12,
            "componentType" : 5126,
            "count" : 187,
            "type" : "VEC4"
        },
        {
            "bufferView" : 13,
            "componentType" : 5126,
            "count" : 187,
            "type" : "VEC2"
        },
        {
            "bufferView" : 14,
            "componentType" : 5123,
            "count" : 558,
            "type" : "SCALAR"
        },
        {
            "bufferView" : 15,
            "componentType" : 5126,
            "count" : 632,
            "max" : [
                0.7292313575744629,
                0.42924603819847107,
                0.728786289691925
            ],
            "min" : [
                -0.729394793510437,
                0.1815090775489807,
                -0.7289552092552185
            ],
            "type" : "VEC3"
        },
        {
            "bufferView" : 16,
            "componentType" : 5126,
            "count" : 632,
            "type" : "VEC3"
        },
        {
            "bufferView" : 17,
            "componentType" : 5126,
            "count" : 632,
            "type" : "VEC4"
        },
        {
            "bufferView" : 18,
            "componentType" : 5126,
            "count" : 632,
            "type" : "VEC2"
        },
        {
            "bufferView" : 19,
            "componentType" : 5123,
            "count" : 3240,
            "type" : "SCALAR"
        },
        {
            "bufferView" : 20,
            "componentType" : 5126,
            "count" : 3322,
            "max" : [
                34.02558517456055,
                1.1644333600997925,
                1.7464287281036377
            ],
            "min" : [
                -33.99769973754883,
                -8.876738548278809,
                -3.8694629669189453
            ],
            "type" : "VEC3"
        },
        {
            "bufferView" : 21,
            "componentType" : 5126,
            "count" : 3322,
            "type" : "VEC3"
        },
        {
            "bufferView" : 22,
            "componentType" : 5126,
            "count" : 3322,
            "type" : "VEC2"
        },
        {
            "bufferView" : 23,
            "componentType" : 5123,
            "count" : 8934,
            "type" : "SCALAR"
        },
        {
            "bufferView" : 24,
            "componentType" : 5126,
            "count" : 498,
            "max" : [
                0.20355963706970215,
                1.3259925842285156,
                0.3209857940673828
            ],
            "min" : [
                -2.867401361465454,
                -0.6772823333740234,
                -1.0615336894989014
            ],
            "type" : "VEC3"
        },
        {
            "bufferView" : 25,
            "componentType" : 5126,
            "count" : 498,
            "type" : "VEC3"
        },
        {
            "bufferView" : 26,
            "componentType" : 5126,
            "count" : 498,
            "type" : "VEC4"
        },
        {
            "bufferView" : 27,
            "componentType" : 5126,
            "count" : 498,
            "type" : "VEC2"
        },
        {
            "bufferView" : 28,
            "componentType" : 5123,
            "count" : 1308,
            "type" : "SCALAR"
        },
        {
            "bufferView" : 29,
            "componentType" : 5126,
            "count" : 2517,
            "max" : [
                34.02558517456055,
                0.36812546849250793,
                0.7810035347938538
            ],
            "min" : [
                -33.99769973754883,
                -8.876738548278809,
                -1.0316715240478516
            ],
            "type" : "VEC3"
        },
        {
            "bufferView" : 30,
            "componentType" : 5126,
            "count" : 2517,
            "type" : "VEC3"
        },
        {
            "bufferView" : 31,
            "componentType" : 5126,
            "count" : 2517,
            "type" : "VEC2"
        },
        {
            "bufferView" : 32,
            "componentType" : 5123,
            "count" : 9387,
            "type" : "SCALAR"
        }
    ],
    "bufferViews" : [
        {
            "buffer" : 0,
            "byteLength" : 1944,
            "byteOffset" : 0
        },
        {
            "buffer" : 0,
            "byteLength" : 1944,
            "byteOffset" : 1944
        },
        {
            "buffer" : 0,
            "byteLength" : 2592,
            "byteOffset" : 3888
        },
        {
            "buffer" : 0,
            "byteLength" : 1296,
            "byteOffset" : 6480
        },
        {
            "buffer" : 0,
            "byteLength" : 768,
            "byteOffset" : 7776
        },
        {
            "buffer" : 0,
            "byteLength" : 6540,
            "byteOffset" : 8544
        },
        {
            "buffer" : 0,
            "byteLength" : 6540,
            "byteOffset" : 15084
        },
        {
            "buffer" : 0,
            "byteLength" : 8720,
            "byteOffset" : 21624
        },
        {
            "buffer" : 0,
            "byteLength" : 4360,
            "byteOffset" : 30344
        },
        {
            "buffer" : 0,
            "byteLength" : 3576,
            "byteOffset" : 34704
        },
        {
            "buffer" : 0,
            "byteLength" : 2244,
            "byteOffset" : 38280
        },
        {
            "buffer" : 0,
            "byteLength" : 2244,
            "byteOffset" : 40524
        },
        {
            "buffer" : 0,
            "byteLength" : 2992,
            "byteOffset" : 42768
        },
        {
            "buffer" : 0,
            "byteLength" : 1496,
            "byteOffset" : 45760
        },
        {
            "buffer" : 0,
            "byteLength" : 1116,
            "byteOffset" : 47256
        },
        {
            "buffer" : 0,
            "byteLength" : 7584,
            "byteOffset" : 48372
        },
        {
            "buffer" : 0,
            "byteLength" : 7584,
            "byteOffset" : 55956
        },
        {
            "buffer" : 0,
            "byteLength" : 10112,
            "byteOffset" : 63540
        },
        {
            "buffer" : 0,
            "byteLength" : 5056,
            "byteOffset" : 73652
        },
        {
            "buffer" : 0,
            "byteLength" : 6480,
            "byteOffset" : 78708
        },
        {
            "buffer" : 0,
            "byteLength" : 39864,
            "byteOffset" : 85188
        },
        {
            "buffer" : 0,
            "byteLength" : 39864,
            "byteOffset" : 125052
        },
        {
            "buffer" : 0,
            "byteLength" : 26576,
            "byteOffset" : 164916
        },
        {
            "buffer" : 0,
            "byteLength" : 17868,
            "byteOffset" : 191492
        },
        {
            "buffer" : 0,
            "byteLength" : 5976,
            "byteOffset" : 209360
        },
        {
            "buffer" : 0,
            "byteLength" : 5976,
            "byteOffset" : 215336
        },
        {
            "buffer" : 0,
            "byteLength" : 7968,
            "byteOffset" : 221312
        },
        {
            "buffer" : 0,
            "byteLength" : 3984,
            "byteOffset" : 229280
        },
        {
            "buffer" : 0,
            "byteLength" : 2616,
            "byteOffset" : 233264
        },
        {
            "buffer" : 0,
            "byteLength" : 30204,
            "byteOffset" : 235880
        },
        {
            "buffer" : 0,
            "byteLength" : 30204,
            "byteOffset" : 266084
        },
        {
            "buffer" : 0,
            "byteLength" : 20136,
            "byteOffset" : 296288
        },
        {
            "buffer" : 0,
            "byteLength" : 18774,
            "byteOffset" : 316424
        }
    ],
    "samplers" : [
        {
            "magFilter" : 9729,
            "minFilter" : 9987
        }
    ],
    "buffers" : [
        {
            "byteLength" : 335200,
            "uri" : "ulysses.bin"
        }
    ]
}
