{
    "asset" : {
        "generator" : "Khronos glTF Blender I/O v1.8.19",
        "version" : "2.0"
    },
    "scene" : 0,
    "scenes" : [
        {
            "name" : "Scene",
            "nodes" : [
                4
            ]
        }
    ],
    "nodes" : [
        {
            "mesh" : 0,
            "name" : "etm_inner"
        },
        {
            "mesh" : 1,
            "name" : "solar_cylinders",
            "rotation" : [
                0,
                0,
                0,
                -1
            ],
            "translation" : [
                0.035080306231975555,
                -0.16134732961654663,
                -0.4341275691986084
            ]
        },
        {
            "children" : [
                1
            ],
            "mesh" : 2,
            "name" : "instruments"
        },
        {
            "mesh" : 3,
            "name" : "Reflectors"
        },
        {
            "children" : [
                0,
                2,
                3
            ],
            "mesh" : 4,
            "name" : "BUS"
        }
    ],
    "materials" : [
        {
            "name" : "dark",
            "pbrMetallicRoughness" : {
                "baseColorFactor" : [
                    0,
                    0,
                    0,
                    1
                ],
                "metallicFactor" : 0,
                "roughnessFactor" : 0.9545454382896423
            }
        },
        {
            "name" : "aluminum.001",
            "pbrMetallicRoughness" : {
                "baseColorFactor" : [
                    0.6834995150566101,
                    0.7098264694213867,
                    0.8733140230178833,
                    1
                ],
                "roughnessFactor" : 0.38181817531585693
            }
        },
        {
            "name" : "DIFFUSE Metal",
            "normalTexture" : {
                "index" : 0
            },
            "pbrMetallicRoughness" : {
                "baseColorTexture" : {
                    "index" : 1
                },
                "metallicRoughnessTexture" : {
                    "index" : 2
                }
            }
        },
        {
            "name" : "Diffuse NonMetal",
            "normalTexture" : {
                "index" : 3
            },
            "pbrMetallicRoughness" : {
                "baseColorTexture" : {
                    "index" : 4
                },
                "metallicRoughnessTexture" : {
                    "index" : 5
                }
            }
        },
        {
            "name" : "shiny_panels",
            "normalTexture" : {
                "index" : 6,
                "scale" : 0.25
            },
            "pbrMetallicRoughness" : {
                "baseColorTexture" : {
                    "index" : 7
                },
                "metallicRoughnessTexture" : {
                    "index" : 8
                }
            }
        },
        {
            "name" : "mirror chrome.001",
            "normalTexture" : {
                "index" : 9,
                "scale" : 0.02500000037252903
            },
            "pbrMetallicRoughness" : {
                "baseColorFactor" : [
                    0.9800000190734863,
                    0.9800000190734863,
                    0.9800000190734863,
                    1
                ],
                "roughnessFactor" : 0.05000000074505806
            }
        },
        {
            "name" : "foil_gold.001",
            "normalTexture" : {
                "index" : 10
            },
            "pbrMetallicRoughness" : {
                "baseColorFactor" : [
                    0.9999998807907104,
                    0.6583749055862427,
                    0.08228273689746857,
                    1
                ],
                "roughnessFactor" : 0.30000001192092896
            }
        }
    ],
    "meshes" : [
        {
            "name" : "Cube.006",
            "primitives" : [
                {
                    "attributes" : {
                        "POSITION" : 0,
                        "NORMAL" : 1,
                        "TANGENT" : 2,
                        "TEXCOORD_0" : 3
                    },
                    "indices" : 4,
                    "material" : 0
                }
            ]
        },
        {
            "name" : "Cylinder.012",
            "primitives" : [
                {
                    "attributes" : {
                        "POSITION" : 5,
                        "NORMAL" : 6,
                        "TANGENT" : 7,
                        "TEXCOORD_0" : 8
                    },
                    "indices" : 9,
                    "material" : 1
                }
            ]
        },
        {
            "name" : "Cylinder.019",
            "primitives" : [
                {
                    "attributes" : {
                        "POSITION" : 10,
                        "NORMAL" : 11,
                        "TANGENT" : 12,
                        "TEXCOORD_0" : 13
                    },
                    "indices" : 14,
                    "material" : 2
                },
                {
                    "attributes" : {
                        "POSITION" : 15,
                        "NORMAL" : 16,
                        "TANGENT" : 17,
                        "TEXCOORD_0" : 18
                    },
                    "indices" : 19,
                    "material" : 3
                },
                {
                    "attributes" : {
                        "POSITION" : 20,
                        "NORMAL" : 21,
                        "TANGENT" : 22,
                        "TEXCOORD_0" : 23
                    },
                    "indices" : 24,
                    "material" : 1
                },
                {
                    "attributes" : {
                        "POSITION" : 25,
                        "NORMAL" : 26,
                        "TANGENT" : 27,
                        "TEXCOORD_0" : 28
                    },
                    "indices" : 29,
                    "material" : 4
                }
            ]
        },
        {
            "name" : "Geometry-external_har.037",
            "primitives" : [
                {
                    "attributes" : {
                        "POSITION" : 30,
                        "NORMAL" : 31,
                        "TANGENT" : 32,
                        "TEXCOORD_0" : 33
                    },
                    "indices" : 34,
                    "material" : 5
                }
            ]
        },
        {
            "name" : "Cube.007",
            "primitives" : [
                {
                    "attributes" : {
                        "POSITION" : 35,
                        "NORMAL" : 36,
                        "TANGENT" : 37,
                        "TEXCOORD_0" : 38
                    },
                    "indices" : 39,
                    "material" : 6
                },
                {
                    "attributes" : {
                        "POSITION" : 40,
                        "NORMAL" : 41,
                        "TANGENT" : 42,
                        "TEXCOORD_0" : 43
                    },
                    "indices" : 44,
                    "material" : 0
                }
            ]
        }
    ],
    "textures" : [
        {
            "sampler" : 0,
            "source" : 0
        },
        {
            "sampler" : 0,
            "source" : 1
        },
        {
            "sampler" : 0,
            "source" : 2
        },
        {
            "sampler" : 0,
            "source" : 0
        },
        {
            "sampler" : 0,
            "source" : 1
        },
        {
            "sampler" : 0,
            "source" : 2
        },
        {
            "sampler" : 0,
            "source" : 0
        },
        {
            "sampler" : 0,
            "source" : 1
        },
        {
            "sampler" : 0,
            "source" : 2
        },
        {
            "sampler" : 0,
            "source" : 3
        },
        {
            "sampler" : 0,
            "source" : 4
        }
    ],
    "images" : [
        {
            "mimeType" : "image/png",
            "name" : "landsat7_normal",
            "uri" : "landsat7_normal.png"
        },
        {
            "mimeType" : "image/png",
            "name" : "landsat7_albedo",
            "uri" : "landsat7_albedo.png"
        },
        {
            "mimeType" : "image/jpeg",
            "name" : "landsat7_pbr",
            "uri" : "landsat7_pbr.jpg"
        },
        {
            "mimeType" : "image/png",
            "name" : "reflective_square_normal",
            "uri" : "reflective_square_normal.png"
        },
        {
            "mimeType" : "image/png",
            "name" : "foil_n",
            "uri" : "foil_n.png"
        }
    ],
    "accessors" : [
        {
            "bufferView" : 0,
            "componentType" : 5126,
            "count" : 150,
            "max" : [
                -0.27160516381263733,
                0.5164408683776855,
                -1.3301661014556885
            ],
            "min" : [
                -0.9929351806640625,
                -0.13579171895980835,
                -1.9823986291885376
            ],
            "type" : "VEC3"
        },
        {
            "bufferView" : 1,
            "componentType" : 5126,
            "count" : 150,
            "type" : "VEC3"
        },
        {
            "bufferView" : 2,
            "componentType" : 5126,
            "count" : 150,
            "type" : "VEC4"
        },
        {
            "bufferView" : 3,
            "componentType" : 5126,
            "count" : 150,
            "type" : "VEC2"
        },
        {
            "bufferView" : 4,
            "componentType" : 5123,
            "count" : 240,
            "type" : "SCALAR"
        },
        {
            "bufferView" : 5,
            "componentType" : 5126,
            "count" : 1616,
            "max" : [
                11.023157119750977,
                2.2592151165008545,
                1.8082661628723145
            ],
            "min" : [
                2.4512665271759033,
                0.23599258065223694,
                0.4511953592300415
            ],
            "type" : "VEC3"
        },
        {
            "bufferView" : 6,
            "componentType" : 5126,
            "count" : 1616,
            "type" : "VEC3"
        },
        {
            "bufferView" : 7,
            "componentType" : 5126,
            "count" : 1616,
            "type" : "VEC4"
        },
        {
            "bufferView" : 8,
            "componentType" : 5126,
            "count" : 1616,
            "type" : "VEC2"
        },
        {
            "bufferView" : 9,
            "componentType" : 5123,
            "count" : 4032,
            "type" : "SCALAR"
        },
        {
            "bufferView" : 10,
            "componentType" : 5126,
            "count" : 7259,
            "max" : [
                9.324673652648926,
                1.7994320392608643,
                2.6512608528137207
            ],
            "min" : [
                -1.9213045835494995,
                -1.5435500144958496,
                -2.0442793369293213
            ],
            "type" : "VEC3"
        },
        {
            "bufferView" : 11,
            "componentType" : 5126,
            "count" : 7259,
            "type" : "VEC3"
        },
        {
            "bufferView" : 12,
            "componentType" : 5126,
            "count" : 7259,
            "type" : "VEC4"
        },
        {
            "bufferView" : 13,
            "componentType" : 5126,
            "count" : 7259,
            "type" : "VEC2"
        },
        {
            "bufferView" : 14,
            "componentType" : 5123,
            "count" : 18552,
            "type" : "SCALAR"
        },
        {
            "bufferView" : 15,
            "componentType" : 5126,
            "count" : 24,
            "max" : [
                11.471612930297852,
                2.235778570175171,
                1.9373935461044312
            ],
            "min" : [
                2.0454964637756348,
                0.1343752145767212,
                -0.5292346477508545
            ],
            "type" : "VEC3"
        },
        {
            "bufferView" : 16,
            "componentType" : 5126,
            "count" : 24,
            "type" : "VEC3"
        },
        {
            "bufferView" : 17,
            "componentType" : 5126,
            "count" : 24,
            "type" : "VEC4"
        },
        {
            "bufferView" : 18,
            "componentType" : 5126,
            "count" : 24,
            "type" : "VEC2"
        },
        {
            "bufferView" : 19,
            "componentType" : 5123,
            "count" : 24,
            "type" : "SCALAR"
        },
        {
            "bufferView" : 20,
            "componentType" : 5126,
            "count" : 96,
            "max" : [
                11.483500480651855,
                2.235778570175171,
                1.9547086954116821
            ],
            "min" : [
                2.0454964637756348,
                0.09286967664957047,
                -0.5292346477508545
            ],
            "type" : "VEC3"
        },
        {
            "bufferView" : 21,
            "componentType" : 5126,
            "count" : 96,
            "type" : "VEC3"
        },
        {
            "bufferView" : 22,
            "componentType" : 5126,
            "count" : 96,
            "type" : "VEC4"
        },
        {
            "bufferView" : 23,
            "componentType" : 5126,
            "count" : 96,
            "type" : "VEC2"
        },
        {
            "bufferView" : 24,
            "componentType" : 5123,
            "count" : 96,
            "type" : "SCALAR"
        },
        {
            "bufferView" : 25,
            "componentType" : 5126,
            "count" : 24,
            "max" : [
                11.483500480651855,
                2.1948633193969727,
                1.9547086954116821
            ],
            "min" : [
                2.054744005203247,
                0.09286967664957047,
                -0.5292346477508545
            ],
            "type" : "VEC3"
        },
        {
            "bufferView" : 26,
            "componentType" : 5126,
            "count" : 24,
            "type" : "VEC3"
        },
        {
            "bufferView" : 27,
            "componentType" : 5126,
            "count" : 24,
            "type" : "VEC4"
        },
        {
            "bufferView" : 28,
            "componentType" : 5126,
            "count" : 24,
            "type" : "VEC2"
        },
        {
            "bufferView" : 29,
            "componentType" : 5123,
            "count" : 24,
            "type" : "SCALAR"
        },
        {
            "bufferView" : 30,
            "componentType" : 5126,
            "count" : 927,
            "max" : [
                0.7134837508201599,
                1.165052890777588,
                2.2028045654296875
            ],
            "min" : [
                -0.9900854229927063,
                -1.2148809432983398,
                -0.8481904864311218
            ],
            "type" : "VEC3"
        },
        {
            "bufferView" : 31,
            "componentType" : 5126,
            "count" : 927,
            "type" : "VEC3"
        },
        {
            "bufferView" : 32,
            "componentType" : 5126,
            "count" : 927,
            "type" : "VEC4"
        },
        {
            "bufferView" : 33,
            "componentType" : 5126,
            "count" : 927,
            "type" : "VEC2"
        },
        {
            "bufferView" : 34,
            "componentType" : 5123,
            "count" : 1026,
            "type" : "SCALAR"
        },
        {
            "bufferView" : 35,
            "componentType" : 5126,
            "count" : 2155,
            "max" : [
                1.314432978630066,
                1.3070518970489502,
                2.4763612747192383
            ],
            "min" : [
                -1.100784182548523,
                -1.202336072921753,
                -2.048383951187134
            ],
            "type" : "VEC3"
        },
        {
            "bufferView" : 36,
            "componentType" : 5126,
            "count" : 2155,
            "type" : "VEC3"
        },
        {
            "bufferView" : 37,
            "componentType" : 5126,
            "count" : 2155,
            "type" : "VEC4"
        },
        {
            "bufferView" : 38,
            "componentType" : 5126,
            "count" : 2155,
            "type" : "VEC2"
        },
        {
            "bufferView" : 39,
            "componentType" : 5123,
            "count" : 8157,
            "type" : "SCALAR"
        },
        {
            "bufferView" : 40,
            "componentType" : 5126,
            "count" : 18,
            "max" : [
                1.2648413181304932,
                0.5642623901367188,
                -1.3167297840118408
            ],
            "min" : [
                0.679763913154602,
                -0.04332956671714783,
                -1.9958343505859375
            ],
            "type" : "VEC3"
        },
        {
            "bufferView" : 41,
            "componentType" : 5126,
            "count" : 18,
            "type" : "VEC3"
        },
        {
            "bufferView" : 42,
            "componentType" : 5126,
            "count" : 18,
            "type" : "VEC4"
        },
        {
            "bufferView" : 43,
            "componentType" : 5126,
            "count" : 18,
            "type" : "VEC2"
        },
        {
            "bufferView" : 44,
            "componentType" : 5123,
            "count" : 48,
            "type" : "SCALAR"
        }
    ],
    "bufferViews" : [
        {
            "buffer" : 0,
            "byteLength" : 1800,
            "byteOffset" : 0
        },
        {
            "buffer" : 0,
            "byteLength" : 1800,
            "byteOffset" : 1800
        },
        {
            "buffer" : 0,
            "byteLength" : 2400,
            "byteOffset" : 3600
        },
        {
            "buffer" : 0,
            "byteLength" : 1200,
            "byteOffset" : 6000
        },
        {
            "buffer" : 0,
            "byteLength" : 480,
            "byteOffset" : 7200
        },
        {
            "buffer" : 0,
            "byteLength" : 19392,
            "byteOffset" : 7680
        },
        {
            "buffer" : 0,
            "byteLength" : 19392,
            "byteOffset" : 27072
        },
        {
            "buffer" : 0,
            "byteLength" : 25856,
            "byteOffset" : 46464
        },
        {
            "buffer" : 0,
            "byteLength" : 12928,
            "byteOffset" : 72320
        },
        {
            "buffer" : 0,
            "byteLength" : 8064,
            "byteOffset" : 85248
        },
        {
            "buffer" : 0,
            "byteLength" : 87108,
            "byteOffset" : 93312
        },
        {
            "buffer" : 0,
            "byteLength" : 87108,
            "byteOffset" : 180420
        },
        {
            "buffer" : 0,
            "byteLength" : 116144,
            "byteOffset" : 267528
        },
        {
            "buffer" : 0,
            "byteLength" : 58072,
            "byteOffset" : 383672
        },
        {
            "buffer" : 0,
            "byteLength" : 37104,
            "byteOffset" : 441744
        },
        {
            "buffer" : 0,
            "byteLength" : 288,
            "byteOffset" : 478848
        },
        {
            "buffer" : 0,
            "byteLength" : 288,
            "byteOffset" : 479136
        },
        {
            "buffer" : 0,
            "byteLength" : 384,
            "byteOffset" : 479424
        },
        {
            "buffer" : 0,
            "byteLength" : 192,
            "byteOffset" : 479808
        },
        {
            "buffer" : 0,
            "byteLength" : 48,
            "byteOffset" : 480000
        },
        {
            "buffer" : 0,
            "byteLength" : 1152,
            "byteOffset" : 480048
        },
        {
            "buffer" : 0,
            "byteLength" : 1152,
            "byteOffset" : 481200
        },
        {
            "buffer" : 0,
            "byteLength" : 1536,
            "byteOffset" : 482352
        },
        {
            "buffer" : 0,
            "byteLength" : 768,
            "byteOffset" : 483888
        },
        {
            "buffer" : 0,
            "byteLength" : 192,
            "byteOffset" : 484656
        },
        {
            "buffer" : 0,
            "byteLength" : 288,
            "byteOffset" : 484848
        },
        {
            "buffer" : 0,
            "byteLength" : 288,
            "byteOffset" : 485136
        },
        {
            "buffer" : 0,
            "byteLength" : 384,
            "byteOffset" : 485424
        },
        {
            "buffer" : 0,
            "byteLength" : 192,
            "byteOffset" : 485808
        },
        {
            "buffer" : 0,
            "byteLength" : 48,
            "byteOffset" : 486000
        },
        {
            "buffer" : 0,
            "byteLength" : 11124,
            "byteOffset" : 486048
        },
        {
            "buffer" : 0,
            "byteLength" : 11124,
            "byteOffset" : 497172
        },
        {
            "buffer" : 0,
            "byteLength" : 14832,
            "byteOffset" : 508296
        },
        {
            "buffer" : 0,
            "byteLength" : 7416,
            "byteOffset" : 523128
        },
        {
            "buffer" : 0,
            "byteLength" : 2052,
            "byteOffset" : 530544
        },
        {
            "buffer" : 0,
            "byteLength" : 25860,
            "byteOffset" : 532596
        },
        {
            "buffer" : 0,
            "byteLength" : 25860,
            "byteOffset" : 558456
        },
        {
            "buffer" : 0,
            "byteLength" : 34480,
            "byteOffset" : 584316
        },
        {
            "buffer" : 0,
            "byteLength" : 17240,
            "byteOffset" : 618796
        },
        {
            "buffer" : 0,
            "byteLength" : 16314,
            "byteOffset" : 636036
        },
        {
            "buffer" : 0,
            "byteLength" : 216,
            "byteOffset" : 652352
        },
        {
            "buffer" : 0,
            "byteLength" : 216,
            "byteOffset" : 652568
        },
        {
            "buffer" : 0,
            "byteLength" : 288,
            "byteOffset" : 652784
        },
        {
            "buffer" : 0,
            "byteLength" : 144,
            "byteOffset" : 653072
        },
        {
            "buffer" : 0,
            "byteLength" : 96,
            "byteOffset" : 653216
        }
    ],
    "samplers" : [
        {
            "magFilter" : 9729,
            "minFilter" : 9987
        }
    ],
    "buffers" : [
        {
            "byteLength" : 653312,
            "uri" : "landsat7.bin"
        }
    ]
}
