{
    "asset" : {
        "generator" : "Khronos glTF Blender I/O v1.8.19",
        "version" : "2.0"
    },
    "scene" : 0,
    "scenes" : [
        {
            "name" : "Scene",
            "nodes" : [
                4
            ]
        }
    ],
    "nodes" : [
        {
            "mesh" : 0,
            "name" : "dish.002",
            "scale" : [
                0.020982032641768456,
                0.020982032641768456,
                0.020982032641768456
            ],
            "translation" : [
                0,
                0,
                0.06077699735760689
            ]
        },
        {
            "mesh" : 1,
            "name" : "dish.003",
            "scale" : [
                0.020982032641768456,
                0.020982032641768456,
                0.020982032641768456
            ],
            "translation" : [
                0,
                0,
                0.06077699735760689
            ]
        },
        {
            "mesh" : 2,
            "name" : "lander.001",
            "translation" : [
                -0.015999846160411835,
                -1.7181085348129272,
                0.1276036500930786
            ]
        },
        {
            "mesh" : 3,
            "name" : "vents.004",
            "rotation" : [
                0,
                0,
                0.7071067690849304,
                0.7071068286895752
            ],
            "scale" : [
                1.3406343460083008,
                1,
                1.3587778806686401
            ],
            "translation" : [
                0.5142354369163513,
                -1.483860969543457,
                0.12760384380817413
            ]
        },
        {
            "children" : [
                0,
                1,
                2,
                3
            ],
            "mesh" : 4,
            "name" : "Philae"
        }
    ],
    "materials" : [
        {
            "name" : "parts2_AO",
            "pbrMetallicRoughness" : {
                "baseColorTexture" : {
                    "index" : 0
                },
                "roughnessFactor" : 0.30000001192092896
            }
        },
        {
            "name" : "parts3_AO",
            "pbrMetallicRoughness" : {
                "baseColorTexture" : {
                    "index" : 1
                },
                "roughnessFactor" : 0.30000001192092896
            }
        },
        {
            "name" : "black_krinkle",
            "normalTexture" : {
                "index" : 2
            },
            "pbrMetallicRoughness" : {
                "baseColorFactor" : [
                    0.01960664987564087,
                    0.01960664987564087,
                    0.01960664987564087,
                    1
                ],
                "metallicFactor" : 0,
                "roughnessFactor" : 0.6000000238418579
            }
        },
        {
            "name" : "shiny_panel",
            "normalTexture" : {
                "index" : 3,
                "scale" : 0.20000000298023224
            },
            "pbrMetallicRoughness" : {
                "baseColorTexture" : {
                    "index" : 4
                },
                "metallicRoughnessTexture" : {
                    "index" : 5
                }
            }
        }
    ],
    "meshes" : [
        {
            "name" : "Rosetta.036",
            "primitives" : [
                {
                    "attributes" : {
                        "POSITION" : 0,
                        "NORMAL" : 1,
                        "TANGENT" : 2,
                        "TEXCOORD_0" : 3
                    },
                    "indices" : 4,
                    "material" : 0
                },
                {
                    "attributes" : {
                        "POSITION" : 5,
                        "NORMAL" : 6,
                        "TANGENT" : 7,
                        "TEXCOORD_0" : 8
                    },
                    "indices" : 9,
                    "material" : 1
                }
            ]
        },
        {
            "name" : "Rosetta.037",
            "primitives" : [
                {
                    "attributes" : {
                        "POSITION" : 10,
                        "NORMAL" : 11,
                        "TANGENT" : 12,
                        "TEXCOORD_0" : 13
                    },
                    "indices" : 14,
                    "material" : 0
                },
                {
                    "attributes" : {
                        "POSITION" : 15,
                        "NORMAL" : 16,
                        "TANGENT" : 17,
                        "TEXCOORD_0" : 18
                    },
                    "indices" : 19,
                    "material" : 1
                }
            ]
        },
        {
            "name" : "Rosetta.029",
            "primitives" : [
                {
                    "attributes" : {
                        "POSITION" : 20,
                        "NORMAL" : 21,
                        "TANGENT" : 22,
                        "TEXCOORD_0" : 23
                    },
                    "indices" : 24,
                    "material" : 2
                }
            ]
        },
        {
            "name" : "Cube.008",
            "primitives" : [
                {
                    "attributes" : {
                        "POSITION" : 25,
                        "NORMAL" : 26,
                        "TANGENT" : 27,
                        "TEXCOORD_0" : 28
                    },
                    "indices" : 29,
                    "material" : 3
                }
            ]
        },
        {
            "name" : "Rosetta.030",
            "primitives" : [
                {
                    "attributes" : {
                        "POSITION" : 30,
                        "NORMAL" : 31,
                        "TANGENT" : 32,
                        "TEXCOORD_0" : 33
                    },
                    "indices" : 34,
                    "material" : 0
                }
            ]
        }
    ],
    "textures" : [
        {
            "sampler" : 0,
            "source" : 0
        },
        {
            "sampler" : 0,
            "source" : 1
        },
        {
            "sampler" : 0,
            "source" : 2
        },
        {
            "sampler" : 0,
            "source" : 3
        },
        {
            "sampler" : 0,
            "source" : 4
        },
        {
            "sampler" : 0,
            "source" : 5
        }
    ],
    "images" : [
        {
            "mimeType" : "image/jpeg",
            "name" : "rosetta_parts2_ao",
            "uri" : "rosetta_parts2_ao.jpg"
        },
        {
            "mimeType" : "image/jpeg",
            "name" : "rosetta_parts3_ao",
            "uri" : "rosetta_parts3_ao.jpg"
        },
        {
            "mimeType" : "image/png",
            "name" : "foil_normal",
            "uri" : "foil_normal.png"
        },
        {
            "mimeType" : "image/png",
            "name" : "rosetta_tex_01_normal",
            "uri" : "rosetta_tex_01_normal.png"
        },
        {
            "mimeType" : "image/jpeg",
            "name" : "rosetta_tex_01_albedo",
            "uri" : "rosetta_tex_01_albedo.jpg"
        },
        {
            "mimeType" : "image/jpeg",
            "name" : "rosetta_tex_01_pbr",
            "uri" : "rosetta_tex_01_pbr.jpg"
        }
    ],
    "accessors" : [
        {
            "bufferView" : 0,
            "componentType" : 5126,
            "count" : 84,
            "max" : [
                23.450000762939453,
                -50.05019760131836,
                23.473194122314453
            ],
            "min" : [
                -24.98130226135254,
                -64.19519805908203,
                -28.29419708251953
            ],
            "type" : "VEC3"
        },
        {
            "bufferView" : 1,
            "componentType" : 5126,
            "count" : 84,
            "type" : "VEC3"
        },
        {
            "bufferView" : 2,
            "componentType" : 5126,
            "count" : 84,
            "type" : "VEC4"
        },
        {
            "bufferView" : 3,
            "componentType" : 5126,
            "count" : 84,
            "type" : "VEC2"
        },
        {
            "bufferView" : 4,
            "componentType" : 5123,
            "count" : 144,
            "type" : "SCALAR"
        },
        {
            "bufferView" : 5,
            "componentType" : 5126,
            "count" : 3896,
            "max" : [
                30.198699951171875,
                -49.2129020690918,
                31.637495040893555
            ],
            "min" : [
                -31.680500030517578,
                -105.21150207519531,
                -28.295595169067383
            ],
            "type" : "VEC3"
        },
        {
            "bufferView" : 6,
            "componentType" : 5126,
            "count" : 3896,
            "type" : "VEC3"
        },
        {
            "bufferView" : 7,
            "componentType" : 5126,
            "count" : 3896,
            "type" : "VEC4"
        },
        {
            "bufferView" : 8,
            "componentType" : 5126,
            "count" : 3896,
            "type" : "VEC2"
        },
        {
            "bufferView" : 9,
            "componentType" : 5123,
            "count" : 7698,
            "type" : "SCALAR"
        },
        {
            "bufferView" : 10,
            "componentType" : 5126,
            "count" : 11,
            "max" : [
                -11.50629997253418,
                -53.40230178833008,
                -28.29419708251953
            ],
            "min" : [
                -20.550500869750977,
                -59.65499496459961,
                -28.29419708251953
            ],
            "type" : "VEC3"
        },
        {
            "bufferView" : 11,
            "componentType" : 5126,
            "count" : 11,
            "type" : "VEC3"
        },
        {
            "bufferView" : 12,
            "componentType" : 5126,
            "count" : 11,
            "type" : "VEC4"
        },
        {
            "bufferView" : 13,
            "componentType" : 5126,
            "count" : 11,
            "type" : "VEC2"
        },
        {
            "bufferView" : 14,
            "componentType" : 5123,
            "count" : 27,
            "type" : "SCALAR"
        },
        {
            "bufferView" : 15,
            "componentType" : 5126,
            "count" : 4,
            "max" : [
                -11.63029956817627,
                -50.07239532470703,
                -28.295595169067383
            ],
            "min" : [
                -20.427200317382812,
                -53.4025993347168,
                -28.295595169067383
            ],
            "type" : "VEC3"
        },
        {
            "bufferView" : 16,
            "componentType" : 5126,
            "count" : 4,
            "type" : "VEC3"
        },
        {
            "bufferView" : 17,
            "componentType" : 5126,
            "count" : 4,
            "type" : "VEC4"
        },
        {
            "bufferView" : 18,
            "componentType" : 5126,
            "count" : 4,
            "type" : "VEC2"
        },
        {
            "bufferView" : 19,
            "componentType" : 5123,
            "count" : 6,
            "type" : "SCALAR"
        },
        {
            "bufferView" : 20,
            "componentType" : 5126,
            "count" : 16,
            "max" : [
                0.508028507232666,
                0.3711627721786499,
                0.36125922203063965
            ],
            "min" : [
                -0.508028507232666,
                -0.3711627721786499,
                -0.3612591028213501
            ],
            "type" : "VEC3"
        },
        {
            "bufferView" : 21,
            "componentType" : 5126,
            "count" : 16,
            "type" : "VEC3"
        },
        {
            "bufferView" : 22,
            "componentType" : 5126,
            "count" : 16,
            "type" : "VEC4"
        },
        {
            "bufferView" : 23,
            "componentType" : 5126,
            "count" : 16,
            "type" : "VEC2"
        },
        {
            "bufferView" : 24,
            "componentType" : 5123,
            "count" : 30,
            "type" : "SCALAR"
        },
        {
            "bufferView" : 25,
            "componentType" : 5126,
            "count" : 150,
            "max" : [
                0.19048956036567688,
                1.0541633367538452,
                0.2573164999485016
            ],
            "min" : [
                -0.4634823799133301,
                0.00625681784003973,
                -0.25731655955314636
            ],
            "type" : "VEC3"
        },
        {
            "bufferView" : 26,
            "componentType" : 5126,
            "count" : 150,
            "type" : "VEC3"
        },
        {
            "bufferView" : 27,
            "componentType" : 5126,
            "count" : 150,
            "type" : "VEC4"
        },
        {
            "bufferView" : 28,
            "componentType" : 5126,
            "count" : 150,
            "type" : "VEC2"
        },
        {
            "bufferView" : 29,
            "componentType" : 5123,
            "count" : 150,
            "type" : "SCALAR"
        },
        {
            "bufferView" : 30,
            "componentType" : 5126,
            "count" : 74,
            "max" : [
                0.49202868342399597,
                -1.0501549243927002,
                0.5532923936843872
            ],
            "min" : [
                -0.5241584777832031,
                -2.089271306991577,
                -0.2596060037612915
            ],
            "type" : "VEC3"
        },
        {
            "bufferView" : 31,
            "componentType" : 5126,
            "count" : 74,
            "type" : "VEC3"
        },
        {
            "bufferView" : 32,
            "componentType" : 5126,
            "count" : 74,
            "type" : "VEC4"
        },
        {
            "bufferView" : 33,
            "componentType" : 5126,
            "count" : 74,
            "type" : "VEC2"
        },
        {
            "bufferView" : 34,
            "componentType" : 5123,
            "count" : 120,
            "type" : "SCALAR"
        }
    ],
    "bufferViews" : [
        {
            "buffer" : 0,
            "byteLength" : 1008,
            "byteOffset" : 0
        },
        {
            "buffer" : 0,
            "byteLength" : 1008,
            "byteOffset" : 1008
        },
        {
            "buffer" : 0,
            "byteLength" : 1344,
            "byteOffset" : 2016
        },
        {
            "buffer" : 0,
            "byteLength" : 672,
            "byteOffset" : 3360
        },
        {
            "buffer" : 0,
            "byteLength" : 288,
            "byteOffset" : 4032
        },
        {
            "buffer" : 0,
            "byteLength" : 46752,
            "byteOffset" : 4320
        },
        {
            "buffer" : 0,
            "byteLength" : 46752,
            "byteOffset" : 51072
        },
        {
            "buffer" : 0,
            "byteLength" : 62336,
            "byteOffset" : 97824
        },
        {
            "buffer" : 0,
            "byteLength" : 31168,
            "byteOffset" : 160160
        },
        {
            "buffer" : 0,
            "byteLength" : 15396,
            "byteOffset" : 191328
        },
        {
            "buffer" : 0,
            "byteLength" : 132,
            "byteOffset" : 206724
        },
        {
            "buffer" : 0,
            "byteLength" : 132,
            "byteOffset" : 206856
        },
        {
            "buffer" : 0,
            "byteLength" : 176,
            "byteOffset" : 206988
        },
        {
            "buffer" : 0,
            "byteLength" : 88,
            "byteOffset" : 207164
        },
        {
            "buffer" : 0,
            "byteLength" : 54,
            "byteOffset" : 207252
        },
        {
            "buffer" : 0,
            "byteLength" : 48,
            "byteOffset" : 207308
        },
        {
            "buffer" : 0,
            "byteLength" : 48,
            "byteOffset" : 207356
        },
        {
            "buffer" : 0,
            "byteLength" : 64,
            "byteOffset" : 207404
        },
        {
            "buffer" : 0,
            "byteLength" : 32,
            "byteOffset" : 207468
        },
        {
            "buffer" : 0,
            "byteLength" : 12,
            "byteOffset" : 207500
        },
        {
            "buffer" : 0,
            "byteLength" : 192,
            "byteOffset" : 207512
        },
        {
            "buffer" : 0,
            "byteLength" : 192,
            "byteOffset" : 207704
        },
        {
            "buffer" : 0,
            "byteLength" : 256,
            "byteOffset" : 207896
        },
        {
            "buffer" : 0,
            "byteLength" : 128,
            "byteOffset" : 208152
        },
        {
            "buffer" : 0,
            "byteLength" : 60,
            "byteOffset" : 208280
        },
        {
            "buffer" : 0,
            "byteLength" : 1800,
            "byteOffset" : 208340
        },
        {
            "buffer" : 0,
            "byteLength" : 1800,
            "byteOffset" : 210140
        },
        {
            "buffer" : 0,
            "byteLength" : 2400,
            "byteOffset" : 211940
        },
        {
            "buffer" : 0,
            "byteLength" : 1200,
            "byteOffset" : 214340
        },
        {
            "buffer" : 0,
            "byteLength" : 300,
            "byteOffset" : 215540
        },
        {
            "buffer" : 0,
            "byteLength" : 888,
            "byteOffset" : 215840
        },
        {
            "buffer" : 0,
            "byteLength" : 888,
            "byteOffset" : 216728
        },
        {
            "buffer" : 0,
            "byteLength" : 1184,
            "byteOffset" : 217616
        },
        {
            "buffer" : 0,
            "byteLength" : 592,
            "byteOffset" : 218800
        },
        {
            "buffer" : 0,
            "byteLength" : 240,
            "byteOffset" : 219392
        }
    ],
    "samplers" : [
        {
            "magFilter" : 9729,
            "minFilter" : 9987
        }
    ],
    "buffers" : [
        {
            "byteLength" : 219632,
            "uri" : "philae.bin"
        }
    ]
}
