{
    "asset" : {
        "generator" : "Khronos glTF Blender I/O v1.3.48",
        "version" : "2.0"
    },
    "scene" : 0,
    "scenes" : [
        {
            "name" : "Scene",
            "nodes" : [
                5
            ]
        }
    ],
    "nodes" : [
        {
            "mesh" : 0,
            "name" : "AO"
        },
        {
            "mesh" : 1,
            "name" : "foil_gold"
        },
        {
            "mesh" : 2,
            "name" : "foil_silver"
        },
        {
            "mesh" : 3,
            "name" : "krinkle"
        },
        {
            "mesh" : 4,
            "name" : "tex_01"
        },
        {
            "children" : [
                0,
                1,
                2,
                3,
                4
            ],
            "mesh" : 5,
            "name" : "shiny_panel"
        }
    ],
    "materials" : [
        {
            "emissiveFactor" : [
                0,
                0,
                0
            ],
            "name" : "AO.002",
            "pbrMetallicRoughness" : {
                "baseColorTexture" : {
                    "index" : 0,
                    "texCoord" : 0
                },
                "metallicFactor" : 0.38181817531585693,
                "roughnessFactor" : 0.4954545497894287
            }
        },
        {
            "emissiveFactor" : [
                0,
                0,
                0
            ],
            "name" : "foil_gold",
            "normalTexture" : {
                "index" : 1,
                "texCoord" : 0
            },
            "pbrMetallicRoughness" : {
                "baseColorFactor" : [
                    0.9999998807907104,
                    0.6583749055862427,
                    0.08228273689746857,
                    1
                ],
                "metallicFactor" : 1,
                "roughnessFactor" : 0.30000001192092896
            }
        },
        {
            "emissiveFactor" : [
                0,
                0,
                0
            ],
            "name" : "foil_silver",
            "normalTexture" : {
                "index" : 2,
                "texCoord" : 0
            },
            "pbrMetallicRoughness" : {
                "baseColorFactor" : [
                    1,
                    0.999999463558197,
                    1,
                    1
                ],
                "metallicFactor" : 1,
                "roughnessFactor" : 0.30000001192092896
            }
        },
        {
            "emissiveFactor" : [
                0,
                0,
                0
            ],
            "name" : "black_krinkle",
            "normalTexture" : {
                "index" : 3,
                "texCoord" : 0
            },
            "pbrMetallicRoughness" : {
                "baseColorFactor" : [
                    0.01960664987564087,
                    0.01960664987564087,
                    0.01960664987564087,
                    1
                ],
                "metallicFactor" : 0,
                "roughnessFactor" : 0.6000000238418579
            }
        },
        {
            "emissiveFactor" : [
                0,
                0,
                0
            ],
            "name" : "tex_01.013",
            "normalTexture" : {
                "index" : 4,
                "texCoord" : 0
            },
            "pbrMetallicRoughness" : {
                "baseColorTexture" : {
                    "index" : 5,
                    "texCoord" : 0
                },
                "metallicRoughnessTexture" : {
                    "index" : 6,
                    "texCoord" : 0
                }
            }
        },
        {
            "emissiveFactor" : [
                0,
                0,
                0
            ],
            "name" : "shiny_panel.010",
            "normalTexture" : {
                "index" : 7,
                "scale" : 0.20000000298023224,
                "texCoord" : 0
            },
            "pbrMetallicRoughness" : {
                "baseColorTexture" : {
                    "index" : 8,
                    "texCoord" : 0
                },
                "metallicRoughnessTexture" : {
                    "index" : 9,
                    "texCoord" : 0
                }
            }
        }
    ],
    "meshes" : [
        {
            "name" : "Cylinder.041",
            "primitives" : [
                {
                    "attributes" : {
                        "POSITION" : 0,
                        "NORMAL" : 1,
                        "TEXCOORD_0" : 2
                    },
                    "indices" : 3,
                    "material" : 0
                }
            ]
        },
        {
            "name" : "Cylinder.040",
            "primitives" : [
                {
                    "attributes" : {
                        "POSITION" : 4,
                        "NORMAL" : 5,
                        "TEXCOORD_0" : 6
                    },
                    "indices" : 7,
                    "material" : 1
                }
            ]
        },
        {
            "name" : "Cylinder.039",
            "primitives" : [
                {
                    "attributes" : {
                        "POSITION" : 8,
                        "NORMAL" : 9,
                        "TEXCOORD_0" : 10
                    },
                    "indices" : 11,
                    "material" : 2
                }
            ]
        },
        {
            "name" : "Cylinder.038",
            "primitives" : [
                {
                    "attributes" : {
                        "POSITION" : 12,
                        "NORMAL" : 13,
                        "TEXCOORD_0" : 14
                    },
                    "indices" : 15,
                    "material" : 3
                }
            ]
        },
        {
            "name" : "Cylinder.036",
            "primitives" : [
                {
                    "attributes" : {
                        "POSITION" : 16,
                        "NORMAL" : 17,
                        "TEXCOORD_0" : 18
                    },
                    "indices" : 19,
                    "material" : 4
                }
            ]
        },
        {
            "name" : "Cylinder.037",
            "primitives" : [
                {
                    "attributes" : {
                        "POSITION" : 20,
                        "NORMAL" : 21,
                        "TEXCOORD_0" : 22
                    },
                    "indices" : 23,
                    "material" : 5
                }
            ]
        }
    ],
    "textures" : [
        {
            "source" : 0
        },
        {
            "source" : 1
        },
        {
            "source" : 1
        },
        {
            "source" : 1
        },
        {
            "source" : 2
        },
        {
            "source" : 3
        },
        {
            "source" : 4
        },
        {
            "source" : 2
        },
        {
            "source" : 3
        },
        {
            "source" : 4
        }
    ],
    "images" : [
        {
            "mimeType" : "image/jpeg",
            "name" : "lunarprospector_ao",
            "uri" : "lunarprospector_ao.jpg"
        },
        {
            "mimeType" : "image/png",
            "name" : "foil_normal",
            "uri" : "foil_normal.png"
        },
        {
            "mimeType" : "image/png",
            "name" : "lunarprospector_tex_01_normal",
            "uri" : "lunarprospector_tex_01_normal.png"
        },
        {
            "mimeType" : "image/jpeg",
            "name" : "lunarprospector_tex_01_albedo",
            "uri" : "lunarprospector_tex_01_albedo.jpg"
        },
        {
            "mimeType" : "image/jpeg",
            "name" : "lunarprospector_tex_01_pbr",
            "uri" : "lunarprospector_tex_01_pbr.jpg"
        }
    ],
    "accessors" : [
        {
            "bufferView" : 0,
            "componentType" : 5126,
            "count" : 4446,
            "max" : [
                1.5676348209381104,
                1.771044135093689,
                2.620968818664551
            ],
            "min" : [
                -2.9720163345336914,
                -0.3616652488708496,
                -2.6195151805877686
            ],
            "type" : "VEC3"
        },
        {
            "bufferView" : 1,
            "componentType" : 5126,
            "count" : 4446,
            "type" : "VEC3"
        },
        {
            "bufferView" : 2,
            "componentType" : 5126,
            "count" : 4446,
            "type" : "VEC2"
        },
        {
            "bufferView" : 3,
            "componentType" : 5123,
            "count" : 7176,
            "type" : "SCALAR"
        },
        {
            "bufferView" : 4,
            "componentType" : 5126,
            "count" : 394,
            "max" : [
                1.715423583984375,
                0.5109970569610596,
                0.7137045860290527
            ],
            "min" : [
                -0.46978870034217834,
                -0.5653387308120728,
                -2.902116298675537
            ],
            "type" : "VEC3"
        },
        {
            "bufferView" : 5,
            "componentType" : 5126,
            "count" : 394,
            "type" : "VEC3"
        },
        {
            "bufferView" : 6,
            "componentType" : 5126,
            "count" : 394,
            "type" : "VEC2"
        },
        {
            "bufferView" : 7,
            "componentType" : 5123,
            "count" : 1698,
            "type" : "SCALAR"
        },
        {
            "bufferView" : 8,
            "componentType" : 5126,
            "count" : 2613,
            "max" : [
                2.2891533374786377,
                0.4428405165672302,
                2.7674906253814697
            ],
            "min" : [
                -2.9658377170562744,
                -0.6926780343055725,
                -3.913910388946533
            ],
            "type" : "VEC3"
        },
        {
            "bufferView" : 9,
            "componentType" : 5126,
            "count" : 2613,
            "type" : "VEC3"
        },
        {
            "bufferView" : 10,
            "componentType" : 5126,
            "count" : 2613,
            "type" : "VEC2"
        },
        {
            "bufferView" : 11,
            "componentType" : 5123,
            "count" : 14352,
            "type" : "SCALAR"
        },
        {
            "bufferView" : 12,
            "componentType" : 5126,
            "count" : 230,
            "max" : [
                -0.23591211438179016,
                0.7424643039703369,
                0.3290000557899475
            ],
            "min" : [
                -3.2942769527435303,
                -0.37325340509414673,
                -0.6347065567970276
            ],
            "type" : "VEC3"
        },
        {
            "bufferView" : 13,
            "componentType" : 5126,
            "count" : 230,
            "type" : "VEC3"
        },
        {
            "bufferView" : 14,
            "componentType" : 5126,
            "count" : 230,
            "type" : "VEC2"
        },
        {
            "bufferView" : 15,
            "componentType" : 5123,
            "count" : 1065,
            "type" : "SCALAR"
        },
        {
            "bufferView" : 16,
            "componentType" : 5126,
            "count" : 3443,
            "max" : [
                1.7148895263671875,
                0.7391974925994873,
                2.7756481170654297
            ],
            "min" : [
                -2.9772775173187256,
                -0.6992322206497192,
                -2.9148643016815186
            ],
            "type" : "VEC3"
        },
        {
            "bufferView" : 17,
            "componentType" : 5126,
            "count" : 3443,
            "type" : "VEC3"
        },
        {
            "bufferView" : 18,
            "componentType" : 5126,
            "count" : 3443,
            "type" : "VEC2"
        },
        {
            "bufferView" : 19,
            "componentType" : 5123,
            "count" : 9468,
            "type" : "SCALAR"
        },
        {
            "bufferView" : 20,
            "componentType" : 5126,
            "count" : 358,
            "max" : [
                0.6988692283630371,
                0.6899999976158142,
                0.7007902264595032
            ],
            "min" : [
                -0.7010303139686584,
                -0.6010928153991699,
                -0.7007900476455688
            ],
            "type" : "VEC3"
        },
        {
            "bufferView" : 21,
            "componentType" : 5126,
            "count" : 358,
            "type" : "VEC3"
        },
        {
            "bufferView" : 22,
            "componentType" : 5126,
            "count" : 358,
            "type" : "VEC2"
        },
        {
            "bufferView" : 23,
            "componentType" : 5123,
            "count" : 1542,
            "type" : "SCALAR"
        }
    ],
    "bufferViews" : [
        {
            "buffer" : 0,
            "byteLength" : 53352,
            "byteOffset" : 0
        },
        {
            "buffer" : 0,
            "byteLength" : 53352,
            "byteOffset" : 53352
        },
        {
            "buffer" : 0,
            "byteLength" : 35568,
            "byteOffset" : 106704
        },
        {
            "buffer" : 0,
            "byteLength" : 14352,
            "byteOffset" : 142272
        },
        {
            "buffer" : 0,
            "byteLength" : 4728,
            "byteOffset" : 156624
        },
        {
            "buffer" : 0,
            "byteLength" : 4728,
            "byteOffset" : 161352
        },
        {
            "buffer" : 0,
            "byteLength" : 3152,
            "byteOffset" : 166080
        },
        {
            "buffer" : 0,
            "byteLength" : 3396,
            "byteOffset" : 169232
        },
        {
            "buffer" : 0,
            "byteLength" : 31356,
            "byteOffset" : 172628
        },
        {
            "buffer" : 0,
            "byteLength" : 31356,
            "byteOffset" : 203984
        },
        {
            "buffer" : 0,
            "byteLength" : 20904,
            "byteOffset" : 235340
        },
        {
            "buffer" : 0,
            "byteLength" : 28704,
            "byteOffset" : 256244
        },
        {
            "buffer" : 0,
            "byteLength" : 2760,
            "byteOffset" : 284948
        },
        {
            "buffer" : 0,
            "byteLength" : 2760,
            "byteOffset" : 287708
        },
        {
            "buffer" : 0,
            "byteLength" : 1840,
            "byteOffset" : 290468
        },
        {
            "buffer" : 0,
            "byteLength" : 2130,
            "byteOffset" : 292308
        },
        {
            "buffer" : 0,
            "byteLength" : 41316,
            "byteOffset" : 294440
        },
        {
            "buffer" : 0,
            "byteLength" : 41316,
            "byteOffset" : 335756
        },
        {
            "buffer" : 0,
            "byteLength" : 27544,
            "byteOffset" : 377072
        },
        {
            "buffer" : 0,
            "byteLength" : 18936,
            "byteOffset" : 404616
        },
        {
            "buffer" : 0,
            "byteLength" : 4296,
            "byteOffset" : 423552
        },
        {
            "buffer" : 0,
            "byteLength" : 4296,
            "byteOffset" : 427848
        },
        {
            "buffer" : 0,
            "byteLength" : 2864,
            "byteOffset" : 432144
        },
        {
            "buffer" : 0,
            "byteLength" : 3084,
            "byteOffset" : 435008
        }
    ],
    "buffers" : [
        {
            "byteLength" : 438092,
            "uri" : "lunar_prospector.bin"
        }
    ]
}
