{
    "asset" : {
        "generator" : "Khronos glTF Blender I/O v1.8.19",
        "version" : "2.0"
    },
    "scene" : 0,
    "scenes" : [
        {
            "name" : "Scene",
            "nodes" : [
                2
            ]
        }
    ],
    "nodes" : [
        {
            "mesh" : 0,
            "name" : "foil_silver",
            "translation" : [
                0.035130396485328674,
                -0.30957457423210144,
                0.34595364332199097
            ]
        },
        {
            "mesh" : 1,
            "name" : "shiny_panel",
            "translation" : [
                0.020504549145698547,
                -0.4592583179473877,
                -0.12582190334796906
            ]
        },
        {
            "children" : [
                0,
                1
            ],
            "mesh" : 2,
            "name" : "BUS",
            "translation" : [
                -0.02050456590950489,
                0.31305187940597534,
                -0.04358961060643196
            ]
        }
    ],
    "materials" : [
        {
            "name" : "foil_silver",
            "normalTexture" : {
                "index" : 0
            },
            "pbrMetallicRoughness" : {
                "baseColorFactor" : [
                    1,
                    0.999999463558197,
                    1,
                    1
                ],
                "roughnessFactor" : 0.30000001192092896
            }
        },
        {
            "name" : "shiny_panel",
            "normalTexture" : {
                "index" : 1
            },
            "pbrMetallicRoughness" : {
                "baseColorTexture" : {
                    "index" : 2
                },
                "metallicRoughnessTexture" : {
                    "index" : 3
                }
            }
        },
        {
            "name" : "tex_01",
            "normalTexture" : {
                "index" : 4
            },
            "pbrMetallicRoughness" : {
                "baseColorTexture" : {
                    "index" : 5
                },
                "metallicRoughnessTexture" : {
                    "index" : 6
                }
            }
        }
    ],
    "meshes" : [
        {
            "name" : "Geometry-Underside",
            "primitives" : [
                {
                    "attributes" : {
                        "POSITION" : 0,
                        "NORMAL" : 1,
                        "TANGENT" : 2,
                        "TEXCOORD_0" : 3
                    },
                    "indices" : 4,
                    "material" : 0
                }
            ]
        },
        {
            "name" : "Geometry-Mesh.001",
            "primitives" : [
                {
                    "attributes" : {
                        "POSITION" : 5,
                        "NORMAL" : 6,
                        "TANGENT" : 7,
                        "TEXCOORD_0" : 8
                    },
                    "indices" : 9,
                    "material" : 1
                }
            ]
        },
        {
            "name" : "Geometry-Mesh",
            "primitives" : [
                {
                    "attributes" : {
                        "POSITION" : 10,
                        "NORMAL" : 11,
                        "TANGENT" : 12,
                        "TEXCOORD_0" : 13
                    },
                    "indices" : 14,
                    "material" : 2
                }
            ]
        }
    ],
    "textures" : [
        {
            "sampler" : 0,
            "source" : 0
        },
        {
            "sampler" : 0,
            "source" : 1
        },
        {
            "sampler" : 0,
            "source" : 2
        },
        {
            "sampler" : 0,
            "source" : 3
        },
        {
            "sampler" : 0,
            "source" : 1
        },
        {
            "sampler" : 0,
            "source" : 2
        },
        {
            "sampler" : 0,
            "source" : 3
        }
    ],
    "images" : [
        {
            "mimeType" : "image/png",
            "name" : "foil_n",
            "uri" : "foil_n.png"
        },
        {
            "mimeType" : "image/png",
            "name" : "grace_normal",
            "uri" : "grace_normal.png"
        },
        {
            "mimeType" : "image/jpeg",
            "name" : "grace_albedo",
            "uri" : "grace_albedo.jpg"
        },
        {
            "mimeType" : "image/jpeg",
            "name" : "grace_pbr",
            "uri" : "grace_pbr.jpg"
        }
    ],
    "accessors" : [
        {
            "bufferView" : 0,
            "componentType" : 5126,
            "count" : 97,
            "max" : [
                0.8307391405105591,
                1.5900026559829712,
                0.03163796663284302
            ],
            "min" : [
                -0.8590268492698669,
                -1.6191973686218262,
                -0.019706012681126595
            ],
            "type" : "VEC3"
        },
        {
            "bufferView" : 1,
            "componentType" : 5126,
            "count" : 97,
            "type" : "VEC3"
        },
        {
            "bufferView" : 2,
            "componentType" : 5126,
            "count" : 97,
            "type" : "VEC4"
        },
        {
            "bufferView" : 3,
            "componentType" : 5126,
            "count" : 97,
            "type" : "VEC2"
        },
        {
            "bufferView" : 4,
            "componentType" : 5123,
            "count" : 381,
            "type" : "SCALAR"
        },
        {
            "bufferView" : 5,
            "componentType" : 5126,
            "count" : 28,
            "max" : [
                0.9470620155334473,
                1.7352964878082275,
                0.5304205417633057
            ],
            "min" : [
                -0.9470620155334473,
                -1.4668936729431152,
                -0.16207849979400635
            ],
            "type" : "VEC3"
        },
        {
            "bufferView" : 6,
            "componentType" : 5126,
            "count" : 28,
            "type" : "VEC3"
        },
        {
            "bufferView" : 7,
            "componentType" : 5126,
            "count" : 28,
            "type" : "VEC4"
        },
        {
            "bufferView" : 8,
            "componentType" : 5126,
            "count" : 28,
            "type" : "VEC2"
        },
        {
            "bufferView" : 9,
            "componentType" : 5123,
            "count" : 66,
            "type" : "SCALAR"
        },
        {
            "bufferView" : 10,
            "componentType" : 5126,
            "count" : 3801,
            "max" : [
                0.9675666093826294,
                1.3327882289886475,
                0.8387675881385803
            ],
            "min" : [
                -0.9265574216842651,
                -1.9560518264770508,
                -0.3307613730430603
            ],
            "type" : "VEC3"
        },
        {
            "bufferView" : 11,
            "componentType" : 5126,
            "count" : 3801,
            "type" : "VEC3"
        },
        {
            "bufferView" : 12,
            "componentType" : 5126,
            "count" : 3801,
            "type" : "VEC4"
        },
        {
            "bufferView" : 13,
            "componentType" : 5126,
            "count" : 3801,
            "type" : "VEC2"
        },
        {
            "bufferView" : 14,
            "componentType" : 5123,
            "count" : 9894,
            "type" : "SCALAR"
        }
    ],
    "bufferViews" : [
        {
            "buffer" : 0,
            "byteLength" : 1164,
            "byteOffset" : 0
        },
        {
            "buffer" : 0,
            "byteLength" : 1164,
            "byteOffset" : 1164
        },
        {
            "buffer" : 0,
            "byteLength" : 1552,
            "byteOffset" : 2328
        },
        {
            "buffer" : 0,
            "byteLength" : 776,
            "byteOffset" : 3880
        },
        {
            "buffer" : 0,
            "byteLength" : 762,
            "byteOffset" : 4656
        },
        {
            "buffer" : 0,
            "byteLength" : 336,
            "byteOffset" : 5420
        },
        {
            "buffer" : 0,
            "byteLength" : 336,
            "byteOffset" : 5756
        },
        {
            "buffer" : 0,
            "byteLength" : 448,
            "byteOffset" : 6092
        },
        {
            "buffer" : 0,
            "byteLength" : 224,
            "byteOffset" : 6540
        },
        {
            "buffer" : 0,
            "byteLength" : 132,
            "byteOffset" : 6764
        },
        {
            "buffer" : 0,
            "byteLength" : 45612,
            "byteOffset" : 6896
        },
        {
            "buffer" : 0,
            "byteLength" : 45612,
            "byteOffset" : 52508
        },
        {
            "buffer" : 0,
            "byteLength" : 60816,
            "byteOffset" : 98120
        },
        {
            "buffer" : 0,
            "byteLength" : 30408,
            "byteOffset" : 158936
        },
        {
            "buffer" : 0,
            "byteLength" : 19788,
            "byteOffset" : 189344
        }
    ],
    "samplers" : [
        {
            "magFilter" : 9729,
            "minFilter" : 9987
        }
    ],
    "buffers" : [
        {
            "byteLength" : 209132,
            "uri" : "grace.bin"
        }
    ]
}
