{
    "asset" : {
        "generator" : "Khronos glTF Blender I/O v1.3.48",
        "version" : "2.0"
    },
    "scene" : 0,
    "scenes" : [
        {
            "name" : "Scene",
            "nodes" : [
                1
            ]
        }
    ],
    "nodes" : [
        {
            "mesh" : 0,
            "name" : "Instruments",
            "translation" : [
                0.643998920917511,
                0.3285564184188843,
                -0.04230878874659538
            ]
        },
        {
            "children" : [
                0
            ],
            "mesh" : 1,
            "name" : "BUS",
            "rotation" : [
                0.7071068286895752,
                0,
                0,
                0.7071067094802856
            ],
            "translation" : [
                -0.6432561874389648,
                0.4577077627182007,
                -0.6859790682792664
            ]
        }
    ],
    "materials" : [
        {
            "emissiveFactor" : [
                0,
                0,
                0
            ],
            "name" : "Bus",
            "normalTexture" : {
                "index" : 0,
                "scale" : 0.20000000298023224,
                "texCoord" : 0
            },
            "pbrMetallicRoughness" : {
                "baseColorTexture" : {
                    "index" : 1,
                    "texCoord" : 0
                },
                "metallicRoughnessTexture" : {
                    "index" : 2,
                    "texCoord" : 0
                }
            }
        },
        {
            "emissiveFactor" : [
                0,
                0,
                0
            ],
            "name" : "foil_gold.006",
            "normalTexture" : {
                "index" : 3,
                "texCoord" : 0
            },
            "pbrMetallicRoughness" : {
                "baseColorFactor" : [
                    0.9999998807907104,
                    0.6583749055862427,
                    0.08228273689746857,
                    1
                ],
                "metallicFactor" : 1,
                "roughnessFactor" : 0.30000001192092896
            }
        },
        {
            "emissiveFactor" : [
                0,
                0,
                0
            ],
            "name" : "foil_silver.007",
            "normalTexture" : {
                "index" : 4,
                "texCoord" : 0
            },
            "pbrMetallicRoughness" : {
                "baseColorFactor" : [
                    1,
                    0.999999463558197,
                    1,
                    1
                ],
                "metallicFactor" : 1,
                "roughnessFactor" : 0.30000001192092896
            }
        },
        {
            "emissiveFactor" : [
                0,
                0,
                0
            ],
            "name" : "Black_Matte",
            "pbrMetallicRoughness" : {
                "baseColorFactor" : [
                    0,
                    0,
                    0,
                    1
                ],
                "metallicFactor" : 0,
                "roughnessFactor" : 0.7318181991577148
            }
        }
    ],
    "meshes" : [
        {
            "name" : "Mesh.001",
            "primitives" : [
                {
                    "attributes" : {
                        "POSITION" : 0,
                        "NORMAL" : 1,
                        "TEXCOORD_0" : 2
                    },
                    "indices" : 3,
                    "material" : 0
                }
            ]
        },
        {
            "name" : "Mesh.000",
            "primitives" : [
                {
                    "attributes" : {
                        "POSITION" : 4,
                        "NORMAL" : 5,
                        "TEXCOORD_0" : 6
                    },
                    "indices" : 7,
                    "material" : 1
                },
                {
                    "attributes" : {
                        "POSITION" : 8,
                        "NORMAL" : 9,
                        "TEXCOORD_0" : 10
                    },
                    "indices" : 11,
                    "material" : 0
                },
                {
                    "attributes" : {
                        "POSITION" : 12,
                        "NORMAL" : 13,
                        "TEXCOORD_0" : 14
                    },
                    "indices" : 15,
                    "material" : 2
                },
                {
                    "attributes" : {
                        "POSITION" : 16,
                        "NORMAL" : 17,
                        "TEXCOORD_0" : 18
                    },
                    "indices" : 19,
                    "material" : 3
                }
            ]
        }
    ],
    "textures" : [
        {
            "source" : 0
        },
        {
            "source" : 1
        },
        {
            "source" : 2
        },
        {
            "source" : 3
        },
        {
            "source" : 3
        }
    ],
    "images" : [
        {
            "mimeType" : "image/png",
            "name" : "gracefo_normal",
            "uri" : "gracefo_normal.png"
        },
        {
            "mimeType" : "image/jpeg",
            "name" : "gracefo_albedo",
            "uri" : "gracefo_albedo.jpg"
        },
        {
            "mimeType" : "image/jpeg",
            "name" : "gracefo_pbr",
            "uri" : "gracefo_pbr.jpg"
        },
        {
            "mimeType" : "image/png",
            "name" : "foil_normal",
            "uri" : "foil_normal.png"
        }
    ],
    "accessors" : [
        {
            "bufferView" : 0,
            "componentType" : 5126,
            "count" : 2234,
            "max" : [
                1.0128250122070312,
                1.9214751720428467,
                0.8540804982185364
            ],
            "min" : [
                -1.0143100023269653,
                -1.3326728343963623,
                1.6196512707654522e-16
            ],
            "type" : "VEC3"
        },
        {
            "bufferView" : 1,
            "componentType" : 5126,
            "count" : 2234,
            "type" : "VEC3"
        },
        {
            "bufferView" : 2,
            "componentType" : 5126,
            "count" : 2234,
            "type" : "VEC2"
        },
        {
            "bufferView" : 3,
            "componentType" : 5123,
            "count" : 9594,
            "type" : "SCALAR"
        },
        {
            "bufferView" : 4,
            "componentType" : 5126,
            "count" : 386,
            "max" : [
                1.6501401662826538,
                2.2092952728271484,
                0.8061168193817139
            ],
            "min" : [
                -0.3609659671783447,
                -1.0000263452529907,
                -0.0006994307041168213
            ],
            "type" : "VEC3"
        },
        {
            "bufferView" : 5,
            "componentType" : 5126,
            "count" : 386,
            "type" : "VEC3"
        },
        {
            "bufferView" : 6,
            "componentType" : 5126,
            "count" : 386,
            "type" : "VEC2"
        },
        {
            "bufferView" : 7,
            "componentType" : 5123,
            "count" : 885,
            "type" : "SCALAR"
        },
        {
            "bufferView" : 8,
            "componentType" : 5126,
            "count" : 76,
            "max" : [
                1.6501401662826538,
                2.2092952728271484,
                0.7757517695426941
            ],
            "min" : [
                -0.3609659671783447,
                -1.0000263452529907,
                -0.0006994307041168213
            ],
            "type" : "VEC3"
        },
        {
            "bufferView" : 9,
            "componentType" : 5126,
            "count" : 76,
            "type" : "VEC3"
        },
        {
            "bufferView" : 10,
            "componentType" : 5126,
            "count" : 76,
            "type" : "VEC2"
        },
        {
            "bufferView" : 11,
            "componentType" : 5123,
            "count" : 222,
            "type" : "SCALAR"
        },
        {
            "bufferView" : 12,
            "componentType" : 5126,
            "count" : 30,
            "max" : [
                0.7870169878005981,
                1.0853406190872192,
                0.3448468744754791
            ],
            "min" : [
                0.4726257920265198,
                0.4280713200569153,
                0.0008396940538659692
            ],
            "type" : "VEC3"
        },
        {
            "bufferView" : 13,
            "componentType" : 5126,
            "count" : 30,
            "type" : "VEC3"
        },
        {
            "bufferView" : 14,
            "componentType" : 5126,
            "count" : 30,
            "type" : "VEC2"
        },
        {
            "bufferView" : 15,
            "componentType" : 5123,
            "count" : 60,
            "type" : "SCALAR"
        },
        {
            "bufferView" : 16,
            "componentType" : 5126,
            "count" : 93,
            "max" : [
                1.251941204071045,
                1.2813770771026611,
                0.3765776753425598
            ],
            "min" : [
                0.03457123041152954,
                0.5029820799827576,
                0.0012866569450125098
            ],
            "type" : "VEC3"
        },
        {
            "bufferView" : 17,
            "componentType" : 5126,
            "count" : 93,
            "type" : "VEC3"
        },
        {
            "bufferView" : 18,
            "componentType" : 5126,
            "count" : 93,
            "type" : "VEC2"
        },
        {
            "bufferView" : 19,
            "componentType" : 5123,
            "count" : 159,
            "type" : "SCALAR"
        }
    ],
    "bufferViews" : [
        {
            "buffer" : 0,
            "byteLength" : 26808,
            "byteOffset" : 0
        },
        {
            "buffer" : 0,
            "byteLength" : 26808,
            "byteOffset" : 26808
        },
        {
            "buffer" : 0,
            "byteLength" : 17872,
            "byteOffset" : 53616
        },
        {
            "buffer" : 0,
            "byteLength" : 19188,
            "byteOffset" : 71488
        },
        {
            "buffer" : 0,
            "byteLength" : 4632,
            "byteOffset" : 90676
        },
        {
            "buffer" : 0,
            "byteLength" : 4632,
            "byteOffset" : 95308
        },
        {
            "buffer" : 0,
            "byteLength" : 3088,
            "byteOffset" : 99940
        },
        {
            "buffer" : 0,
            "byteLength" : 1770,
            "byteOffset" : 103028
        },
        {
            "buffer" : 0,
            "byteLength" : 912,
            "byteOffset" : 104800
        },
        {
            "buffer" : 0,
            "byteLength" : 912,
            "byteOffset" : 105712
        },
        {
            "buffer" : 0,
            "byteLength" : 608,
            "byteOffset" : 106624
        },
        {
            "buffer" : 0,
            "byteLength" : 444,
            "byteOffset" : 107232
        },
        {
            "buffer" : 0,
            "byteLength" : 360,
            "byteOffset" : 107676
        },
        {
            "buffer" : 0,
            "byteLength" : 360,
            "byteOffset" : 108036
        },
        {
            "buffer" : 0,
            "byteLength" : 240,
            "byteOffset" : 108396
        },
        {
            "buffer" : 0,
            "byteLength" : 120,
            "byteOffset" : 108636
        },
        {
            "buffer" : 0,
            "byteLength" : 1116,
            "byteOffset" : 108756
        },
        {
            "buffer" : 0,
            "byteLength" : 1116,
            "byteOffset" : 109872
        },
        {
            "buffer" : 0,
            "byteLength" : 744,
            "byteOffset" : 110988
        },
        {
            "buffer" : 0,
            "byteLength" : 318,
            "byteOffset" : 111732
        }
    ],
    "buffers" : [
        {
            "byteLength" : 112052,
            "uri" : "grace_fo.bin"
        }
    ]
}
