{
    "asset" : {
        "generator" : "Khronos glTF Blender I/O v1.8.19",
        "version" : "2.0"
    },
    "scene" : 0,
    "scenes" : [
        {
            "name" : "Scene",
            "nodes" : [
                6
            ]
        }
    ],
    "nodes" : [
        {
            "mesh" : 0,
            "name" : "array_gold_cylinders",
            "translation" : [
                1.8232439756393433,
                0,
                3.6027438640594482
            ]
        },
        {
            "mesh" : 1,
            "name" : "BUS.001"
        },
        {
            "mesh" : 2,
            "name" : "BUS.002"
        },
        {
            "mesh" : 3,
            "name" : "foil_platform",
            "translation" : [
                0,
                0,
                0.2769186496734619
            ]
        },
        {
            "mesh" : 4,
            "name" : "gold_foil",
            "translation" : [
                0,
                0,
                2.3401238918304443
            ]
        },
        {
            "mesh" : 5,
            "name" : "silver_foil",
            "translation" : [
                1.0348515510559082,
                -0.01798686385154724,
                2.307283639907837
            ]
        },
        {
            "children" : [
                0,
                1,
                2,
                3,
                4,
                5
            ],
            "mesh" : 6,
            "name" : "BUS",
            "rotation" : [
                0.7071068286895752,
                0,
                0,
                0.7071067094802856
            ]
        }
    ],
    "materials" : [
        {
            "name" : "Material.002",
            "pbrMetallicRoughness" : {
                "baseColorFactor" : [
                    0.07822525501251221,
                    0.07822525501251221,
                    0.07822525501251221,
                    1
                ],
                "roughnessFactor" : 0.3272727131843567
            }
        },
        {
            "name" : "antenna_AO",
            "pbrMetallicRoughness" : {
                "baseColorTexture" : {
                    "index" : 0
                },
                "metallicFactor" : 0,
                "roughnessFactor" : 0.5
            }
        },
        {
            "name" : "spitzer",
            "normalTexture" : {
                "index" : 1
            },
            "pbrMetallicRoughness" : {
                "baseColorTexture" : {
                    "index" : 2
                },
                "metallicRoughnessTexture" : {
                    "index" : 3
                }
            }
        },
        {
            "name" : "Material.001",
            "pbrMetallicRoughness" : {
                "baseColorFactor" : [
                    0.2730567753314972,
                    0.23000647127628326,
                    0.20144151151180267,
                    1
                ],
                "roughnessFactor" : 0.3272727131843567
            }
        },
        {
            "name" : "foil_gold",
            "normalTexture" : {
                "index" : 4
            },
            "pbrMetallicRoughness" : {
                "baseColorFactor" : [
                    0.9999998807907104,
                    0.6583749055862427,
                    0.08228273689746857,
                    1
                ],
                "roughnessFactor" : 0.30000001192092896
            }
        },
        {
            "name" : "foil_silver",
            "normalTexture" : {
                "index" : 5
            },
            "pbrMetallicRoughness" : {
                "baseColorFactor" : [
                    1,
                    0.999999463558197,
                    1,
                    1
                ],
                "roughnessFactor" : 0.30000001192092896
            }
        },
        {
            "name" : "mirror chrome",
            "pbrMetallicRoughness" : {
                "roughnessFactor" : 0
            }
        },
        {
            "name" : "shiny_panels",
            "normalTexture" : {
                "index" : 6,
                "scale" : 0.20000000298023224
            },
            "pbrMetallicRoughness" : {
                "baseColorTexture" : {
                    "index" : 7
                },
                "metallicRoughnessTexture" : {
                    "index" : 8
                }
            }
        }
    ],
    "meshes" : [
        {
            "name" : "cylinder27.000",
            "primitives" : [
                {
                    "attributes" : {
                        "POSITION" : 0,
                        "NORMAL" : 1,
                        "TANGENT" : 2,
                        "TEXCOORD_0" : 3
                    },
                    "indices" : 4,
                    "material" : 0
                }
            ]
        },
        {
            "name" : "Cylinder.000",
            "primitives" : [
                {
                    "attributes" : {
                        "POSITION" : 5,
                        "NORMAL" : 6,
                        "TANGENT" : 7,
                        "TEXCOORD_0" : 8
                    },
                    "indices" : 9,
                    "material" : 1
                }
            ]
        },
        {
            "name" : "Cylinder.001",
            "primitives" : [
                {
                    "attributes" : {
                        "POSITION" : 10,
                        "NORMAL" : 11,
                        "TANGENT" : 12,
                        "TEXCOORD_0" : 13
                    },
                    "indices" : 14,
                    "material" : 2
                }
            ]
        },
        {
            "name" : "mesh37.000",
            "primitives" : [
                {
                    "attributes" : {
                        "POSITION" : 15,
                        "NORMAL" : 16,
                        "TANGENT" : 17,
                        "TEXCOORD_0" : 18
                    },
                    "indices" : 19,
                    "material" : 3
                }
            ]
        },
        {
            "name" : "Cylinder.002",
            "primitives" : [
                {
                    "attributes" : {
                        "POSITION" : 20,
                        "NORMAL" : 21,
                        "TANGENT" : 22,
                        "TEXCOORD_0" : 23
                    },
                    "indices" : 24,
                    "material" : 4
                }
            ]
        },
        {
            "name" : "cylinder39.001",
            "primitives" : [
                {
                    "attributes" : {
                        "POSITION" : 25,
                        "NORMAL" : 26,
                        "TANGENT" : 27,
                        "TEXCOORD_0" : 28
                    },
                    "indices" : 29,
                    "material" : 5
                }
            ]
        },
        {
            "name" : "Cylinder.004",
            "primitives" : [
                {
                    "attributes" : {
                        "POSITION" : 30,
                        "NORMAL" : 31,
                        "TANGENT" : 32,
                        "TEXCOORD_0" : 33
                    },
                    "indices" : 34,
                    "material" : 6
                },
                {
                    "attributes" : {
                        "POSITION" : 35,
                        "NORMAL" : 36,
                        "TANGENT" : 37,
                        "TEXCOORD_0" : 38
                    },
                    "indices" : 39,
                    "material" : 7
                },
                {
                    "attributes" : {
                        "POSITION" : 40,
                        "NORMAL" : 41,
                        "TANGENT" : 42,
                        "TEXCOORD_0" : 43
                    },
                    "indices" : 44,
                    "material" : 2
                }
            ]
        }
    ],
    "textures" : [
        {
            "sampler" : 0,
            "source" : 0
        },
        {
            "sampler" : 0,
            "source" : 1
        },
        {
            "sampler" : 0,
            "source" : 0
        },
        {
            "sampler" : 0,
            "source" : 2
        },
        {
            "sampler" : 0,
            "source" : 3
        },
        {
            "sampler" : 0,
            "source" : 3
        },
        {
            "sampler" : 0,
            "source" : 1
        },
        {
            "sampler" : 0,
            "source" : 0
        },
        {
            "sampler" : 0,
            "source" : 2
        }
    ],
    "images" : [
        {
            "mimeType" : "image/jpeg",
            "name" : "spitzer_albedo",
            "uri" : "spitzer_albedo.jpg"
        },
        {
            "mimeType" : "image/png",
            "name" : "spitzer_normal",
            "uri" : "spitzer_normal.png"
        },
        {
            "mimeType" : "image/jpeg",
            "name" : "spitzer_pbr",
            "uri" : "spitzer_pbr.jpg"
        },
        {
            "mimeType" : "image/png",
            "name" : "foil_normal",
            "uri" : "foil_normal.png"
        }
    ],
    "accessors" : [
        {
            "bufferView" : 0,
            "componentType" : 5126,
            "count" : 112,
            "max" : [
                0.017957115545868874,
                0.03750000149011612,
                0.03750152513384819
            ],
            "min" : [
                -0.01795787736773491,
                -0.03750000149011612,
                -7.466244697570801
            ],
            "type" : "VEC3"
        },
        {
            "bufferView" : 1,
            "componentType" : 5126,
            "count" : 112,
            "type" : "VEC3"
        },
        {
            "bufferView" : 2,
            "componentType" : 5126,
            "count" : 112,
            "type" : "VEC4"
        },
        {
            "bufferView" : 3,
            "componentType" : 5126,
            "count" : 112,
            "type" : "VEC2"
        },
        {
            "bufferView" : 4,
            "componentType" : 5123,
            "count" : 204,
            "type" : "SCALAR"
        },
        {
            "bufferView" : 5,
            "componentType" : 5126,
            "count" : 386,
            "max" : [
                1.1099086999893188,
                1.2388029098510742,
                3.5222320556640625
            ],
            "min" : [
                -1.330390214920044,
                -1.238803744316101,
                2.873417615890503
            ],
            "type" : "VEC3"
        },
        {
            "bufferView" : 6,
            "componentType" : 5126,
            "count" : 386,
            "type" : "VEC3"
        },
        {
            "bufferView" : 7,
            "componentType" : 5126,
            "count" : 386,
            "type" : "VEC4"
        },
        {
            "bufferView" : 8,
            "componentType" : 5126,
            "count" : 386,
            "type" : "VEC2"
        },
        {
            "bufferView" : 9,
            "componentType" : 5123,
            "count" : 1920,
            "type" : "SCALAR"
        },
        {
            "bufferView" : 10,
            "componentType" : 5126,
            "count" : 52,
            "max" : [
                1,
                1,
                -1
            ],
            "min" : [
                -1,
                -1,
                -1.373288869857788
            ],
            "type" : "VEC3"
        },
        {
            "bufferView" : 11,
            "componentType" : 5126,
            "count" : 52,
            "type" : "VEC3"
        },
        {
            "bufferView" : 12,
            "componentType" : 5126,
            "count" : 52,
            "type" : "VEC4"
        },
        {
            "bufferView" : 13,
            "componentType" : 5126,
            "count" : 52,
            "type" : "VEC2"
        },
        {
            "bufferView" : 14,
            "componentType" : 5123,
            "count" : 144,
            "type" : "SCALAR"
        },
        {
            "bufferView" : 15,
            "componentType" : 5126,
            "count" : 96,
            "max" : [
                1.1915000677108765,
                1.187399983406067,
                1.4079999923706055
            ],
            "min" : [
                -1.7643998861312866,
                -1.187399983406067,
                1.3751879930496216
            ],
            "type" : "VEC3"
        },
        {
            "bufferView" : 16,
            "componentType" : 5126,
            "count" : 96,
            "type" : "VEC3"
        },
        {
            "bufferView" : 17,
            "componentType" : 5126,
            "count" : 96,
            "type" : "VEC4"
        },
        {
            "bufferView" : 18,
            "componentType" : 5126,
            "count" : 96,
            "type" : "VEC2"
        },
        {
            "bufferView" : 19,
            "componentType" : 5123,
            "count" : 96,
            "type" : "SCALAR"
        },
        {
            "bufferView" : 20,
            "componentType" : 5126,
            "count" : 528,
            "max" : [
                1.2104243040084839,
                1.3594104051589966,
                0.8804762363433838
            ],
            "min" : [
                -1.7591731548309326,
                -1.349796175956726,
                -1.2805975675582886
            ],
            "type" : "VEC3"
        },
        {
            "bufferView" : 21,
            "componentType" : 5126,
            "count" : 528,
            "type" : "VEC3"
        },
        {
            "bufferView" : 22,
            "componentType" : 5126,
            "count" : 528,
            "type" : "VEC4"
        },
        {
            "bufferView" : 23,
            "componentType" : 5126,
            "count" : 528,
            "type" : "VEC2"
        },
        {
            "bufferView" : 24,
            "componentType" : 5123,
            "count" : 2070,
            "type" : "SCALAR"
        },
        {
            "bufferView" : 25,
            "componentType" : 5126,
            "count" : 427,
            "max" : [
                0.31159403920173645,
                1.2047579288482666,
                0.6773896217346191
            ],
            "min" : [
                -2.7992515563964844,
                -1.1687841415405273,
                -0.9320956468582153
            ],
            "type" : "VEC3"
        },
        {
            "bufferView" : 26,
            "componentType" : 5126,
            "count" : 427,
            "type" : "VEC3"
        },
        {
            "bufferView" : 27,
            "componentType" : 5126,
            "count" : 427,
            "type" : "VEC4"
        },
        {
            "bufferView" : 28,
            "componentType" : 5126,
            "count" : 427,
            "type" : "VEC2"
        },
        {
            "bufferView" : 29,
            "componentType" : 5123,
            "count" : 1164,
            "type" : "SCALAR"
        },
        {
            "bufferView" : 30,
            "componentType" : 5126,
            "count" : 25,
            "max" : [
                0.811558187007904,
                0.815156877040863,
                -1.539486289024353
            ],
            "min" : [
                -0.8115575909614563,
                -0.815156877040863,
                -1.6815520524978638
            ],
            "type" : "VEC3"
        },
        {
            "bufferView" : 31,
            "componentType" : 5126,
            "count" : 25,
            "type" : "VEC3"
        },
        {
            "bufferView" : 32,
            "componentType" : 5126,
            "count" : 25,
            "type" : "VEC4"
        },
        {
            "bufferView" : 33,
            "componentType" : 5126,
            "count" : 25,
            "type" : "VEC2"
        },
        {
            "bufferView" : 34,
            "componentType" : 5123,
            "count" : 72,
            "type" : "SCALAR"
        },
        {
            "bufferView" : 35,
            "componentType" : 5126,
            "count" : 60,
            "max" : [
                1.820465326309204,
                1.0923457145690918,
                3.2505300045013428
            ],
            "min" : [
                1.4107762575149536,
                -1.093327522277832,
                -1.9913201332092285
            ],
            "type" : "VEC3"
        },
        {
            "bufferView" : 36,
            "componentType" : 5126,
            "count" : 60,
            "type" : "VEC3"
        },
        {
            "bufferView" : 37,
            "componentType" : 5126,
            "count" : 60,
            "type" : "VEC4"
        },
        {
            "bufferView" : 38,
            "componentType" : 5126,
            "count" : 60,
            "type" : "VEC2"
        },
        {
            "bufferView" : 39,
            "componentType" : 5123,
            "count" : 60,
            "type" : "SCALAR"
        },
        {
            "bufferView" : 40,
            "componentType" : 5126,
            "count" : 16207,
            "max" : [
                1.828560471534729,
                1.1618835926055908,
                3.975632905960083
            ],
            "min" : [
                -1.7751235961914062,
                -1.1618835926055908,
                -3.907899856567383
            ],
            "type" : "VEC3"
        },
        {
            "bufferView" : 41,
            "componentType" : 5126,
            "count" : 16207,
            "type" : "VEC3"
        },
        {
            "bufferView" : 42,
            "componentType" : 5126,
            "count" : 16207,
            "type" : "VEC4"
        },
        {
            "bufferView" : 43,
            "componentType" : 5126,
            "count" : 16207,
            "type" : "VEC2"
        },
        {
            "bufferView" : 44,
            "componentType" : 5123,
            "count" : 25167,
            "type" : "SCALAR"
        }
    ],
    "bufferViews" : [
        {
            "buffer" : 0,
            "byteLength" : 1344,
            "byteOffset" : 0
        },
        {
            "buffer" : 0,
            "byteLength" : 1344,
            "byteOffset" : 1344
        },
        {
            "buffer" : 0,
            "byteLength" : 1792,
            "byteOffset" : 2688
        },
        {
            "buffer" : 0,
            "byteLength" : 896,
            "byteOffset" : 4480
        },
        {
            "buffer" : 0,
            "byteLength" : 408,
            "byteOffset" : 5376
        },
        {
            "buffer" : 0,
            "byteLength" : 4632,
            "byteOffset" : 5784
        },
        {
            "buffer" : 0,
            "byteLength" : 4632,
            "byteOffset" : 10416
        },
        {
            "buffer" : 0,
            "byteLength" : 6176,
            "byteOffset" : 15048
        },
        {
            "buffer" : 0,
            "byteLength" : 3088,
            "byteOffset" : 21224
        },
        {
            "buffer" : 0,
            "byteLength" : 3840,
            "byteOffset" : 24312
        },
        {
            "buffer" : 0,
            "byteLength" : 624,
            "byteOffset" : 28152
        },
        {
            "buffer" : 0,
            "byteLength" : 624,
            "byteOffset" : 28776
        },
        {
            "buffer" : 0,
            "byteLength" : 832,
            "byteOffset" : 29400
        },
        {
            "buffer" : 0,
            "byteLength" : 416,
            "byteOffset" : 30232
        },
        {
            "buffer" : 0,
            "byteLength" : 288,
            "byteOffset" : 30648
        },
        {
            "buffer" : 0,
            "byteLength" : 1152,
            "byteOffset" : 30936
        },
        {
            "buffer" : 0,
            "byteLength" : 1152,
            "byteOffset" : 32088
        },
        {
            "buffer" : 0,
            "byteLength" : 1536,
            "byteOffset" : 33240
        },
        {
            "buffer" : 0,
            "byteLength" : 768,
            "byteOffset" : 34776
        },
        {
            "buffer" : 0,
            "byteLength" : 192,
            "byteOffset" : 35544
        },
        {
            "buffer" : 0,
            "byteLength" : 6336,
            "byteOffset" : 35736
        },
        {
            "buffer" : 0,
            "byteLength" : 6336,
            "byteOffset" : 42072
        },
        {
            "buffer" : 0,
            "byteLength" : 8448,
            "byteOffset" : 48408
        },
        {
            "buffer" : 0,
            "byteLength" : 4224,
            "byteOffset" : 56856
        },
        {
            "buffer" : 0,
            "byteLength" : 4140,
            "byteOffset" : 61080
        },
        {
            "buffer" : 0,
            "byteLength" : 5124,
            "byteOffset" : 65220
        },
        {
            "buffer" : 0,
            "byteLength" : 5124,
            "byteOffset" : 70344
        },
        {
            "buffer" : 0,
            "byteLength" : 6832,
            "byteOffset" : 75468
        },
        {
            "buffer" : 0,
            "byteLength" : 3416,
            "byteOffset" : 82300
        },
        {
            "buffer" : 0,
            "byteLength" : 2328,
            "byteOffset" : 85716
        },
        {
            "buffer" : 0,
            "byteLength" : 300,
            "byteOffset" : 88044
        },
        {
            "buffer" : 0,
            "byteLength" : 300,
            "byteOffset" : 88344
        },
        {
            "buffer" : 0,
            "byteLength" : 400,
            "byteOffset" : 88644
        },
        {
            "buffer" : 0,
            "byteLength" : 200,
            "byteOffset" : 89044
        },
        {
            "buffer" : 0,
            "byteLength" : 144,
            "byteOffset" : 89244
        },
        {
            "buffer" : 0,
            "byteLength" : 720,
            "byteOffset" : 89388
        },
        {
            "buffer" : 0,
            "byteLength" : 720,
            "byteOffset" : 90108
        },
        {
            "buffer" : 0,
            "byteLength" : 960,
            "byteOffset" : 90828
        },
        {
            "buffer" : 0,
            "byteLength" : 480,
            "byteOffset" : 91788
        },
        {
            "buffer" : 0,
            "byteLength" : 120,
            "byteOffset" : 92268
        },
        {
            "buffer" : 0,
            "byteLength" : 194484,
            "byteOffset" : 92388
        },
        {
            "buffer" : 0,
            "byteLength" : 194484,
            "byteOffset" : 286872
        },
        {
            "buffer" : 0,
            "byteLength" : 259312,
            "byteOffset" : 481356
        },
        {
            "buffer" : 0,
            "byteLength" : 129656,
            "byteOffset" : 740668
        },
        {
            "buffer" : 0,
            "byteLength" : 50334,
            "byteOffset" : 870324
        }
    ],
    "samplers" : [
        {
            "magFilter" : 9729,
            "minFilter" : 9987
        }
    ],
    "buffers" : [
        {
            "byteLength" : 920660,
            "uri" : "spitzer.bin"
        }
    ]
}
