{
	"asset":{
		"generator":"Khronos glTF Blender I/O v3.6.27",
		"version":"2.0"
	},
	"scene":0,
	"scenes":[
		{
			"name":"Scene",
			"nodes":[
				12
			]
		}
	],
	"nodes":[
		{
			"mesh":0,
			"name":"baked_instruments",
			"translation":[
				0.0033443570137023926,
				-0.0663084015250206,
				-0.6936798095703125
			]
		},
		{
			"mesh":1,
			"name":"BUS_instruments",
			"translation":[
				0.0033443570137023926,
				-0.0663084015250206,
				-0.6936798095703125
			]
		},
		{
			"mesh":2,
			"name":"BUS_plates",
			"translation":[
				0.0033443570137023926,
				-0.0663084015250206,
				-0.6936798095703125
			]
		},
		{
			"mesh":3,
			"name":"OLI",
			"translation":[
				0.9797002673149109,
				-0.17569391429424286,
				1.1120216846466064
			]
		},
		{
			"mesh":4,
			"name":"OLI_cams",
			"translation":[
				0.9797002673149109,
				-0.17569391429424286,
				1.1120216846466064
			]
		},
		{
			"mesh":5,
			"name":"OLI_plate",
			"translation":[
				0.9976575970649719,
				-0.290248304605484,
				0.9659861326217651
			]
		},
		{
			"mesh":6,
			"name":"OLI_plates",
			"translation":[
				1.2040154933929443,
				-0.3677044212818146,
				-1.028668761253357
			]
		},
		{
			"mesh":7,
			"name":"solarPanelHinges",
			"translation":[
				-1.67576003074646,
				1.7865840196609497,
				2.8035454750061035
			]
		},
		{
			"mesh":8,
			"name":"solarPanels",
			"translation":[
				-1.765432596206665,
				0.016253076493740082,
				7.2084431648254395
			]
		},
		{
			"mesh":9,
			"name":"solarPanels_base",
			"translation":[
				-1.9386730194091797,
				-0.9295781850814819,
				1.424935221672058
			]
		},
		{
			"mesh":10,
			"name":"solarPanels_foil",
			"translation":[
				-1.67576003074646,
				1.7865840196609497,
				-0.6949263215065002
			]
		},
		{
			"mesh":11,
			"name":"solarPanels_gimbal",
			"translation":[
				-1.7695047855377197,
				0.015957079827785492,
				1.1206501722335815
			]
		},
		{
			"children":[
				0,
				1,
				2,
				3,
				4,
				5,
				6,
				7,
				8,
				9,
				10,
				11
			],
			"mesh":12,
			"name":"BUS",
			"translation":[
				0.721491277217865,
				0,
				0
			]
		}
	],
	"materials":[
		{
			"doubleSided":true,
			"name":"LandSat9",
			"pbrMetallicRoughness":{
				"baseColorTexture":{
					"index":0
				},
				"roughnessFactor":0.30000001192092896
			}
		},
		{
			"doubleSided":true,
			"name":"foil_silver",
			"normalTexture":{
				"index":1
			},
			"pbrMetallicRoughness":{
				"baseColorFactor":[
					1,
					0.999999463558197,
					1,
					1
				],
				"roughnessFactor":0.30000001192092896
			}
		},
		{
			"doubleSided":true,
			"name":"gunmetal",
			"pbrMetallicRoughness":{
				"baseColorFactor":[
					0.3012221157550812,
					0.2849656343460083,
					0.2849656343460083,
					1
				],
				"roughnessFactor":0.3499999940395355
			}
		},
		{
			"doubleSided":true,
			"name":"white_foil",
			"normalTexture":{
				"index":2
			},
			"pbrMetallicRoughness":{
				"baseColorFactor":[
					1,
					0.999999463558197,
					1,
					1
				],
				"metallicFactor":0.75,
				"roughnessFactor":0.5
			}
		},
		{
			"doubleSided":true,
			"name":"aluminum",
			"pbrMetallicRoughness":{
				"baseColorFactor":[
					0.21998420357704163,
					0.2199842780828476,
					0.2199842780828476,
					1
				],
				"roughnessFactor":0.30000001192092896
			}
		},
		{
			"doubleSided":true,
			"name":"white_krinkle",
			"normalTexture":{
				"index":3
			},
			"pbrMetallicRoughness":{
				"metallicFactor":0,
				"roughnessFactor":0.6000000238418579
			}
		},
		{
			"doubleSided":true,
			"name":"plastic black",
			"pbrMetallicRoughness":{
				"baseColorFactor":[
					0.026453394442796707,
					0.026453394442796707,
					0.026453394442796707,
					1
				],
				"metallicFactor":0,
				"roughnessFactor":0.20000000298023224
			}
		},
		{
			"doubleSided":true,
			"name":"mirror chrome",
			"pbrMetallicRoughness":{
				"roughnessFactor":0
			}
		},
		{
			"doubleSided":true,
			"name":"aluminum",
			"pbrMetallicRoughness":{
				"baseColorFactor":[
					0.21998420357704163,
					0.2199842780828476,
					0.2199842780828476,
					1
				],
				"roughnessFactor":0.30000001192092896
			}
		},
		{
			"doubleSided":true,
			"name":"solar_cable",
			"pbrMetallicRoughness":{
				"baseColorFactor":[
					0.39311879873275757,
					0.39311879873275757,
					0.39311879873275757,
					1
				],
				"roughnessFactor":0.30000001192092896
			}
		},
		{
			"doubleSided":true,
			"name":"solarArray",
			"normalTexture":{
				"index":4
			},
			"pbrMetallicRoughness":{
				"baseColorTexture":{
					"index":5
				},
				"metallicRoughnessTexture":{
					"index":6
				}
			}
		}
	],
	"meshes":[
		{
			"name":"Mesh.171",
			"primitives":[
				{
					"attributes":{
						"POSITION":0,
						"NORMAL":1,
						"TEXCOORD_0":2,
						"TEXCOORD_1":3
					},
					"indices":4,
					"material":0
				}
			]
		},
		{
			"name":"Mesh.272",
			"primitives":[
				{
					"attributes":{
						"POSITION":5,
						"NORMAL":6,
						"TEXCOORD_0":7
					},
					"indices":8,
					"material":1
				},
				{
					"attributes":{
						"POSITION":9,
						"NORMAL":10,
						"TEXCOORD_0":11
					},
					"indices":12,
					"material":2
				},
				{
					"attributes":{
						"POSITION":13,
						"NORMAL":14,
						"TEXCOORD_0":15
					},
					"indices":16,
					"material":3
				}
			]
		},
		{
			"name":"Mesh.124",
			"primitives":[
				{
					"attributes":{
						"POSITION":17,
						"NORMAL":18,
						"TEXCOORD_0":19
					},
					"indices":20,
					"material":4
				}
			]
		},
		{
			"name":"Plane",
			"primitives":[
				{
					"attributes":{
						"POSITION":21,
						"NORMAL":22,
						"TEXCOORD_0":23
					},
					"indices":24,
					"material":5
				}
			]
		},
		{
			"name":"Plane.002",
			"primitives":[
				{
					"attributes":{
						"POSITION":25,
						"NORMAL":26,
						"TEXCOORD_0":27
					},
					"indices":28,
					"material":6
				},
				{
					"attributes":{
						"POSITION":29,
						"NORMAL":30,
						"TEXCOORD_0":31
					},
					"indices":32,
					"material":7
				}
			]
		},
		{
			"name":"Plane.004",
			"primitives":[
				{
					"attributes":{
						"POSITION":33,
						"NORMAL":34,
						"TEXCOORD_0":35,
						"TANGENT":36
					},
					"indices":37,
					"material":8
				}
			]
		},
		{
			"name":"Cube.007",
			"primitives":[
				{
					"attributes":{
						"POSITION":38,
						"NORMAL":39,
						"TEXCOORD_0":40
					},
					"indices":41,
					"material":4
				}
			]
		},
		{
			"name":"Mesh.298",
			"primitives":[
				{
					"attributes":{
						"POSITION":42,
						"NORMAL":43,
						"TEXCOORD_0":44
					},
					"indices":45,
					"material":9
				}
			]
		},
		{
			"name":"Cube.011",
			"primitives":[
				{
					"attributes":{
						"POSITION":46,
						"NORMAL":47,
						"TEXCOORD_0":48,
						"TANGENT":49
					},
					"indices":50,
					"material":10
				}
			]
		},
		{
			"name":"Mesh.083",
			"primitives":[
				{
					"attributes":{
						"POSITION":51,
						"NORMAL":52,
						"TEXCOORD_0":53
					},
					"indices":54,
					"material":1
				},
				{
					"attributes":{
						"POSITION":55,
						"NORMAL":56,
						"TEXCOORD_0":57
					},
					"indices":58,
					"material":4
				}
			]
		},
		{
			"name":"Mesh.258",
			"primitives":[
				{
					"attributes":{
						"POSITION":59,
						"NORMAL":60,
						"TEXCOORD_0":61,
						"TANGENT":62
					},
					"indices":63,
					"material":1
				}
			]
		},
		{
			"name":"Mesh.213",
			"primitives":[
				{
					"attributes":{
						"POSITION":64,
						"NORMAL":65,
						"TEXCOORD_0":66,
						"TANGENT":67
					},
					"indices":68,
					"material":4
				}
			]
		},
		{
			"name":"Cylinder",
			"primitives":[
				{
					"attributes":{
						"POSITION":69,
						"NORMAL":70,
						"TEXCOORD_0":71
					},
					"indices":72,
					"material":3
				}
			]
		}
	],
	"textures":[
		{
			"sampler":0,
			"source":0
		},
		{
			"sampler":0,
			"source":1
		},
		{
			"sampler":0,
			"source":1
		},
		{
			"sampler":0,
			"source":1
		},
		{
			"sampler":0,
			"source":2
		},
		{
			"sampler":0,
			"source":3
		},
		{
			"sampler":0,
			"source":4
		}
	],
	"images":[
		{
			"mimeType":"image/jpeg",
			"name":"Landsat9_diff",
			"uri":"Landsat9_diff.jpg"
		},
		{
			"mimeType":"image/jpeg",
			"name":"foil_n.jpg",
			"uri":"foil_n_jpg.jpg"
		},
		{
			"mimeType":"image/png",
			"name":"solarArray_norm.png",
			"uri":"solarArray_norm_png.png"
		},
		{
			"mimeType":"image/jpeg",
			"name":"solarArray_diff.jpg",
			"uri":"solarArray_diff_jpg.jpg"
		},
		{
			"mimeType":"image/jpeg",
			"name":"solarArray_metalRough.jpg",
			"uri":"solarArray_metalRough_jpg.jpg"
		}
	],
	"accessors":[
		{
			"bufferView":0,
			"componentType":5126,
			"count":4948,
			"max":[
				0.2544846534729004,
				1.0894701480865479,
				1.7087332010269165
			],
			"min":[
				-2.8871078491210938,
				-1.5207090377807617,
				-0.7568023204803467
			],
			"type":"VEC3"
		},
		{
			"bufferView":1,
			"componentType":5126,
			"count":4948,
			"type":"VEC3"
		},
		{
			"bufferView":2,
			"componentType":5126,
			"count":4948,
			"type":"VEC2"
		},
		{
			"bufferView":3,
			"componentType":5126,
			"count":4948,
			"type":"VEC2"
		},
		{
			"bufferView":4,
			"componentType":5123,
			"count":14670,
			"type":"SCALAR"
		},
		{
			"bufferView":5,
			"componentType":5126,
			"count":2704,
			"max":[
				-0.009685344062745571,
				1.6081206798553467,
				2.0341973304748535
			],
			"min":[
				-2.5321240425109863,
				-1.3585723638534546,
				-0.6906095147132874
			],
			"type":"VEC3"
		},
		{
			"bufferView":6,
			"componentType":5126,
			"count":2704,
			"type":"VEC3"
		},
		{
			"bufferView":7,
			"componentType":5126,
			"count":2704,
			"type":"VEC2"
		},
		{
			"bufferView":8,
			"componentType":5123,
			"count":11034,
			"type":"SCALAR"
		},
		{
			"bufferView":9,
			"componentType":5126,
			"count":1517,
			"max":[
				0.38488081097602844,
				1.847032070159912,
				1.400958776473999
			],
			"min":[
				-2.58719801902771,
				-1.9889531135559082,
				-0.47250136733055115
			],
			"type":"VEC3"
		},
		{
			"bufferView":10,
			"componentType":5126,
			"count":1517,
			"type":"VEC3"
		},
		{
			"bufferView":11,
			"componentType":5126,
			"count":1517,
			"type":"VEC2"
		},
		{
			"bufferView":12,
			"componentType":5123,
			"count":4188,
			"type":"SCALAR"
		},
		{
			"bufferView":13,
			"componentType":5126,
			"count":1100,
			"max":[
				0.4392261803150177,
				1.7114324569702148,
				1.3561382293701172
			],
			"min":[
				-2.5534658432006836,
				-1.853353500366211,
				0.08121630549430847
			],
			"type":"VEC3"
		},
		{
			"bufferView":14,
			"componentType":5126,
			"count":1100,
			"type":"VEC3"
		},
		{
			"bufferView":15,
			"componentType":5126,
			"count":1100,
			"type":"VEC2"
		},
		{
			"bufferView":16,
			"componentType":5123,
			"count":3900,
			"type":"SCALAR"
		},
		{
			"bufferView":17,
			"componentType":5126,
			"count":1871,
			"max":[
				0.15453098714351654,
				1.2159004211425781,
				1.9542542695999146
			],
			"min":[
				-2.5484871864318848,
				-1.1178345680236816,
				-0.4749048054218292
			],
			"type":"VEC3"
		},
		{
			"bufferView":18,
			"componentType":5126,
			"count":1871,
			"type":"VEC3"
		},
		{
			"bufferView":19,
			"componentType":5126,
			"count":1871,
			"type":"VEC2"
		},
		{
			"bufferView":20,
			"componentType":5123,
			"count":3579,
			"type":"SCALAR"
		},
		{
			"bufferView":21,
			"componentType":5126,
			"count":1636,
			"max":[
				1.3845854997634888,
				1.5439718961715698,
				-0.04725385457277298
			],
			"min":[
				-0.8352749943733215,
				-1.094192385673523,
				-3.9114785194396973
			],
			"type":"VEC3"
		},
		{
			"bufferView":22,
			"componentType":5126,
			"count":1636,
			"type":"VEC3"
		},
		{
			"bufferView":23,
			"componentType":5126,
			"count":1636,
			"type":"VEC2"
		},
		{
			"bufferView":24,
			"componentType":5123,
			"count":5682,
			"type":"SCALAR"
		},
		{
			"bufferView":25,
			"componentType":5126,
			"count":668,
			"max":[
				1.0032174587249756,
				1.4424831867218018,
				-0.4441317617893219
			],
			"min":[
				-0.07826980203390121,
				0.3039103150367737,
				-2.455056667327881
			],
			"type":"VEC3"
		},
		{
			"bufferView":26,
			"componentType":5126,
			"count":668,
			"type":"VEC3"
		},
		{
			"bufferView":27,
			"componentType":5126,
			"count":668,
			"type":"VEC2"
		},
		{
			"bufferView":28,
			"componentType":5123,
			"count":1734,
			"type":"SCALAR"
		},
		{
			"bufferView":29,
			"componentType":5126,
			"count":58,
			"max":[
				0.9560934901237488,
				1.023584246635437,
				-0.5372533202171326
			],
			"min":[
				-0.031061580404639244,
				0.3901912271976471,
				-2.1824305057525635
			],
			"type":"VEC3"
		},
		{
			"bufferView":30,
			"componentType":5126,
			"count":58,
			"type":"VEC3"
		},
		{
			"bufferView":31,
			"componentType":5126,
			"count":58,
			"type":"VEC2"
		},
		{
			"bufferView":32,
			"componentType":5123,
			"count":150,
			"type":"SCALAR"
		},
		{
			"bufferView":33,
			"componentType":5126,
			"count":24,
			"max":[
				0.1542348563671112,
				0.31261345744132996,
				0.00047844796790741384
			],
			"min":[
				-0.1663133054971695,
				-0.31013843417167664,
				-0.017995130270719528
			],
			"type":"VEC3"
		},
		{
			"bufferView":34,
			"componentType":5126,
			"count":24,
			"type":"VEC3"
		},
		{
			"bufferView":35,
			"componentType":5126,
			"count":24,
			"type":"VEC2"
		},
		{
			"bufferView":36,
			"componentType":5126,
			"count":24,
			"type":"VEC4"
		},
		{
			"bufferView":37,
			"componentType":5123,
			"count":36,
			"type":"SCALAR"
		},
		{
			"bufferView":38,
			"componentType":5126,
			"count":229,
			"max":[
				1.013192057609558,
				0.2611140310764313,
				0.29065412282943726
			],
			"min":[
				-0.3877261281013489,
				-0.8843835592269897,
				-0.18387185037136078
			],
			"type":"VEC3"
		},
		{
			"bufferView":39,
			"componentType":5126,
			"count":229,
			"type":"VEC3"
		},
		{
			"bufferView":40,
			"componentType":5126,
			"count":229,
			"type":"VEC2"
		},
		{
			"bufferView":41,
			"componentType":5123,
			"count":387,
			"type":"SCALAR"
		},
		{
			"bufferView":42,
			"componentType":5126,
			"count":7989,
			"max":[
				-0.05168569087982178,
				-0.6309216618537903,
				11.148947715759277
			],
			"min":[
				-0.12838387489318848,
				-2.88215970993042,
				0.4071371555328369
			],
			"type":"VEC3"
		},
		{
			"bufferView":43,
			"componentType":5126,
			"count":7989,
			"type":"VEC3"
		},
		{
			"bufferView":44,
			"componentType":5126,
			"count":7989,
			"type":"VEC2"
		},
		{
			"bufferView":45,
			"componentType":5123,
			"count":24276,
			"type":"SCALAR"
		},
		{
			"bufferView":46,
			"componentType":5126,
			"count":144,
			"max":[
				0.023033175617456436,
				1.7581515312194824,
				7.466363430023193
			],
			"min":[
				-0.024871554225683212,
				-1.7514936923980713,
				-5.568065166473389
			],
			"type":"VEC3"
		},
		{
			"bufferView":47,
			"componentType":5126,
			"count":144,
			"type":"VEC3"
		},
		{
			"bufferView":48,
			"componentType":5126,
			"count":144,
			"type":"VEC2"
		},
		{
			"bufferView":49,
			"componentType":5126,
			"count":144,
			"type":"VEC4"
		},
		{
			"bufferView":50,
			"componentType":5123,
			"count":216,
			"type":"SCALAR"
		},
		{
			"bufferView":51,
			"componentType":5126,
			"count":832,
			"max":[
				1.8262468576431274,
				1.998947262763977,
				-0.00683903694152832
			],
			"min":[
				-0.5407025218009949,
				-0.1624794453382492,
				-0.9706518054008484
			],
			"type":"VEC3"
		},
		{
			"bufferView":52,
			"componentType":5126,
			"count":832,
			"type":"VEC3"
		},
		{
			"bufferView":53,
			"componentType":5126,
			"count":832,
			"type":"VEC2"
		},
		{
			"bufferView":54,
			"componentType":5123,
			"count":2688,
			"type":"SCALAR"
		},
		{
			"bufferView":55,
			"componentType":5126,
			"count":424,
			"max":[
				1.570556402206421,
				1.9330332279205322,
				0.019676022231578827
			],
			"min":[
				-0.07937873899936676,
				-0.10440947115421295,
				-0.05717507004737854
			],
			"type":"VEC3"
		},
		{
			"bufferView":56,
			"componentType":5126,
			"count":424,
			"type":"VEC3"
		},
		{
			"bufferView":57,
			"componentType":5126,
			"count":424,
			"type":"VEC2"
		},
		{
			"bufferView":58,
			"componentType":5123,
			"count":984,
			"type":"SCALAR"
		},
		{
			"bufferView":59,
			"componentType":5126,
			"count":36,
			"max":[
				-0.05794790759682655,
				-0.022083036601543427,
				3.262608051300049
			],
			"min":[
				-0.0974099412560463,
				-3.5174787044525146,
				2.4809107780456543
			],
			"type":"VEC3"
		},
		{
			"bufferView":60,
			"componentType":5126,
			"count":36,
			"type":"VEC3"
		},
		{
			"bufferView":61,
			"componentType":5126,
			"count":36,
			"type":"VEC2"
		},
		{
			"bufferView":62,
			"componentType":5126,
			"count":36,
			"type":"VEC4"
		},
		{
			"bufferView":63,
			"componentType":5123,
			"count":132,
			"type":"SCALAR"
		},
		{
			"bufferView":64,
			"componentType":5126,
			"count":476,
			"max":[
				0.37350401282310486,
				0.37336552143096924,
				0.5557194352149963
			],
			"min":[
				-0.3734966516494751,
				-0.3745388686656952,
				0.008468488231301308
			],
			"type":"VEC3"
		},
		{
			"bufferView":65,
			"componentType":5126,
			"count":476,
			"type":"VEC3"
		},
		{
			"bufferView":66,
			"componentType":5126,
			"count":476,
			"type":"VEC2"
		},
		{
			"bufferView":67,
			"componentType":5126,
			"count":476,
			"type":"VEC4"
		},
		{
			"bufferView":68,
			"componentType":5123,
			"count":1554,
			"type":"SCALAR"
		},
		{
			"bufferView":69,
			"componentType":5126,
			"count":371,
			"max":[
				0.44452378153800964,
				1.3467344045639038,
				1.272521734237671
			],
			"min":[
				-2.6704821586608887,
				-1.6111568212509155,
				-1.26333487033844
			],
			"type":"VEC3"
		},
		{
			"bufferView":70,
			"componentType":5126,
			"count":371,
			"type":"VEC3"
		},
		{
			"bufferView":71,
			"componentType":5126,
			"count":371,
			"type":"VEC2"
		},
		{
			"bufferView":72,
			"componentType":5123,
			"count":1446,
			"type":"SCALAR"
		}
	],
	"bufferViews":[
		{
			"buffer":0,
			"byteLength":59376,
			"byteOffset":0,
			"target":34962
		},
		{
			"buffer":0,
			"byteLength":59376,
			"byteOffset":59376,
			"target":34962
		},
		{
			"buffer":0,
			"byteLength":39584,
			"byteOffset":118752,
			"target":34962
		},
		{
			"buffer":0,
			"byteLength":39584,
			"byteOffset":158336,
			"target":34962
		},
		{
			"buffer":0,
			"byteLength":29340,
			"byteOffset":197920,
			"target":34963
		},
		{
			"buffer":0,
			"byteLength":32448,
			"byteOffset":227260,
			"target":34962
		},
		{
			"buffer":0,
			"byteLength":32448,
			"byteOffset":259708,
			"target":34962
		},
		{
			"buffer":0,
			"byteLength":21632,
			"byteOffset":292156,
			"target":34962
		},
		{
			"buffer":0,
			"byteLength":22068,
			"byteOffset":313788,
			"target":34963
		},
		{
			"buffer":0,
			"byteLength":18204,
			"byteOffset":335856,
			"target":34962
		},
		{
			"buffer":0,
			"byteLength":18204,
			"byteOffset":354060,
			"target":34962
		},
		{
			"buffer":0,
			"byteLength":12136,
			"byteOffset":372264,
			"target":34962
		},
		{
			"buffer":0,
			"byteLength":8376,
			"byteOffset":384400,
			"target":34963
		},
		{
			"buffer":0,
			"byteLength":13200,
			"byteOffset":392776,
			"target":34962
		},
		{
			"buffer":0,
			"byteLength":13200,
			"byteOffset":405976,
			"target":34962
		},
		{
			"buffer":0,
			"byteLength":8800,
			"byteOffset":419176,
			"target":34962
		},
		{
			"buffer":0,
			"byteLength":7800,
			"byteOffset":427976,
			"target":34963
		},
		{
			"buffer":0,
			"byteLength":22452,
			"byteOffset":435776,
			"target":34962
		},
		{
			"buffer":0,
			"byteLength":22452,
			"byteOffset":458228,
			"target":34962
		},
		{
			"buffer":0,
			"byteLength":14968,
			"byteOffset":480680,
			"target":34962
		},
		{
			"buffer":0,
			"byteLength":7158,
			"byteOffset":495648,
			"target":34963
		},
		{
			"buffer":0,
			"byteLength":19632,
			"byteOffset":502808,
			"target":34962
		},
		{
			"buffer":0,
			"byteLength":19632,
			"byteOffset":522440,
			"target":34962
		},
		{
			"buffer":0,
			"byteLength":13088,
			"byteOffset":542072,
			"target":34962
		},
		{
			"buffer":0,
			"byteLength":11364,
			"byteOffset":555160,
			"target":34963
		},
		{
			"buffer":0,
			"byteLength":8016,
			"byteOffset":566524,
			"target":34962
		},
		{
			"buffer":0,
			"byteLength":8016,
			"byteOffset":574540,
			"target":34962
		},
		{
			"buffer":0,
			"byteLength":5344,
			"byteOffset":582556,
			"target":34962
		},
		{
			"buffer":0,
			"byteLength":3468,
			"byteOffset":587900,
			"target":34963
		},
		{
			"buffer":0,
			"byteLength":696,
			"byteOffset":591368,
			"target":34962
		},
		{
			"buffer":0,
			"byteLength":696,
			"byteOffset":592064,
			"target":34962
		},
		{
			"buffer":0,
			"byteLength":464,
			"byteOffset":592760,
			"target":34962
		},
		{
			"buffer":0,
			"byteLength":300,
			"byteOffset":593224,
			"target":34963
		},
		{
			"buffer":0,
			"byteLength":288,
			"byteOffset":593524,
			"target":34962
		},
		{
			"buffer":0,
			"byteLength":288,
			"byteOffset":593812,
			"target":34962
		},
		{
			"buffer":0,
			"byteLength":192,
			"byteOffset":594100,
			"target":34962
		},
		{
			"buffer":0,
			"byteLength":384,
			"byteOffset":594292,
			"target":34962
		},
		{
			"buffer":0,
			"byteLength":72,
			"byteOffset":594676,
			"target":34963
		},
		{
			"buffer":0,
			"byteLength":2748,
			"byteOffset":594748,
			"target":34962
		},
		{
			"buffer":0,
			"byteLength":2748,
			"byteOffset":597496,
			"target":34962
		},
		{
			"buffer":0,
			"byteLength":1832,
			"byteOffset":600244,
			"target":34962
		},
		{
			"buffer":0,
			"byteLength":774,
			"byteOffset":602076,
			"target":34963
		},
		{
			"buffer":0,
			"byteLength":95868,
			"byteOffset":602852,
			"target":34962
		},
		{
			"buffer":0,
			"byteLength":95868,
			"byteOffset":698720,
			"target":34962
		},
		{
			"buffer":0,
			"byteLength":63912,
			"byteOffset":794588,
			"target":34962
		},
		{
			"buffer":0,
			"byteLength":48552,
			"byteOffset":858500,
			"target":34963
		},
		{
			"buffer":0,
			"byteLength":1728,
			"byteOffset":907052,
			"target":34962
		},
		{
			"buffer":0,
			"byteLength":1728,
			"byteOffset":908780,
			"target":34962
		},
		{
			"buffer":0,
			"byteLength":1152,
			"byteOffset":910508,
			"target":34962
		},
		{
			"buffer":0,
			"byteLength":2304,
			"byteOffset":911660,
			"target":34962
		},
		{
			"buffer":0,
			"byteLength":432,
			"byteOffset":913964,
			"target":34963
		},
		{
			"buffer":0,
			"byteLength":9984,
			"byteOffset":914396,
			"target":34962
		},
		{
			"buffer":0,
			"byteLength":9984,
			"byteOffset":924380,
			"target":34962
		},
		{
			"buffer":0,
			"byteLength":6656,
			"byteOffset":934364,
			"target":34962
		},
		{
			"buffer":0,
			"byteLength":5376,
			"byteOffset":941020,
			"target":34963
		},
		{
			"buffer":0,
			"byteLength":5088,
			"byteOffset":946396,
			"target":34962
		},
		{
			"buffer":0,
			"byteLength":5088,
			"byteOffset":951484,
			"target":34962
		},
		{
			"buffer":0,
			"byteLength":3392,
			"byteOffset":956572,
			"target":34962
		},
		{
			"buffer":0,
			"byteLength":1968,
			"byteOffset":959964,
			"target":34963
		},
		{
			"buffer":0,
			"byteLength":432,
			"byteOffset":961932,
			"target":34962
		},
		{
			"buffer":0,
			"byteLength":432,
			"byteOffset":962364,
			"target":34962
		},
		{
			"buffer":0,
			"byteLength":288,
			"byteOffset":962796,
			"target":34962
		},
		{
			"buffer":0,
			"byteLength":576,
			"byteOffset":963084,
			"target":34962
		},
		{
			"buffer":0,
			"byteLength":264,
			"byteOffset":963660,
			"target":34963
		},
		{
			"buffer":0,
			"byteLength":5712,
			"byteOffset":963924,
			"target":34962
		},
		{
			"buffer":0,
			"byteLength":5712,
			"byteOffset":969636,
			"target":34962
		},
		{
			"buffer":0,
			"byteLength":3808,
			"byteOffset":975348,
			"target":34962
		},
		{
			"buffer":0,
			"byteLength":7616,
			"byteOffset":979156,
			"target":34962
		},
		{
			"buffer":0,
			"byteLength":3108,
			"byteOffset":986772,
			"target":34963
		},
		{
			"buffer":0,
			"byteLength":4452,
			"byteOffset":989880,
			"target":34962
		},
		{
			"buffer":0,
			"byteLength":4452,
			"byteOffset":994332,
			"target":34962
		},
		{
			"buffer":0,
			"byteLength":2968,
			"byteOffset":998784,
			"target":34962
		},
		{
			"buffer":0,
			"byteLength":2892,
			"byteOffset":1001752,
			"target":34963
		}
	],
	"samplers":[
		{
			"magFilter":9729,
			"minFilter":9987
		}
	],
	"buffers":[
		{
			"byteLength":1004644,
			"uri":"Landsat9.bin"
		}
	]
}
