{
    "asset" : {
        "generator" : "Khronos glTF Blender I/O v1.3.48",
        "version" : "2.0"
    },
    "scene" : 0,
    "scenes" : [
        {
            "name" : "Scene",
            "nodes" : [
                3
            ]
        }
    ],
    "nodes" : [
        {
            "mesh" : 0,
            "name" : "foil_silver",
            "translation" : [
                0.0002876551588997245,
                -0.020262278616428375,
                -2.1676755750377197e-06
            ]
        },
        {
            "mesh" : 1,
            "name" : "shiny_panel",
            "translation" : [
                3.510770056891488e-06,
                -0.008974442258477211,
                0.42960599064826965
            ]
        },
        {
            "mesh" : 2,
            "name" : "tex_01",
            "translation" : [
                0.3826545774936676,
                -0.17459818720817566,
                -0.3703383207321167
            ]
        },
        {
            "children" : [
                0,
                1,
                2
            ],
            "mesh" : 3,
            "name" : "BUS"
        }
    ],
    "materials" : [
        {
            "emissiveFactor" : [
                0,
                0,
                0
            ],
            "name" : "foil_silver",
            "normalTexture" : {
                "index" : 0,
                "texCoord" : 0
            },
            "pbrMetallicRoughness" : {
                "baseColorFactor" : [
                    1,
                    0.999999463558197,
                    1,
                    1
                ],
                "metallicFactor" : 1,
                "roughnessFactor" : 0.30000001192092896
            }
        },
        {
            "emissiveFactor" : [
                0,
                0,
                0
            ],
            "name" : "shiny_panel",
            "pbrMetallicRoughness" : {
                "baseColorTexture" : {
                    "index" : 1,
                    "texCoord" : 0
                },
                "metallicFactor" : 1,
                "roughnessFactor" : 0.05000000074505806
            }
        },
        {
            "emissiveFactor" : [
                0,
                0,
                0
            ],
            "name" : "tex_01",
            "pbrMetallicRoughness" : {
                "baseColorTexture" : {
                    "index" : 2,
                    "texCoord" : 0
                },
                "metallicFactor" : 1,
                "roughnessFactor" : 0.30000001192092896
            }
        },
        {
            "emissiveFactor" : [
                0,
                0,
                0
            ],
            "name" : "foil_gold",
            "normalTexture" : {
                "index" : 3,
                "texCoord" : 0
            },
            "pbrMetallicRoughness" : {
                "baseColorFactor" : [
                    0.9999998807907104,
                    0.6583749055862427,
                    0.08228273689746857,
                    1
                ],
                "metallicFactor" : 1,
                "roughnessFactor" : 0.30000001192092896
            }
        }
    ],
    "meshes" : [
        {
            "name" : "Sphere.028",
            "primitives" : [
                {
                    "attributes" : {
                        "POSITION" : 0,
                        "NORMAL" : 1,
                        "TEXCOORD_0" : 2
                    },
                    "indices" : 3,
                    "material" : 0
                }
            ]
        },
        {
            "name" : "Cube.001",
            "primitives" : [
                {
                    "attributes" : {
                        "POSITION" : 4,
                        "NORMAL" : 5,
                        "TEXCOORD_0" : 6
                    },
                    "indices" : 7,
                    "material" : 1
                }
            ]
        },
        {
            "name" : "Cylinder.031",
            "primitives" : [
                {
                    "attributes" : {
                        "POSITION" : 8,
                        "NORMAL" : 9,
                        "TEXCOORD_0" : 10
                    },
                    "indices" : 11,
                    "material" : 2
                }
            ]
        },
        {
            "name" : "Cylinder.032",
            "primitives" : [
                {
                    "attributes" : {
                        "POSITION" : 12,
                        "NORMAL" : 13,
                        "TEXCOORD_0" : 14
                    },
                    "indices" : 15,
                    "material" : 3
                }
            ]
        }
    ],
    "textures" : [
        {
            "source" : 0
        },
        {
            "source" : 1
        },
        {
            "source" : 1
        },
        {
            "source" : 0
        }
    ],
    "images" : [
        {
            "mimeType" : "image/jpeg",
            "name" : "foil_normal",
            "uri" : "foil_normal.jpg"
        },
        {
            "mimeType" : "image/jpeg",
            "name" : "themis_albedo",
            "uri" : "themis_albedo.jpg"
        }
    ],
    "accessors" : [
        {
            "bufferView" : 0,
            "componentType" : 5126,
            "count" : 5198,
            "max" : [
                3.048726797103882,
                3.6331117153167725,
                3.030097007751465
            ],
            "min" : [
                -3.0375728607177734,
                -3.5735719203948975,
                -3.0596439838409424
            ],
            "type" : "VEC3"
        },
        {
            "bufferView" : 1,
            "componentType" : 5126,
            "count" : 5198,
            "type" : "VEC3"
        },
        {
            "bufferView" : 2,
            "componentType" : 5126,
            "count" : 5198,
            "type" : "VEC2"
        },
        {
            "bufferView" : 3,
            "componentType" : 5123,
            "count" : 27756,
            "type" : "SCALAR"
        },
        {
            "bufferView" : 4,
            "componentType" : 5126,
            "count" : 2303,
            "max" : [
                0.4444040060043335,
                0.26377689838409424,
                0.009086723439395428
            ],
            "min" : [
                -0.43513619899749756,
                -0.26377689838409424,
                -0.865808367729187
            ],
            "type" : "VEC3"
        },
        {
            "bufferView" : 5,
            "componentType" : 5126,
            "count" : 2303,
            "type" : "VEC3"
        },
        {
            "bufferView" : 6,
            "componentType" : 5126,
            "count" : 2303,
            "type" : "VEC2"
        },
        {
            "bufferView" : 7,
            "componentType" : 5123,
            "count" : 3672,
            "type" : "SCALAR"
        },
        {
            "bufferView" : 8,
            "componentType" : 5126,
            "count" : 890,
            "max" : [
                0.07891900092363358,
                0.8009817600250244,
                0.8526139259338379
            ],
            "min" : [
                -0.8647212386131287,
                -0.07132123410701752,
                -0.06982211023569107
            ],
            "type" : "VEC3"
        },
        {
            "bufferView" : 9,
            "componentType" : 5126,
            "count" : 890,
            "type" : "VEC3"
        },
        {
            "bufferView" : 10,
            "componentType" : 5126,
            "count" : 890,
            "type" : "VEC2"
        },
        {
            "bufferView" : 11,
            "componentType" : 5123,
            "count" : 1692,
            "type" : "SCALAR"
        },
        {
            "bufferView" : 12,
            "componentType" : 5126,
            "count" : 568,
            "max" : [
                0.42679134011268616,
                0.2464892417192459,
                0.4213334619998932
            ],
            "min" : [
                -0.4186045229434967,
                -0.2464892417192459,
                -0.4186045229434967
            ],
            "type" : "VEC3"
        },
        {
            "bufferView" : 13,
            "componentType" : 5126,
            "count" : 568,
            "type" : "VEC3"
        },
        {
            "bufferView" : 14,
            "componentType" : 5126,
            "count" : 568,
            "type" : "VEC2"
        },
        {
            "bufferView" : 15,
            "componentType" : 5123,
            "count" : 1152,
            "type" : "SCALAR"
        }
    ],
    "bufferViews" : [
        {
            "buffer" : 0,
            "byteLength" : 62376,
            "byteOffset" : 0
        },
        {
            "buffer" : 0,
            "byteLength" : 62376,
            "byteOffset" : 62376
        },
        {
            "buffer" : 0,
            "byteLength" : 41584,
            "byteOffset" : 124752
        },
        {
            "buffer" : 0,
            "byteLength" : 55512,
            "byteOffset" : 166336
        },
        {
            "buffer" : 0,
            "byteLength" : 27636,
            "byteOffset" : 221848
        },
        {
            "buffer" : 0,
            "byteLength" : 27636,
            "byteOffset" : 249484
        },
        {
            "buffer" : 0,
            "byteLength" : 18424,
            "byteOffset" : 277120
        },
        {
            "buffer" : 0,
            "byteLength" : 7344,
            "byteOffset" : 295544
        },
        {
            "buffer" : 0,
            "byteLength" : 10680,
            "byteOffset" : 302888
        },
        {
            "buffer" : 0,
            "byteLength" : 10680,
            "byteOffset" : 313568
        },
        {
            "buffer" : 0,
            "byteLength" : 7120,
            "byteOffset" : 324248
        },
        {
            "buffer" : 0,
            "byteLength" : 3384,
            "byteOffset" : 331368
        },
        {
            "buffer" : 0,
            "byteLength" : 6816,
            "byteOffset" : 334752
        },
        {
            "buffer" : 0,
            "byteLength" : 6816,
            "byteOffset" : 341568
        },
        {
            "buffer" : 0,
            "byteLength" : 4544,
            "byteOffset" : 348384
        },
        {
            "buffer" : 0,
            "byteLength" : 2304,
            "byteOffset" : 352928
        }
    ],
    "buffers" : [
        {
            "byteLength" : 355232,
            "uri" : "themis.bin"
        }
    ]
}
