{
    "asset" : {
        "generator" : "Khronos glTF Blender I/O v1.3.48",
        "version" : "2.0"
    },
    "scene" : 0,
    "scenes" : [
        {
            "name" : "Scene",
            "nodes" : [
                4
            ]
        }
    ],
    "nodes" : [
        {
            "mesh" : 0,
            "name" : "black_cap"
        },
        {
            "mesh" : 1,
            "name" : "instruments"
        },
        {
            "mesh" : 2,
            "name" : "reflective_plate"
        },
        {
            "mesh" : 3,
            "name" : "reflective_wrapping"
        },
        {
            "children" : [
                0,
                1,
                2,
                3
            ],
            "mesh" : 4,
            "name" : "BUS"
        }
    ],
    "materials" : [
        {
            "emissiveFactor" : [
                0,
                0,
                0
            ],
            "name" : "plastic black",
            "pbrMetallicRoughness" : {
                "baseColorFactor" : [
                    0.026453394442796707,
                    0.026453394442796707,
                    0.026453394442796707,
                    1
                ],
                "metallicFactor" : 0,
                "roughnessFactor" : 0.20000000298023224
            }
        },
        {
            "emissiveFactor" : [
                0,
                0,
                0
            ],
            "name" : "Diff Metallic",
            "normalTexture" : {
                "index" : 0,
                "texCoord" : 0
            },
            "pbrMetallicRoughness" : {
                "baseColorTexture" : {
                    "index" : 1,
                    "texCoord" : 0
                },
                "metallicFactor" : 1,
                "roughnessFactor" : 0.30000001192092896
            }
        },
        {
            "emissiveFactor" : [
                0,
                0,
                0
            ],
            "name" : "Diff Nonmetallic",
            "normalTexture" : {
                "index" : 2,
                "texCoord" : 0
            },
            "pbrMetallicRoughness" : {
                "baseColorTexture" : {
                    "index" : 3,
                    "texCoord" : 0
                },
                "metallicFactor" : 0,
                "roughnessFactor" : 0.5
            }
        },
        {
            "emissiveFactor" : [
                0,
                0,
                0
            ],
            "name" : "shiny_panel.001",
            "normalTexture" : {
                "index" : 4,
                "texCoord" : 0
            },
            "pbrMetallicRoughness" : {
                "baseColorTexture" : {
                    "index" : 5,
                    "texCoord" : 0
                },
                "metallicFactor" : 0,
                "roughnessFactor" : 0.10000000149011612
            }
        },
        {
            "emissiveFactor" : [
                0,
                0,
                0
            ],
            "name" : "Reflective_dots",
            "normalTexture" : {
                "index" : 6,
                "scale" : 0.10000000149011612,
                "texCoord" : 0
            },
            "pbrMetallicRoughness" : {
                "baseColorTexture" : {
                    "index" : 7,
                    "texCoord" : 0
                },
                "metallicFactor" : 1,
                "roughnessFactor" : 0.10000000149011612
            }
        },
        {
            "emissiveFactor" : [
                0,
                0,
                0
            ],
            "name" : "mirror chrome.001",
            "pbrMetallicRoughness" : {
                "baseColorFactor" : [
                    0.949999988079071,
                    0.949999988079071,
                    0.949999988079071,
                    1
                ],
                "metallicFactor" : 1,
                "roughnessFactor" : 0.05000000074505806
            }
        },
        {
            "emissiveFactor" : [
                0,
                0,
                0
            ],
            "name" : "foil_gold.001",
            "normalTexture" : {
                "index" : 8,
                "texCoord" : 0
            },
            "pbrMetallicRoughness" : {
                "baseColorFactor" : [
                    0.9999998807907104,
                    0.6583749055862427,
                    0.08228273689746857,
                    1
                ],
                "metallicFactor" : 1,
                "roughnessFactor" : 0.30000001192092896
            }
        },
        {
            "emissiveFactor" : [
                0,
                0,
                0
            ],
            "name" : "foil_silver.001",
            "normalTexture" : {
                "index" : 9,
                "texCoord" : 0
            },
            "pbrMetallicRoughness" : {
                "baseColorFactor" : [
                    1,
                    0.999999463558197,
                    1,
                    1
                ],
                "metallicFactor" : 1,
                "roughnessFactor" : 0.30000001192092896
            }
        }
    ],
    "meshes" : [
        {
            "name" : "Cylinder",
            "primitives" : [
                {
                    "attributes" : {
                        "POSITION" : 0,
                        "NORMAL" : 1
                    },
                    "indices" : 2,
                    "material" : 0
                }
            ]
        },
        {
            "name" : "Cylinder.001",
            "primitives" : [
                {
                    "attributes" : {
                        "POSITION" : 3,
                        "NORMAL" : 4,
                        "TEXCOORD_0" : 5
                    },
                    "indices" : 6,
                    "material" : 1
                },
                {
                    "attributes" : {
                        "POSITION" : 7,
                        "NORMAL" : 8,
                        "TEXCOORD_0" : 9
                    },
                    "indices" : 10,
                    "material" : 2
                },
                {
                    "attributes" : {
                        "POSITION" : 11,
                        "NORMAL" : 12,
                        "TEXCOORD_0" : 13
                    },
                    "indices" : 10,
                    "material" : 3
                }
            ]
        },
        {
            "name" : "Cylinder.000",
            "primitives" : [
                {
                    "attributes" : {
                        "POSITION" : 14,
                        "NORMAL" : 15,
                        "TEXCOORD_0" : 16
                    },
                    "indices" : 17,
                    "material" : 4
                }
            ]
        },
        {
            "name" : "Cylinder.015",
            "primitives" : [
                {
                    "attributes" : {
                        "POSITION" : 18,
                        "NORMAL" : 19,
                        "TEXCOORD_0" : 20
                    },
                    "indices" : 21,
                    "material" : 5
                }
            ]
        },
        {
            "name" : "Cylinder.014",
            "primitives" : [
                {
                    "attributes" : {
                        "POSITION" : 22,
                        "NORMAL" : 23,
                        "TEXCOORD_0" : 24
                    },
                    "indices" : 25,
                    "material" : 6
                },
                {
                    "attributes" : {
                        "POSITION" : 26,
                        "NORMAL" : 27,
                        "TEXCOORD_0" : 28
                    },
                    "indices" : 29,
                    "material" : 7
                }
            ]
        }
    ],
    "textures" : [
        {
            "source" : 0
        },
        {
            "source" : 1
        },
        {
            "source" : 0
        },
        {
            "source" : 1
        },
        {
            "source" : 0
        },
        {
            "source" : 1
        },
        {
            "source" : 2
        },
        {
            "source" : 3
        },
        {
            "source" : 4
        },
        {
            "source" : 4
        }
    ],
    "images" : [
        {
            "mimeType" : "image/png",
            "name" : "SORCE_normal",
            "uri" : "sorce_normal.png"
        },
        {
            "mimeType" : "image/png",
            "name" : "SORCE_albedo",
            "uri" : "sorce_albedo.png"
        },
        {
            "mimeType" : "image/png",
            "name" : "reflective_dots_normal",
            "uri" : "reflective_dots_normal.png"
        },
        {
            "mimeType" : "image/png",
            "name" : "reflective_dots_albedo",
            "uri" : "reflective_dots_albedo.png"
        },
        {
            "mimeType" : "image/png",
            "name" : "foil_n",
            "uri" : "foil_n.png"
        }
    ],
    "accessors" : [
        {
            "bufferView" : 0,
            "componentType" : 5126,
            "count" : 107,
            "max" : [
                -0.03420171141624451,
                -0.5811884999275208,
                0.2499627321958542
            ],
            "min" : [
                -0.05795186385512352,
                -0.5946863293647766,
                0.2249903529882431
            ],
            "type" : "VEC3"
        },
        {
            "bufferView" : 1,
            "componentType" : 5126,
            "count" : 107,
            "type" : "VEC3"
        },
        {
            "bufferView" : 2,
            "componentType" : 5123,
            "count" : 210,
            "type" : "SCALAR"
        },
        {
            "bufferView" : 3,
            "componentType" : 5126,
            "count" : 10711,
            "max" : [
                1.5890129804611206,
                1.1124415397644043,
                1.6824829578399658
            ],
            "min" : [
                -1.589012861251831,
                -0.6583963632583618,
                -1.682483196258545
            ],
            "type" : "VEC3"
        },
        {
            "bufferView" : 4,
            "componentType" : 5126,
            "count" : 10711,
            "type" : "VEC3"
        },
        {
            "bufferView" : 5,
            "componentType" : 5126,
            "count" : 10711,
            "type" : "VEC2"
        },
        {
            "bufferView" : 6,
            "componentType" : 5123,
            "count" : 15582,
            "type" : "SCALAR"
        },
        {
            "bufferView" : 7,
            "componentType" : 5126,
            "count" : 72,
            "max" : [
                1.589012861251831,
                -0.5456657409667969,
                1.6824828386306763
            ],
            "min" : [
                -1.589012861251831,
                -0.5456664562225342,
                -1.6824830770492554
            ],
            "type" : "VEC3"
        },
        {
            "bufferView" : 8,
            "componentType" : 5126,
            "count" : 72,
            "type" : "VEC3"
        },
        {
            "bufferView" : 9,
            "componentType" : 5126,
            "count" : 72,
            "type" : "VEC2"
        },
        {
            "bufferView" : 10,
            "componentType" : 5123,
            "count" : 72,
            "type" : "SCALAR"
        },
        {
            "bufferView" : 11,
            "componentType" : 5126,
            "count" : 72,
            "max" : [
                1.5890129804611206,
                -0.5313713550567627,
                1.6824829578399658
            ],
            "min" : [
                -1.589012861251831,
                -0.5313719511032104,
                -1.682483196258545
            ],
            "type" : "VEC3"
        },
        {
            "bufferView" : 12,
            "componentType" : 5126,
            "count" : 72,
            "type" : "VEC3"
        },
        {
            "bufferView" : 13,
            "componentType" : 5126,
            "count" : 72,
            "type" : "VEC2"
        },
        {
            "bufferView" : 14,
            "componentType" : 5126,
            "count" : 107,
            "max" : [
                0.35076379776000977,
                -0.5811882019042969,
                0.35076361894607544
            ],
            "min" : [
                -0.3507637083530426,
                -0.581188440322876,
                -0.3507639765739441
            ],
            "type" : "VEC3"
        },
        {
            "bufferView" : 15,
            "componentType" : 5126,
            "count" : 107,
            "type" : "VEC3"
        },
        {
            "bufferView" : 16,
            "componentType" : 5126,
            "count" : 107,
            "type" : "VEC2"
        },
        {
            "bufferView" : 17,
            "componentType" : 5123,
            "count" : 108,
            "type" : "SCALAR"
        },
        {
            "bufferView" : 18,
            "componentType" : 5126,
            "count" : 58,
            "max" : [
                0.49710527062416077,
                0.7182939648628235,
                0.49827978014945984
            ],
            "min" : [
                -0.49725446105003357,
                -0.5096402168273926,
                -0.49124056100845337
            ],
            "type" : "VEC3"
        },
        {
            "bufferView" : 19,
            "componentType" : 5126,
            "count" : 58,
            "type" : "VEC3"
        },
        {
            "bufferView" : 20,
            "componentType" : 5126,
            "count" : 58,
            "type" : "VEC2"
        },
        {
            "bufferView" : 21,
            "componentType" : 5123,
            "count" : 60,
            "type" : "SCALAR"
        },
        {
            "bufferView" : 22,
            "componentType" : 5126,
            "count" : 969,
            "max" : [
                0.5435537099838257,
                1.013704538345337,
                0.5046994090080261
            ],
            "min" : [
                -0.5435537695884705,
                -0.616534948348999,
                -0.49766024947166443
            ],
            "type" : "VEC3"
        },
        {
            "bufferView" : 23,
            "componentType" : 5126,
            "count" : 969,
            "type" : "VEC3"
        },
        {
            "bufferView" : 24,
            "componentType" : 5126,
            "count" : 969,
            "type" : "VEC2"
        },
        {
            "bufferView" : 25,
            "componentType" : 5123,
            "count" : 4788,
            "type" : "SCALAR"
        },
        {
            "bufferView" : 26,
            "componentType" : 5126,
            "count" : 736,
            "max" : [
                0.2890376150608063,
                0.9231389164924622,
                0.5046994090080261
            ],
            "min" : [
                -0.4383968710899353,
                -0.5923749804496765,
                -0.49766024947166443
            ],
            "type" : "VEC3"
        },
        {
            "bufferView" : 27,
            "componentType" : 5126,
            "count" : 736,
            "type" : "VEC3"
        },
        {
            "bufferView" : 28,
            "componentType" : 5126,
            "count" : 736,
            "type" : "VEC2"
        },
        {
            "bufferView" : 29,
            "componentType" : 5123,
            "count" : 3828,
            "type" : "SCALAR"
        }
    ],
    "bufferViews" : [
        {
            "buffer" : 0,
            "byteLength" : 1284,
            "byteOffset" : 0
        },
        {
            "buffer" : 0,
            "byteLength" : 1284,
            "byteOffset" : 1284
        },
        {
            "buffer" : 0,
            "byteLength" : 420,
            "byteOffset" : 2568
        },
        {
            "buffer" : 0,
            "byteLength" : 128532,
            "byteOffset" : 2988
        },
        {
            "buffer" : 0,
            "byteLength" : 128532,
            "byteOffset" : 131520
        },
        {
            "buffer" : 0,
            "byteLength" : 85688,
            "byteOffset" : 260052
        },
        {
            "buffer" : 0,
            "byteLength" : 31164,
            "byteOffset" : 345740
        },
        {
            "buffer" : 0,
            "byteLength" : 864,
            "byteOffset" : 376904
        },
        {
            "buffer" : 0,
            "byteLength" : 864,
            "byteOffset" : 377768
        },
        {
            "buffer" : 0,
            "byteLength" : 576,
            "byteOffset" : 378632
        },
        {
            "buffer" : 0,
            "byteLength" : 144,
            "byteOffset" : 379208
        },
        {
            "buffer" : 0,
            "byteLength" : 864,
            "byteOffset" : 379352
        },
        {
            "buffer" : 0,
            "byteLength" : 864,
            "byteOffset" : 380216
        },
        {
            "buffer" : 0,
            "byteLength" : 576,
            "byteOffset" : 381080
        },
        {
            "buffer" : 0,
            "byteLength" : 1284,
            "byteOffset" : 381656
        },
        {
            "buffer" : 0,
            "byteLength" : 1284,
            "byteOffset" : 382940
        },
        {
            "buffer" : 0,
            "byteLength" : 856,
            "byteOffset" : 384224
        },
        {
            "buffer" : 0,
            "byteLength" : 216,
            "byteOffset" : 385080
        },
        {
            "buffer" : 0,
            "byteLength" : 696,
            "byteOffset" : 385296
        },
        {
            "buffer" : 0,
            "byteLength" : 696,
            "byteOffset" : 385992
        },
        {
            "buffer" : 0,
            "byteLength" : 464,
            "byteOffset" : 386688
        },
        {
            "buffer" : 0,
            "byteLength" : 120,
            "byteOffset" : 387152
        },
        {
            "buffer" : 0,
            "byteLength" : 11628,
            "byteOffset" : 387272
        },
        {
            "buffer" : 0,
            "byteLength" : 11628,
            "byteOffset" : 398900
        },
        {
            "buffer" : 0,
            "byteLength" : 7752,
            "byteOffset" : 410528
        },
        {
            "buffer" : 0,
            "byteLength" : 9576,
            "byteOffset" : 418280
        },
        {
            "buffer" : 0,
            "byteLength" : 8832,
            "byteOffset" : 427856
        },
        {
            "buffer" : 0,
            "byteLength" : 8832,
            "byteOffset" : 436688
        },
        {
            "buffer" : 0,
            "byteLength" : 5888,
            "byteOffset" : 445520
        },
        {
            "buffer" : 0,
            "byteLength" : 7656,
            "byteOffset" : 451408
        }
    ],
    "buffers" : [
        {
            "byteLength" : 459064,
            "uri" : "sorce.bin"
        }
    ]
}
