{
	"asset":{
		"generator":"Khronos glTF Blender I/O v3.6.27",
		"version":"2.0"
	},
	"extensionsUsed":[
		"KHR_materials_specular",
		"KHR_materials_ior"
	],
	"scene":0,
	"scenes":[
		{
			"name":"Scene",
			"nodes":[
				0,
				1,
				2
			]
		}
	],
	"nodes":[
		{
			"mesh":0,
			"name":"BodySimpler_Baked",
			"rotation":[
				0,
				0,
				1,
				4.5964805312631585e-14
			],
			"scale":[
				0.11900003254413605,
				0.18117006123065948,
				0.049287375062704086
			]
		},
		{
			"mesh":1,
			"name":"wing-left-low_Baked",
			"scale":[
				0.10600002855062485,
				0.0016319999704137444,
				0.10600002855062485
			]
		},
		{
			"mesh":2,
			"name":"wing-left-low_Baked.001",
			"rotation":[
				0,
				0.30070579051971436,
				-0.9537169933319092,
				1.3144243027340963e-08
			],
			"scale":[
				-0.10600004345178604,
				-0.001632000203244388,
				-0.10600002855062485
			]
		}
	],
	"materials":[
		{
			"doubleSided":false,
			"extensions":{
				"KHR_materials_ior":{
					"ior":1.4500000476837158
				}
			},
			"name":"BodySimpler_Baked",
			"normalTexture":{
				"index":0
			},
			"pbrMetallicRoughness":{
				"baseColorTexture":{
					"index":1
				},
				"metallicRoughnessTexture":{
					"index":2
				}
			}
		},
		{
			"doubleSided":false,
			"name":"wing-left-low_Baked",
			"normalTexture":{
				"index":3,
				"scale":0.009999999776482582
			},
			"pbrMetallicRoughness":{
				"baseColorTexture":{
					"index":4
				},
				"metallicRoughnessTexture":{
					"index":5
				}
			}
		}
	],
	"meshes":[
		{
			"name":"Cube.026",
			"primitives":[
				{
					"attributes":{
						"POSITION":0,
						"NORMAL":1,
						"TEXCOORD_0":2,
						"TANGENT":3
					},
					"indices":4,
					"material":0
				}
			]
		},
		{
			"name":"panels.007",
			"primitives":[
				{
					"attributes":{
						"POSITION":5,
						"NORMAL":6,
						"TEXCOORD_0":7,
						"TANGENT":8
					},
					"indices":9,
					"material":1
				}
			]
		},
		{
			"name":"panels.011",
			"primitives":[
				{
					"attributes":{
						"POSITION":10,
						"NORMAL":11,
						"TEXCOORD_0":12,
						"TANGENT":13
					},
					"indices":9,
					"material":1
				}
			]
		}
	],
	"textures":[
		{
			"sampler":0,
			"source":0
		},
		{
			"sampler":0,
			"source":1
		},
		{
			"sampler":0,
			"source":2
		},
		{
			"sampler":0,
			"source":3
		},
		{
			"sampler":0,
			"source":4
		},
		{
			"sampler":0,
			"source":5
		},
		{
			"sampler":0,
			"source":6
		}
	],
	"images":[
		{
			"mimeType":"image/png",
			"name":"body-normal",
			"uri":"body-normal.png"
		},
		{
			"mimeType":"image/png",
			"name":"body-diffuse",
			"uri":"body-diffuse.png"
		},
		{
			"mimeType":"image/png",
			"name":"body-metRough",
			"uri":"body-metRough.png"
		},
		{
			"mimeType":"image/png",
			"name":"wing-normal",
			"uri":"wing-normal.png"
		},
		{
			"mimeType":"image/png",
			"name":"wing-diffuse",
			"uri":"wing-diffuse.png"
		},
		{
			"mimeType":"image/png",
			"name":"wing-metRough",
			"uri":"wing-metRough.png"
		}
	],
	"accessors":[
		{
			"bufferView":0,
			"componentType":5126,
			"count":19067,
			"max":[
				1.0812883377075195,
				1.2288686037063599,
				1.1369413137435913
			],
			"min":[
				-0.9532870054244995,
				-0.85113525390625,
				-1.0178484916687012
			],
			"type":"VEC3"
		},
		{
			"bufferView":1,
			"componentType":5126,
			"count":19067,
			"type":"VEC3"
		},
		{
			"bufferView":2,
			"componentType":5126,
			"count":19067,
			"type":"VEC2"
		},
		{
			"bufferView":3,
			"componentType":5126,
			"count":19067,
			"type":"VEC4"
		},
		{
			"bufferView":4,
			"componentType":5123,
			"count":24009,
			"type":"SCALAR"
		},
		{
			"bufferView":5,
			"componentType":5126,
			"count":548,
			"max":[
				0.9305732250213623,
				92.11988067626953,
				7.172399520874023
			],
			"min":[
				-1.076974868774414,
				90.11988067626953,
				0.4742881655693054
			],
			"type":"VEC3"
		},
		{
			"bufferView":6,
			"componentType":5126,
			"count":548,
			"type":"VEC3"
		},
		{
			"bufferView":7,
			"componentType":5126,
			"count":548,
			"type":"VEC2"
		},
		{
			"bufferView":8,
			"componentType":5126,
			"count":548,
			"type":"VEC4"
		},
		{
			"bufferView":9,
			"componentType":5123,
			"count":1320,
			"type":"SCALAR"
		},
		{
			"bufferView":10,
			"componentType":5126,
			"count":548,
			"max":[
				0.9305722713470459,
				59.92201232910156,
				7.848414421081543
			],
			"min":[
				-1.0769758224487305,
				57.92201232910156,
				1.1503031253814697
			],
			"type":"VEC3"
		},
		{
			"bufferView":11,
			"componentType":5126,
			"count":548,
			"type":"VEC3"
		},
		{
			"bufferView":12,
			"componentType":5126,
			"count":548,
			"type":"VEC2"
		},
		{
			"bufferView":13,
			"componentType":5126,
			"count":548,
			"type":"VEC4"
		}
	],
	"bufferViews":[
		{
			"buffer":0,
			"byteLength":228804,
			"byteOffset":0,
			"target":34962
		},
		{
			"buffer":0,
			"byteLength":228804,
			"byteOffset":228804,
			"target":34962
		},
		{
			"buffer":0,
			"byteLength":152536,
			"byteOffset":457608,
			"target":34962
		},
		{
			"buffer":0,
			"byteLength":305072,
			"byteOffset":610144,
			"target":34962
		},
		{
			"buffer":0,
			"byteLength":48018,
			"byteOffset":915216,
			"target":34963
		},
		{
			"buffer":0,
			"byteLength":6576,
			"byteOffset":963236,
			"target":34962
		},
		{
			"buffer":0,
			"byteLength":6576,
			"byteOffset":969812,
			"target":34962
		},
		{
			"buffer":0,
			"byteLength":4384,
			"byteOffset":976388,
			"target":34962
		},
		{
			"buffer":0,
			"byteLength":8768,
			"byteOffset":980772,
			"target":34962
		},
		{
			"buffer":0,
			"byteLength":2640,
			"byteOffset":989540,
			"target":34963
		},
		{
			"buffer":0,
			"byteLength":6576,
			"byteOffset":992180,
			"target":34962
		},
		{
			"buffer":0,
			"byteLength":6576,
			"byteOffset":998756,
			"target":34962
		},
		{
			"buffer":0,
			"byteLength":4384,
			"byteOffset":1005332,
			"target":34962
		},
		{
			"buffer":0,
			"byteLength":8768,
			"byteOffset":1009716,
			"target":34962
		}
	],
	"samplers":[
		{
			"magFilter":9729,
			"minFilter":9987
		}
	],
	"buffers":[
		{
			"byteLength":1018484,
			"uri":"starling.bin"
		}
	]
}
