{
    "asset" : {
        "generator" : "Khronos glTF Blender I/O v1.3.48",
        "version" : "2.0"
    },
    "scene" : 0,
    "scenes" : [
        {
            "name" : "Scene",
            "nodes" : [
                6
            ]
        }
    ],
    "nodes" : [
        {
            "mesh" : 0,
            "name" : "AO"
        },
        {
            "mesh" : 1,
            "name" : "foil_gold",
            "translation" : [
                0,
                -1.0185184478759766,
                0
            ]
        },
        {
            "mesh" : 2,
            "name" : "foil_silver"
        },
        {
            "mesh" : 3,
            "name" : "metal"
        },
        {
            "mesh" : 4,
            "name" : "shiny_panel",
            "translation" : [
                -0.0061675552278757095,
                0.8391112089157104,
                0
            ]
        },
        {
            "mesh" : 5,
            "name" : "tex_01"
        },
        {
            "children" : [
                0,
                1,
                2,
                3,
                4,
                5
            ],
            "mesh" : 6,
            "name" : "BUS"
        }
    ],
    "materials" : [
        {
            "emissiveFactor" : [
                0,
                0,
                0
            ],
            "name" : "AO",
            "pbrMetallicRoughness" : {
                "baseColorTexture" : {
                    "index" : 0,
                    "texCoord" : 0
                },
                "metallicFactor" : 0,
                "roughnessFactor" : 0.5
            }
        },
        {
            "emissiveFactor" : [
                0,
                0,
                0
            ],
            "name" : "foil_gold",
            "normalTexture" : {
                "index" : 1,
                "texCoord" : 0
            },
            "pbrMetallicRoughness" : {
                "baseColorFactor" : [
                    0.9999998807907104,
                    0.6583749055862427,
                    0.08228273689746857,
                    1
                ],
                "metallicFactor" : 1,
                "roughnessFactor" : 0.30000001192092896
            }
        },
        {
            "emissiveFactor" : [
                0,
                0,
                0
            ],
            "name" : "foil_silver",
            "normalTexture" : {
                "index" : 2,
                "texCoord" : 0
            },
            "pbrMetallicRoughness" : {
                "baseColorFactor" : [
                    1,
                    0.999999463558197,
                    1,
                    1
                ],
                "metallicFactor" : 1,
                "roughnessFactor" : 0.30000001192092896
            }
        },
        {
            "emissiveFactor" : [
                0,
                0,
                0
            ],
            "name" : "cloudSat_Metallic",
            "normalTexture" : {
                "index" : 3,
                "scale" : 0.4999999701976776,
                "texCoord" : 0
            },
            "pbrMetallicRoughness" : {
                "baseColorTexture" : {
                    "index" : 4,
                    "texCoord" : 0
                },
                "metallicRoughnessTexture" : {
                    "index" : 5,
                    "texCoord" : 0
                }
            }
        },
        {
            "emissiveFactor" : [
                0,
                0,
                0
            ],
            "name" : "shiny_panel",
            "normalTexture" : {
                "index" : 6,
                "scale" : 0.4999999701976776,
                "texCoord" : 0
            },
            "pbrMetallicRoughness" : {
                "baseColorTexture" : {
                    "index" : 7,
                    "texCoord" : 0
                },
                "metallicRoughnessTexture" : {
                    "index" : 8,
                    "texCoord" : 0
                }
            }
        },
        {
            "emissiveFactor" : [
                0,
                0,
                0
            ],
            "name" : "tex_01",
            "normalTexture" : {
                "index" : 9,
                "scale" : 0.4999999701976776,
                "texCoord" : 0
            },
            "pbrMetallicRoughness" : {
                "baseColorTexture" : {
                    "index" : 10,
                    "texCoord" : 0
                },
                "metallicRoughnessTexture" : {
                    "index" : 11,
                    "texCoord" : 0
                }
            }
        },
        {
            "emissiveFactor" : [
                0,
                0,
                0
            ],
            "name" : "black_krinkle.001",
            "normalTexture" : {
                "index" : 12,
                "texCoord" : 0
            },
            "pbrMetallicRoughness" : {
                "baseColorFactor" : [
                    0.01960664987564087,
                    0.01960664987564087,
                    0.01960664987564087,
                    1
                ],
                "metallicFactor" : 0,
                "roughnessFactor" : 0.6000000238418579
            }
        }
    ],
    "meshes" : [
        {
            "name" : "Cube.005",
            "primitives" : [
                {
                    "attributes" : {
                        "POSITION" : 0,
                        "NORMAL" : 1,
                        "TEXCOORD_0" : 2
                    },
                    "indices" : 3,
                    "material" : 0
                }
            ]
        },
        {
            "name" : "Cube.003",
            "primitives" : [
                {
                    "attributes" : {
                        "POSITION" : 4,
                        "NORMAL" : 5,
                        "TEXCOORD_0" : 6
                    },
                    "indices" : 7,
                    "material" : 1
                }
            ]
        },
        {
            "name" : "Cube.006",
            "primitives" : [
                {
                    "attributes" : {
                        "POSITION" : 8,
                        "NORMAL" : 9,
                        "TEXCOORD_0" : 10
                    },
                    "indices" : 11,
                    "material" : 2
                }
            ]
        },
        {
            "name" : "Cube.007",
            "primitives" : [
                {
                    "attributes" : {
                        "POSITION" : 12,
                        "NORMAL" : 13,
                        "TEXCOORD_0" : 14
                    },
                    "indices" : 15,
                    "material" : 3
                }
            ]
        },
        {
            "name" : "Cube.008",
            "primitives" : [
                {
                    "attributes" : {
                        "POSITION" : 16,
                        "NORMAL" : 17,
                        "TEXCOORD_0" : 18
                    },
                    "indices" : 19,
                    "material" : 4
                }
            ]
        },
        {
            "name" : "Cube.002",
            "primitives" : [
                {
                    "attributes" : {
                        "POSITION" : 20,
                        "NORMAL" : 21,
                        "TEXCOORD_0" : 22
                    },
                    "indices" : 23,
                    "material" : 5
                }
            ]
        },
        {
            "name" : "Cylinder.008",
            "primitives" : [
                {
                    "attributes" : {
                        "POSITION" : 24,
                        "NORMAL" : 25,
                        "TEXCOORD_0" : 26
                    },
                    "indices" : 27,
                    "material" : 6
                }
            ]
        }
    ],
    "textures" : [
        {
            "source" : 0
        },
        {
            "source" : 1
        },
        {
            "source" : 1
        },
        {
            "source" : 2
        },
        {
            "source" : 3
        },
        {
            "source" : 4
        },
        {
            "source" : 2
        },
        {
            "source" : 3
        },
        {
            "source" : 4
        },
        {
            "source" : 2
        },
        {
            "source" : 3
        },
        {
            "source" : 4
        },
        {
            "source" : 1
        }
    ],
    "images" : [
        {
            "mimeType" : "image/jpeg",
            "name" : "cloudsat_ao",
            "uri" : "cloudsat_ao.jpg"
        },
        {
            "mimeType" : "image/png",
            "name" : "foil_n",
            "uri" : "foil_n.png"
        },
        {
            "mimeType" : "image/png",
            "name" : "cloudsat_normal",
            "uri" : "cloudsat_normal.png"
        },
        {
            "mimeType" : "image/jpeg",
            "name" : "cloudsat_albedo",
            "uri" : "cloudsat_albedo.jpg"
        },
        {
            "mimeType" : "image/jpeg",
            "name" : "cloudsat_pbr",
            "uri" : "cloudsat_pbr.jpg"
        }
    ],
    "accessors" : [
        {
            "bufferView" : 0,
            "componentType" : 5126,
            "count" : 516,
            "max" : [
                0.8793706297874451,
                1.1684359312057495,
                0.7771302461624146
            ],
            "min" : [
                -0.7695648074150085,
                -1.5944833755493164,
                -0.7771310210227966
            ],
            "type" : "VEC3"
        },
        {
            "bufferView" : 1,
            "componentType" : 5126,
            "count" : 516,
            "type" : "VEC3"
        },
        {
            "bufferView" : 2,
            "componentType" : 5126,
            "count" : 516,
            "type" : "VEC2"
        },
        {
            "bufferView" : 3,
            "componentType" : 5123,
            "count" : 1830,
            "type" : "SCALAR"
        },
        {
            "bufferView" : 4,
            "componentType" : 5126,
            "count" : 2459,
            "max" : [
                0.8818755149841309,
                0.47265487909317017,
                0.7793181538581848
            ],
            "min" : [
                -0.8476305603981018,
                -0.4899456202983856,
                -0.7793176174163818
            ],
            "type" : "VEC3"
        },
        {
            "bufferView" : 5,
            "componentType" : 5126,
            "count" : 2459,
            "type" : "VEC3"
        },
        {
            "bufferView" : 6,
            "componentType" : 5126,
            "count" : 2459,
            "type" : "VEC2"
        },
        {
            "bufferView" : 7,
            "componentType" : 5123,
            "count" : 6345,
            "type" : "SCALAR"
        },
        {
            "bufferView" : 8,
            "componentType" : 5126,
            "count" : 667,
            "max" : [
                0.8818754553794861,
                1.0917302370071411,
                0.8452451825141907
            ],
            "min" : [
                -0.7717002034187317,
                -1.0205460786819458,
                -0.7793179154396057
            ],
            "type" : "VEC3"
        },
        {
            "bufferView" : 9,
            "componentType" : 5126,
            "count" : 667,
            "type" : "VEC3"
        },
        {
            "bufferView" : 10,
            "componentType" : 5126,
            "count" : 667,
            "type" : "VEC2"
        },
        {
            "bufferView" : 11,
            "componentType" : 5123,
            "count" : 1788,
            "type" : "SCALAR"
        },
        {
            "bufferView" : 12,
            "componentType" : 5126,
            "count" : 3227,
            "max" : [
                0.693105936050415,
                1.221442699432373,
                1.034240484237671
            ],
            "min" : [
                -0.693105936050415,
                -1.141907811164856,
                -1.0342402458190918
            ],
            "type" : "VEC3"
        },
        {
            "bufferView" : 13,
            "componentType" : 5126,
            "count" : 3227,
            "type" : "VEC3"
        },
        {
            "bufferView" : 14,
            "componentType" : 5126,
            "count" : 3227,
            "type" : "VEC2"
        },
        {
            "bufferView" : 15,
            "componentType" : 5123,
            "count" : 8064,
            "type" : "SCALAR"
        },
        {
            "bufferView" : 16,
            "componentType" : 5126,
            "count" : 96,
            "max" : [
                1.058891773223877,
                0.4937693476676941,
                2.539998769760132
            ],
            "min" : [
                -1.0588910579681396,
                -0.8234189748764038,
                -2.539999008178711
            ],
            "type" : "VEC3"
        },
        {
            "bufferView" : 17,
            "componentType" : 5126,
            "count" : 96,
            "type" : "VEC3"
        },
        {
            "bufferView" : 18,
            "componentType" : 5126,
            "count" : 96,
            "type" : "VEC2"
        },
        {
            "bufferView" : 19,
            "componentType" : 5123,
            "count" : 96,
            "type" : "SCALAR"
        },
        {
            "bufferView" : 20,
            "componentType" : 5126,
            "count" : 6165,
            "max" : [
                1.0660978555679321,
                1.3328806161880493,
                2.53999924659729
            ],
            "min" : [
                -1.1430392265319824,
                -1.0275416374206543,
                -2.53999924659729
            ],
            "type" : "VEC3"
        },
        {
            "bufferView" : 21,
            "componentType" : 5126,
            "count" : 6165,
            "type" : "VEC3"
        },
        {
            "bufferView" : 22,
            "componentType" : 5126,
            "count" : 6165,
            "type" : "VEC2"
        },
        {
            "bufferView" : 23,
            "componentType" : 5123,
            "count" : 8547,
            "type" : "SCALAR"
        },
        {
            "bufferView" : 24,
            "componentType" : 5126,
            "count" : 2040,
            "max" : [
                0.9465749263763428,
                1.1892833709716797,
                0.8902669548988342
            ],
            "min" : [
                -1.1469618082046509,
                -1.6131560802459717,
                -0.8296490907669067
            ],
            "type" : "VEC3"
        },
        {
            "bufferView" : 25,
            "componentType" : 5126,
            "count" : 2040,
            "type" : "VEC3"
        },
        {
            "bufferView" : 26,
            "componentType" : 5126,
            "count" : 2040,
            "type" : "VEC2"
        },
        {
            "bufferView" : 27,
            "componentType" : 5123,
            "count" : 6942,
            "type" : "SCALAR"
        }
    ],
    "bufferViews" : [
        {
            "buffer" : 0,
            "byteLength" : 6192,
            "byteOffset" : 0
        },
        {
            "buffer" : 0,
            "byteLength" : 6192,
            "byteOffset" : 6192
        },
        {
            "buffer" : 0,
            "byteLength" : 4128,
            "byteOffset" : 12384
        },
        {
            "buffer" : 0,
            "byteLength" : 3660,
            "byteOffset" : 16512
        },
        {
            "buffer" : 0,
            "byteLength" : 29508,
            "byteOffset" : 20172
        },
        {
            "buffer" : 0,
            "byteLength" : 29508,
            "byteOffset" : 49680
        },
        {
            "buffer" : 0,
            "byteLength" : 19672,
            "byteOffset" : 79188
        },
        {
            "buffer" : 0,
            "byteLength" : 12690,
            "byteOffset" : 98860
        },
        {
            "buffer" : 0,
            "byteLength" : 8004,
            "byteOffset" : 111552
        },
        {
            "buffer" : 0,
            "byteLength" : 8004,
            "byteOffset" : 119556
        },
        {
            "buffer" : 0,
            "byteLength" : 5336,
            "byteOffset" : 127560
        },
        {
            "buffer" : 0,
            "byteLength" : 3576,
            "byteOffset" : 132896
        },
        {
            "buffer" : 0,
            "byteLength" : 38724,
            "byteOffset" : 136472
        },
        {
            "buffer" : 0,
            "byteLength" : 38724,
            "byteOffset" : 175196
        },
        {
            "buffer" : 0,
            "byteLength" : 25816,
            "byteOffset" : 213920
        },
        {
            "buffer" : 0,
            "byteLength" : 16128,
            "byteOffset" : 239736
        },
        {
            "buffer" : 0,
            "byteLength" : 1152,
            "byteOffset" : 255864
        },
        {
            "buffer" : 0,
            "byteLength" : 1152,
            "byteOffset" : 257016
        },
        {
            "buffer" : 0,
            "byteLength" : 768,
            "byteOffset" : 258168
        },
        {
            "buffer" : 0,
            "byteLength" : 192,
            "byteOffset" : 258936
        },
        {
            "buffer" : 0,
            "byteLength" : 73980,
            "byteOffset" : 259128
        },
        {
            "buffer" : 0,
            "byteLength" : 73980,
            "byteOffset" : 333108
        },
        {
            "buffer" : 0,
            "byteLength" : 49320,
            "byteOffset" : 407088
        },
        {
            "buffer" : 0,
            "byteLength" : 17094,
            "byteOffset" : 456408
        },
        {
            "buffer" : 0,
            "byteLength" : 24480,
            "byteOffset" : 473504
        },
        {
            "buffer" : 0,
            "byteLength" : 24480,
            "byteOffset" : 497984
        },
        {
            "buffer" : 0,
            "byteLength" : 16320,
            "byteOffset" : 522464
        },
        {
            "buffer" : 0,
            "byteLength" : 13884,
            "byteOffset" : 538784
        }
    ],
    "buffers" : [
        {
            "byteLength" : 552668,
            "uri" : "cloudsat.bin"
        }
    ]
}
