{
    "asset" : {
        "generator" : "Khronos glTF Blender I/O v1.3.48",
        "version" : "2.0"
    },
    "scene" : 0,
    "scenes" : [
        {
            "name" : "Scene",
            "nodes" : [
                4
            ]
        }
    ],
    "nodes" : [
        {
            "mesh" : 0,
            "name" : "AO_HRMA",
            "scale" : [
                3.0374138355255127,
                0.5215899348258972,
                0.5215901136398315
            ]
        },
        {
            "mesh" : 1,
            "name" : "foil_silver"
        },
        {
            "mesh" : 2,
            "name" : "shiny_panel",
            "scale" : [
                0.02539999969303608,
                0.4744499921798706,
                0.02539999969303608
            ]
        },
        {
            "mesh" : 3,
            "name" : "tex_01",
            "scale" : [
                0.02539999969303608,
                0.4744499921798706,
                0.02539999969303608
            ]
        },
        {
            "children" : [
                0,
                1,
                2,
                3
            ],
            "mesh" : 4,
            "name" : "BUS"
        }
    ],
    "materials" : [
        {
            "emissiveFactor" : [
                0,
                0,
                0
            ],
            "name" : "AO_HRMA",
            "pbrMetallicRoughness" : {
                "baseColorTexture" : {
                    "index" : 0,
                    "texCoord" : 0
                },
                "metallicFactor" : 0,
                "roughnessFactor" : 0.7136363983154297
            }
        },
        {
            "emissiveFactor" : [
                0,
                0,
                0
            ],
            "name" : "foil_silver",
            "normalTexture" : {
                "index" : 1,
                "texCoord" : 0
            },
            "pbrMetallicRoughness" : {
                "baseColorFactor" : [
                    1,
                    0.999999463558197,
                    1,
                    1
                ],
                "metallicFactor" : 1,
                "roughnessFactor" : 0.30000001192092896
            }
        },
        {
            "emissiveFactor" : [
                0,
                0,
                0
            ],
            "name" : "shiny_panel",
            "normalTexture" : {
                "index" : 2,
                "scale" : 0.20000004768371582,
                "texCoord" : 0
            },
            "pbrMetallicRoughness" : {
                "baseColorTexture" : {
                    "index" : 3,
                    "texCoord" : 0
                },
                "metallicRoughnessTexture" : {
                    "index" : 4,
                    "texCoord" : 0
                }
            }
        },
        {
            "emissiveFactor" : [
                0,
                0,
                0
            ],
            "name" : "tex_01",
            "normalTexture" : {
                "index" : 5,
                "texCoord" : 0
            },
            "pbrMetallicRoughness" : {
                "baseColorTexture" : {
                    "index" : 6,
                    "texCoord" : 0
                },
                "metallicRoughnessTexture" : {
                    "index" : 7,
                    "texCoord" : 0
                }
            }
        },
        {
            "emissiveFactor" : [
                0,
                0,
                0
            ],
            "name" : "foil_gold",
            "normalTexture" : {
                "index" : 8,
                "texCoord" : 0
            },
            "pbrMetallicRoughness" : {
                "baseColorFactor" : [
                    0.9999998807907104,
                    0.6583749055862427,
                    0.08228273689746857,
                    1
                ],
                "metallicFactor" : 1,
                "roughnessFactor" : 0.30000001192092896
            }
        }
    ],
    "meshes" : [
        {
            "name" : "Cylinder.016",
            "primitives" : [
                {
                    "attributes" : {
                        "POSITION" : 0,
                        "NORMAL" : 1,
                        "TEXCOORD_0" : 2
                    },
                    "indices" : 3,
                    "material" : 0
                }
            ]
        },
        {
            "name" : "Cube.025",
            "primitives" : [
                {
                    "attributes" : {
                        "POSITION" : 4,
                        "NORMAL" : 5,
                        "TEXCOORD_0" : 6
                    },
                    "indices" : 7,
                    "material" : 1
                }
            ]
        },
        {
            "name" : "Cylinder.003",
            "primitives" : [
                {
                    "attributes" : {
                        "POSITION" : 8,
                        "NORMAL" : 9,
                        "TEXCOORD_0" : 10
                    },
                    "indices" : 11,
                    "material" : 2
                }
            ]
        },
        {
            "name" : "Cylinder.001",
            "primitives" : [
                {
                    "attributes" : {
                        "POSITION" : 12,
                        "NORMAL" : 13,
                        "TEXCOORD_0" : 14
                    },
                    "indices" : 15,
                    "material" : 3
                }
            ]
        },
        {
            "name" : "vertex_mesh.002",
            "primitives" : [
                {
                    "attributes" : {
                        "POSITION" : 16,
                        "NORMAL" : 17,
                        "TEXCOORD_0" : 18
                    },
                    "indices" : 19,
                    "material" : 4
                }
            ]
        }
    ],
    "textures" : [
        {
            "source" : 0
        },
        {
            "source" : 1
        },
        {
            "source" : 2
        },
        {
            "source" : 3
        },
        {
            "source" : 4
        },
        {
            "source" : 2
        },
        {
            "source" : 3
        },
        {
            "source" : 4
        },
        {
            "source" : 1
        }
    ],
    "images" : [
        {
            "mimeType" : "image/png",
            "name" : "chandra_hrma_ao",
            "uri" : "chandra_hrma_ao.png"
        },
        {
            "mimeType" : "image/png",
            "name" : "foil_n",
            "uri" : "foil_n.png"
        },
        {
            "mimeType" : "image/png",
            "name" : "chandra_normal",
            "uri" : "chandra_normal.png"
        },
        {
            "mimeType" : "image/jpeg",
            "name" : "chandra_albedo",
            "uri" : "chandra_albedo.jpg"
        },
        {
            "mimeType" : "image/jpeg",
            "name" : "chandra_pbr",
            "uri" : "chandra_pbr.jpg"
        }
    ],
    "accessors" : [
        {
            "bufferView" : 0,
            "componentType" : 5126,
            "count" : 12045,
            "max" : [
                3.32429575920105,
                1.9837008714675903,
                1.9836989641189575
            ],
            "min" : [
                -0.37296798825263977,
                -1.9837007522583008,
                -1.9836989641189575
            ],
            "type" : "VEC3"
        },
        {
            "bufferView" : 1,
            "componentType" : 5126,
            "count" : 12045,
            "type" : "VEC3"
        },
        {
            "bufferView" : 2,
            "componentType" : 5126,
            "count" : 12045,
            "type" : "VEC2"
        },
        {
            "bufferView" : 3,
            "componentType" : 5123,
            "count" : 32901,
            "type" : "SCALAR"
        },
        {
            "bufferView" : 4,
            "componentType" : 5126,
            "count" : 4756,
            "max" : [
                10.159344673156738,
                2.2984213829040527,
                1.7771849632263184
            ],
            "min" : [
                -3.1100845336914062,
                -2.2984213829040527,
                -1.7771848440170288
            ],
            "type" : "VEC3"
        },
        {
            "bufferView" : 5,
            "componentType" : 5126,
            "count" : 4756,
            "type" : "VEC3"
        },
        {
            "bufferView" : 6,
            "componentType" : 5126,
            "count" : 4756,
            "type" : "VEC2"
        },
        {
            "bufferView" : 7,
            "componentType" : 5123,
            "count" : 21516,
            "type" : "SCALAR"
        },
        {
            "bufferView" : 8,
            "componentType" : 5126,
            "count" : 72,
            "max" : [
                30.59160041809082,
                0.831471860408783,
                383.9959716796875
            ],
            "min" : [
                -31.234882354736328,
                -1.9458820819854736,
                -383.99603271484375
            ],
            "type" : "VEC3"
        },
        {
            "bufferView" : 9,
            "componentType" : 5126,
            "count" : 72,
            "type" : "VEC3"
        },
        {
            "bufferView" : 10,
            "componentType" : 5126,
            "count" : 72,
            "type" : "VEC2"
        },
        {
            "bufferView" : 11,
            "componentType" : 5123,
            "count" : 108,
            "type" : "SCALAR"
        },
        {
            "bufferView" : 12,
            "componentType" : 5126,
            "count" : 13668,
            "max" : [
                420.0785217285156,
                5.420426368713379,
                383.9959716796875
            ],
            "min" : [
                -50.11245346069336,
                -5.420426368713379,
                -383.99603271484375
            ],
            "type" : "VEC3"
        },
        {
            "bufferView" : 13,
            "componentType" : 5126,
            "count" : 13668,
            "type" : "VEC3"
        },
        {
            "bufferView" : 14,
            "componentType" : 5126,
            "count" : 13668,
            "type" : "VEC2"
        },
        {
            "bufferView" : 15,
            "componentType" : 5123,
            "count" : 34668,
            "type" : "SCALAR"
        },
        {
            "bufferView" : 16,
            "componentType" : 5126,
            "count" : 362,
            "max" : [
                10.644993782043457,
                1.7855000495910645,
                3.0641651153564453
            ],
            "min" : [
                -1.1200065612792969,
                -1.8734776973724365,
                -3.064164638519287
            ],
            "type" : "VEC3"
        },
        {
            "bufferView" : 17,
            "componentType" : 5126,
            "count" : 362,
            "type" : "VEC3"
        },
        {
            "bufferView" : 18,
            "componentType" : 5126,
            "count" : 362,
            "type" : "VEC2"
        },
        {
            "bufferView" : 19,
            "componentType" : 5123,
            "count" : 1167,
            "type" : "SCALAR"
        }
    ],
    "bufferViews" : [
        {
            "buffer" : 0,
            "byteLength" : 144540,
            "byteOffset" : 0
        },
        {
            "buffer" : 0,
            "byteLength" : 144540,
            "byteOffset" : 144540
        },
        {
            "buffer" : 0,
            "byteLength" : 96360,
            "byteOffset" : 289080
        },
        {
            "buffer" : 0,
            "byteLength" : 65802,
            "byteOffset" : 385440
        },
        {
            "buffer" : 0,
            "byteLength" : 57072,
            "byteOffset" : 451244
        },
        {
            "buffer" : 0,
            "byteLength" : 57072,
            "byteOffset" : 508316
        },
        {
            "buffer" : 0,
            "byteLength" : 38048,
            "byteOffset" : 565388
        },
        {
            "buffer" : 0,
            "byteLength" : 43032,
            "byteOffset" : 603436
        },
        {
            "buffer" : 0,
            "byteLength" : 864,
            "byteOffset" : 646468
        },
        {
            "buffer" : 0,
            "byteLength" : 864,
            "byteOffset" : 647332
        },
        {
            "buffer" : 0,
            "byteLength" : 576,
            "byteOffset" : 648196
        },
        {
            "buffer" : 0,
            "byteLength" : 216,
            "byteOffset" : 648772
        },
        {
            "buffer" : 0,
            "byteLength" : 164016,
            "byteOffset" : 648988
        },
        {
            "buffer" : 0,
            "byteLength" : 164016,
            "byteOffset" : 813004
        },
        {
            "buffer" : 0,
            "byteLength" : 109344,
            "byteOffset" : 977020
        },
        {
            "buffer" : 0,
            "byteLength" : 69336,
            "byteOffset" : 1086364
        },
        {
            "buffer" : 0,
            "byteLength" : 4344,
            "byteOffset" : 1155700
        },
        {
            "buffer" : 0,
            "byteLength" : 4344,
            "byteOffset" : 1160044
        },
        {
            "buffer" : 0,
            "byteLength" : 2896,
            "byteOffset" : 1164388
        },
        {
            "buffer" : 0,
            "byteLength" : 2334,
            "byteOffset" : 1167284
        }
    ],
    "buffers" : [
        {
            "byteLength" : 1169620,
            "uri" : "chandra.bin"
        }
    ]
}
