{
    "asset" : {
        "generator" : "Khronos glTF Blender I/O v3.3.27",
        "version" : "2.0"
    },
    "extensionsUsed" : [
        "KHR_materials_specular",
        "KHR_materials_ior"
    ],
    "scene" : 0,
    "scenes" : [
        {
            "name" : "Scene",
            "nodes" : [
                0,
                1,
                2,
                3,
                4,
                5
            ]
        }
    ],
    "nodes" : [
        {
            "mesh" : 0,
            "name" : "spacecraft"
        },
        {
            "mesh" : 1,
            "name" : "booms"
        },
        {
            "mesh" : 2,
            "name" : "spool_sail"
        },
        {
            "mesh" : 3,
            "name" : "spool_booms"
        },
        {
            "mesh" : 4,
            "name" : "solarpanel"
        },
        {
            "mesh" : 5,
            "name" : "sails.001"
        }
    ],
    "materials" : [
        {
            "doubleSided" : true,
            "extensions" : {
                "KHR_materials_specular" : {
                    "specularColorFactor" : [
                        2,
                        2,
                        2
                    ]
                }
            },
            "name" : "metal gray",
            "pbrMetallicRoughness" : {
                "baseColorFactor" : [
                    0.3333333432674408,
                    0.3333333432674408,
                    0.3333333432674408,
                    1
                ],
                "roughnessFactor" : 0.9367544651031494
            }
        },
        {
            "doubleSided" : true,
            "extensions" : {
                "KHR_materials_specular" : {
                    "specularColorFactor" : [
                        1.9999999999999998,
                        1.9999999999999998,
                        1.9999999999999998
                    ]
                }
            },
            "name" : "lens",
            "pbrMetallicRoughness" : {
                "baseColorFactor" : [
                    0,
                    0,
                    0,
                    1
                ],
                "roughnessFactor" : 0.9367544651031494
            }
        },
        {
            "doubleSided" : true,
            "extensions" : {
                "KHR_materials_specular" : {
                    "specularColorFactor" : [
                        0,
                        0,
                        0
                    ]
                },
                "KHR_materials_ior" : {
                    "ior" : 1
                }
            },
            "name" : "boom",
            "normalTexture" : {
                "index" : 0,
                "scale" : 0.5
            },
            "pbrMetallicRoughness" : {
                "baseColorTexture" : {
                    "index" : 1
                },
                "metallicFactor" : 0,
                "roughnessFactor" : 0.4000000059604645
            }
        },
        {
            "doubleSided" : true,
            "extensions" : {
                "KHR_materials_specular" : {
                    "specularColorFactor" : [
                        2,
                        2,
                        2
                    ]
                }
            },
            "name" : "sailSpool",
            "pbrMetallicRoughness" : {
                "baseColorFactor" : [
                    0.11764705926179886,
                    0.11764705926179886,
                    0.11764705926179886,
                    1
                ],
                "metallicFactor" : 0.8500000238418579,
                "roughnessFactor" : 0.12766355276107788
            }
        },
        {
            "doubleSided" : true,
            "extensions" : {
                "KHR_materials_specular" : {
                    "specularColorFactor" : [
                        0,
                        0,
                        0
                    ]
                },
                "KHR_materials_ior" : {
                    "ior" : 1
                }
            },
            "name" : "tubeSpool",
            "normalTexture" : {
                "index" : 2,
                "scale" : 0.5
            },
            "pbrMetallicRoughness" : {
                "baseColorTexture" : {
                    "index" : 3
                },
                "metallicFactor" : 0,
                "roughnessFactor" : 0.4000000059604645
            }
        },
        {
            "doubleSided" : true,
            "extensions" : {
                "KHR_materials_specular" : {
                    "specularColorFactor" : [
                        0,
                        0,
                        0
                    ]
                },
                "KHR_materials_ior" : {
                    "ior" : 1
                }
            },
            "name" : "solarPanels",
            "pbrMetallicRoughness" : {
                "baseColorTexture" : {
                    "index" : 4
                },
                "metallicRoughnessTexture" : {
                    "index" : 5
                }
            }
        },
        {
            "doubleSided" : true,
            "name" : "sail",
            "normalTexture" : {
                "index" : 6,
                "scale" : 0.05000000074505806
            },
            "pbrMetallicRoughness" : {
                "baseColorFactor" : [
                    0.800000011920929,
                    0.800000011920929,
                    0.800000011920929,
                    1
                ],
                "metallicRoughnessTexture" : {
                    "index" : 7
                }
            }
        }
    ],
    "meshes" : [
        {
            "name" : "Mesh.spacecraft",
            "primitives" : [
                {
                    "attributes" : {
                        "POSITION" : 0,
                        "NORMAL" : 1
                    },
                    "indices" : 2,
                    "material" : 0
                },
                {
                    "attributes" : {
                        "POSITION" : 3,
                        "NORMAL" : 4
                    },
                    "indices" : 5,
                    "material" : 1
                }
            ]
        },
        {
            "name" : "mesh.booms",
            "primitives" : [
                {
                    "attributes" : {
                        "POSITION" : 6,
                        "NORMAL" : 7,
                        "TANGENT" : 8,
                        "TEXCOORD_0" : 9
                    },
                    "indices" : 10,
                    "material" : 2
                }
            ]
        },
        {
            "name" : "Mesh.spool_sail",
            "primitives" : [
                {
                    "attributes" : {
                        "POSITION" : 11,
                        "NORMAL" : 12,
                        "TANGENT" : 13,
                        "TEXCOORD_0" : 14
                    },
                    "indices" : 15,
                    "material" : 3
                }
            ]
        },
        {
            "name" : "Mesh.spool_booms",
            "primitives" : [
                {
                    "attributes" : {
                        "POSITION" : 16,
                        "NORMAL" : 17,
                        "TANGENT" : 18,
                        "TEXCOORD_0" : 19
                    },
                    "indices" : 20,
                    "material" : 4
                }
            ]
        },
        {
            "name" : "Mesh.solarpanel",
            "primitives" : [
                {
                    "attributes" : {
                        "POSITION" : 21,
                        "NORMAL" : 22,
                        "TANGENT" : 23,
                        "TEXCOORD_0" : 24
                    },
                    "indices" : 25,
                    "material" : 5
                }
            ]
        },
        {
            "name" : "Mesh.sails.001",
            "primitives" : [
                {
                    "attributes" : {
                        "POSITION" : 26,
                        "NORMAL" : 27,
                        "TANGENT" : 28,
                        "TEXCOORD_0" : 29
                    },
                    "indices" : 30,
                    "material" : 6
                }
            ]
        }
    ],
    "textures" : [
        {
            "sampler" : 0,
            "source" : 0
        },
        {
            "sampler" : 0,
            "source" : 1
        },
        {
            "sampler" : 0,
            "source" : 0
        },
        {
            "sampler" : 0,
            "source" : 1
        },
        {
            "sampler" : 0,
            "source" : 2
        },
        {
            "sampler" : 0,
            "source" : 3
        },
        {
            "sampler" : 0,
            "source" : 4
        },
        {
            "sampler" : 0,
            "source" : 5
        }
    ],
    "images" : [
        {
            "mimeType" : "image/png",
            "name" : "carbon_normal",
            "uri" : "carbon_normal.png"
        },
        {
            "mimeType" : "image/png",
            "name" : "carbon",
            "uri" : "carbon.png"
        },
        {
            "mimeType" : "image/png",
            "name" : "panels_albedo",
            "uri" : "panels_albedo.png"
        },
        {
            "mimeType" : "image/jpeg",
            "name" : "panels_pbr",
            "uri" : "panels_pbr.jpg"
        },
        {
            "mimeType" : "image/png",
            "name" : "sail_norm",
            "uri" : "sail_norm.png"
        },
        {
            "mimeType" : "image/jpeg",
            "name" : "sail_pbr",
            "uri" : "sail_pbr.jpg"
        }
    ],
    "accessors" : [
        {
            "bufferView" : 0,
            "componentType" : 5126,
            "count" : 64160,
            "max" : [
                7.30192756652832,
                7.301927089691162,
                0.14575603604316711
            ],
            "min" : [
                -7.30192756652832,
                -7.303435802459717,
                -0.14181005954742432
            ],
            "type" : "VEC3"
        },
        {
            "bufferView" : 1,
            "componentType" : 5126,
            "count" : 64160,
            "type" : "VEC3"
        },
        {
            "bufferView" : 2,
            "componentType" : 5123,
            "count" : 171780,
            "type" : "SCALAR"
        },
        {
            "bufferView" : 3,
            "componentType" : 5126,
            "count" : 107,
            "max" : [
                0.09000001847743988,
                0.09000001102685928,
                0.12761694192886353
            ],
            "min" : [
                -0.09000001847743988,
                -7.310181140899658,
                -0.05103339999914169
            ],
            "type" : "VEC3"
        },
        {
            "bufferView" : 4,
            "componentType" : 5126,
            "count" : 107,
            "type" : "VEC3"
        },
        {
            "bufferView" : 5,
            "componentType" : 5123,
            "count" : 168,
            "type" : "SCALAR"
        },
        {
            "bufferView" : 6,
            "componentType" : 5126,
            "count" : 392,
            "max" : [
                7.310181140899658,
                7.310181140899658,
                -0.0009646493708714843
            ],
            "min" : [
                -7.310181140899658,
                -7.310181140899658,
                -0.05103536695241928
            ],
            "type" : "VEC3"
        },
        {
            "bufferView" : 7,
            "componentType" : 5126,
            "count" : 392,
            "type" : "VEC3"
        },
        {
            "bufferView" : 8,
            "componentType" : 5126,
            "count" : 392,
            "type" : "VEC4"
        },
        {
            "bufferView" : 9,
            "componentType" : 5126,
            "count" : 392,
            "type" : "VEC2"
        },
        {
            "bufferView" : 10,
            "componentType" : 5123,
            "count" : 1344,
            "type" : "SCALAR"
        },
        {
            "bufferView" : 11,
            "componentType" : 5126,
            "count" : 500,
            "max" : [
                0.08313601464033127,
                0.08313600718975067,
                -0.07516283541917801
            ],
            "min" : [
                -0.08313601464033127,
                -0.08313600718975067,
                -0.13549722731113434
            ],
            "type" : "VEC3"
        },
        {
            "bufferView" : 12,
            "componentType" : 5126,
            "count" : 500,
            "type" : "VEC3"
        },
        {
            "bufferView" : 13,
            "componentType" : 5126,
            "count" : 500,
            "type" : "VEC4"
        },
        {
            "bufferView" : 14,
            "componentType" : 5126,
            "count" : 500,
            "type" : "VEC2"
        },
        {
            "bufferView" : 15,
            "componentType" : 5123,
            "count" : 2304,
            "type" : "SCALAR"
        },
        {
            "bufferView" : 16,
            "componentType" : 5126,
            "count" : 450,
            "max" : [
                0.08313602954149246,
                0.08313602209091187,
                -0.0007628162857145071
            ],
            "min" : [
                -0.08313602954149246,
                -0.08313602209091187,
                -0.05341719463467598
            ],
            "type" : "VEC3"
        },
        {
            "bufferView" : 17,
            "componentType" : 5126,
            "count" : 450,
            "type" : "VEC3"
        },
        {
            "bufferView" : 18,
            "componentType" : 5126,
            "count" : 450,
            "type" : "VEC4"
        },
        {
            "bufferView" : 19,
            "componentType" : 5126,
            "count" : 450,
            "type" : "VEC2"
        },
        {
            "bufferView" : 20,
            "componentType" : 5123,
            "count" : 2016,
            "type" : "SCALAR"
        },
        {
            "bufferView" : 21,
            "componentType" : 5126,
            "count" : 1445,
            "max" : [
                0.3710000514984131,
                0.3710000514984131,
                0.1441287249326706
            ],
            "min" : [
                -0.3710000514984131,
                -0.3710000514984131,
                0.04319639503955841
            ],
            "type" : "VEC3"
        },
        {
            "bufferView" : 22,
            "componentType" : 5126,
            "count" : 1445,
            "type" : "VEC3"
        },
        {
            "bufferView" : 23,
            "componentType" : 5126,
            "count" : 1445,
            "type" : "VEC4"
        },
        {
            "bufferView" : 24,
            "componentType" : 5126,
            "count" : 1445,
            "type" : "VEC2"
        },
        {
            "bufferView" : 25,
            "componentType" : 5123,
            "count" : 1770,
            "type" : "SCALAR"
        },
        {
            "bufferView" : 26,
            "componentType" : 5126,
            "count" : 864,
            "max" : [
                7.120001792907715,
                7.14000129699707,
                -0.02692563459277153
            ],
            "min" : [
                -7.120001792907715,
                -7.14000129699707,
                -0.033675990998744965
            ],
            "type" : "VEC3"
        },
        {
            "bufferView" : 27,
            "componentType" : 5126,
            "count" : 864,
            "type" : "VEC3"
        },
        {
            "bufferView" : 28,
            "componentType" : 5126,
            "count" : 864,
            "type" : "VEC4"
        },
        {
            "bufferView" : 29,
            "componentType" : 5126,
            "count" : 864,
            "type" : "VEC2"
        },
        {
            "bufferView" : 30,
            "componentType" : 5123,
            "count" : 864,
            "type" : "SCALAR"
        }
    ],
    "bufferViews" : [
        {
            "buffer" : 0,
            "byteLength" : 769920,
            "byteOffset" : 0,
            "target" : 34962
        },
        {
            "buffer" : 0,
            "byteLength" : 769920,
            "byteOffset" : 769920,
            "target" : 34962
        },
        {
            "buffer" : 0,
            "byteLength" : 343560,
            "byteOffset" : 1539840,
            "target" : 34963
        },
        {
            "buffer" : 0,
            "byteLength" : 1284,
            "byteOffset" : 1883400,
            "target" : 34962
        },
        {
            "buffer" : 0,
            "byteLength" : 1284,
            "byteOffset" : 1884684,
            "target" : 34962
        },
        {
            "buffer" : 0,
            "byteLength" : 336,
            "byteOffset" : 1885968,
            "target" : 34963
        },
        {
            "buffer" : 0,
            "byteLength" : 4704,
            "byteOffset" : 1886304,
            "target" : 34962
        },
        {
            "buffer" : 0,
            "byteLength" : 4704,
            "byteOffset" : 1891008,
            "target" : 34962
        },
        {
            "buffer" : 0,
            "byteLength" : 6272,
            "byteOffset" : 1895712,
            "target" : 34962
        },
        {
            "buffer" : 0,
            "byteLength" : 3136,
            "byteOffset" : 1901984,
            "target" : 34962
        },
        {
            "buffer" : 0,
            "byteLength" : 2688,
            "byteOffset" : 1905120,
            "target" : 34963
        },
        {
            "buffer" : 0,
            "byteLength" : 6000,
            "byteOffset" : 1907808,
            "target" : 34962
        },
        {
            "buffer" : 0,
            "byteLength" : 6000,
            "byteOffset" : 1913808,
            "target" : 34962
        },
        {
            "buffer" : 0,
            "byteLength" : 8000,
            "byteOffset" : 1919808,
            "target" : 34962
        },
        {
            "buffer" : 0,
            "byteLength" : 4000,
            "byteOffset" : 1927808,
            "target" : 34962
        },
        {
            "buffer" : 0,
            "byteLength" : 4608,
            "byteOffset" : 1931808,
            "target" : 34963
        },
        {
            "buffer" : 0,
            "byteLength" : 5400,
            "byteOffset" : 1936416,
            "target" : 34962
        },
        {
            "buffer" : 0,
            "byteLength" : 5400,
            "byteOffset" : 1941816,
            "target" : 34962
        },
        {
            "buffer" : 0,
            "byteLength" : 7200,
            "byteOffset" : 1947216,
            "target" : 34962
        },
        {
            "buffer" : 0,
            "byteLength" : 3600,
            "byteOffset" : 1954416,
            "target" : 34962
        },
        {
            "buffer" : 0,
            "byteLength" : 4032,
            "byteOffset" : 1958016,
            "target" : 34963
        },
        {
            "buffer" : 0,
            "byteLength" : 17340,
            "byteOffset" : 1962048,
            "target" : 34962
        },
        {
            "buffer" : 0,
            "byteLength" : 17340,
            "byteOffset" : 1979388,
            "target" : 34962
        },
        {
            "buffer" : 0,
            "byteLength" : 23120,
            "byteOffset" : 1996728,
            "target" : 34962
        },
        {
            "buffer" : 0,
            "byteLength" : 11560,
            "byteOffset" : 2019848,
            "target" : 34962
        },
        {
            "buffer" : 0,
            "byteLength" : 3540,
            "byteOffset" : 2031408,
            "target" : 34963
        },
        {
            "buffer" : 0,
            "byteLength" : 10368,
            "byteOffset" : 2034948,
            "target" : 34962
        },
        {
            "buffer" : 0,
            "byteLength" : 10368,
            "byteOffset" : 2045316,
            "target" : 34962
        },
        {
            "buffer" : 0,
            "byteLength" : 13824,
            "byteOffset" : 2055684,
            "target" : 34962
        },
        {
            "buffer" : 0,
            "byteLength" : 6912,
            "byteOffset" : 2069508,
            "target" : 34962
        },
        {
            "buffer" : 0,
            "byteLength" : 1728,
            "byteOffset" : 2076420,
            "target" : 34963
        }
    ],
    "samplers" : [
        {
            "magFilter" : 9729,
            "minFilter" : 9987
        }
    ],
    "buffers" : [
        {
            "byteLength" : 2078148,
            "uri" : "acs3.bin"
        }
    ]
}
