{
    "asset" : {
        "generator" : "Khronos glTF Blender I/O v1.8.19",
        "version" : "2.0"
    },
    "scene" : 0,
    "scenes" : [
        {
            "name" : "Scene",
            "nodes" : [
                1
            ]
        }
    ],
    "nodes" : [
        {
            "mesh" : 0,
            "name" : "Antenna",
            "rotation" : [
                0,
                0,
                -1,
                7.549790126404332e-08
            ],
            "translation" : [
                0,
                0.0005759007763117552,
                0.11114199459552765
            ]
        },
        {
            "children" : [
                0
            ],
            "mesh" : 1,
            "name" : "M-Cubed 2",
            "rotation" : [
                0,
                0.7071068286895752,
                0,
                0.7071068286895752
            ]
        }
    ],
    "materials" : [
        {
            "name" : "tex_01",
            "normalTexture" : {
                "index" : 0
            },
            "pbrMetallicRoughness" : {
                "baseColorTexture" : {
                    "index" : 1
                },
                "metallicRoughnessTexture" : {
                    "index" : 2
                }
            }
        }
    ],
    "meshes" : [
        {
            "name" : "ac0_object.003",
            "primitives" : [
                {
                    "attributes" : {
                        "POSITION" : 0,
                        "NORMAL" : 1,
                        "TANGENT" : 2,
                        "TEXCOORD_0" : 3
                    },
                    "indices" : 4,
                    "material" : 0
                }
            ]
        },
        {
            "name" : "Cube.004",
            "primitives" : [
                {
                    "attributes" : {
                        "POSITION" : 5,
                        "NORMAL" : 6,
                        "TANGENT" : 7,
                        "TEXCOORD_0" : 8
                    },
                    "indices" : 9,
                    "material" : 0
                }
            ]
        }
    ],
    "textures" : [
        {
            "sampler" : 0,
            "source" : 0
        },
        {
            "sampler" : 0,
            "source" : 1
        },
        {
            "sampler" : 0,
            "source" : 2
        }
    ],
    "images" : [
        {
            "mimeType" : "image/png",
            "name" : "m-cubed2_normal",
            "uri" : "m-cubed2_normal.png"
        },
        {
            "mimeType" : "image/jpeg",
            "name" : "m-cubed2_albedo",
            "uri" : "m-cubed2_albedo.jpg"
        },
        {
            "mimeType" : "image/jpeg",
            "name" : "m-cubed2_pbr",
            "uri" : "m-cubed2_pbr.jpg"
        }
    ],
    "accessors" : [
        {
            "bufferView" : 0,
            "componentType" : 5126,
            "count" : 44,
            "max" : [
                0.006350005976855755,
                0.0007489764248020947,
                0.1187843531370163
            ],
            "min" : [
                -0.006350004114210606,
                -0.0007489764248020947,
                -0.07420629262924194
            ],
            "type" : "VEC3"
        },
        {
            "bufferView" : 1,
            "componentType" : 5126,
            "count" : 44,
            "type" : "VEC3"
        },
        {
            "bufferView" : 2,
            "componentType" : 5126,
            "count" : 44,
            "type" : "VEC4"
        },
        {
            "bufferView" : 3,
            "componentType" : 5126,
            "count" : 44,
            "type" : "VEC2"
        },
        {
            "bufferView" : 4,
            "componentType" : 5123,
            "count" : 84,
            "type" : "SCALAR"
        },
        {
            "bufferView" : 5,
            "componentType" : 5126,
            "count" : 220,
            "max" : [
                0.050000034272670746,
                0.056750036776065826,
                0.050000034272670746
            ],
            "min" : [
                -0.050000034272670746,
                -0.056750036776065826,
                -0.050000034272670746
            ],
            "type" : "VEC3"
        },
        {
            "bufferView" : 6,
            "componentType" : 5126,
            "count" : 220,
            "type" : "VEC3"
        },
        {
            "bufferView" : 7,
            "componentType" : 5126,
            "count" : 220,
            "type" : "VEC4"
        },
        {
            "bufferView" : 8,
            "componentType" : 5126,
            "count" : 220,
            "type" : "VEC2"
        },
        {
            "bufferView" : 9,
            "componentType" : 5123,
            "count" : 402,
            "type" : "SCALAR"
        }
    ],
    "bufferViews" : [
        {
            "buffer" : 0,
            "byteLength" : 528,
            "byteOffset" : 0
        },
        {
            "buffer" : 0,
            "byteLength" : 528,
            "byteOffset" : 528
        },
        {
            "buffer" : 0,
            "byteLength" : 704,
            "byteOffset" : 1056
        },
        {
            "buffer" : 0,
            "byteLength" : 352,
            "byteOffset" : 1760
        },
        {
            "buffer" : 0,
            "byteLength" : 168,
            "byteOffset" : 2112
        },
        {
            "buffer" : 0,
            "byteLength" : 2640,
            "byteOffset" : 2280
        },
        {
            "buffer" : 0,
            "byteLength" : 2640,
            "byteOffset" : 4920
        },
        {
            "buffer" : 0,
            "byteLength" : 3520,
            "byteOffset" : 7560
        },
        {
            "buffer" : 0,
            "byteLength" : 1760,
            "byteOffset" : 11080
        },
        {
            "buffer" : 0,
            "byteLength" : 804,
            "byteOffset" : 12840
        }
    ],
    "samplers" : [
        {
            "magFilter" : 9729,
            "minFilter" : 9987
        }
    ],
    "buffers" : [
        {
            "byteLength" : 13644,
            "uri" : "m-cubed_2.bin"
        }
    ]
}
