{
    "asset" : {
        "generator" : "Khronos glTF Blender I/O v1.3.48",
        "version" : "2.0"
    },
    "scene" : 0,
    "scenes" : [
        {
            "name" : "Scene",
            "nodes" : [
                4
            ]
        }
    ],
    "nodes" : [
        {
            "mesh" : 0,
            "name" : "foil_silver"
        },
        {
            "mesh" : 1,
            "name" : "krinkle"
        },
        {
            "mesh" : 2,
            "name" : "shiny_panel"
        },
        {
            "mesh" : 3,
            "name" : "tex_01"
        },
        {
            "children" : [
                0,
                1,
                2,
                3
            ],
            "mesh" : 4,
            "name" : "BUS",
            "rotation" : [
                0,
                0.7071068286895752,
                -0.7071068286895752,
                -5.338509012631221e-08
            ]
        }
    ],
    "materials" : [
        {
            "emissiveFactor" : [
                0,
                0,
                0
            ],
            "name" : "foil_silver",
            "normalTexture" : {
                "index" : 0,
                "texCoord" : 0
            },
            "pbrMetallicRoughness" : {
                "baseColorFactor" : [
                    1,
                    0.999999463558197,
                    1,
                    1
                ],
                "metallicFactor" : 1,
                "roughnessFactor" : 0.30000001192092896
            }
        },
        {
            "emissiveFactor" : [
                0,
                0,
                0
            ],
            "name" : "black krinkle",
            "normalTexture" : {
                "index" : 1,
                "texCoord" : 0
            },
            "pbrMetallicRoughness" : {
                "baseColorFactor" : [
                    0.01782427541911602,
                    0.01782427541911602,
                    0.01782427541911602,
                    1
                ],
                "metallicFactor" : 0,
                "roughnessFactor" : 0.6000000238418579
            }
        },
        {
            "emissiveFactor" : [
                0,
                0,
                0
            ],
            "name" : "shiny_panel",
            "normalTexture" : {
                "index" : 2,
                "scale" : 0.20000000298023224,
                "texCoord" : 0
            },
            "pbrMetallicRoughness" : {
                "baseColorTexture" : {
                    "index" : 3,
                    "texCoord" : 0
                },
                "metallicRoughnessTexture" : {
                    "index" : 4,
                    "texCoord" : 0
                }
            }
        },
        {
            "emissiveFactor" : [
                0,
                0,
                0
            ],
            "name" : "tex_01",
            "normalTexture" : {
                "index" : 5,
                "scale" : 0.4999999701976776,
                "texCoord" : 0
            },
            "pbrMetallicRoughness" : {
                "baseColorTexture" : {
                    "index" : 6,
                    "texCoord" : 0
                },
                "metallicRoughnessTexture" : {
                    "index" : 7,
                    "texCoord" : 0
                }
            }
        },
        {
            "emissiveFactor" : [
                0,
                0,
                0
            ],
            "name" : "Black_Metal",
            "pbrMetallicRoughness" : {
                "baseColorFactor" : [
                    0.03999999910593033,
                    0.03999999910593033,
                    0.03999999910593033,
                    1
                ],
                "metallicFactor" : 1,
                "roughnessFactor" : 0.5818182229995728
            }
        },
        {
            "emissiveFactor" : [
                0,
                0,
                0
            ],
            "name" : "foil_gold",
            "normalTexture" : {
                "index" : 8,
                "texCoord" : 0
            },
            "pbrMetallicRoughness" : {
                "baseColorFactor" : [
                    0.9999998807907104,
                    0.6583749055862427,
                    0.08228273689746857,
                    1
                ],
                "metallicFactor" : 1,
                "roughnessFactor" : 0.30000001192092896
            }
        }
    ],
    "meshes" : [
        {
            "name" : "Cylinder.013",
            "primitives" : [
                {
                    "attributes" : {
                        "POSITION" : 0,
                        "NORMAL" : 1,
                        "TEXCOORD_0" : 2
                    },
                    "indices" : 3,
                    "material" : 0
                }
            ]
        },
        {
            "name" : "Cylinder.023",
            "primitives" : [
                {
                    "attributes" : {
                        "POSITION" : 4,
                        "NORMAL" : 5,
                        "TEXCOORD_0" : 6
                    },
                    "indices" : 7,
                    "material" : 1
                }
            ]
        },
        {
            "name" : "Cylinder.014",
            "primitives" : [
                {
                    "attributes" : {
                        "POSITION" : 8,
                        "NORMAL" : 9,
                        "TEXCOORD_0" : 10
                    },
                    "indices" : 11,
                    "material" : 2
                }
            ]
        },
        {
            "name" : "Cylinder.015",
            "primitives" : [
                {
                    "attributes" : {
                        "POSITION" : 12,
                        "NORMAL" : 13,
                        "TEXCOORD_0" : 14
                    },
                    "indices" : 15,
                    "material" : 3
                },
                {
                    "attributes" : {
                        "POSITION" : 16,
                        "NORMAL" : 17,
                        "TEXCOORD_0" : 18
                    },
                    "indices" : 19,
                    "material" : 4
                }
            ]
        },
        {
            "name" : "Cylinder.007",
            "primitives" : [
                {
                    "attributes" : {
                        "POSITION" : 20,
                        "NORMAL" : 21,
                        "TEXCOORD_0" : 22
                    },
                    "indices" : 23,
                    "material" : 5
                }
            ]
        }
    ],
    "textures" : [
        {
            "source" : 0
        },
        {
            "source" : 0
        },
        {
            "source" : 1
        },
        {
            "source" : 2
        },
        {
            "source" : 3
        },
        {
            "source" : 1
        },
        {
            "source" : 2
        },
        {
            "source" : 3
        },
        {
            "source" : 0
        }
    ],
    "images" : [
        {
            "mimeType" : "image/png",
            "name" : "foil_n",
            "uri" : "foil_n.png"
        },
        {
            "mimeType" : "image/png",
            "name" : "calipso_normal",
            "uri" : "calipso_normal.png"
        },
        {
            "mimeType" : "image/jpeg",
            "name" : "calipso_albedo",
            "uri" : "calipso_albedo.jpg"
        },
        {
            "mimeType" : "image/jpeg",
            "name" : "calipso_pbr",
            "uri" : "calipso_pbr.jpg"
        }
    ],
    "accessors" : [
        {
            "bufferView" : 0,
            "componentType" : 5126,
            "count" : 92,
            "max" : [
                0.5678924322128296,
                0.09096773713827133,
                0.5890296101570129
            ],
            "min" : [
                -0.7509132027626038,
                -0.548999547958374,
                -0.7138495445251465
            ],
            "type" : "VEC3"
        },
        {
            "bufferView" : 1,
            "componentType" : 5126,
            "count" : 92,
            "type" : "VEC3"
        },
        {
            "bufferView" : 2,
            "componentType" : 5126,
            "count" : 92,
            "type" : "VEC2"
        },
        {
            "bufferView" : 3,
            "componentType" : 5123,
            "count" : 264,
            "type" : "SCALAR"
        },
        {
            "bufferView" : 4,
            "componentType" : 5126,
            "count" : 936,
            "max" : [
                0.7446725964546204,
                0.09580074995756149,
                0.8317763209342957
            ],
            "min" : [
                -0.6472136378288269,
                -1.2349357604980469,
                -0.6199783086776733
            ],
            "type" : "VEC3"
        },
        {
            "bufferView" : 5,
            "componentType" : 5126,
            "count" : 936,
            "type" : "VEC3"
        },
        {
            "bufferView" : 6,
            "componentType" : 5126,
            "count" : 936,
            "type" : "VEC2"
        },
        {
            "bufferView" : 7,
            "componentType" : 5123,
            "count" : 2910,
            "type" : "SCALAR"
        },
        {
            "bufferView" : 8,
            "componentType" : 5126,
            "count" : 142,
            "max" : [
                4.8550567626953125,
                1.0291481018066406,
                0.8394241333007812
            ],
            "min" : [
                -4.8550567626953125,
                -0.4871455430984497,
                -0.8726822733879089
            ],
            "type" : "VEC3"
        },
        {
            "bufferView" : 9,
            "componentType" : 5126,
            "count" : 142,
            "type" : "VEC3"
        },
        {
            "bufferView" : 10,
            "componentType" : 5126,
            "count" : 142,
            "type" : "VEC2"
        },
        {
            "bufferView" : 11,
            "componentType" : 5123,
            "count" : 168,
            "type" : "SCALAR"
        },
        {
            "bufferView" : 12,
            "componentType" : 5126,
            "count" : 13862,
            "max" : [
                4.885357856750488,
                1.2300000190734863,
                0.9685993790626526
            ],
            "min" : [
                -4.885357856750488,
                -1.2349357604980469,
                -0.968599259853363
            ],
            "type" : "VEC3"
        },
        {
            "bufferView" : 13,
            "componentType" : 5126,
            "count" : 13862,
            "type" : "VEC3"
        },
        {
            "bufferView" : 14,
            "componentType" : 5126,
            "count" : 13862,
            "type" : "VEC2"
        },
        {
            "bufferView" : 15,
            "componentType" : 5123,
            "count" : 19758,
            "type" : "SCALAR"
        },
        {
            "bufferView" : 16,
            "componentType" : 5126,
            "count" : 84,
            "max" : [
                0.5203533172607422,
                -0.5985873937606812,
                0.5203532576560974
            ],
            "min" : [
                -0.5203532576560974,
                -1.2300000190734863,
                -0.5203533172607422
            ],
            "type" : "VEC3"
        },
        {
            "bufferView" : 17,
            "componentType" : 5126,
            "count" : 84,
            "type" : "VEC3"
        },
        {
            "bufferView" : 18,
            "componentType" : 5126,
            "count" : 84,
            "type" : "VEC2"
        },
        {
            "bufferView" : 19,
            "componentType" : 5123,
            "count" : 240,
            "type" : "SCALAR"
        },
        {
            "bufferView" : 20,
            "componentType" : 5126,
            "count" : 1946,
            "max" : [
                0.7446725964546204,
                1.2214584350585938,
                0.8431708216667175
            ],
            "min" : [
                -0.6445711851119995,
                -1.2349357604980469,
                -0.9349566102027893
            ],
            "type" : "VEC3"
        },
        {
            "bufferView" : 21,
            "componentType" : 5126,
            "count" : 1946,
            "type" : "VEC3"
        },
        {
            "bufferView" : 22,
            "componentType" : 5126,
            "count" : 1946,
            "type" : "VEC2"
        },
        {
            "bufferView" : 23,
            "componentType" : 5123,
            "count" : 5469,
            "type" : "SCALAR"
        }
    ],
    "bufferViews" : [
        {
            "buffer" : 0,
            "byteLength" : 1104,
            "byteOffset" : 0
        },
        {
            "buffer" : 0,
            "byteLength" : 1104,
            "byteOffset" : 1104
        },
        {
            "buffer" : 0,
            "byteLength" : 736,
            "byteOffset" : 2208
        },
        {
            "buffer" : 0,
            "byteLength" : 528,
            "byteOffset" : 2944
        },
        {
            "buffer" : 0,
            "byteLength" : 11232,
            "byteOffset" : 3472
        },
        {
            "buffer" : 0,
            "byteLength" : 11232,
            "byteOffset" : 14704
        },
        {
            "buffer" : 0,
            "byteLength" : 7488,
            "byteOffset" : 25936
        },
        {
            "buffer" : 0,
            "byteLength" : 5820,
            "byteOffset" : 33424
        },
        {
            "buffer" : 0,
            "byteLength" : 1704,
            "byteOffset" : 39244
        },
        {
            "buffer" : 0,
            "byteLength" : 1704,
            "byteOffset" : 40948
        },
        {
            "buffer" : 0,
            "byteLength" : 1136,
            "byteOffset" : 42652
        },
        {
            "buffer" : 0,
            "byteLength" : 336,
            "byteOffset" : 43788
        },
        {
            "buffer" : 0,
            "byteLength" : 166344,
            "byteOffset" : 44124
        },
        {
            "buffer" : 0,
            "byteLength" : 166344,
            "byteOffset" : 210468
        },
        {
            "buffer" : 0,
            "byteLength" : 110896,
            "byteOffset" : 376812
        },
        {
            "buffer" : 0,
            "byteLength" : 39516,
            "byteOffset" : 487708
        },
        {
            "buffer" : 0,
            "byteLength" : 1008,
            "byteOffset" : 527224
        },
        {
            "buffer" : 0,
            "byteLength" : 1008,
            "byteOffset" : 528232
        },
        {
            "buffer" : 0,
            "byteLength" : 672,
            "byteOffset" : 529240
        },
        {
            "buffer" : 0,
            "byteLength" : 480,
            "byteOffset" : 529912
        },
        {
            "buffer" : 0,
            "byteLength" : 23352,
            "byteOffset" : 530392
        },
        {
            "buffer" : 0,
            "byteLength" : 23352,
            "byteOffset" : 553744
        },
        {
            "buffer" : 0,
            "byteLength" : 15568,
            "byteOffset" : 577096
        },
        {
            "buffer" : 0,
            "byteLength" : 10938,
            "byteOffset" : 592664
        }
    ],
    "buffers" : [
        {
            "byteLength" : 603604,
            "uri" : "calipso.bin"
        }
    ]
}
