{
    "asset" : {
        "generator" : "Khronos glTF Blender I/O v1.8.19",
        "version" : "2.0"
    },
    "scene" : 0,
    "scenes" : [
        {
            "name" : "Scene",
            "nodes" : [
                2
            ]
        }
    ],
    "nodes" : [
        {
            "mesh" : 0,
            "name" : "heatshield"
        },
        {
            "mesh" : 1,
            "name" : "heatshield_bits"
        },
        {
            "children" : [
                0,
                1
            ],
            "name" : "BUS",
            "translation" : [
                -0.06519630551338196,
                0.44404181838035583,
                0.020644623786211014
            ]
        }
    ],
    "materials" : [
        {
            "name" : "AA_Array_final",
            "normalTexture" : {
                "index" : 0,
                "scale" : 0.5
            },
            "pbrMetallicRoughness" : {
                "baseColorTexture" : {
                    "index" : 1
                },
                "metallicRoughnessTexture" : {
                    "index" : 2
                }
            }
        }
    ],
    "meshes" : [
        {
            "name" : "Cube.005",
            "primitives" : [
                {
                    "attributes" : {
                        "POSITION" : 0,
                        "NORMAL" : 1,
                        "TANGENT" : 2,
                        "TEXCOORD_0" : 3
                    },
                    "indices" : 4,
                    "material" : 0
                }
            ]
        },
        {
            "name" : "Cube.006",
            "primitives" : [
                {
                    "attributes" : {
                        "POSITION" : 5,
                        "NORMAL" : 6,
                        "TANGENT" : 7,
                        "TEXCOORD_0" : 8
                    },
                    "indices" : 9,
                    "material" : 0
                }
            ]
        }
    ],
    "textures" : [
        {
            "sampler" : 0,
            "source" : 0
        },
        {
            "sampler" : 0,
            "source" : 1
        },
        {
            "sampler" : 0,
            "source" : 2
        }
    ],
    "images" : [
        {
            "mimeType" : "image/png",
            "name" : "osirisrex_normal",
            "uri" : "osirisrex_normal.png"
        },
        {
            "mimeType" : "image/jpeg",
            "name" : "osirisrex_albedo",
            "uri" : "osirisrex_albedo.jpg"
        },
        {
            "mimeType" : "image/png",
            "name" : "osirisrex_pbr",
            "uri" : "osirisrex_pbr.png"
        }
    ],
    "accessors" : [
        {
            "bufferView" : 0,
            "componentType" : 5126,
            "count" : 362,
            "max" : [
                0.4465036988258362,
                1.0064958333969116,
                0.3960146903991699
            ],
            "min" : [
                -0.36980965733528137,
                0.5456552505493164,
                -0.42029833793640137
            ],
            "type" : "VEC3"
        },
        {
            "bufferView" : 1,
            "componentType" : 5126,
            "count" : 362,
            "type" : "VEC3"
        },
        {
            "bufferView" : 2,
            "componentType" : 5126,
            "count" : 362,
            "type" : "VEC4"
        },
        {
            "bufferView" : 3,
            "componentType" : 5126,
            "count" : 362,
            "type" : "VEC2"
        },
        {
            "bufferView" : 4,
            "componentType" : 5123,
            "count" : 1296,
            "type" : "SCALAR"
        },
        {
            "bufferView" : 5,
            "componentType" : 5126,
            "count" : 150,
            "max" : [
                0.2316104769706726,
                0.5456553101539612,
                0.10471987724304199
            ],
            "min" : [
                -0.15439659357070923,
                0.5373364686965942,
                -0.23320913314819336
            ],
            "type" : "VEC3"
        },
        {
            "bufferView" : 6,
            "componentType" : 5126,
            "count" : 150,
            "type" : "VEC3"
        },
        {
            "bufferView" : 7,
            "componentType" : 5126,
            "count" : 150,
            "type" : "VEC4"
        },
        {
            "bufferView" : 8,
            "componentType" : 5126,
            "count" : 150,
            "type" : "VEC2"
        },
        {
            "bufferView" : 9,
            "componentType" : 5123,
            "count" : 270,
            "type" : "SCALAR"
        }
    ],
    "bufferViews" : [
        {
            "buffer" : 0,
            "byteLength" : 4344,
            "byteOffset" : 0
        },
        {
            "buffer" : 0,
            "byteLength" : 4344,
            "byteOffset" : 4344
        },
        {
            "buffer" : 0,
            "byteLength" : 5792,
            "byteOffset" : 8688
        },
        {
            "buffer" : 0,
            "byteLength" : 2896,
            "byteOffset" : 14480
        },
        {
            "buffer" : 0,
            "byteLength" : 2592,
            "byteOffset" : 17376
        },
        {
            "buffer" : 0,
            "byteLength" : 1800,
            "byteOffset" : 19968
        },
        {
            "buffer" : 0,
            "byteLength" : 1800,
            "byteOffset" : 21768
        },
        {
            "buffer" : 0,
            "byteLength" : 2400,
            "byteOffset" : 23568
        },
        {
            "buffer" : 0,
            "byteLength" : 1200,
            "byteOffset" : 25968
        },
        {
            "buffer" : 0,
            "byteLength" : 540,
            "byteOffset" : 27168
        }
    ],
    "samplers" : [
        {
            "magFilter" : 9729,
            "minFilter" : 9987
        }
    ],
    "buffers" : [
        {
            "byteLength" : 27708,
            "uri" : "osiris_rex_heatshield.bin"
        }
    ]
}
