{
    "asset" : {
        "generator" : "Khronos glTF Blender I/O v1.8.19",
        "version" : "2.0"
    },
    "scene" : 0,
    "scenes" : [
        {
            "name" : "Scene",
            "nodes" : [
                7
            ]
        }
    ],
    "nodes" : [
        {
            "mesh" : 0,
            "name" : "black_krinkle",
            "translation" : [
                1.2547802925109863,
                0.42267340421676636,
                0.824023962020874
            ]
        },
        {
            "mesh" : 1,
            "name" : "foil_silver",
            "translation" : [
                0.011913537979125977,
                0.8294909596443176,
                0.021670695394277573
            ]
        },
        {
            "mesh" : 2,
            "name" : "instruments",
            "translation" : [
                0.6597764492034912,
                -0.04401329159736633,
                -0.0130692720413208
            ]
        },
        {
            "mesh" : 3,
            "name" : "panel",
            "translation" : [
                -0.15795814990997314,
                -1.0619993209838867,
                -0.6225265860557556
            ]
        },
        {
            "mesh" : 4,
            "name" : "part_01",
            "translation" : [
                -0.6937507390975952,
                0.251670241355896,
                1.5236700773239136
            ]
        },
        {
            "mesh" : 5,
            "name" : "part_01.001",
            "translation" : [
                -0.6937507390975952,
                0.251670241355896,
                1.5236700773239136
            ]
        },
        {
            "mesh" : 6,
            "name" : "shiny_panel",
            "translation" : [
                -0.15795816481113434,
                -1.0619993209838867,
                -0.6225265860557556
            ]
        },
        {
            "children" : [
                0,
                1,
                2,
                3,
                4,
                5,
                6
            ],
            "mesh" : 7,
            "name" : "foil_gold"
        }
    ],
    "materials" : [
        {
            "name" : "black_krinkle.002",
            "normalTexture" : {
                "index" : 0
            },
            "pbrMetallicRoughness" : {
                "baseColorFactor" : [
                    0.01960664987564087,
                    0.01960664987564087,
                    0.01960664987564087,
                    1
                ],
                "metallicFactor" : 0,
                "roughnessFactor" : 0.6000000238418579
            }
        },
        {
            "name" : "foil_silver.002",
            "normalTexture" : {
                "index" : 1
            },
            "pbrMetallicRoughness" : {
                "baseColorFactor" : [
                    1,
                    0.999999463558197,
                    1,
                    1
                ],
                "roughnessFactor" : 0.30000001192092896
            }
        },
        {
            "name" : "AO_01.001",
            "pbrMetallicRoughness" : {
                "baseColorTexture" : {
                    "index" : 2
                },
                "metallicFactor" : 0.19090908765792847,
                "roughnessFactor" : 0.5
            }
        },
        {
            "name" : "tex_01.001",
            "normalTexture" : {
                "index" : 3
            },
            "pbrMetallicRoughness" : {
                "baseColorTexture" : {
                    "index" : 4
                },
                "metallicRoughnessTexture" : {
                    "index" : 5
                }
            }
        },
        {
            "name" : "shiny_panel.001",
            "normalTexture" : {
                "index" : 6,
                "scale" : 0.20000000298023224
            },
            "pbrMetallicRoughness" : {
                "baseColorTexture" : {
                    "index" : 7
                },
                "metallicRoughnessTexture" : {
                    "index" : 8
                }
            }
        },
        {
            "name" : "foil_gold.002",
            "normalTexture" : {
                "index" : 9
            },
            "pbrMetallicRoughness" : {
                "baseColorFactor" : [
                    0.9999998807907104,
                    0.6583749055862427,
                    0.08228273689746857,
                    1
                ],
                "roughnessFactor" : 0.30000001192092896
            }
        }
    ],
    "meshes" : [
        {
            "name" : "Default.014",
            "primitives" : [
                {
                    "attributes" : {
                        "POSITION" : 0,
                        "NORMAL" : 1,
                        "TANGENT" : 2,
                        "TEXCOORD_0" : 3
                    },
                    "indices" : 4,
                    "material" : 0
                }
            ]
        },
        {
            "name" : "Default.013",
            "primitives" : [
                {
                    "attributes" : {
                        "POSITION" : 5,
                        "NORMAL" : 6,
                        "TANGENT" : 7,
                        "TEXCOORD_0" : 8
                    },
                    "indices" : 9,
                    "material" : 1
                }
            ]
        },
        {
            "name" : "Default.012",
            "primitives" : [
                {
                    "attributes" : {
                        "POSITION" : 10,
                        "NORMAL" : 11,
                        "TANGENT" : 12,
                        "TEXCOORD_0" : 13,
                        "TEXCOORD_1" : 14
                    },
                    "indices" : 15,
                    "material" : 2
                }
            ]
        },
        {
            "name" : "Default.011",
            "primitives" : [
                {
                    "attributes" : {
                        "POSITION" : 16,
                        "NORMAL" : 17,
                        "TANGENT" : 18,
                        "TEXCOORD_0" : 19,
                        "TEXCOORD_1" : 20
                    },
                    "indices" : 21,
                    "material" : 3
                }
            ]
        },
        {
            "name" : "Default.010",
            "primitives" : [
                {
                    "attributes" : {
                        "POSITION" : 22,
                        "NORMAL" : 23,
                        "TANGENT" : 24,
                        "TEXCOORD_0" : 25,
                        "TEXCOORD_1" : 26
                    },
                    "indices" : 27,
                    "material" : 3
                }
            ]
        },
        {
            "name" : "Default.009",
            "primitives" : [
                {
                    "attributes" : {
                        "POSITION" : 28,
                        "NORMAL" : 29,
                        "TANGENT" : 30,
                        "TEXCOORD_0" : 31,
                        "TEXCOORD_1" : 32
                    },
                    "indices" : 33,
                    "material" : 3
                }
            ]
        },
        {
            "name" : "Default.008",
            "primitives" : [
                {
                    "attributes" : {
                        "POSITION" : 34,
                        "NORMAL" : 35,
                        "TANGENT" : 36,
                        "TEXCOORD_0" : 37,
                        "TEXCOORD_1" : 38
                    },
                    "indices" : 39,
                    "material" : 4
                }
            ]
        },
        {
            "name" : "Cube.002",
            "primitives" : [
                {
                    "attributes" : {
                        "POSITION" : 40,
                        "NORMAL" : 41,
                        "TANGENT" : 42,
                        "TEXCOORD_0" : 43,
                        "TEXCOORD_1" : 44
                    },
                    "indices" : 45,
                    "material" : 5
                }
            ]
        }
    ],
    "textures" : [
        {
            "sampler" : 0,
            "source" : 0
        },
        {
            "sampler" : 0,
            "source" : 0
        },
        {
            "sampler" : 0,
            "source" : 1
        },
        {
            "sampler" : 0,
            "source" : 2
        },
        {
            "sampler" : 0,
            "source" : 3
        },
        {
            "sampler" : 0,
            "source" : 4
        },
        {
            "sampler" : 0,
            "source" : 2
        },
        {
            "sampler" : 0,
            "source" : 3
        },
        {
            "sampler" : 0,
            "source" : 4
        },
        {
            "sampler" : 0,
            "source" : 0
        }
    ],
    "images" : [
        {
            "mimeType" : "image/png",
            "name" : "foil_normal",
            "uri" : "foil_normal.png"
        },
        {
            "mimeType" : "image/jpeg",
            "name" : "aura_01_ao",
            "uri" : "aura_01_ao.jpg"
        },
        {
            "mimeType" : "image/png",
            "name" : "aura_tex_01_normal",
            "uri" : "aura_tex_01_normal.png"
        },
        {
            "mimeType" : "image/jpeg",
            "name" : "aura_tex_01_albedo",
            "uri" : "aura_tex_01_albedo.jpg"
        },
        {
            "mimeType" : "image/jpeg",
            "name" : "aura_tex_01_pbr",
            "uri" : "aura_tex_01_pbr.jpg"
        }
    ],
    "accessors" : [
        {
            "bufferView" : 0,
            "componentType" : 5126,
            "count" : 792,
            "max" : [
                1.9966297149658203,
                0.8272666335105896,
                0.7600160837173462
            ],
            "min" : [
                -4.615750312805176,
                -1.216456413269043,
                -2.145073890686035
            ],
            "type" : "VEC3"
        },
        {
            "bufferView" : 1,
            "componentType" : 5126,
            "count" : 792,
            "type" : "VEC3"
        },
        {
            "bufferView" : 2,
            "componentType" : 5126,
            "count" : 792,
            "type" : "VEC4"
        },
        {
            "bufferView" : 3,
            "componentType" : 5126,
            "count" : 792,
            "type" : "VEC2"
        },
        {
            "bufferView" : 4,
            "componentType" : 5123,
            "count" : 2367,
            "type" : "SCALAR"
        },
        {
            "bufferView" : 5,
            "componentType" : 5126,
            "count" : 187,
            "max" : [
                3.0286061763763428,
                1.8827087879180908,
                1.4539892673492432
            ],
            "min" : [
                -2.4332234859466553,
                -1.6294913291931152,
                -1.0519107580184937
            ],
            "type" : "VEC3"
        },
        {
            "bufferView" : 6,
            "componentType" : 5126,
            "count" : 187,
            "type" : "VEC3"
        },
        {
            "bufferView" : 7,
            "componentType" : 5126,
            "count" : 187,
            "type" : "VEC4"
        },
        {
            "bufferView" : 8,
            "componentType" : 5126,
            "count" : 187,
            "type" : "VEC2"
        },
        {
            "bufferView" : 9,
            "componentType" : 5123,
            "count" : 471,
            "type" : "SCALAR"
        },
        {
            "bufferView" : 10,
            "componentType" : 5126,
            "count" : 17033,
            "max" : [
                4.367008209228516,
                1.3061668872833252,
                1.717170000076294
            ],
            "min" : [
                -4.367008209228516,
                -1.3061668872833252,
                -1.717170000076294
            ],
            "type" : "VEC3"
        },
        {
            "bufferView" : 11,
            "componentType" : 5126,
            "count" : 17033,
            "type" : "VEC3"
        },
        {
            "bufferView" : 12,
            "componentType" : 5126,
            "count" : 17033,
            "type" : "VEC4"
        },
        {
            "bufferView" : 13,
            "componentType" : 5126,
            "count" : 17033,
            "type" : "VEC2"
        },
        {
            "bufferView" : 14,
            "componentType" : 5126,
            "count" : 17033,
            "type" : "VEC2"
        },
        {
            "bufferView" : 15,
            "componentType" : 5123,
            "count" : 39198,
            "type" : "SCALAR"
        },
        {
            "bufferView" : 16,
            "componentType" : 5126,
            "count" : 6926,
            "max" : [
                2.5040647983551025,
                1.2805667637394436e-10,
                0.5429390668869019
            ],
            "min" : [
                -2.42421555519104,
                -14.967910766601562,
                -0.8775327801704407
            ],
            "type" : "VEC3"
        },
        {
            "bufferView" : 17,
            "componentType" : 5126,
            "count" : 6926,
            "type" : "VEC3"
        },
        {
            "bufferView" : 18,
            "componentType" : 5126,
            "count" : 6926,
            "type" : "VEC4"
        },
        {
            "bufferView" : 19,
            "componentType" : 5126,
            "count" : 6926,
            "type" : "VEC2"
        },
        {
            "bufferView" : 20,
            "componentType" : 5126,
            "count" : 6926,
            "type" : "VEC2"
        },
        {
            "bufferView" : 21,
            "componentType" : 5123,
            "count" : 7602,
            "type" : "SCALAR"
        },
        {
            "bufferView" : 22,
            "componentType" : 5126,
            "count" : 2005,
            "max" : [
                5.166167259216309,
                0.8861749172210693,
                0.13723599910736084
            ],
            "min" : [
                -0.8537116050720215,
                -1.7318998575210571,
                -2.1436309814453125
            ],
            "type" : "VEC3"
        },
        {
            "bufferView" : 23,
            "componentType" : 5126,
            "count" : 2005,
            "type" : "VEC3"
        },
        {
            "bufferView" : 24,
            "componentType" : 5126,
            "count" : 2005,
            "type" : "VEC4"
        },
        {
            "bufferView" : 25,
            "componentType" : 5126,
            "count" : 2005,
            "type" : "VEC2"
        },
        {
            "bufferView" : 26,
            "componentType" : 5126,
            "count" : 2005,
            "type" : "VEC2"
        },
        {
            "bufferView" : 27,
            "componentType" : 5123,
            "count" : 2190,
            "type" : "SCALAR"
        },
        {
            "bufferView" : 28,
            "componentType" : 5126,
            "count" : 4,
            "max" : [
                1.1587837934494019,
                0.7604900598526001,
                -0.43903011083602905
            ],
            "min" : [
                1.1582980155944824,
                -0.2672542631626129,
                -0.7895480394363403
            ],
            "type" : "VEC3"
        },
        {
            "bufferView" : 29,
            "componentType" : 5126,
            "count" : 4,
            "type" : "VEC3"
        },
        {
            "bufferView" : 30,
            "componentType" : 5126,
            "count" : 4,
            "type" : "VEC4"
        },
        {
            "bufferView" : 31,
            "componentType" : 5126,
            "count" : 4,
            "type" : "VEC2"
        },
        {
            "bufferView" : 32,
            "componentType" : 5126,
            "count" : 4,
            "type" : "VEC2"
        },
        {
            "bufferView" : 33,
            "componentType" : 5123,
            "count" : 6,
            "type" : "SCALAR"
        },
        {
            "bufferView" : 34,
            "componentType" : 5126,
            "count" : 2398,
            "max" : [
                2.5040645599365234,
                -2.6095614433288574,
                0.493102103471756
            ],
            "min" : [
                -2.417083501815796,
                -14.966466903686523,
                -0.8775330781936646
            ],
            "type" : "VEC3"
        },
        {
            "bufferView" : 35,
            "componentType" : 5126,
            "count" : 2398,
            "type" : "VEC3"
        },
        {
            "bufferView" : 36,
            "componentType" : 5126,
            "count" : 2398,
            "type" : "VEC4"
        },
        {
            "bufferView" : 37,
            "componentType" : 5126,
            "count" : 2398,
            "type" : "VEC2"
        },
        {
            "bufferView" : 38,
            "componentType" : 5126,
            "count" : 2398,
            "type" : "VEC2"
        },
        {
            "bufferView" : 39,
            "componentType" : 5123,
            "count" : 2442,
            "type" : "SCALAR"
        },
        {
            "bufferView" : 40,
            "componentType" : 5126,
            "count" : 2008,
            "max" : [
                4.663423538208008,
                1.2028120756149292,
                1.48675537109375
            ],
            "min" : [
                -3.4224376678466797,
                -1.2039997577667236,
                -1.4548791646957397
            ],
            "type" : "VEC3"
        },
        {
            "bufferView" : 41,
            "componentType" : 5126,
            "count" : 2008,
            "type" : "VEC3"
        },
        {
            "bufferView" : 42,
            "componentType" : 5126,
            "count" : 2008,
            "type" : "VEC4"
        },
        {
            "bufferView" : 43,
            "componentType" : 5126,
            "count" : 2008,
            "type" : "VEC2"
        },
        {
            "bufferView" : 44,
            "componentType" : 5126,
            "count" : 2008,
            "type" : "VEC2"
        },
        {
            "bufferView" : 45,
            "componentType" : 5123,
            "count" : 9429,
            "type" : "SCALAR"
        }
    ],
    "bufferViews" : [
        {
            "buffer" : 0,
            "byteLength" : 9504,
            "byteOffset" : 0
        },
        {
            "buffer" : 0,
            "byteLength" : 9504,
            "byteOffset" : 9504
        },
        {
            "buffer" : 0,
            "byteLength" : 12672,
            "byteOffset" : 19008
        },
        {
            "buffer" : 0,
            "byteLength" : 6336,
            "byteOffset" : 31680
        },
        {
            "buffer" : 0,
            "byteLength" : 4734,
            "byteOffset" : 38016
        },
        {
            "buffer" : 0,
            "byteLength" : 2244,
            "byteOffset" : 42752
        },
        {
            "buffer" : 0,
            "byteLength" : 2244,
            "byteOffset" : 44996
        },
        {
            "buffer" : 0,
            "byteLength" : 2992,
            "byteOffset" : 47240
        },
        {
            "buffer" : 0,
            "byteLength" : 1496,
            "byteOffset" : 50232
        },
        {
            "buffer" : 0,
            "byteLength" : 942,
            "byteOffset" : 51728
        },
        {
            "buffer" : 0,
            "byteLength" : 204396,
            "byteOffset" : 52672
        },
        {
            "buffer" : 0,
            "byteLength" : 204396,
            "byteOffset" : 257068
        },
        {
            "buffer" : 0,
            "byteLength" : 272528,
            "byteOffset" : 461464
        },
        {
            "buffer" : 0,
            "byteLength" : 136264,
            "byteOffset" : 733992
        },
        {
            "buffer" : 0,
            "byteLength" : 136264,
            "byteOffset" : 870256
        },
        {
            "buffer" : 0,
            "byteLength" : 78396,
            "byteOffset" : 1006520
        },
        {
            "buffer" : 0,
            "byteLength" : 83112,
            "byteOffset" : 1084916
        },
        {
            "buffer" : 0,
            "byteLength" : 83112,
            "byteOffset" : 1168028
        },
        {
            "buffer" : 0,
            "byteLength" : 110816,
            "byteOffset" : 1251140
        },
        {
            "buffer" : 0,
            "byteLength" : 55408,
            "byteOffset" : 1361956
        },
        {
            "buffer" : 0,
            "byteLength" : 55408,
            "byteOffset" : 1417364
        },
        {
            "buffer" : 0,
            "byteLength" : 15204,
            "byteOffset" : 1472772
        },
        {
            "buffer" : 0,
            "byteLength" : 24060,
            "byteOffset" : 1487976
        },
        {
            "buffer" : 0,
            "byteLength" : 24060,
            "byteOffset" : 1512036
        },
        {
            "buffer" : 0,
            "byteLength" : 32080,
            "byteOffset" : 1536096
        },
        {
            "buffer" : 0,
            "byteLength" : 16040,
            "byteOffset" : 1568176
        },
        {
            "buffer" : 0,
            "byteLength" : 16040,
            "byteOffset" : 1584216
        },
        {
            "buffer" : 0,
            "byteLength" : 4380,
            "byteOffset" : 1600256
        },
        {
            "buffer" : 0,
            "byteLength" : 48,
            "byteOffset" : 1604636
        },
        {
            "buffer" : 0,
            "byteLength" : 48,
            "byteOffset" : 1604684
        },
        {
            "buffer" : 0,
            "byteLength" : 64,
            "byteOffset" : 1604732
        },
        {
            "buffer" : 0,
            "byteLength" : 32,
            "byteOffset" : 1604796
        },
        {
            "buffer" : 0,
            "byteLength" : 32,
            "byteOffset" : 1604828
        },
        {
            "buffer" : 0,
            "byteLength" : 12,
            "byteOffset" : 1604860
        },
        {
            "buffer" : 0,
            "byteLength" : 28776,
            "byteOffset" : 1604872
        },
        {
            "buffer" : 0,
            "byteLength" : 28776,
            "byteOffset" : 1633648
        },
        {
            "buffer" : 0,
            "byteLength" : 38368,
            "byteOffset" : 1662424
        },
        {
            "buffer" : 0,
            "byteLength" : 19184,
            "byteOffset" : 1700792
        },
        {
            "buffer" : 0,
            "byteLength" : 19184,
            "byteOffset" : 1719976
        },
        {
            "buffer" : 0,
            "byteLength" : 4884,
            "byteOffset" : 1739160
        },
        {
            "buffer" : 0,
            "byteLength" : 24096,
            "byteOffset" : 1744044
        },
        {
            "buffer" : 0,
            "byteLength" : 24096,
            "byteOffset" : 1768140
        },
        {
            "buffer" : 0,
            "byteLength" : 32128,
            "byteOffset" : 1792236
        },
        {
            "buffer" : 0,
            "byteLength" : 16064,
            "byteOffset" : 1824364
        },
        {
            "buffer" : 0,
            "byteLength" : 16064,
            "byteOffset" : 1840428
        },
        {
            "buffer" : 0,
            "byteLength" : 18858,
            "byteOffset" : 1856492
        }
    ],
    "samplers" : [
        {
            "magFilter" : 9729,
            "minFilter" : 9987
        }
    ],
    "buffers" : [
        {
            "byteLength" : 1875352,
            "uri" : "aura.bin"
        }
    ]
}
