{
    "asset" : {
        "generator" : "Khronos glTF Blender I/O v1.3.48",
        "version" : "2.0"
    },
    "scene" : 0,
    "scenes" : [
        {
            "name" : "Scene",
            "nodes" : [
                6
            ]
        }
    ],
    "nodes" : [
        {
            "mesh" : 0,
            "name" : "AO_dish",
            "translation" : [
                0,
                -0.5603078007698059,
                0
            ]
        },
        {
            "mesh" : 1,
            "name" : "AO_hinges",
            "translation" : [
                0,
                0.08834666013717651,
                0
            ]
        },
        {
            "mesh" : 2,
            "name" : "foil_silver",
            "translation" : [
                0,
                0.10882413387298584,
                0
            ]
        },
        {
            "mesh" : 3,
            "name" : "foil_white"
        },
        {
            "mesh" : 4,
            "name" : "shiny_panel",
            "translation" : [
                0,
                0.030089378356933594,
                0
            ]
        },
        {
            "mesh" : 5,
            "name" : "tex_01"
        },
        {
            "children" : [
                0,
                1,
                2,
                3,
                4,
                5
            ],
            "mesh" : 6,
            "name" : "foil_gold",
            "translation" : [
                0,
                0.5603078007698059,
                0
            ]
        }
    ],
    "materials" : [
        {
            "emissiveFactor" : [
                0,
                0,
                0
            ],
            "name" : "AO_dish.001",
            "pbrMetallicRoughness" : {
                "baseColorTexture" : {
                    "index" : 0,
                    "texCoord" : 0
                },
                "metallicFactor" : 0,
                "roughnessFactor" : 0.5
            }
        },
        {
            "emissiveFactor" : [
                0,
                0,
                0
            ],
            "name" : "AO_hinges.001",
            "pbrMetallicRoughness" : {
                "baseColorTexture" : {
                    "index" : 1,
                    "texCoord" : 0
                },
                "metallicFactor" : 1,
                "roughnessFactor" : 0.4045454263687134
            }
        },
        {
            "emissiveFactor" : [
                0,
                0,
                0
            ],
            "name" : "foil_silver",
            "normalTexture" : {
                "index" : 2,
                "texCoord" : 0
            },
            "pbrMetallicRoughness" : {
                "baseColorFactor" : [
                    1,
                    0.999999463558197,
                    1,
                    1
                ],
                "metallicFactor" : 1,
                "roughnessFactor" : 0.30000001192092896
            }
        },
        {
            "emissiveFactor" : [
                0,
                0,
                0
            ],
            "name" : "foil_white.001",
            "normalTexture" : {
                "index" : 3,
                "texCoord" : 0
            },
            "pbrMetallicRoughness" : {
                "baseColorTexture" : {
                    "index" : 4,
                    "texCoord" : 0
                },
                "metallicFactor" : 0.20000000298023224,
                "roughnessFactor" : 0.5
            }
        },
        {
            "emissiveFactor" : [
                0,
                0,
                0
            ],
            "name" : "shiny_panel.003",
            "normalTexture" : {
                "index" : 5,
                "scale" : 0.09999999403953552,
                "texCoord" : 0
            },
            "pbrMetallicRoughness" : {
                "baseColorTexture" : {
                    "index" : 6,
                    "texCoord" : 0
                },
                "metallicRoughnessTexture" : {
                    "index" : 7,
                    "texCoord" : 0
                }
            }
        },
        {
            "emissiveFactor" : [
                0,
                0,
                0
            ],
            "name" : "tex_01.003",
            "normalTexture" : {
                "index" : 8,
                "texCoord" : 0
            },
            "pbrMetallicRoughness" : {
                "baseColorTexture" : {
                    "index" : 9,
                    "texCoord" : 0
                },
                "metallicRoughnessTexture" : {
                    "index" : 10,
                    "texCoord" : 0
                }
            }
        },
        {
            "emissiveFactor" : [
                0,
                0,
                0
            ],
            "name" : "foil_gold",
            "normalTexture" : {
                "index" : 11,
                "texCoord" : 0
            },
            "pbrMetallicRoughness" : {
                "baseColorFactor" : [
                    0.9999998807907104,
                    0.6583749055862427,
                    0.08228273689746857,
                    1
                ],
                "metallicFactor" : 1,
                "roughnessFactor" : 0.30000001192092896
            }
        }
    ],
    "meshes" : [
        {
            "name" : "Cylinder.005",
            "primitives" : [
                {
                    "attributes" : {
                        "POSITION" : 0,
                        "NORMAL" : 1,
                        "TEXCOORD_0" : 2
                    },
                    "indices" : 3,
                    "material" : 0
                }
            ]
        },
        {
            "name" : "Cube.005",
            "primitives" : [
                {
                    "attributes" : {
                        "POSITION" : 4,
                        "NORMAL" : 5,
                        "TEXCOORD_0" : 6
                    },
                    "indices" : 7,
                    "material" : 1
                }
            ]
        },
        {
            "name" : "Cylinder.003",
            "primitives" : [
                {
                    "attributes" : {
                        "POSITION" : 8,
                        "NORMAL" : 9,
                        "TEXCOORD_0" : 10
                    },
                    "indices" : 11,
                    "material" : 2
                }
            ]
        },
        {
            "name" : "Cylinder.002",
            "primitives" : [
                {
                    "attributes" : {
                        "POSITION" : 12,
                        "NORMAL" : 13,
                        "TEXCOORD_0" : 14
                    },
                    "indices" : 15,
                    "material" : 3
                }
            ]
        },
        {
            "name" : "Cube.004",
            "primitives" : [
                {
                    "attributes" : {
                        "POSITION" : 16,
                        "NORMAL" : 17,
                        "TEXCOORD_0" : 18
                    },
                    "indices" : 19,
                    "material" : 4
                }
            ]
        },
        {
            "name" : "Cylinder.001",
            "primitives" : [
                {
                    "attributes" : {
                        "POSITION" : 20,
                        "NORMAL" : 21,
                        "TEXCOORD_0" : 22
                    },
                    "indices" : 23,
                    "material" : 5
                }
            ]
        },
        {
            "name" : "Cylinder.004",
            "primitives" : [
                {
                    "attributes" : {
                        "POSITION" : 24,
                        "NORMAL" : 25,
                        "TEXCOORD_0" : 26
                    },
                    "indices" : 27,
                    "material" : 6
                }
            ]
        }
    ],
    "textures" : [
        {
            "source" : 0
        },
        {
            "source" : 1
        },
        {
            "source" : 2
        },
        {
            "source" : 2
        },
        {
            "source" : 3
        },
        {
            "source" : 4
        },
        {
            "source" : 5
        },
        {
            "source" : 6
        },
        {
            "source" : 7
        },
        {
            "source" : 8
        },
        {
            "source" : 9
        },
        {
            "source" : 2
        }
    ],
    "images" : [
        {
            "mimeType" : "image/jpeg",
            "name" : "clementine_dish_ao",
            "uri" : "clementine_dish_ao.jpg"
        },
        {
            "mimeType" : "image/jpeg",
            "name" : "clementine_hinges_ao",
            "uri" : "clementine_hinges_ao.jpg"
        },
        {
            "mimeType" : "image/png",
            "name" : "foil_normal",
            "uri" : "foil_normal.png"
        },
        {
            "mimeType" : "image/jpeg",
            "name" : "clementine_foil_ao",
            "uri" : "clementine_foil_ao.jpg"
        },
        {
            "mimeType" : "image/png",
            "name" : "clem_shiny_panel_normal",
            "uri" : "clem_shiny_panel_normal.png"
        },
        {
            "mimeType" : "image/jpeg",
            "name" : "clem_shiny_panel_albedo",
            "uri" : "clem_shiny_panel_albedo.jpg"
        },
        {
            "mimeType" : "image/jpeg",
            "name" : "clem_shiny_panel_pbr",
            "uri" : "clem_shiny_panel_pbr.jpg"
        },
        {
            "mimeType" : "image/png",
            "name" : "clem_tex_01_normal",
            "uri" : "clem_tex_01_normal.png"
        },
        {
            "mimeType" : "image/jpeg",
            "name" : "clem_tex_01_albedo",
            "uri" : "clem_tex_01_albedo.jpg"
        },
        {
            "mimeType" : "image/jpeg",
            "name" : "clem_tex_01_pbr",
            "uri" : "clem_tex_01_pbr.jpg"
        }
    ],
    "accessors" : [
        {
            "bufferView" : 0,
            "componentType" : 5126,
            "count" : 940,
            "max" : [
                0.5335000157356262,
                0.5380926728248596,
                0.6677536964416504
            ],
            "min" : [
                -0.5335000157356262,
                -0.47694462537765503,
                -0.6677537560462952
            ],
            "type" : "VEC3"
        },
        {
            "bufferView" : 1,
            "componentType" : 5126,
            "count" : 940,
            "type" : "VEC3"
        },
        {
            "bufferView" : 2,
            "componentType" : 5126,
            "count" : 940,
            "type" : "VEC2"
        },
        {
            "bufferView" : 3,
            "componentType" : 5123,
            "count" : 3972,
            "type" : "SCALAR"
        },
        {
            "bufferView" : 4,
            "componentType" : 5126,
            "count" : 3588,
            "max" : [
                1.599382758140564,
                0.5550125241279602,
                0.014354545623064041
            ],
            "min" : [
                -1.5993825197219849,
                -0.5550125241279602,
                -0.009863599203526974
            ],
            "type" : "VEC3"
        },
        {
            "bufferView" : 5,
            "componentType" : 5126,
            "count" : 3588,
            "type" : "VEC3"
        },
        {
            "bufferView" : 6,
            "componentType" : 5126,
            "count" : 3588,
            "type" : "VEC2"
        },
        {
            "bufferView" : 7,
            "componentType" : 5123,
            "count" : 9912,
            "type" : "SCALAR"
        },
        {
            "bufferView" : 8,
            "componentType" : 5126,
            "count" : 263,
            "max" : [
                2.056662082672119,
                0.024082183837890625,
                0.6401398777961731
            ],
            "min" : [
                -2.056662082672119,
                -1.461140513420105,
                -0.6401399374008179
            ],
            "type" : "VEC3"
        },
        {
            "bufferView" : 9,
            "componentType" : 5126,
            "count" : 263,
            "type" : "VEC3"
        },
        {
            "bufferView" : 10,
            "componentType" : 5126,
            "count" : 263,
            "type" : "VEC2"
        },
        {
            "bufferView" : 11,
            "componentType" : 5123,
            "count" : 1098,
            "type" : "SCALAR"
        },
        {
            "bufferView" : 12,
            "componentType" : 5126,
            "count" : 217,
            "max" : [
                0.5690000653266907,
                0.7931237816810608,
                0.5690000653266907
            ],
            "min" : [
                -0.5690000653266907,
                0.5603078007698059,
                -0.5690000653266907
            ],
            "type" : "VEC3"
        },
        {
            "bufferView" : 13,
            "componentType" : 5126,
            "count" : 217,
            "type" : "VEC3"
        },
        {
            "bufferView" : 14,
            "componentType" : 5126,
            "count" : 217,
            "type" : "VEC2"
        },
        {
            "bufferView" : 15,
            "componentType" : 5123,
            "count" : 828,
            "type" : "SCALAR"
        },
        {
            "bufferView" : 16,
            "componentType" : 5126,
            "count" : 360,
            "max" : [
                2.065864086151123,
                0.6422577500343323,
                0.6089367866516113
            ],
            "min" : [
                -2.065864324569702,
                -1.3773913383483887,
                -0.6089366674423218
            ],
            "type" : "VEC3"
        },
        {
            "bufferView" : 17,
            "componentType" : 5126,
            "count" : 360,
            "type" : "VEC3"
        },
        {
            "bufferView" : 18,
            "componentType" : 5126,
            "count" : 360,
            "type" : "VEC2"
        },
        {
            "bufferView" : 19,
            "componentType" : 5123,
            "count" : 516,
            "type" : "SCALAR"
        },
        {
            "bufferView" : 20,
            "componentType" : 5126,
            "count" : 6316,
            "max" : [
                2.065864086151123,
                1.1423077583312988,
                0.9336663484573364
            ],
            "min" : [
                -2.065864324569702,
                -2.3603017330169678,
                -0.8134202361106873
            ],
            "type" : "VEC3"
        },
        {
            "bufferView" : 21,
            "componentType" : 5126,
            "count" : 6316,
            "type" : "VEC3"
        },
        {
            "bufferView" : 22,
            "componentType" : 5126,
            "count" : 6316,
            "type" : "VEC2"
        },
        {
            "bufferView" : 23,
            "componentType" : 5123,
            "count" : 18870,
            "type" : "SCALAR"
        },
        {
            "bufferView" : 24,
            "componentType" : 5126,
            "count" : 544,
            "max" : [
                0.6319671869277954,
                0.5603078007698059,
                0.9336663484573364
            ],
            "min" : [
                -0.6319671869277954,
                -1.0696135759353638,
                -0.5923728942871094
            ],
            "type" : "VEC3"
        },
        {
            "bufferView" : 25,
            "componentType" : 5126,
            "count" : 544,
            "type" : "VEC3"
        },
        {
            "bufferView" : 26,
            "componentType" : 5126,
            "count" : 544,
            "type" : "VEC2"
        },
        {
            "bufferView" : 27,
            "componentType" : 5123,
            "count" : 2490,
            "type" : "SCALAR"
        }
    ],
    "bufferViews" : [
        {
            "buffer" : 0,
            "byteLength" : 11280,
            "byteOffset" : 0
        },
        {
            "buffer" : 0,
            "byteLength" : 11280,
            "byteOffset" : 11280
        },
        {
            "buffer" : 0,
            "byteLength" : 7520,
            "byteOffset" : 22560
        },
        {
            "buffer" : 0,
            "byteLength" : 7944,
            "byteOffset" : 30080
        },
        {
            "buffer" : 0,
            "byteLength" : 43056,
            "byteOffset" : 38024
        },
        {
            "buffer" : 0,
            "byteLength" : 43056,
            "byteOffset" : 81080
        },
        {
            "buffer" : 0,
            "byteLength" : 28704,
            "byteOffset" : 124136
        },
        {
            "buffer" : 0,
            "byteLength" : 19824,
            "byteOffset" : 152840
        },
        {
            "buffer" : 0,
            "byteLength" : 3156,
            "byteOffset" : 172664
        },
        {
            "buffer" : 0,
            "byteLength" : 3156,
            "byteOffset" : 175820
        },
        {
            "buffer" : 0,
            "byteLength" : 2104,
            "byteOffset" : 178976
        },
        {
            "buffer" : 0,
            "byteLength" : 2196,
            "byteOffset" : 181080
        },
        {
            "buffer" : 0,
            "byteLength" : 2604,
            "byteOffset" : 183276
        },
        {
            "buffer" : 0,
            "byteLength" : 2604,
            "byteOffset" : 185880
        },
        {
            "buffer" : 0,
            "byteLength" : 1736,
            "byteOffset" : 188484
        },
        {
            "buffer" : 0,
            "byteLength" : 1656,
            "byteOffset" : 190220
        },
        {
            "buffer" : 0,
            "byteLength" : 4320,
            "byteOffset" : 191876
        },
        {
            "buffer" : 0,
            "byteLength" : 4320,
            "byteOffset" : 196196
        },
        {
            "buffer" : 0,
            "byteLength" : 2880,
            "byteOffset" : 200516
        },
        {
            "buffer" : 0,
            "byteLength" : 1032,
            "byteOffset" : 203396
        },
        {
            "buffer" : 0,
            "byteLength" : 75792,
            "byteOffset" : 204428
        },
        {
            "buffer" : 0,
            "byteLength" : 75792,
            "byteOffset" : 280220
        },
        {
            "buffer" : 0,
            "byteLength" : 50528,
            "byteOffset" : 356012
        },
        {
            "buffer" : 0,
            "byteLength" : 37740,
            "byteOffset" : 406540
        },
        {
            "buffer" : 0,
            "byteLength" : 6528,
            "byteOffset" : 444280
        },
        {
            "buffer" : 0,
            "byteLength" : 6528,
            "byteOffset" : 450808
        },
        {
            "buffer" : 0,
            "byteLength" : 4352,
            "byteOffset" : 457336
        },
        {
            "buffer" : 0,
            "byteLength" : 4980,
            "byteOffset" : 461688
        }
    ],
    "buffers" : [
        {
            "byteLength" : 466668,
            "uri" : "clementine_isas.bin"
        }
    ]
}
