{
    "asset" : {
        "generator" : "Khronos glTF Blender I/O v1.5.17",
        "version" : "2.0"
    },
    "scene" : 0,
    "scenes" : [
        {
            "name" : "Scene",
            "nodes" : [
                2
            ]
        }
    ],
    "nodes" : [
        {
            "mesh" : 0,
            "name" : "instruments",
            "translation" : [
                2.0322864055633545,
                -0.1303558349609375,
                -6.899610161781311e-05
            ]
        },
        {
            "mesh" : 1,
            "name" : "reflectors",
            "translation" : [
                -0.44561827182769775,
                -0.11265527456998825,
                -0.7725017666816711
            ]
        },
        {
            "children" : [
                0,
                1
            ],
            "mesh" : 2,
            "name" : "BUS"
        }
    ],
    "materials" : [
        {
            "name" : "TESS",
            "normalTexture" : {
                "index" : 0,
                "scale" : 0.30000001192092896
            },
            "pbrMetallicRoughness" : {
                "baseColorTexture" : {
                    "index" : 1
                },
                "metallicRoughnessTexture" : {
                    "index" : 2
                }
            }
        },
        {
            "name" : "gold",
            "normalTexture" : {
                "index" : 3,
                "scale" : 0.5
            },
            "pbrMetallicRoughness" : {
                "baseColorFactor" : [
                    0.9900000095367432,
                    0.6307571530342102,
                    0.0512695387005806,
                    1
                ],
                "roughnessFactor" : 0.20000000298023224
            }
        },
        {
            "name" : "aluminum",
            "pbrMetallicRoughness" : {
                "baseColorFactor" : [
                    0.9646862149238586,
                    0.964686393737793,
                    0.9646864533424377,
                    1
                ],
                "roughnessFactor" : 0.30000001192092896
            }
        },
        {
            "name" : "shiny_panel",
            "normalTexture" : {
                "index" : 4,
                "scale" : 0.30000001192092896
            },
            "pbrMetallicRoughness" : {
                "baseColorTexture" : {
                    "index" : 5
                },
                "metallicRoughnessTexture" : {
                    "index" : 6
                }
            }
        },
        {
            "name" : "reflector",
            "pbrMetallicRoughness" : {
                "baseColorFactor" : [
                    0.7699522376060486,
                    0.7699522376060486,
                    0.7699522376060486,
                    1
                ],
                "roughnessFactor" : 0.20000000298023224
            }
        },
        {
            "name" : "foil_silver",
            "normalTexture" : {
                "index" : 7
            },
            "pbrMetallicRoughness" : {
                "baseColorFactor" : [
                    1,
                    0.999999463558197,
                    1,
                    1
                ],
                "roughnessFactor" : 0.30000001192092896
            }
        }
    ],
    "meshes" : [
        {
            "name" : "SolarPanel.000",
            "primitives" : [
                {
                    "attributes" : {
                        "POSITION" : 0,
                        "NORMAL" : 1,
                        "TEXCOORD_0" : 2
                    },
                    "indices" : 3,
                    "material" : 0
                },
                {
                    "attributes" : {
                        "POSITION" : 4,
                        "NORMAL" : 5,
                        "TEXCOORD_0" : 6
                    },
                    "indices" : 7,
                    "material" : 1
                },
                {
                    "attributes" : {
                        "POSITION" : 8,
                        "NORMAL" : 9,
                        "TEXCOORD_0" : 10
                    },
                    "indices" : 11,
                    "material" : 2
                },
                {
                    "attributes" : {
                        "POSITION" : 12,
                        "NORMAL" : 13,
                        "TEXCOORD_0" : 14
                    },
                    "indices" : 15,
                    "material" : 3
                }
            ]
        },
        {
            "name" : "Body.000",
            "primitives" : [
                {
                    "attributes" : {
                        "POSITION" : 16,
                        "NORMAL" : 17,
                        "TEXCOORD_0" : 18
                    },
                    "indices" : 19,
                    "material" : 4
                }
            ]
        },
        {
            "name" : "Cylinder.001",
            "primitives" : [
                {
                    "attributes" : {
                        "POSITION" : 20,
                        "NORMAL" : 21,
                        "TEXCOORD_0" : 22
                    },
                    "indices" : 23,
                    "material" : 5
                }
            ]
        }
    ],
    "textures" : [
        {
            "sampler" : 0,
            "source" : 0
        },
        {
            "sampler" : 0,
            "source" : 1
        },
        {
            "sampler" : 0,
            "source" : 2
        },
        {
            "sampler" : 0,
            "source" : 3
        },
        {
            "sampler" : 0,
            "source" : 0
        },
        {
            "sampler" : 0,
            "source" : 1
        },
        {
            "sampler" : 0,
            "source" : 2
        },
        {
            "sampler" : 0,
            "source" : 4
        }
    ],
    "images" : [
        {
            "mimeType" : "image/png",
            "name" : "tess_normal",
            "uri" : "tess_normal.png"
        },
        {
            "mimeType" : "image/jpeg",
            "name" : "tess_albedo",
            "uri" : "tess_albedo.jpg"
        },
        {
            "mimeType" : "image/jpeg",
            "name" : "tess_pbr",
            "uri" : "tess_pbr.jpg"
        },
        {
            "mimeType" : "image/png",
            "name" : "corrugated_normal",
            "uri" : "corrugated_normal.png"
        },
        {
            "mimeType" : "image/png",
            "name" : "foil_normal",
            "uri" : "foil_normal.png"
        }
    ],
    "accessors" : [
        {
            "bufferView" : 0,
            "componentType" : 5126,
            "count" : 17286,
            "max" : [
                1.6652590036392212,
                1.955454707145691,
                1.5274876356124878
            ],
            "min" : [
                -5.7286481857299805,
                -1.1358940601348877,
                -1.5291733741760254
            ],
            "type" : "VEC3"
        },
        {
            "bufferView" : 1,
            "componentType" : 5126,
            "count" : 17286,
            "type" : "VEC3"
        },
        {
            "bufferView" : 2,
            "componentType" : 5126,
            "count" : 17286,
            "type" : "VEC2"
        },
        {
            "bufferView" : 3,
            "componentType" : 5123,
            "count" : 41301,
            "type" : "SCALAR"
        },
        {
            "bufferView" : 4,
            "componentType" : 5126,
            "count" : 68,
            "max" : [
                1.6652588844299316,
                0.03076046146452427,
                0.8369301557540894
            ],
            "min" : [
                -5.728647708892822,
                -0.03076046332716942,
                -0.8369308114051819
            ],
            "type" : "VEC3"
        },
        {
            "bufferView" : 5,
            "componentType" : 5126,
            "count" : 68,
            "type" : "VEC3"
        },
        {
            "bufferView" : 6,
            "componentType" : 5126,
            "count" : 68,
            "type" : "VEC2"
        },
        {
            "bufferView" : 7,
            "componentType" : 5123,
            "count" : 96,
            "type" : "SCALAR"
        },
        {
            "bufferView" : 8,
            "componentType" : 5126,
            "count" : 24,
            "max" : [
                -1.2289795875549316,
                0.4310125708580017,
                -0.5281097888946533
            ],
            "min" : [
                -1.2976984977722168,
                0.38262948393821716,
                -0.5987513661384583
            ],
            "type" : "VEC3"
        },
        {
            "bufferView" : 9,
            "componentType" : 5126,
            "count" : 24,
            "type" : "VEC3"
        },
        {
            "bufferView" : 10,
            "componentType" : 5126,
            "count" : 24,
            "type" : "VEC2"
        },
        {
            "bufferView" : 11,
            "componentType" : 5123,
            "count" : 30,
            "type" : "SCALAR"
        },
        {
            "bufferView" : 12,
            "componentType" : 5126,
            "count" : 22,
            "max" : [
                1.6652590036392212,
                -0.030759427696466446,
                0.8369301557540894
            ],
            "min" : [
                -5.7286481857299805,
                -0.030760392546653748,
                -0.8369308114051819
            ],
            "type" : "VEC3"
        },
        {
            "bufferView" : 13,
            "componentType" : 5126,
            "count" : 22,
            "type" : "VEC3"
        },
        {
            "bufferView" : 14,
            "componentType" : 5126,
            "count" : 22,
            "type" : "VEC2"
        },
        {
            "bufferView" : 15,
            "componentType" : 5123,
            "count" : 24,
            "type" : "SCALAR"
        },
        {
            "bufferView" : 16,
            "componentType" : 5126,
            "count" : 1709,
            "max" : [
                1.3379267454147339,
                0.6169463992118835,
                1.7850661277770996
            ],
            "min" : [
                -0.44651150703430176,
                -0.7164232134819031,
                -0.18035846948623657
            ],
            "type" : "VEC3"
        },
        {
            "bufferView" : 17,
            "componentType" : 5126,
            "count" : 1709,
            "type" : "VEC3"
        },
        {
            "bufferView" : 18,
            "componentType" : 5126,
            "count" : 1709,
            "type" : "VEC2"
        },
        {
            "bufferView" : 19,
            "componentType" : 5123,
            "count" : 2400,
            "type" : "SCALAR"
        },
        {
            "bufferView" : 20,
            "componentType" : 5126,
            "count" : 989,
            "max" : [
                1.3512492179870605,
                1.8350094556808472,
                1.3508981466293335
            ],
            "min" : [
                -1.3532480001449585,
                -1.0100880861282349,
                -1.3749345541000366
            ],
            "type" : "VEC3"
        },
        {
            "bufferView" : 21,
            "componentType" : 5126,
            "count" : 989,
            "type" : "VEC3"
        },
        {
            "bufferView" : 22,
            "componentType" : 5126,
            "count" : 989,
            "type" : "VEC2"
        },
        {
            "bufferView" : 23,
            "componentType" : 5123,
            "count" : 4632,
            "type" : "SCALAR"
        }
    ],
    "bufferViews" : [
        {
            "buffer" : 0,
            "byteLength" : 207432,
            "byteOffset" : 0
        },
        {
            "buffer" : 0,
            "byteLength" : 207432,
            "byteOffset" : 207432
        },
        {
            "buffer" : 0,
            "byteLength" : 138288,
            "byteOffset" : 414864
        },
        {
            "buffer" : 0,
            "byteLength" : 82602,
            "byteOffset" : 553152
        },
        {
            "buffer" : 0,
            "byteLength" : 816,
            "byteOffset" : 635756
        },
        {
            "buffer" : 0,
            "byteLength" : 816,
            "byteOffset" : 636572
        },
        {
            "buffer" : 0,
            "byteLength" : 544,
            "byteOffset" : 637388
        },
        {
            "buffer" : 0,
            "byteLength" : 192,
            "byteOffset" : 637932
        },
        {
            "buffer" : 0,
            "byteLength" : 288,
            "byteOffset" : 638124
        },
        {
            "buffer" : 0,
            "byteLength" : 288,
            "byteOffset" : 638412
        },
        {
            "buffer" : 0,
            "byteLength" : 192,
            "byteOffset" : 638700
        },
        {
            "buffer" : 0,
            "byteLength" : 60,
            "byteOffset" : 638892
        },
        {
            "buffer" : 0,
            "byteLength" : 264,
            "byteOffset" : 638952
        },
        {
            "buffer" : 0,
            "byteLength" : 264,
            "byteOffset" : 639216
        },
        {
            "buffer" : 0,
            "byteLength" : 176,
            "byteOffset" : 639480
        },
        {
            "buffer" : 0,
            "byteLength" : 48,
            "byteOffset" : 639656
        },
        {
            "buffer" : 0,
            "byteLength" : 20508,
            "byteOffset" : 639704
        },
        {
            "buffer" : 0,
            "byteLength" : 20508,
            "byteOffset" : 660212
        },
        {
            "buffer" : 0,
            "byteLength" : 13672,
            "byteOffset" : 680720
        },
        {
            "buffer" : 0,
            "byteLength" : 4800,
            "byteOffset" : 694392
        },
        {
            "buffer" : 0,
            "byteLength" : 11868,
            "byteOffset" : 699192
        },
        {
            "buffer" : 0,
            "byteLength" : 11868,
            "byteOffset" : 711060
        },
        {
            "buffer" : 0,
            "byteLength" : 7912,
            "byteOffset" : 722928
        },
        {
            "buffer" : 0,
            "byteLength" : 9264,
            "byteOffset" : 730840
        }
    ],
    "samplers" : [
        {
            "magFilter" : 9729,
            "minFilter" : 9987
        }
    ],
    "buffers" : [
        {
            "byteLength" : 740104,
            "uri" : "tess.bin"
        }
    ]
}
