{
    "asset" : {
        "generator" : "Khronos glTF Blender I/O v1.3.48",
        "version" : "2.0"
    },
    "scene" : 0,
    "scenes" : [
        {
            "name" : "Scene",
            "nodes" : [
                3
            ]
        }
    ],
    "nodes" : [
        {
            "mesh" : 0,
            "name" : "foil_grey",
            "rotation" : [
                0,
                -0.7071068286895752,
                0,
                0.7071067094802856
            ]
        },
        {
            "mesh" : 1,
            "name" : "shiny_panel",
            "rotation" : [
                0,
                -0.7071068286895752,
                0,
                0.7071067094802856
            ]
        },
        {
            "mesh" : 2,
            "name" : "tex_01",
            "rotation" : [
                0,
                -0.7071068286895752,
                0,
                0.7071067094802856
            ]
        },
        {
            "children" : [
                0,
                1,
                2
            ],
            "mesh" : 3,
            "name" : "BUS",
            "scale" : [
                0.9544426202774048,
                0.9544426202774048,
                0.9544426202774048
            ]
        }
    ],
    "materials" : [
        {
            "emissiveFactor" : [
                0,
                0,
                0
            ],
            "name" : "foil_grey",
            "normalTexture" : {
                "index" : 0,
                "texCoord" : 0
            },
            "pbrMetallicRoughness" : {
                "baseColorTexture" : {
                    "index" : 1,
                    "texCoord" : 0
                },
                "metallicFactor" : 1,
                "roughnessFactor" : 0.30000001192092896
            }
        },
        {
            "emissiveFactor" : [
                0,
                0,
                0
            ],
            "name" : "shiny_panel",
            "pbrMetallicRoughness" : {
                "baseColorTexture" : {
                    "index" : 2,
                    "texCoord" : 0
                },
                "metallicFactor" : 0,
                "roughnessFactor" : 0.15000000596046448
            }
        },
        {
            "emissiveFactor" : [
                0,
                0,
                0
            ],
            "name" : "tex_01",
            "pbrMetallicRoughness" : {
                "baseColorTexture" : {
                    "index" : 3,
                    "texCoord" : 0
                },
                "metallicFactor" : 1,
                "roughnessFactor" : 0.30000001192092896
            }
        },
        {
            "emissiveFactor" : [
                0,
                0,
                0
            ],
            "name" : "black_krinkle",
            "normalTexture" : {
                "index" : 4,
                "texCoord" : 0
            },
            "pbrMetallicRoughness" : {
                "baseColorFactor" : [
                    0.01960664987564087,
                    0.01960664987564087,
                    0.01960664987564087,
                    1
                ],
                "metallicFactor" : 0,
                "roughnessFactor" : 0.6000000238418579
            }
        }
    ],
    "meshes" : [
        {
            "name" : "Cube.000",
            "primitives" : [
                {
                    "attributes" : {
                        "POSITION" : 0,
                        "NORMAL" : 1,
                        "TEXCOORD_0" : 2
                    },
                    "indices" : 3,
                    "material" : 0
                }
            ]
        },
        {
            "name" : "Cube.002",
            "primitives" : [
                {
                    "attributes" : {
                        "POSITION" : 4,
                        "NORMAL" : 5,
                        "TEXCOORD_0" : 6
                    },
                    "indices" : 7,
                    "material" : 1
                }
            ]
        },
        {
            "name" : "Cube.004",
            "primitives" : [
                {
                    "attributes" : {
                        "POSITION" : 8,
                        "NORMAL" : 9,
                        "TEXCOORD_0" : 10
                    },
                    "indices" : 11,
                    "material" : 2
                }
            ]
        },
        {
            "name" : "Cylinder.002",
            "primitives" : [
                {
                    "attributes" : {
                        "POSITION" : 12,
                        "NORMAL" : 13,
                        "TEXCOORD_0" : 14
                    },
                    "indices" : 15,
                    "material" : 3
                }
            ]
        }
    ],
    "textures" : [
        {
            "source" : 0
        },
        {
            "source" : 1
        },
        {
            "source" : 2
        },
        {
            "source" : 2
        },
        {
            "source" : 0
        }
    ],
    "images" : [
        {
            "mimeType" : "image/jpeg",
            "name" : "foil_normal",
            "uri" : "foil_normal.jpg"
        },
        {
            "mimeType" : "image/png",
            "name" : "rbsp_foil_grey_albedo",
            "uri" : "rbsp_foil_grey_albedo.png"
        },
        {
            "mimeType" : "image/png",
            "name" : "rbsp_albedo",
            "uri" : "rbsp_albedo.png"
        }
    ],
    "accessors" : [
        {
            "bufferView" : 0,
            "componentType" : 5126,
            "count" : 799,
            "max" : [
                0.8999999761581421,
                0.7313624024391174,
                4.697831630706787
            ],
            "min" : [
                -0.8999998569488525,
                0.27326953411102295,
                -4.563715934753418
            ],
            "type" : "VEC3"
        },
        {
            "bufferView" : 1,
            "componentType" : 5126,
            "count" : 799,
            "type" : "VEC3"
        },
        {
            "bufferView" : 2,
            "componentType" : 5126,
            "count" : 799,
            "type" : "VEC2"
        },
        {
            "bufferView" : 3,
            "componentType" : 5123,
            "count" : 3432,
            "type" : "SCALAR"
        },
        {
            "bufferView" : 4,
            "componentType" : 5126,
            "count" : 36,
            "max" : [
                2.31115460395813,
                0.5981346964836121,
                2.382481813430786
            ],
            "min" : [
                -2.311155080795288,
                0.5981336832046509,
                -2.382481813430786
            ],
            "type" : "VEC3"
        },
        {
            "bufferView" : 5,
            "componentType" : 5126,
            "count" : 36,
            "type" : "VEC3"
        },
        {
            "bufferView" : 6,
            "componentType" : 5126,
            "count" : 36,
            "type" : "VEC2"
        },
        {
            "bufferView" : 7,
            "componentType" : 5123,
            "count" : 84,
            "type" : "SCALAR"
        },
        {
            "bufferView" : 8,
            "componentType" : 5126,
            "count" : 7937,
            "max" : [
                37.80466842651367,
                6.2640061378479,
                37.80464172363281
            ],
            "min" : [
                -37.804649353027344,
                -6.264005184173584,
                -37.804656982421875
            ],
            "type" : "VEC3"
        },
        {
            "bufferView" : 9,
            "componentType" : 5126,
            "count" : 7937,
            "type" : "VEC3"
        },
        {
            "bufferView" : 10,
            "componentType" : 5126,
            "count" : 7937,
            "type" : "VEC2"
        },
        {
            "bufferView" : 11,
            "componentType" : 5123,
            "count" : 21525,
            "type" : "SCALAR"
        },
        {
            "bufferView" : 12,
            "componentType" : 5126,
            "count" : 1174,
            "max" : [
                0.9340325593948364,
                0.5391715168952942,
                0.9340326189994812
            ],
            "min" : [
                -0.9340323805809021,
                -0.6613681316375732,
                -0.9340324401855469
            ],
            "type" : "VEC3"
        },
        {
            "bufferView" : 13,
            "componentType" : 5126,
            "count" : 1174,
            "type" : "VEC3"
        },
        {
            "bufferView" : 14,
            "componentType" : 5126,
            "count" : 1174,
            "type" : "VEC2"
        },
        {
            "bufferView" : 15,
            "componentType" : 5123,
            "count" : 4926,
            "type" : "SCALAR"
        }
    ],
    "bufferViews" : [
        {
            "buffer" : 0,
            "byteLength" : 9588,
            "byteOffset" : 0
        },
        {
            "buffer" : 0,
            "byteLength" : 9588,
            "byteOffset" : 9588
        },
        {
            "buffer" : 0,
            "byteLength" : 6392,
            "byteOffset" : 19176
        },
        {
            "buffer" : 0,
            "byteLength" : 6864,
            "byteOffset" : 25568
        },
        {
            "buffer" : 0,
            "byteLength" : 432,
            "byteOffset" : 32432
        },
        {
            "buffer" : 0,
            "byteLength" : 432,
            "byteOffset" : 32864
        },
        {
            "buffer" : 0,
            "byteLength" : 288,
            "byteOffset" : 33296
        },
        {
            "buffer" : 0,
            "byteLength" : 168,
            "byteOffset" : 33584
        },
        {
            "buffer" : 0,
            "byteLength" : 95244,
            "byteOffset" : 33752
        },
        {
            "buffer" : 0,
            "byteLength" : 95244,
            "byteOffset" : 128996
        },
        {
            "buffer" : 0,
            "byteLength" : 63496,
            "byteOffset" : 224240
        },
        {
            "buffer" : 0,
            "byteLength" : 43050,
            "byteOffset" : 287736
        },
        {
            "buffer" : 0,
            "byteLength" : 14088,
            "byteOffset" : 330788
        },
        {
            "buffer" : 0,
            "byteLength" : 14088,
            "byteOffset" : 344876
        },
        {
            "buffer" : 0,
            "byteLength" : 9392,
            "byteOffset" : 358964
        },
        {
            "buffer" : 0,
            "byteLength" : 9852,
            "byteOffset" : 368356
        }
    ],
    "buffers" : [
        {
            "byteLength" : 378208,
            "uri" : "rbsp.bin"
        }
    ]
}
