{
    "asset" : {
        "generator" : "Khronos glTF Blender I/O v1.8.19",
        "version" : "2.0"
    },
    "scene" : 0,
    "scenes" : [
        {
            "name" : "Scene",
            "nodes" : [
                5
            ]
        }
    ],
    "nodes" : [
        {
            "mesh" : 0,
            "name" : "AO_01",
            "translation" : [
                -0.00990605354309082,
                0.5571366548538208,
                0.004479885101318359
            ]
        },
        {
            "mesh" : 1,
            "name" : "foil_silver",
            "translation" : [
                -0.21837371587753296,
                -0.98006272315979,
                0
            ]
        },
        {
            "mesh" : 2,
            "name" : "shiny_panel",
            "translation" : [
                -0.01639154553413391,
                -1.1388380527496338,
                4.581490516662598
            ]
        },
        {
            "mesh" : 3,
            "name" : "tex_01",
            "translation" : [
                0.028472602367401123,
                0.1664135456085205,
                3.7930378913879395
            ]
        },
        {
            "mesh" : 4,
            "name" : "tex_02",
            "translation" : [
                -0.0382058322429657,
                0.4386559724807739,
                -0.0057637691497802734
            ]
        },
        {
            "children" : [
                0,
                1,
                2,
                3,
                4
            ],
            "mesh" : 5,
            "name" : "foil_gold"
        }
    ],
    "materials" : [
        {
            "name" : "AO_01",
            "pbrMetallicRoughness" : {
                "baseColorTexture" : {
                    "index" : 0
                },
                "metallicFactor" : 0.25,
                "roughnessFactor" : 0.5
            }
        },
        {
            "name" : "foil_silver",
            "normalTexture" : {
                "index" : 1
            },
            "pbrMetallicRoughness" : {
                "baseColorFactor" : [
                    1,
                    0.999999463558197,
                    1,
                    1
                ],
                "roughnessFactor" : 0.30000001192092896
            }
        },
        {
            "name" : "shiny_panel",
            "normalTexture" : {
                "index" : 2,
                "scale" : 0.20000000298023224
            },
            "pbrMetallicRoughness" : {
                "baseColorTexture" : {
                    "index" : 3
                },
                "metallicRoughnessTexture" : {
                    "index" : 4
                }
            }
        },
        {
            "name" : "tex_01",
            "normalTexture" : {
                "index" : 5,
                "scale" : 0.5
            },
            "pbrMetallicRoughness" : {
                "baseColorTexture" : {
                    "index" : 6
                },
                "metallicRoughnessTexture" : {
                    "index" : 7
                }
            }
        },
        {
            "name" : "tex_02",
            "normalTexture" : {
                "index" : 8
            },
            "pbrMetallicRoughness" : {
                "baseColorTexture" : {
                    "index" : 9
                },
                "metallicRoughnessTexture" : {
                    "index" : 10
                }
            }
        },
        {
            "name" : "foil_gold",
            "normalTexture" : {
                "index" : 11
            },
            "pbrMetallicRoughness" : {
                "baseColorFactor" : [
                    0.9999998807907104,
                    0.6583749055862427,
                    0.08228273689746857,
                    1
                ],
                "roughnessFactor" : 0.30000001192092896
            }
        }
    ],
    "meshes" : [
        {
            "name" : "Cylinder.000",
            "primitives" : [
                {
                    "attributes" : {
                        "POSITION" : 0,
                        "NORMAL" : 1,
                        "TANGENT" : 2,
                        "TEXCOORD_0" : 3
                    },
                    "indices" : 4,
                    "material" : 0
                }
            ]
        },
        {
            "name" : "Cube.001",
            "primitives" : [
                {
                    "attributes" : {
                        "POSITION" : 5,
                        "NORMAL" : 6,
                        "TANGENT" : 7,
                        "TEXCOORD_0" : 8
                    },
                    "indices" : 9,
                    "material" : 1
                }
            ]
        },
        {
            "name" : "Cube.002",
            "primitives" : [
                {
                    "attributes" : {
                        "POSITION" : 10,
                        "NORMAL" : 11,
                        "TANGENT" : 12,
                        "TEXCOORD_0" : 13
                    },
                    "indices" : 14,
                    "material" : 2
                }
            ]
        },
        {
            "name" : "Cube.003",
            "primitives" : [
                {
                    "attributes" : {
                        "POSITION" : 15,
                        "NORMAL" : 16,
                        "TANGENT" : 17,
                        "TEXCOORD_0" : 18
                    },
                    "indices" : 19,
                    "material" : 3
                }
            ]
        },
        {
            "name" : "Cube.004",
            "primitives" : [
                {
                    "attributes" : {
                        "POSITION" : 20,
                        "NORMAL" : 21,
                        "TANGENT" : 22,
                        "TEXCOORD_0" : 23
                    },
                    "indices" : 24,
                    "material" : 4
                }
            ]
        },
        {
            "name" : "Cube.000",
            "primitives" : [
                {
                    "attributes" : {
                        "POSITION" : 25,
                        "NORMAL" : 26,
                        "TANGENT" : 27,
                        "TEXCOORD_0" : 28
                    },
                    "indices" : 29,
                    "material" : 5
                }
            ]
        }
    ],
    "textures" : [
        {
            "sampler" : 0,
            "source" : 0
        },
        {
            "sampler" : 0,
            "source" : 1
        },
        {
            "sampler" : 0,
            "source" : 2
        },
        {
            "sampler" : 0,
            "source" : 3
        },
        {
            "sampler" : 0,
            "source" : 4
        },
        {
            "sampler" : 0,
            "source" : 2
        },
        {
            "sampler" : 0,
            "source" : 3
        },
        {
            "sampler" : 0,
            "source" : 4
        },
        {
            "sampler" : 0,
            "source" : 5
        },
        {
            "sampler" : 0,
            "source" : 6
        },
        {
            "sampler" : 0,
            "source" : 7
        },
        {
            "sampler" : 0,
            "source" : 1
        }
    ],
    "images" : [
        {
            "mimeType" : "image/jpeg",
            "name" : "npp_01_ao",
            "uri" : "npp_01_ao.jpg"
        },
        {
            "mimeType" : "image/png",
            "name" : "foil_normal",
            "uri" : "foil_normal.png"
        },
        {
            "mimeType" : "image/png",
            "name" : "npp_tex_01_normal",
            "uri" : "npp_tex_01_normal.png"
        },
        {
            "mimeType" : "image/jpeg",
            "name" : "npp_tex_01_albedo",
            "uri" : "npp_tex_01_albedo.jpg"
        },
        {
            "mimeType" : "image/jpeg",
            "name" : "npp_tex_01_pbr",
            "uri" : "npp_tex_01_pbr.jpg"
        },
        {
            "mimeType" : "image/png",
            "name" : "npp_tex_02_normal",
            "uri" : "npp_tex_02_normal.png"
        },
        {
            "mimeType" : "image/jpeg",
            "name" : "npp_tex_02_albedo",
            "uri" : "npp_tex_02_albedo.jpg"
        },
        {
            "mimeType" : "image/jpeg",
            "name" : "npp_tex_02_pbr",
            "uri" : "npp_tex_02_pbr.jpg"
        }
    ],
    "accessors" : [
        {
            "bufferView" : 0,
            "componentType" : 5126,
            "count" : 832,
            "max" : [
                1.2790684700012207,
                1.4036304950714111,
                0.6590151190757751
            ],
            "min" : [
                -1.2790684700012207,
                -1.4036304950714111,
                -0.6590151190757751
            ],
            "type" : "VEC3"
        },
        {
            "bufferView" : 1,
            "componentType" : 5126,
            "count" : 832,
            "type" : "VEC3"
        },
        {
            "bufferView" : 2,
            "componentType" : 5126,
            "count" : 832,
            "type" : "VEC4"
        },
        {
            "bufferView" : 3,
            "componentType" : 5126,
            "count" : 832,
            "type" : "VEC2"
        },
        {
            "bufferView" : 4,
            "componentType" : 5123,
            "count" : 1716,
            "type" : "SCALAR"
        },
        {
            "bufferView" : 5,
            "componentType" : 5126,
            "count" : 275,
            "max" : [
                0.8805764317512512,
                0.9292854070663452,
                0.6748518347740173
            ],
            "min" : [
                -0.8805764317512512,
                -0.9292854070663452,
                -0.6748518347740173
            ],
            "type" : "VEC3"
        },
        {
            "bufferView" : 6,
            "componentType" : 5126,
            "count" : 275,
            "type" : "VEC3"
        },
        {
            "bufferView" : 7,
            "componentType" : 5126,
            "count" : 275,
            "type" : "VEC4"
        },
        {
            "bufferView" : 8,
            "componentType" : 5126,
            "count" : 275,
            "type" : "VEC2"
        },
        {
            "bufferView" : 9,
            "componentType" : 5123,
            "count" : 1224,
            "type" : "SCALAR"
        },
        {
            "bufferView" : 10,
            "componentType" : 5126,
            "count" : 18,
            "max" : [
                0.9093040227890015,
                1.430511474609375e-06,
                3.6909666061401367
            ],
            "min" : [
                -0.9093040227890015,
                -1.5497207641601562e-06,
                -3.690967082977295
            ],
            "type" : "VEC3"
        },
        {
            "bufferView" : 11,
            "componentType" : 5126,
            "count" : 18,
            "type" : "VEC3"
        },
        {
            "bufferView" : 12,
            "componentType" : 5126,
            "count" : 18,
            "type" : "VEC4"
        },
        {
            "bufferView" : 13,
            "componentType" : 5126,
            "count" : 18,
            "type" : "VEC2"
        },
        {
            "bufferView" : 14,
            "componentType" : 5123,
            "count" : 18,
            "type" : "SCALAR"
        },
        {
            "bufferView" : 15,
            "componentType" : 5126,
            "count" : 2699,
            "max" : [
                1.0955157279968262,
                1.4745787382125854,
                4.4794182777404785
            ],
            "min" : [
                -1.0955157279968262,
                -1.4745787382125854,
                -4.47941780090332
            ],
            "type" : "VEC3"
        },
        {
            "bufferView" : 16,
            "componentType" : 5126,
            "count" : 2699,
            "type" : "VEC3"
        },
        {
            "bufferView" : 17,
            "componentType" : 5126,
            "count" : 2699,
            "type" : "VEC4"
        },
        {
            "bufferView" : 18,
            "componentType" : 5126,
            "count" : 2699,
            "type" : "VEC2"
        },
        {
            "bufferView" : 19,
            "componentType" : 5123,
            "count" : 4695,
            "type" : "SCALAR"
        },
        {
            "bufferView" : 20,
            "componentType" : 5126,
            "count" : 190,
            "max" : [
                1.0125634670257568,
                1.8352590799331665,
                0.6806157231330872
            ],
            "min" : [
                -1.0125634670257568,
                -1.8352590799331665,
                -0.6806157231330872
            ],
            "type" : "VEC3"
        },
        {
            "bufferView" : 21,
            "componentType" : 5126,
            "count" : 190,
            "type" : "VEC3"
        },
        {
            "bufferView" : 22,
            "componentType" : 5126,
            "count" : 190,
            "type" : "VEC4"
        },
        {
            "bufferView" : 23,
            "componentType" : 5126,
            "count" : 190,
            "type" : "VEC2"
        },
        {
            "bufferView" : 24,
            "componentType" : 5123,
            "count" : 198,
            "type" : "SCALAR"
        },
        {
            "bufferView" : 25,
            "componentType" : 5126,
            "count" : 2984,
            "max" : [
                1.2762211561203003,
                2.275688886642456,
                0.9160186052322388
            ],
            "min" : [
                -1.1302826404571533,
                -1.683984637260437,
                -0.6776160001754761
            ],
            "type" : "VEC3"
        },
        {
            "bufferView" : 26,
            "componentType" : 5126,
            "count" : 2984,
            "type" : "VEC3"
        },
        {
            "bufferView" : 27,
            "componentType" : 5126,
            "count" : 2984,
            "type" : "VEC4"
        },
        {
            "bufferView" : 28,
            "componentType" : 5126,
            "count" : 2984,
            "type" : "VEC2"
        },
        {
            "bufferView" : 29,
            "componentType" : 5123,
            "count" : 12462,
            "type" : "SCALAR"
        }
    ],
    "bufferViews" : [
        {
            "buffer" : 0,
            "byteLength" : 9984,
            "byteOffset" : 0
        },
        {
            "buffer" : 0,
            "byteLength" : 9984,
            "byteOffset" : 9984
        },
        {
            "buffer" : 0,
            "byteLength" : 13312,
            "byteOffset" : 19968
        },
        {
            "buffer" : 0,
            "byteLength" : 6656,
            "byteOffset" : 33280
        },
        {
            "buffer" : 0,
            "byteLength" : 3432,
            "byteOffset" : 39936
        },
        {
            "buffer" : 0,
            "byteLength" : 3300,
            "byteOffset" : 43368
        },
        {
            "buffer" : 0,
            "byteLength" : 3300,
            "byteOffset" : 46668
        },
        {
            "buffer" : 0,
            "byteLength" : 4400,
            "byteOffset" : 49968
        },
        {
            "buffer" : 0,
            "byteLength" : 2200,
            "byteOffset" : 54368
        },
        {
            "buffer" : 0,
            "byteLength" : 2448,
            "byteOffset" : 56568
        },
        {
            "buffer" : 0,
            "byteLength" : 216,
            "byteOffset" : 59016
        },
        {
            "buffer" : 0,
            "byteLength" : 216,
            "byteOffset" : 59232
        },
        {
            "buffer" : 0,
            "byteLength" : 288,
            "byteOffset" : 59448
        },
        {
            "buffer" : 0,
            "byteLength" : 144,
            "byteOffset" : 59736
        },
        {
            "buffer" : 0,
            "byteLength" : 36,
            "byteOffset" : 59880
        },
        {
            "buffer" : 0,
            "byteLength" : 32388,
            "byteOffset" : 59916
        },
        {
            "buffer" : 0,
            "byteLength" : 32388,
            "byteOffset" : 92304
        },
        {
            "buffer" : 0,
            "byteLength" : 43184,
            "byteOffset" : 124692
        },
        {
            "buffer" : 0,
            "byteLength" : 21592,
            "byteOffset" : 167876
        },
        {
            "buffer" : 0,
            "byteLength" : 9390,
            "byteOffset" : 189468
        },
        {
            "buffer" : 0,
            "byteLength" : 2280,
            "byteOffset" : 198860
        },
        {
            "buffer" : 0,
            "byteLength" : 2280,
            "byteOffset" : 201140
        },
        {
            "buffer" : 0,
            "byteLength" : 3040,
            "byteOffset" : 203420
        },
        {
            "buffer" : 0,
            "byteLength" : 1520,
            "byteOffset" : 206460
        },
        {
            "buffer" : 0,
            "byteLength" : 396,
            "byteOffset" : 207980
        },
        {
            "buffer" : 0,
            "byteLength" : 35808,
            "byteOffset" : 208376
        },
        {
            "buffer" : 0,
            "byteLength" : 35808,
            "byteOffset" : 244184
        },
        {
            "buffer" : 0,
            "byteLength" : 47744,
            "byteOffset" : 279992
        },
        {
            "buffer" : 0,
            "byteLength" : 23872,
            "byteOffset" : 327736
        },
        {
            "buffer" : 0,
            "byteLength" : 24924,
            "byteOffset" : 351608
        }
    ],
    "samplers" : [
        {
            "magFilter" : 9729,
            "minFilter" : 9987
        }
    ],
    "buffers" : [
        {
            "byteLength" : 376532,
            "uri" : "npp.bin"
        }
    ]
}
