{
    "asset" : {
        "generator" : "Khronos glTF Blender I/O v1.5.17",
        "version" : "2.0"
    },
    "scene" : 0,
    "scenes" : [
        {
            "name" : "Scene",
            "nodes" : [
                3
            ]
        }
    ],
    "nodes" : [
        {
            "mesh" : 0,
            "name" : "AO_masts",
            "rotation" : [
                0.23520570993423462,
                -0.6622865200042725,
                0.21368418633937836,
                0.6785233616828918
            ],
            "scale" : [
                15.355666160583496,
                16.131492614746094,
                15.801246643066406
            ]
        },
        {
            "mesh" : 1,
            "name" : "shiny_panel",
            "rotation" : [
                0,
                -0.5735763907432556,
                0,
                0.8191520571708679
            ],
            "scale" : [
                5.359805107116699,
                5.7788472175598145,
                5.359805107116699
            ]
        },
        {
            "mesh" : 2,
            "name" : "tex_WIND",
            "rotation" : [
                0,
                -0.5735763907432556,
                0,
                0.8191520571708679
            ],
            "scale" : [
                5.359805107116699,
                5.7788472175598145,
                5.359805107116699
            ]
        },
        {
            "children" : [
                0,
                1,
                2
            ],
            "mesh" : 3,
            "name" : "BUS_foil_gold",
            "scale" : [
                0.03155677765607834,
                0.029268497601151466,
                0.03155677765607834
            ]
        }
    ],
    "materials" : [
        {
            "name" : "AO_masts",
            "pbrMetallicRoughness" : {
                "baseColorTexture" : {
                    "index" : 0
                },
                "metallicFactor" : 0.5,
                "roughnessFactor" : 0.30000001192092896
            }
        },
        {
            "name" : "shiny_panel",
            "normalTexture" : {
                "index" : 1
            },
            "pbrMetallicRoughness" : {
                "baseColorTexture" : {
                    "index" : 2
                },
                "metallicRoughnessTexture" : {
                    "index" : 3
                }
            }
        },
        {
            "name" : "tex_WIND",
            "normalTexture" : {
                "index" : 4
            },
            "pbrMetallicRoughness" : {
                "baseColorTexture" : {
                    "index" : 5
                },
                "metallicRoughnessTexture" : {
                    "index" : 6
                }
            }
        },
        {
            "name" : "foil_gold",
            "normalTexture" : {
                "index" : 7
            },
            "pbrMetallicRoughness" : {
                "baseColorFactor" : [
                    1,
                    0.6583749651908875,
                    0.08228272199630737,
                    1
                ],
                "roughnessFactor" : 0.30000001192092896
            }
        }
    ],
    "meshes" : [
        {
            "name" : "BODY.001",
            "primitives" : [
                {
                    "attributes" : {
                        "POSITION" : 0,
                        "NORMAL" : 1,
                        "TEXCOORD_0" : 2
                    },
                    "indices" : 3,
                    "material" : 0
                }
            ]
        },
        {
            "name" : "Cylinder.018",
            "primitives" : [
                {
                    "attributes" : {
                        "POSITION" : 4,
                        "NORMAL" : 5,
                        "TEXCOORD_0" : 6
                    },
                    "indices" : 7,
                    "material" : 1
                }
            ]
        },
        {
            "name" : "Cylinder.000",
            "primitives" : [
                {
                    "attributes" : {
                        "POSITION" : 8,
                        "NORMAL" : 9,
                        "TEXCOORD_0" : 10
                    },
                    "indices" : 11,
                    "material" : 2
                }
            ]
        },
        {
            "name" : "Giotto.005",
            "primitives" : [
                {
                    "attributes" : {
                        "POSITION" : 12,
                        "NORMAL" : 13,
                        "TEXCOORD_0" : 14
                    },
                    "indices" : 15,
                    "material" : 3
                }
            ]
        }
    ],
    "textures" : [
        {
            "sampler" : 0,
            "source" : 0
        },
        {
            "sampler" : 0,
            "source" : 1
        },
        {
            "sampler" : 0,
            "source" : 2
        },
        {
            "sampler" : 0,
            "source" : 3
        },
        {
            "sampler" : 0,
            "source" : 1
        },
        {
            "sampler" : 0,
            "source" : 2
        },
        {
            "sampler" : 0,
            "source" : 3
        },
        {
            "sampler" : 0,
            "source" : 4
        }
    ],
    "images" : [
        {
            "mimeType" : "image/png",
            "name" : "wind_masts_ao",
            "uri" : "wind_masts_ao.png"
        },
        {
            "mimeType" : "image/png",
            "name" : "wind_tex_01_normal",
            "uri" : "wind_tex_01_normal.png"
        },
        {
            "mimeType" : "image/jpeg",
            "name" : "wind_tex_01_albedo",
            "uri" : "wind_tex_01_albedo.jpg"
        },
        {
            "mimeType" : "image/jpeg",
            "name" : "wind_tex_01_pbr",
            "uri" : "wind_tex_01_pbr.jpg"
        },
        {
            "mimeType" : "image/png",
            "name" : "foil_normal.png",
            "uri" : "foil_normal_png.png"
        }
    ],
    "accessors" : [
        {
            "bufferView" : 0,
            "componentType" : 5126,
            "count" : 12290,
            "max" : [
                0.1743750423192978,
                15.63278865814209,
                21.289058685302734
            ],
            "min" : [
                -0.17437516152858734,
                -16.24020004272461,
                -20.831157684326172
            ],
            "type" : "VEC3"
        },
        {
            "bufferView" : 1,
            "componentType" : 5126,
            "count" : 12290,
            "type" : "VEC3"
        },
        {
            "bufferView" : 2,
            "componentType" : 5126,
            "count" : 12290,
            "type" : "VEC2"
        },
        {
            "bufferView" : 3,
            "componentType" : 5123,
            "count" : 21150,
            "type" : "SCALAR"
        },
        {
            "bufferView" : 4,
            "componentType" : 5126,
            "count" : 272,
            "max" : [
                7.088027477264404,
                5.321092128753662,
                7.088028907775879
            ],
            "min" : [
                -7.088029384613037,
                -5.321093559265137,
                -7.088028430938721
            ],
            "type" : "VEC3"
        },
        {
            "bufferView" : 5,
            "componentType" : 5126,
            "count" : 272,
            "type" : "VEC3"
        },
        {
            "bufferView" : 6,
            "componentType" : 5126,
            "count" : 272,
            "type" : "VEC2"
        },
        {
            "bufferView" : 7,
            "componentType" : 5123,
            "count" : 828,
            "type" : "SCALAR"
        },
        {
            "bufferView" : 8,
            "componentType" : 5126,
            "count" : 1874,
            "max" : [
                269.7632141113281,
                35.94694137573242,
                125.86166381835938
            ],
            "min" : [
                -269.7632751464844,
                -35.94694137573242,
                -125.8616714477539
            ],
            "type" : "VEC3"
        },
        {
            "bufferView" : 9,
            "componentType" : 5126,
            "count" : 1874,
            "type" : "VEC3"
        },
        {
            "bufferView" : 10,
            "componentType" : 5126,
            "count" : 1874,
            "type" : "VEC2"
        },
        {
            "bufferView" : 11,
            "componentType" : 5123,
            "count" : 5370,
            "type" : "SCALAR"
        },
        {
            "bufferView" : 12,
            "componentType" : 5126,
            "count" : 2639,
            "max" : [
                38.026641845703125,
                44.39227294921875,
                54.67302703857422
            ],
            "min" : [
                -414.7121887207031,
                -94.4758529663086,
                -54.67302703857422
            ],
            "type" : "VEC3"
        },
        {
            "bufferView" : 13,
            "componentType" : 5126,
            "count" : 2639,
            "type" : "VEC3"
        },
        {
            "bufferView" : 14,
            "componentType" : 5126,
            "count" : 2639,
            "type" : "VEC2"
        },
        {
            "bufferView" : 15,
            "componentType" : 5123,
            "count" : 10002,
            "type" : "SCALAR"
        }
    ],
    "bufferViews" : [
        {
            "buffer" : 0,
            "byteLength" : 147480,
            "byteOffset" : 0
        },
        {
            "buffer" : 0,
            "byteLength" : 147480,
            "byteOffset" : 147480
        },
        {
            "buffer" : 0,
            "byteLength" : 98320,
            "byteOffset" : 294960
        },
        {
            "buffer" : 0,
            "byteLength" : 42300,
            "byteOffset" : 393280
        },
        {
            "buffer" : 0,
            "byteLength" : 3264,
            "byteOffset" : 435580
        },
        {
            "buffer" : 0,
            "byteLength" : 3264,
            "byteOffset" : 438844
        },
        {
            "buffer" : 0,
            "byteLength" : 2176,
            "byteOffset" : 442108
        },
        {
            "buffer" : 0,
            "byteLength" : 1656,
            "byteOffset" : 444284
        },
        {
            "buffer" : 0,
            "byteLength" : 22488,
            "byteOffset" : 445940
        },
        {
            "buffer" : 0,
            "byteLength" : 22488,
            "byteOffset" : 468428
        },
        {
            "buffer" : 0,
            "byteLength" : 14992,
            "byteOffset" : 490916
        },
        {
            "buffer" : 0,
            "byteLength" : 10740,
            "byteOffset" : 505908
        },
        {
            "buffer" : 0,
            "byteLength" : 31668,
            "byteOffset" : 516648
        },
        {
            "buffer" : 0,
            "byteLength" : 31668,
            "byteOffset" : 548316
        },
        {
            "buffer" : 0,
            "byteLength" : 21112,
            "byteOffset" : 579984
        },
        {
            "buffer" : 0,
            "byteLength" : 20004,
            "byteOffset" : 601096
        }
    ],
    "samplers" : [
        {
            "magFilter" : 9729,
            "minFilter" : 9987
        }
    ],
    "buffers" : [
        {
            "byteLength" : 621100,
            "uri" : "wind.bin"
        }
    ]
}
