{
    "asset" : {
        "generator" : "Khronos glTF Blender I/O v1.3.48",
        "version" : "2.0"
    },
    "scene" : 0,
    "scenes" : [
        {
            "name" : "Scene",
            "nodes" : [
                0
            ]
        }
    ],
    "nodes" : [
        {
            "mesh" : 0,
            "name" : "IPEX.001"
        }
    ],
    "materials" : [
        {
            "emissiveFactor" : [
                0,
                0,
                0
            ],
            "name" : "tex_01",
            "normalTexture" : {
                "index" : 0,
                "scale" : 2,
                "texCoord" : 0
            },
            "pbrMetallicRoughness" : {
                "baseColorTexture" : {
                    "index" : 1,
                    "texCoord" : 0
                },
                "metallicRoughnessTexture" : {
                    "index" : 2,
                    "texCoord" : 0
                }
            }
        }
    ],
    "meshes" : [
        {
            "name" : "Cube.001",
            "primitives" : [
                {
                    "attributes" : {
                        "POSITION" : 0,
                        "NORMAL" : 1,
                        "TEXCOORD_0" : 2
                    },
                    "indices" : 3,
                    "material" : 0
                }
            ]
        }
    ],
    "textures" : [
        {
            "source" : 0
        },
        {
            "source" : 1
        },
        {
            "source" : 2
        }
    ],
    "images" : [
        {
            "mimeType" : "image/png",
            "name" : "IPEX_normal",
            "uri" : "ipex_normal.png"
        },
        {
            "mimeType" : "image/png",
            "name" : "ipex_albedo",
            "uri" : "ipex_albedo.png"
        },
        {
            "mimeType" : "image/jpeg",
            "name" : "IPEX_pbr",
            "uri" : "ipex_pbr.jpg"
        }
    ],
    "accessors" : [
        {
            "bufferView" : 0,
            "componentType" : 5126,
            "count" : 212,
            "max" : [
                0.050000034272670746,
                0.2315264195203781,
                0.050000034272670746
            ],
            "min" : [
                -0.050000034272670746,
                -0.056750036776065826,
                -0.050000034272670746
            ],
            "type" : "VEC3"
        },
        {
            "bufferView" : 1,
            "componentType" : 5126,
            "count" : 212,
            "type" : "VEC3"
        },
        {
            "bufferView" : 2,
            "componentType" : 5126,
            "count" : 212,
            "type" : "VEC2"
        },
        {
            "bufferView" : 3,
            "componentType" : 5123,
            "count" : 402,
            "type" : "SCALAR"
        }
    ],
    "bufferViews" : [
        {
            "buffer" : 0,
            "byteLength" : 2544,
            "byteOffset" : 0
        },
        {
            "buffer" : 0,
            "byteLength" : 2544,
            "byteOffset" : 2544
        },
        {
            "buffer" : 0,
            "byteLength" : 1696,
            "byteOffset" : 5088
        },
        {
            "buffer" : 0,
            "byteLength" : 804,
            "byteOffset" : 6784
        }
    ],
    "buffers" : [
        {
            "byteLength" : 7588,
            "uri" : "ipex.bin"
        }
    ]
}
