{
    "asset" : {
        "generator" : "Khronos glTF Blender I/O v1.8.19",
        "version" : "2.0"
    },
    "scene" : 0,
    "scenes" : [
        {
            "name" : "Scene",
            "nodes" : [
                6
            ]
        }
    ],
    "nodes" : [
        {
            "mesh" : 0,
            "name" : "AO_dark"
        },
        {
            "mesh" : 1,
            "name" : "AO_dish",
            "translation" : [
                1.5099058151245117,
                -0.49878302216529846,
                -0.3176255226135254
            ]
        },
        {
            "mesh" : 2,
            "name" : "krinkle"
        },
        {
            "mesh" : 3,
            "name" : "shiny_panel"
        },
        {
            "mesh" : 4,
            "name" : "tex_01"
        },
        {
            "mesh" : 5,
            "name" : "tex_black"
        },
        {
            "children" : [
                0,
                1,
                2,
                3,
                4,
                5
            ],
            "mesh" : 6,
            "name" : "StereoB"
        }
    ],
    "materials" : [
        {
            "name" : "AO_dark",
            "pbrMetallicRoughness" : {
                "baseColorTexture" : {
                    "index" : 0
                },
                "metallicFactor" : 0,
                "roughnessFactor" : 0.5
            }
        },
        {
            "name" : "AO_dish",
            "pbrMetallicRoughness" : {
                "baseColorTexture" : {
                    "index" : 1
                },
                "metallicFactor" : 0,
                "roughnessFactor" : 0.5
            }
        },
        {
            "name" : "black_krinkle",
            "normalTexture" : {
                "index" : 2
            },
            "pbrMetallicRoughness" : {
                "baseColorFactor" : [
                    0.01960664987564087,
                    0.01960664987564087,
                    0.01960664987564087,
                    1
                ],
                "metallicFactor" : 0,
                "roughnessFactor" : 0.6000000238418579
            }
        },
        {
            "name" : "shiny_panel",
            "normalTexture" : {
                "index" : 3
            },
            "pbrMetallicRoughness" : {
                "baseColorTexture" : {
                    "index" : 4
                },
                "metallicRoughnessTexture" : {
                    "index" : 5
                }
            }
        },
        {
            "name" : "tex_01",
            "normalTexture" : {
                "index" : 6
            },
            "pbrMetallicRoughness" : {
                "baseColorTexture" : {
                    "index" : 7
                },
                "metallicRoughnessTexture" : {
                    "index" : 8
                }
            }
        },
        {
            "name" : "tex_black",
            "pbrMetallicRoughness" : {
                "baseColorFactor" : [
                    0.01161225326359272,
                    0.0116122430190444,
                    0.011612246744334698,
                    1
                ],
                "roughnessFactor" : 0.3499999940395355
            }
        },
        {
            "name" : "foil_silver",
            "normalTexture" : {
                "index" : 9
            },
            "pbrMetallicRoughness" : {
                "baseColorFactor" : [
                    1,
                    0.999999463558197,
                    1,
                    1
                ],
                "roughnessFactor" : 0.30000001192092896
            }
        }
    ],
    "meshes" : [
        {
            "name" : "Cube.009",
            "primitives" : [
                {
                    "attributes" : {
                        "POSITION" : 0,
                        "NORMAL" : 1,
                        "TANGENT" : 2,
                        "TEXCOORD_0" : 3
                    },
                    "indices" : 4,
                    "material" : 0
                }
            ]
        },
        {
            "name" : "Ulysses.000",
            "primitives" : [
                {
                    "attributes" : {
                        "POSITION" : 5,
                        "NORMAL" : 6,
                        "TANGENT" : 7,
                        "TEXCOORD_0" : 8
                    },
                    "indices" : 9,
                    "material" : 1
                }
            ]
        },
        {
            "name" : "Cube.012",
            "primitives" : [
                {
                    "attributes" : {
                        "POSITION" : 10,
                        "NORMAL" : 11,
                        "TANGENT" : 12,
                        "TEXCOORD_0" : 13
                    },
                    "indices" : 14,
                    "material" : 2
                }
            ]
        },
        {
            "name" : "Plane.003",
            "primitives" : [
                {
                    "attributes" : {
                        "POSITION" : 15,
                        "NORMAL" : 16,
                        "TANGENT" : 17,
                        "TEXCOORD_0" : 18
                    },
                    "indices" : 19,
                    "material" : 3
                }
            ]
        },
        {
            "name" : "Plane",
            "primitives" : [
                {
                    "attributes" : {
                        "POSITION" : 20,
                        "NORMAL" : 21,
                        "TANGENT" : 22,
                        "TEXCOORD_0" : 23
                    },
                    "indices" : 24,
                    "material" : 4
                }
            ]
        },
        {
            "name" : "Cube.011",
            "primitives" : [
                {
                    "attributes" : {
                        "POSITION" : 25,
                        "NORMAL" : 26,
                        "TANGENT" : 27,
                        "TEXCOORD_0" : 28
                    },
                    "indices" : 29,
                    "material" : 5
                }
            ]
        },
        {
            "name" : "Cube.002",
            "primitives" : [
                {
                    "attributes" : {
                        "POSITION" : 30,
                        "NORMAL" : 31,
                        "TANGENT" : 32,
                        "TEXCOORD_0" : 33
                    },
                    "indices" : 34,
                    "material" : 6
                }
            ]
        }
    ],
    "textures" : [
        {
            "sampler" : 0,
            "source" : 0
        },
        {
            "sampler" : 0,
            "source" : 1
        },
        {
            "sampler" : 0,
            "source" : 2
        },
        {
            "sampler" : 0,
            "source" : 3
        },
        {
            "sampler" : 0,
            "source" : 4
        },
        {
            "sampler" : 0,
            "source" : 5
        },
        {
            "sampler" : 0,
            "source" : 3
        },
        {
            "sampler" : 0,
            "source" : 4
        },
        {
            "sampler" : 0,
            "source" : 5
        },
        {
            "sampler" : 0,
            "source" : 2
        }
    ],
    "images" : [
        {
            "mimeType" : "image/jpeg",
            "name" : "dark_ao",
            "uri" : "dark_ao.jpg"
        },
        {
            "mimeType" : "image/jpeg",
            "name" : "dish_ao",
            "uri" : "dish_ao.jpg"
        },
        {
            "mimeType" : "image/png",
            "name" : "foil_normal",
            "uri" : "foil_normal.png"
        },
        {
            "mimeType" : "image/png",
            "name" : "tex_01_normal",
            "uri" : "tex_01_normal.png"
        },
        {
            "mimeType" : "image/jpeg",
            "name" : "tex_01_albedo",
            "uri" : "tex_01_albedo.jpg"
        },
        {
            "mimeType" : "image/jpeg",
            "name" : "tex_01_pbr",
            "uri" : "tex_01_pbr.jpg"
        }
    ],
    "accessors" : [
        {
            "bufferView" : 0,
            "componentType" : 5126,
            "count" : 961,
            "max" : [
                1.8692915439605713,
                0.25134629011154175,
                -0.23797734081745148
            ],
            "min" : [
                -0.5602849125862122,
                -0.872525155544281,
                -1.1960127353668213
            ],
            "type" : "VEC3"
        },
        {
            "bufferView" : 1,
            "componentType" : 5126,
            "count" : 961,
            "type" : "VEC3"
        },
        {
            "bufferView" : 2,
            "componentType" : 5126,
            "count" : 961,
            "type" : "VEC4"
        },
        {
            "bufferView" : 3,
            "componentType" : 5126,
            "count" : 961,
            "type" : "VEC2"
        },
        {
            "bufferView" : 4,
            "componentType" : 5123,
            "count" : 1815,
            "type" : "SCALAR"
        },
        {
            "bufferView" : 5,
            "componentType" : 5126,
            "count" : 348,
            "max" : [
                0.5465047359466553,
                0.5626856684684753,
                0.07234552502632141
            ],
            "min" : [
                -0.5770096778869629,
                -0.5609464049339294,
                -0.11756770312786102
            ],
            "type" : "VEC3"
        },
        {
            "bufferView" : 6,
            "componentType" : 5126,
            "count" : 348,
            "type" : "VEC3"
        },
        {
            "bufferView" : 7,
            "componentType" : 5126,
            "count" : 348,
            "type" : "VEC4"
        },
        {
            "bufferView" : 8,
            "componentType" : 5126,
            "count" : 348,
            "type" : "VEC2"
        },
        {
            "bufferView" : 9,
            "componentType" : 5123,
            "count" : 1701,
            "type" : "SCALAR"
        },
        {
            "bufferView" : 10,
            "componentType" : 5126,
            "count" : 40,
            "max" : [
                0.5415192246437073,
                0.7400528192520142,
                0.9690192341804504
            ],
            "min" : [
                -0.3466816246509552,
                -0.7341087460517883,
                -1.041927456855774
            ],
            "type" : "VEC3"
        },
        {
            "bufferView" : 11,
            "componentType" : 5126,
            "count" : 40,
            "type" : "VEC3"
        },
        {
            "bufferView" : 12,
            "componentType" : 5126,
            "count" : 40,
            "type" : "VEC4"
        },
        {
            "bufferView" : 13,
            "componentType" : 5126,
            "count" : 40,
            "type" : "VEC2"
        },
        {
            "bufferView" : 14,
            "componentType" : 5123,
            "count" : 96,
            "type" : "SCALAR"
        },
        {
            "bufferView" : 15,
            "componentType" : 5126,
            "count" : 16,
            "max" : [
                3.234994888305664,
                0.6120291948318481,
                1.015000820159912
            ],
            "min" : [
                -3.2349963188171387,
                0.6120282411575317,
                -0.3538951575756073
            ],
            "type" : "VEC3"
        },
        {
            "bufferView" : 16,
            "componentType" : 5126,
            "count" : 16,
            "type" : "VEC3"
        },
        {
            "bufferView" : 17,
            "componentType" : 5126,
            "count" : 16,
            "type" : "VEC4"
        },
        {
            "bufferView" : 18,
            "componentType" : 5126,
            "count" : 16,
            "type" : "VEC2"
        },
        {
            "bufferView" : 19,
            "componentType" : 5123,
            "count" : 24,
            "type" : "SCALAR"
        },
        {
            "bufferView" : 20,
            "componentType" : 5126,
            "count" : 9547,
            "max" : [
                4.353336334228516,
                0.8297290205955505,
                4.06990385055542
            ],
            "min" : [
                -3.6669423580169678,
                -4.192831993103027,
                -3.0423169136047363
            ],
            "type" : "VEC3"
        },
        {
            "bufferView" : 21,
            "componentType" : 5126,
            "count" : 9547,
            "type" : "VEC3"
        },
        {
            "bufferView" : 22,
            "componentType" : 5126,
            "count" : 9547,
            "type" : "VEC4"
        },
        {
            "bufferView" : 23,
            "componentType" : 5126,
            "count" : 9547,
            "type" : "VEC2"
        },
        {
            "bufferView" : 24,
            "componentType" : 5123,
            "count" : 20520,
            "type" : "SCALAR"
        },
        {
            "bufferView" : 25,
            "componentType" : 5126,
            "count" : 1108,
            "max" : [
                1.7270704507827759,
                0.7567662000656128,
                1.1446236371994019
            ],
            "min" : [
                -0.7046271562576294,
                -4.936522006988525,
                -1.174354910850525
            ],
            "type" : "VEC3"
        },
        {
            "bufferView" : 26,
            "componentType" : 5126,
            "count" : 1108,
            "type" : "VEC3"
        },
        {
            "bufferView" : 27,
            "componentType" : 5126,
            "count" : 1108,
            "type" : "VEC4"
        },
        {
            "bufferView" : 28,
            "componentType" : 5126,
            "count" : 1108,
            "type" : "VEC2"
        },
        {
            "bufferView" : 29,
            "componentType" : 5123,
            "count" : 2412,
            "type" : "SCALAR"
        },
        {
            "bufferView" : 30,
            "componentType" : 5126,
            "count" : 4073,
            "max" : [
                2.056410312652588,
                0.840862512588501,
                1.2582166194915771
            ],
            "min" : [
                -0.8243182897567749,
                -5.046800136566162,
                -1.232272982597351
            ],
            "type" : "VEC3"
        },
        {
            "bufferView" : 31,
            "componentType" : 5126,
            "count" : 4073,
            "type" : "VEC3"
        },
        {
            "bufferView" : 32,
            "componentType" : 5126,
            "count" : 4073,
            "type" : "VEC4"
        },
        {
            "bufferView" : 33,
            "componentType" : 5126,
            "count" : 4073,
            "type" : "VEC2"
        },
        {
            "bufferView" : 34,
            "componentType" : 5123,
            "count" : 14844,
            "type" : "SCALAR"
        }
    ],
    "bufferViews" : [
        {
            "buffer" : 0,
            "byteLength" : 11532,
            "byteOffset" : 0
        },
        {
            "buffer" : 0,
            "byteLength" : 11532,
            "byteOffset" : 11532
        },
        {
            "buffer" : 0,
            "byteLength" : 15376,
            "byteOffset" : 23064
        },
        {
            "buffer" : 0,
            "byteLength" : 7688,
            "byteOffset" : 38440
        },
        {
            "buffer" : 0,
            "byteLength" : 3630,
            "byteOffset" : 46128
        },
        {
            "buffer" : 0,
            "byteLength" : 4176,
            "byteOffset" : 49760
        },
        {
            "buffer" : 0,
            "byteLength" : 4176,
            "byteOffset" : 53936
        },
        {
            "buffer" : 0,
            "byteLength" : 5568,
            "byteOffset" : 58112
        },
        {
            "buffer" : 0,
            "byteLength" : 2784,
            "byteOffset" : 63680
        },
        {
            "buffer" : 0,
            "byteLength" : 3402,
            "byteOffset" : 66464
        },
        {
            "buffer" : 0,
            "byteLength" : 480,
            "byteOffset" : 69868
        },
        {
            "buffer" : 0,
            "byteLength" : 480,
            "byteOffset" : 70348
        },
        {
            "buffer" : 0,
            "byteLength" : 640,
            "byteOffset" : 70828
        },
        {
            "buffer" : 0,
            "byteLength" : 320,
            "byteOffset" : 71468
        },
        {
            "buffer" : 0,
            "byteLength" : 192,
            "byteOffset" : 71788
        },
        {
            "buffer" : 0,
            "byteLength" : 192,
            "byteOffset" : 71980
        },
        {
            "buffer" : 0,
            "byteLength" : 192,
            "byteOffset" : 72172
        },
        {
            "buffer" : 0,
            "byteLength" : 256,
            "byteOffset" : 72364
        },
        {
            "buffer" : 0,
            "byteLength" : 128,
            "byteOffset" : 72620
        },
        {
            "buffer" : 0,
            "byteLength" : 48,
            "byteOffset" : 72748
        },
        {
            "buffer" : 0,
            "byteLength" : 114564,
            "byteOffset" : 72796
        },
        {
            "buffer" : 0,
            "byteLength" : 114564,
            "byteOffset" : 187360
        },
        {
            "buffer" : 0,
            "byteLength" : 152752,
            "byteOffset" : 301924
        },
        {
            "buffer" : 0,
            "byteLength" : 76376,
            "byteOffset" : 454676
        },
        {
            "buffer" : 0,
            "byteLength" : 41040,
            "byteOffset" : 531052
        },
        {
            "buffer" : 0,
            "byteLength" : 13296,
            "byteOffset" : 572092
        },
        {
            "buffer" : 0,
            "byteLength" : 13296,
            "byteOffset" : 585388
        },
        {
            "buffer" : 0,
            "byteLength" : 17728,
            "byteOffset" : 598684
        },
        {
            "buffer" : 0,
            "byteLength" : 8864,
            "byteOffset" : 616412
        },
        {
            "buffer" : 0,
            "byteLength" : 4824,
            "byteOffset" : 625276
        },
        {
            "buffer" : 0,
            "byteLength" : 48876,
            "byteOffset" : 630100
        },
        {
            "buffer" : 0,
            "byteLength" : 48876,
            "byteOffset" : 678976
        },
        {
            "buffer" : 0,
            "byteLength" : 65168,
            "byteOffset" : 727852
        },
        {
            "buffer" : 0,
            "byteLength" : 32584,
            "byteOffset" : 793020
        },
        {
            "buffer" : 0,
            "byteLength" : 29688,
            "byteOffset" : 825604
        }
    ],
    "samplers" : [
        {
            "magFilter" : 9729,
            "minFilter" : 9987
        }
    ],
    "buffers" : [
        {
            "byteLength" : 855292,
            "uri" : "stereo_b.bin"
        }
    ]
}
