{
    "asset" : {
        "generator" : "Khronos glTF Blender I/O v1.3.48",
        "version" : "2.0"
    },
    "scene" : 0,
    "scenes" : [
        {
            "name" : "Scene",
            "nodes" : [
                4
            ]
        }
    ],
    "nodes" : [
        {
            "mesh" : 0,
            "name" : "ao"
        },
        {
            "mesh" : 1,
            "name" : "array",
            "translation" : [
                -0.010881981812417507,
                -0.2611304223537445,
                0.06539234519004822
            ]
        },
        {
            "mesh" : 2,
            "name" : "foil",
            "translation" : [
                0,
                -0.017689824104309082,
                0
            ]
        },
        {
            "mesh" : 3,
            "name" : "thrusters"
        },
        {
            "children" : [
                0,
                1,
                2,
                3
            ],
            "mesh" : 4,
            "name" : "bus",
            "translation" : [
                0,
                0.2992653548717499,
                0
            ]
        }
    ],
    "materials" : [
        {
            "emissiveFactor" : [
                0,
                0,
                0
            ],
            "name" : "aluminum_AO",
            "pbrMetallicRoughness" : {
                "baseColorTexture" : {
                    "index" : 0,
                    "texCoord" : 0
                },
                "metallicFactor" : 1,
                "roughnessFactor" : 0.30000001192092896
            }
        },
        {
            "emissiveFactor" : [
                0,
                0,
                0
            ],
            "name" : "aluminum",
            "pbrMetallicRoughness" : {
                "baseColorFactor" : [
                    0.9646862149238586,
                    0.964686393737793,
                    0.9646864533424377,
                    1
                ],
                "metallicFactor" : 1,
                "roughnessFactor" : 0.30000001192092896
            }
        },
        {
            "emissiveFactor" : [
                0,
                0,
                0
            ],
            "name" : "Material",
            "normalTexture" : {
                "index" : 1,
                "texCoord" : 0
            },
            "pbrMetallicRoughness" : {
                "baseColorTexture" : {
                    "index" : 2,
                    "texCoord" : 0
                },
                "metallicRoughnessTexture" : {
                    "index" : 3,
                    "texCoord" : 0
                }
            }
        },
        {
            "emissiveFactor" : [
                0,
                0,
                0
            ],
            "name" : "foil_silver",
            "normalTexture" : {
                "index" : 4,
                "texCoord" : 0
            },
            "pbrMetallicRoughness" : {
                "baseColorFactor" : [
                    1,
                    0.999999463558197,
                    1,
                    1
                ],
                "metallicFactor" : 1,
                "roughnessFactor" : 0.30000001192092896
            }
        },
        {
            "emissiveFactor" : [
                0,
                0,
                0
            ],
            "name" : "gunmetal_AO",
            "pbrMetallicRoughness" : {
                "baseColorTexture" : {
                    "index" : 5,
                    "texCoord" : 0
                },
                "metallicFactor" : 1,
                "roughnessFactor" : 0.3499999940395355
            }
        }
    ],
    "meshes" : [
        {
            "name" : "Cube.035",
            "primitives" : [
                {
                    "attributes" : {
                        "POSITION" : 0,
                        "NORMAL" : 1,
                        "TEXCOORD_0" : 2
                    },
                    "indices" : 3,
                    "material" : 0
                }
            ]
        },
        {
            "name" : "Cube.046",
            "primitives" : [
                {
                    "attributes" : {
                        "POSITION" : 4,
                        "NORMAL" : 5,
                        "TEXCOORD_0" : 6
                    },
                    "indices" : 7,
                    "material" : 1
                },
                {
                    "attributes" : {
                        "POSITION" : 8,
                        "NORMAL" : 9,
                        "TEXCOORD_0" : 10
                    },
                    "indices" : 11,
                    "material" : 2
                }
            ]
        },
        {
            "name" : "Cube.017",
            "primitives" : [
                {
                    "attributes" : {
                        "POSITION" : 12,
                        "NORMAL" : 13,
                        "TEXCOORD_0" : 14
                    },
                    "indices" : 15,
                    "material" : 3
                }
            ]
        },
        {
            "name" : "Cube.051",
            "primitives" : [
                {
                    "attributes" : {
                        "POSITION" : 16,
                        "NORMAL" : 17,
                        "TEXCOORD_0" : 18
                    },
                    "indices" : 19,
                    "material" : 4
                }
            ]
        },
        {
            "name" : "Cube.045",
            "primitives" : [
                {
                    "attributes" : {
                        "POSITION" : 20,
                        "NORMAL" : 21,
                        "TEXCOORD_0" : 22
                    },
                    "indices" : 23,
                    "material" : 2
                }
            ]
        }
    ],
    "textures" : [
        {
            "source" : 0
        },
        {
            "source" : 1
        },
        {
            "source" : 2
        },
        {
            "source" : 3
        },
        {
            "source" : 4
        },
        {
            "source" : 0
        }
    ],
    "images" : [
        {
            "mimeType" : "image/jpeg",
            "name" : "capstone_ao",
            "uri" : "capstone_ao.jpg"
        },
        {
            "mimeType" : "image/png",
            "name" : "capstone_normals",
            "uri" : "capstone_normals.png"
        },
        {
            "mimeType" : "image/jpeg",
            "name" : "capstone_albedo",
            "uri" : "capstone_albedo.jpg"
        },
        {
            "mimeType" : "image/jpeg",
            "name" : "capstone_pbr.jpg",
            "uri" : "capstone_pbr_jpg.jpg"
        },
        {
            "mimeType" : "image/jpeg",
            "name" : "foil_normal",
            "uri" : "foil_normal.jpg"
        }
    ],
    "accessors" : [
        {
            "bufferView" : 0,
            "componentType" : 5126,
            "count" : 1469,
            "max" : [
                0.1643674224615097,
                0.02509656548500061,
                0.2044789046049118
            ],
            "min" : [
                -0.16597972810268402,
                -0.4723556935787201,
                -0.12600739300251007
            ],
            "type" : "VEC3"
        },
        {
            "bufferView" : 1,
            "componentType" : 5126,
            "count" : 1469,
            "type" : "VEC3"
        },
        {
            "bufferView" : 2,
            "componentType" : 5126,
            "count" : 1469,
            "type" : "VEC2"
        },
        {
            "bufferView" : 3,
            "componentType" : 5123,
            "count" : 2889,
            "type" : "SCALAR"
        },
        {
            "bufferView" : 4,
            "componentType" : 5126,
            "count" : 104,
            "max" : [
                0.7128428816795349,
                0.14016346633434296,
                -0.1269911527633667
            ],
            "min" : [
                -0.7128428816795349,
                -0.19940975308418274,
                -0.12925030291080475
            ],
            "type" : "VEC3"
        },
        {
            "bufferView" : 5,
            "componentType" : 5126,
            "count" : 104,
            "type" : "VEC3"
        },
        {
            "bufferView" : 6,
            "componentType" : 5126,
            "count" : 104,
            "type" : "VEC2"
        },
        {
            "bufferView" : 7,
            "componentType" : 5123,
            "count" : 156,
            "type" : "SCALAR"
        },
        {
            "bufferView" : 8,
            "componentType" : 5126,
            "count" : 68,
            "max" : [
                0.7128428816795349,
                0.14016346633434296,
                -0.1269911527633667
            ],
            "min" : [
                -0.7128428816795349,
                -0.19940975308418274,
                -0.12925030291080475
            ],
            "type" : "VEC3"
        },
        {
            "bufferView" : 9,
            "componentType" : 5126,
            "count" : 68,
            "type" : "VEC3"
        },
        {
            "bufferView" : 10,
            "componentType" : 5126,
            "count" : 68,
            "type" : "VEC2"
        },
        {
            "bufferView" : 11,
            "componentType" : 5123,
            "count" : 132,
            "type" : "SCALAR"
        },
        {
            "bufferView" : 12,
            "componentType" : 5126,
            "count" : 14,
            "max" : [
                0.16024751961231232,
                0.04430188983678818,
                0.197641983628273
            ],
            "min" : [
                -0.1562117487192154,
                0.042665738612413406,
                -0.12077396363019943
            ],
            "type" : "VEC3"
        },
        {
            "bufferView" : 13,
            "componentType" : 5126,
            "count" : 14,
            "type" : "VEC3"
        },
        {
            "bufferView" : 14,
            "componentType" : 5126,
            "count" : 14,
            "type" : "VEC2"
        },
        {
            "bufferView" : 15,
            "componentType" : 5123,
            "count" : 54,
            "type" : "SCALAR"
        },
        {
            "bufferView" : 16,
            "componentType" : 5126,
            "count" : 2296,
            "max" : [
                0.09484018385410309,
                -0.428918719291687,
                0.13484211266040802
            ],
            "min" : [
                -0.09623992443084717,
                -0.5027804374694824,
                -0.05743468925356865
            ],
            "type" : "VEC3"
        },
        {
            "bufferView" : 17,
            "componentType" : 5126,
            "count" : 2296,
            "type" : "VEC3"
        },
        {
            "bufferView" : 18,
            "componentType" : 5126,
            "count" : 2296,
            "type" : "VEC2"
        },
        {
            "bufferView" : 19,
            "componentType" : 5123,
            "count" : 9288,
            "type" : "SCALAR"
        },
        {
            "bufferView" : 20,
            "componentType" : 5126,
            "count" : 1030,
            "max" : [
                0.11258644610643387,
                -0.10699354112148285,
                0.17022617161273956
            ],
            "min" : [
                -0.11402430385351181,
                -0.4728839099407196,
                -0.09162268042564392
            ],
            "type" : "VEC3"
        },
        {
            "bufferView" : 21,
            "componentType" : 5126,
            "count" : 1030,
            "type" : "VEC3"
        },
        {
            "bufferView" : 22,
            "componentType" : 5126,
            "count" : 1030,
            "type" : "VEC2"
        },
        {
            "bufferView" : 23,
            "componentType" : 5123,
            "count" : 2556,
            "type" : "SCALAR"
        }
    ],
    "bufferViews" : [
        {
            "buffer" : 0,
            "byteLength" : 17628,
            "byteOffset" : 0
        },
        {
            "buffer" : 0,
            "byteLength" : 17628,
            "byteOffset" : 17628
        },
        {
            "buffer" : 0,
            "byteLength" : 11752,
            "byteOffset" : 35256
        },
        {
            "buffer" : 0,
            "byteLength" : 5778,
            "byteOffset" : 47008
        },
        {
            "buffer" : 0,
            "byteLength" : 1248,
            "byteOffset" : 52788
        },
        {
            "buffer" : 0,
            "byteLength" : 1248,
            "byteOffset" : 54036
        },
        {
            "buffer" : 0,
            "byteLength" : 832,
            "byteOffset" : 55284
        },
        {
            "buffer" : 0,
            "byteLength" : 312,
            "byteOffset" : 56116
        },
        {
            "buffer" : 0,
            "byteLength" : 816,
            "byteOffset" : 56428
        },
        {
            "buffer" : 0,
            "byteLength" : 816,
            "byteOffset" : 57244
        },
        {
            "buffer" : 0,
            "byteLength" : 544,
            "byteOffset" : 58060
        },
        {
            "buffer" : 0,
            "byteLength" : 264,
            "byteOffset" : 58604
        },
        {
            "buffer" : 0,
            "byteLength" : 168,
            "byteOffset" : 58868
        },
        {
            "buffer" : 0,
            "byteLength" : 168,
            "byteOffset" : 59036
        },
        {
            "buffer" : 0,
            "byteLength" : 112,
            "byteOffset" : 59204
        },
        {
            "buffer" : 0,
            "byteLength" : 108,
            "byteOffset" : 59316
        },
        {
            "buffer" : 0,
            "byteLength" : 27552,
            "byteOffset" : 59424
        },
        {
            "buffer" : 0,
            "byteLength" : 27552,
            "byteOffset" : 86976
        },
        {
            "buffer" : 0,
            "byteLength" : 18368,
            "byteOffset" : 114528
        },
        {
            "buffer" : 0,
            "byteLength" : 18576,
            "byteOffset" : 132896
        },
        {
            "buffer" : 0,
            "byteLength" : 12360,
            "byteOffset" : 151472
        },
        {
            "buffer" : 0,
            "byteLength" : 12360,
            "byteOffset" : 163832
        },
        {
            "buffer" : 0,
            "byteLength" : 8240,
            "byteOffset" : 176192
        },
        {
            "buffer" : 0,
            "byteLength" : 5112,
            "byteOffset" : 184432
        }
    ],
    "buffers" : [
        {
            "byteLength" : 189544,
            "uri" : "capstone.bin"
        }
    ]
}
