{
    "asset" : {
        "generator" : "Khronos glTF Blender I/O v1.3.48",
        "version" : "2.0"
    },
    "scene" : 0,
    "scenes" : [
        {
            "name" : "Scene",
            "nodes" : [
                4
            ]
        }
    ],
    "nodes" : [
        {
            "mesh" : 0,
            "name" : "foil_gold",
            "rotation" : [
                0.24813348054885864,
                -0.6621401309967041,
                0.6621405482292175,
                0.2481333166360855
            ],
            "translation" : [
                0.0012068318901583552,
                -1.56166410446167,
                -0.33382976055145264
            ]
        },
        {
            "mesh" : 1,
            "name" : "foil_silver",
            "rotation" : [
                0,
                0.9999942779541016,
                0,
                -0.003379424335435033
            ],
            "translation" : [
                0.0015758369117975235,
                0.008142352104187012,
                -0.27939561009407043
            ]
        },
        {
            "mesh" : 2,
            "name" : "shiny_panel",
            "rotation" : [
                0.662140429019928,
                0.24813376367092133,
                -0.24813394248485565,
                0.662139892578125
            ],
            "translation" : [
                0.0012060001026839018,
                1.4006760120391846,
                -0.33382946252822876
            ]
        },
        {
            "mesh" : 3,
            "name" : "tex_01",
            "rotation" : [
                0.662140429019928,
                0.24813376367092133,
                -0.24813394248485565,
                0.662139892578125
            ],
            "translation" : [
                -0.0011357429903000593,
                1.198911190032959,
                -0.33756139874458313
            ]
        },
        {
            "children" : [
                0,
                1,
                2,
                3
            ],
            "mesh" : 4,
            "name" : "BUS",
            "rotation" : [
                0,
                0.9364078640937805,
                0,
                0.3509136140346527
            ],
            "scale" : [
                0.09089690446853638,
                0.09089689701795578,
                0.09089690446853638
            ],
            "translation" : [
                0.020024776458740234,
                0.1271430402994156,
                -0.022798895835876465
            ]
        }
    ],
    "materials" : [
        {
            "emissiveFactor" : [
                0,
                0,
                0
            ],
            "name" : "foil_gold",
            "normalTexture" : {
                "index" : 0,
                "texCoord" : 0
            },
            "pbrMetallicRoughness" : {
                "baseColorFactor" : [
                    0.9999998807907104,
                    0.6583749055862427,
                    0.08228273689746857,
                    1
                ],
                "metallicFactor" : 1,
                "roughnessFactor" : 0.30000001192092896
            }
        },
        {
            "emissiveFactor" : [
                0,
                0,
                0
            ],
            "name" : "foil_silver",
            "normalTexture" : {
                "index" : 1,
                "texCoord" : 0
            },
            "pbrMetallicRoughness" : {
                "baseColorFactor" : [
                    1,
                    0.999999463558197,
                    1,
                    1
                ],
                "metallicFactor" : 1,
                "roughnessFactor" : 0.30000001192092896
            }
        },
        {
            "emissiveFactor" : [
                0,
                0,
                0
            ],
            "name" : "shiny_panel",
            "normalTexture" : {
                "index" : 2,
                "texCoord" : 0
            },
            "pbrMetallicRoughness" : {
                "baseColorTexture" : {
                    "index" : 3,
                    "texCoord" : 0
                },
                "metallicRoughnessTexture" : {
                    "index" : 4,
                    "texCoord" : 0
                }
            }
        },
        {
            "emissiveFactor" : [
                0,
                0,
                0
            ],
            "name" : "tex_01",
            "normalTexture" : {
                "index" : 5,
                "texCoord" : 0
            },
            "pbrMetallicRoughness" : {
                "baseColorTexture" : {
                    "index" : 6,
                    "texCoord" : 0
                },
                "metallicRoughnessTexture" : {
                    "index" : 7,
                    "texCoord" : 0
                }
            }
        },
        {
            "emissiveFactor" : [
                0,
                0,
                0
            ],
            "name" : "black_krinkle",
            "normalTexture" : {
                "index" : 8,
                "texCoord" : 0
            },
            "pbrMetallicRoughness" : {
                "baseColorFactor" : [
                    0.01960664987564087,
                    0.01960664987564087,
                    0.01960664987564087,
                    1
                ],
                "metallicFactor" : 0,
                "roughnessFactor" : 0.6000000238418579
            }
        }
    ],
    "meshes" : [
        {
            "name" : "Cylinder.014",
            "primitives" : [
                {
                    "attributes" : {
                        "POSITION" : 0,
                        "NORMAL" : 1,
                        "TEXCOORD_0" : 2
                    },
                    "indices" : 3,
                    "material" : 0
                }
            ]
        },
        {
            "name" : "Cube.013",
            "primitives" : [
                {
                    "attributes" : {
                        "POSITION" : 4,
                        "NORMAL" : 5,
                        "TEXCOORD_0" : 6
                    },
                    "indices" : 7,
                    "material" : 1
                }
            ]
        },
        {
            "name" : "Cylinder.000",
            "primitives" : [
                {
                    "attributes" : {
                        "POSITION" : 8,
                        "NORMAL" : 9,
                        "TEXCOORD_0" : 10
                    },
                    "indices" : 11,
                    "material" : 2
                }
            ]
        },
        {
            "name" : "Cylinder.009",
            "primitives" : [
                {
                    "attributes" : {
                        "POSITION" : 12,
                        "NORMAL" : 13,
                        "TEXCOORD_0" : 14
                    },
                    "indices" : 15,
                    "material" : 3
                }
            ]
        },
        {
            "name" : "Cylinder.011",
            "primitives" : [
                {
                    "attributes" : {
                        "POSITION" : 16,
                        "NORMAL" : 17,
                        "TEXCOORD_0" : 18
                    },
                    "indices" : 19,
                    "material" : 4
                }
            ]
        }
    ],
    "textures" : [
        {
            "source" : 0
        },
        {
            "source" : 0
        },
        {
            "source" : 1
        },
        {
            "source" : 2
        },
        {
            "source" : 3
        },
        {
            "source" : 1
        },
        {
            "source" : 2
        },
        {
            "source" : 3
        },
        {
            "source" : 0
        }
    ],
    "images" : [
        {
            "mimeType" : "image/png",
            "name" : "foil_n",
            "uri" : "foil_n.png"
        },
        {
            "mimeType" : "image/png",
            "name" : "ibex_normal",
            "uri" : "ibex_normal.png"
        },
        {
            "mimeType" : "image/jpeg",
            "name" : "ibex_albedo",
            "uri" : "ibex_albedo.jpg"
        },
        {
            "mimeType" : "image/jpeg",
            "name" : "ibex_pbr",
            "uri" : "ibex_pbr.jpg"
        }
    ],
    "accessors" : [
        {
            "bufferView" : 0,
            "componentType" : 5126,
            "count" : 3482,
            "max" : [
                6.497840881347656,
                6.051101207733154,
                2.6722261905670166
            ],
            "min" : [
                -6.497840881347656,
                -6.051101207733154,
                -2.6722261905670166
            ],
            "type" : "VEC3"
        },
        {
            "bufferView" : 1,
            "componentType" : 5126,
            "count" : 3482,
            "type" : "VEC3"
        },
        {
            "bufferView" : 2,
            "componentType" : 5126,
            "count" : 3482,
            "type" : "VEC2"
        },
        {
            "bufferView" : 3,
            "componentType" : 5123,
            "count" : 18672,
            "type" : "SCALAR"
        },
        {
            "bufferView" : 4,
            "componentType" : 5126,
            "count" : 1170,
            "max" : [
                5.8597187995910645,
                4.750635623931885,
                5.828981399536133
            ],
            "min" : [
                -5.8597187995910645,
                -4.750635623931885,
                -5.828980922698975
            ],
            "type" : "VEC3"
        },
        {
            "bufferView" : 5,
            "componentType" : 5126,
            "count" : 1170,
            "type" : "VEC3"
        },
        {
            "bufferView" : 6,
            "componentType" : 5126,
            "count" : 1170,
            "type" : "VEC2"
        },
        {
            "bufferView" : 7,
            "componentType" : 5123,
            "count" : 5016,
            "type" : "SCALAR"
        },
        {
            "bufferView" : 8,
            "componentType" : 5126,
            "count" : 40,
            "max" : [
                5.242624759674072,
                5.6154398918151855,
                0.004383563995361328
            ],
            "min" : [
                -5.242624759674072,
                -5.615440368652344,
                -0.004383563995361328
            ],
            "type" : "VEC3"
        },
        {
            "bufferView" : 9,
            "componentType" : 5126,
            "count" : 40,
            "type" : "VEC3"
        },
        {
            "bufferView" : 10,
            "componentType" : 5126,
            "count" : 40,
            "type" : "VEC2"
        },
        {
            "bufferView" : 11,
            "componentType" : 5123,
            "count" : 120,
            "type" : "SCALAR"
        },
        {
            "bufferView" : 12,
            "componentType" : 5126,
            "count" : 614,
            "max" : [
                5.306061744689941,
                6.179915428161621,
                4.844572067260742
            ],
            "min" : [
                -5.306061744689941,
                -6.179915428161621,
                -4.844571590423584
            ],
            "type" : "VEC3"
        },
        {
            "bufferView" : 13,
            "componentType" : 5126,
            "count" : 614,
            "type" : "VEC3"
        },
        {
            "bufferView" : 14,
            "componentType" : 5126,
            "count" : 614,
            "type" : "VEC2"
        },
        {
            "bufferView" : 15,
            "componentType" : 5123,
            "count" : 1344,
            "type" : "SCALAR"
        },
        {
            "bufferView" : 16,
            "componentType" : 5126,
            "count" : 642,
            "max" : [
                5.831386566162109,
                4.658388137817383,
                5.992387771606445
            ],
            "min" : [
                -5.831386566162109,
                -4.658388137817383,
                -5.992387771606445
            ],
            "type" : "VEC3"
        },
        {
            "bufferView" : 17,
            "componentType" : 5126,
            "count" : 642,
            "type" : "VEC3"
        },
        {
            "bufferView" : 18,
            "componentType" : 5126,
            "count" : 642,
            "type" : "VEC2"
        },
        {
            "bufferView" : 19,
            "componentType" : 5123,
            "count" : 1776,
            "type" : "SCALAR"
        }
    ],
    "bufferViews" : [
        {
            "buffer" : 0,
            "byteLength" : 41784,
            "byteOffset" : 0
        },
        {
            "buffer" : 0,
            "byteLength" : 41784,
            "byteOffset" : 41784
        },
        {
            "buffer" : 0,
            "byteLength" : 27856,
            "byteOffset" : 83568
        },
        {
            "buffer" : 0,
            "byteLength" : 37344,
            "byteOffset" : 111424
        },
        {
            "buffer" : 0,
            "byteLength" : 14040,
            "byteOffset" : 148768
        },
        {
            "buffer" : 0,
            "byteLength" : 14040,
            "byteOffset" : 162808
        },
        {
            "buffer" : 0,
            "byteLength" : 9360,
            "byteOffset" : 176848
        },
        {
            "buffer" : 0,
            "byteLength" : 10032,
            "byteOffset" : 186208
        },
        {
            "buffer" : 0,
            "byteLength" : 480,
            "byteOffset" : 196240
        },
        {
            "buffer" : 0,
            "byteLength" : 480,
            "byteOffset" : 196720
        },
        {
            "buffer" : 0,
            "byteLength" : 320,
            "byteOffset" : 197200
        },
        {
            "buffer" : 0,
            "byteLength" : 240,
            "byteOffset" : 197520
        },
        {
            "buffer" : 0,
            "byteLength" : 7368,
            "byteOffset" : 197760
        },
        {
            "buffer" : 0,
            "byteLength" : 7368,
            "byteOffset" : 205128
        },
        {
            "buffer" : 0,
            "byteLength" : 4912,
            "byteOffset" : 212496
        },
        {
            "buffer" : 0,
            "byteLength" : 2688,
            "byteOffset" : 217408
        },
        {
            "buffer" : 0,
            "byteLength" : 7704,
            "byteOffset" : 220096
        },
        {
            "buffer" : 0,
            "byteLength" : 7704,
            "byteOffset" : 227800
        },
        {
            "buffer" : 0,
            "byteLength" : 5136,
            "byteOffset" : 235504
        },
        {
            "buffer" : 0,
            "byteLength" : 3552,
            "byteOffset" : 240640
        }
    ],
    "buffers" : [
        {
            "byteLength" : 244192,
            "uri" : "ibex.bin"
        }
    ]
}
