{
    "asset" : {
        "generator" : "Khronos glTF Blender I/O v1.3.48",
        "version" : "2.0"
    },
    "scene" : 0,
    "scenes" : [
        {
            "name" : "Scene",
            "nodes" : [
                8
            ]
        }
    ],
    "nodes" : [
        {
            "mesh" : 0,
            "name" : "AO_1",
            "translation" : [
                -3.802108039963059e-06,
                0,
                0
            ]
        },
        {
            "mesh" : 1,
            "name" : "AO_2"
        },
        {
            "mesh" : 2,
            "name" : "AO_heatshield",
            "translation" : [
                -3.802108039963059e-06,
                0,
                0
            ]
        },
        {
            "mesh" : 3,
            "name" : "foil_silver",
            "translation" : [
                -3.802108039963059e-06,
                0,
                0
            ]
        },
        {
            "mesh" : 4,
            "name" : "shiny_panel",
            "translation" : [
                -3.802108039963059e-06,
                0,
                0
            ]
        },
        {
            "mesh" : 5,
            "name" : "silver"
        },
        {
            "mesh" : 6,
            "name" : "tex_01",
            "translation" : [
                -3.802108039963059e-06,
                0,
                0
            ]
        },
        {
            "mesh" : 7,
            "name" : "tex_02",
            "translation" : [
                -3.802108039963059e-06,
                0,
                0
            ]
        },
        {
            "children" : [
                0,
                1,
                2,
                3,
                4,
                5,
                6,
                7
            ],
            "mesh" : 8,
            "name" : "BUS",
            "scale" : [
                0.03135347366333008,
                0.03135347366333008,
                0.03135347366333008
            ]
        }
    ],
    "materials" : [
        {
            "emissiveFactor" : [
                0,
                0,
                0
            ],
            "name" : "AO_1",
            "pbrMetallicRoughness" : {
                "baseColorTexture" : {
                    "index" : 0,
                    "texCoord" : 0
                },
                "metallicFactor" : 0,
                "roughnessFactor" : 0.5
            }
        },
        {
            "emissiveFactor" : [
                0,
                0,
                0
            ],
            "name" : "AO_2",
            "pbrMetallicRoughness" : {
                "baseColorTexture" : {
                    "index" : 1,
                    "texCoord" : 0
                },
                "metallicFactor" : 1,
                "roughnessFactor" : 0.30000001192092896
            }
        },
        {
            "emissiveFactor" : [
                0,
                0,
                0
            ],
            "name" : "AO_heatshield",
            "normalTexture" : {
                "index" : 2,
                "scale" : 0.10000000149011612,
                "texCoord" : 0
            },
            "pbrMetallicRoughness" : {
                "baseColorTexture" : {
                    "index" : 3,
                    "texCoord" : 0
                },
                "metallicFactor" : 0.20000000298023224,
                "roughnessFactor" : 0.6000000238418579
            }
        },
        {
            "emissiveFactor" : [
                0,
                0,
                0
            ],
            "name" : "foil_silver.001",
            "normalTexture" : {
                "index" : 4,
                "texCoord" : 0
            },
            "pbrMetallicRoughness" : {
                "baseColorFactor" : [
                    1,
                    0.999999463558197,
                    1,
                    1
                ],
                "metallicFactor" : 1,
                "roughnessFactor" : 0.30000001192092896
            }
        },
        {
            "emissiveFactor" : [
                0,
                0,
                0
            ],
            "name" : "shiny_panel",
            "normalTexture" : {
                "index" : 5,
                "scale" : 0.5,
                "texCoord" : 0
            },
            "pbrMetallicRoughness" : {
                "baseColorTexture" : {
                    "index" : 6,
                    "texCoord" : 0
                },
                "metallicRoughnessTexture" : {
                    "index" : 7,
                    "texCoord" : 0
                }
            }
        },
        {
            "emissiveFactor" : [
                0,
                0,
                0
            ],
            "name" : "aluminum.001",
            "pbrMetallicRoughness" : {
                "baseColorFactor" : [
                    0.9646862149238586,
                    0.964686393737793,
                    0.9646864533424377,
                    1
                ],
                "metallicFactor" : 1,
                "roughnessFactor" : 0.30000001192092896
            }
        },
        {
            "emissiveFactor" : [
                0,
                0,
                0
            ],
            "name" : "tex_01",
            "normalTexture" : {
                "index" : 8,
                "texCoord" : 0
            },
            "pbrMetallicRoughness" : {
                "baseColorTexture" : {
                    "index" : 9,
                    "texCoord" : 0
                },
                "metallicRoughnessTexture" : {
                    "index" : 10,
                    "texCoord" : 0
                }
            }
        },
        {
            "emissiveFactor" : [
                0,
                0,
                0
            ],
            "name" : "tex_02",
            "normalTexture" : {
                "index" : 11,
                "texCoord" : 0
            },
            "pbrMetallicRoughness" : {
                "baseColorTexture" : {
                    "index" : 12,
                    "texCoord" : 0
                },
                "metallicRoughnessTexture" : {
                    "index" : 13,
                    "texCoord" : 0
                }
            }
        },
        {
            "emissiveFactor" : [
                0,
                0,
                0
            ],
            "name" : "foil_gold.001",
            "normalTexture" : {
                "index" : 14,
                "texCoord" : 0
            },
            "pbrMetallicRoughness" : {
                "baseColorFactor" : [
                    0.9999998807907104,
                    0.6583749055862427,
                    0.08228273689746857,
                    1
                ],
                "metallicFactor" : 1,
                "roughnessFactor" : 0.30000001192092896
            }
        }
    ],
    "meshes" : [
        {
            "name" : "MESSENGER.019",
            "primitives" : [
                {
                    "attributes" : {
                        "POSITION" : 0,
                        "NORMAL" : 1,
                        "TEXCOORD_0" : 2
                    },
                    "indices" : 3,
                    "material" : 0
                }
            ]
        },
        {
            "name" : "MESSENGER.043",
            "primitives" : [
                {
                    "attributes" : {
                        "POSITION" : 4,
                        "NORMAL" : 5,
                        "TEXCOORD_0" : 6
                    },
                    "indices" : 7,
                    "material" : 1
                }
            ]
        },
        {
            "name" : "MESSENGER.045",
            "primitives" : [
                {
                    "attributes" : {
                        "POSITION" : 8,
                        "NORMAL" : 9,
                        "TEXCOORD_0" : 10
                    },
                    "indices" : 11,
                    "material" : 2
                }
            ]
        },
        {
            "name" : "MESSENGER.002",
            "primitives" : [
                {
                    "attributes" : {
                        "POSITION" : 12,
                        "NORMAL" : 13,
                        "TEXCOORD_0" : 14
                    },
                    "indices" : 15,
                    "material" : 3
                }
            ]
        },
        {
            "name" : "MESSENGER.000",
            "primitives" : [
                {
                    "attributes" : {
                        "POSITION" : 16,
                        "NORMAL" : 17,
                        "TEXCOORD_0" : 18
                    },
                    "indices" : 19,
                    "material" : 4
                }
            ]
        },
        {
            "name" : "MESSENGER.031",
            "primitives" : [
                {
                    "attributes" : {
                        "POSITION" : 20,
                        "NORMAL" : 21
                    },
                    "indices" : 22,
                    "material" : 5
                }
            ]
        },
        {
            "name" : "MESSENGER.035",
            "primitives" : [
                {
                    "attributes" : {
                        "POSITION" : 23,
                        "NORMAL" : 24,
                        "TEXCOORD_0" : 25
                    },
                    "indices" : 26,
                    "material" : 6
                }
            ]
        },
        {
            "name" : "MESSENGER.030",
            "primitives" : [
                {
                    "attributes" : {
                        "POSITION" : 27,
                        "NORMAL" : 28,
                        "TEXCOORD_0" : 29
                    },
                    "indices" : 30,
                    "material" : 7
                }
            ]
        },
        {
            "name" : "MESSENGER.006",
            "primitives" : [
                {
                    "attributes" : {
                        "POSITION" : 31,
                        "NORMAL" : 32,
                        "TEXCOORD_0" : 33
                    },
                    "indices" : 34,
                    "material" : 8
                }
            ]
        }
    ],
    "textures" : [
        {
            "source" : 0
        },
        {
            "source" : 1
        },
        {
            "source" : 2
        },
        {
            "source" : 3
        },
        {
            "source" : 4
        },
        {
            "source" : 5
        },
        {
            "source" : 6
        },
        {
            "source" : 7
        },
        {
            "source" : 8
        },
        {
            "source" : 9
        },
        {
            "source" : 10
        },
        {
            "source" : 5
        },
        {
            "source" : 6
        },
        {
            "source" : 7
        },
        {
            "source" : 4
        }
    ],
    "images" : [
        {
            "mimeType" : "image/jpeg",
            "name" : "messenger_01_ao",
            "uri" : "messenger_01_ao.jpg"
        },
        {
            "mimeType" : "image/jpeg",
            "name" : "messenger_02_ao",
            "uri" : "messenger_02_ao.jpg"
        },
        {
            "mimeType" : "image/png",
            "name" : "noise_01_normal",
            "uri" : "noise_01_normal.png"
        },
        {
            "mimeType" : "image/jpeg",
            "name" : "messenger_heatshield_ao",
            "uri" : "messenger_heatshield_ao.jpg"
        },
        {
            "mimeType" : "image/png",
            "name" : "foil_normal",
            "uri" : "foil_normal.png"
        },
        {
            "mimeType" : "image/png",
            "name" : "messenger_tex_02_normal",
            "uri" : "messenger_tex_02_normal.png"
        },
        {
            "mimeType" : "image/jpeg",
            "name" : "messenger_tex_02_albedo",
            "uri" : "messenger_tex_02_albedo.jpg"
        },
        {
            "mimeType" : "image/jpeg",
            "name" : "messenger_tex_02_pbr",
            "uri" : "messenger_tex_02_pbr.jpg"
        },
        {
            "mimeType" : "image/png",
            "name" : "messenger_tex_01_normal",
            "uri" : "messenger_tex_01_normal.png"
        },
        {
            "mimeType" : "image/jpeg",
            "name" : "messenger_tex_01_albedo",
            "uri" : "messenger_tex_01_albedo.jpg"
        },
        {
            "mimeType" : "image/jpeg",
            "name" : "messenger_tex_01_pbr",
            "uri" : "messenger_tex_01_pbr.jpg"
        }
    ],
    "accessors" : [
        {
            "bufferView" : 0,
            "componentType" : 5126,
            "count" : 3397,
            "max" : [
                22.90740203857422,
                38.31890869140625,
                11.185800552368164
            ],
            "min" : [
                -135.1649169921875,
                1.9895095825195312,
                -28.552099227905273
            ],
            "type" : "VEC3"
        },
        {
            "bufferView" : 1,
            "componentType" : 5126,
            "count" : 3397,
            "type" : "VEC3"
        },
        {
            "bufferView" : 2,
            "componentType" : 5126,
            "count" : 3397,
            "type" : "VEC2"
        },
        {
            "bufferView" : 3,
            "componentType" : 5123,
            "count" : 7038,
            "type" : "SCALAR"
        },
        {
            "bufferView" : 4,
            "componentType" : 5126,
            "count" : 4255,
            "max" : [
                18.210987091064453,
                17.056509017944336,
                53.846099853515625
            ],
            "min" : [
                -78.972412109375,
                -32.577091217041016,
                -53.846099853515625
            ],
            "type" : "VEC3"
        },
        {
            "bufferView" : 5,
            "componentType" : 5126,
            "count" : 4255,
            "type" : "VEC3"
        },
        {
            "bufferView" : 6,
            "componentType" : 5126,
            "count" : 4255,
            "type" : "VEC2"
        },
        {
            "bufferView" : 7,
            "componentType" : 5123,
            "count" : 8790,
            "type" : "SCALAR"
        },
        {
            "bufferView" : 8,
            "componentType" : 5126,
            "count" : 131,
            "max" : [
                28.72888946533203,
                44.251808166503906,
                37.485801696777344
            ],
            "min" : [
                13.876487731933594,
                -39.934791564941406,
                -37.485801696777344
            ],
            "type" : "VEC3"
        },
        {
            "bufferView" : 9,
            "componentType" : 5126,
            "count" : 131,
            "type" : "VEC3"
        },
        {
            "bufferView" : 10,
            "componentType" : 5126,
            "count" : 131,
            "type" : "VEC2"
        },
        {
            "bufferView" : 11,
            "componentType" : 5123,
            "count" : 228,
            "type" : "SCALAR"
        },
        {
            "bufferView" : 12,
            "componentType" : 5126,
            "count" : 453,
            "max" : [
                12.348884582519531,
                30.213407516479492,
                18.72599983215332
            ],
            "min" : [
                -31.54041290283203,
                13.16730785369873,
                -18.72599983215332
            ],
            "type" : "VEC3"
        },
        {
            "bufferView" : 13,
            "componentType" : 5126,
            "count" : 453,
            "type" : "VEC3"
        },
        {
            "bufferView" : 14,
            "componentType" : 5126,
            "count" : 453,
            "type" : "VEC2"
        },
        {
            "bufferView" : 15,
            "componentType" : 5123,
            "count" : 1806,
            "type" : "SCALAR"
        },
        {
            "bufferView" : 16,
            "componentType" : 5126,
            "count" : 8,
            "max" : [
                0.8195858597755432,
                33.18600845336914,
                110.94159698486328
            ],
            "min" : [
                0.8195858597755432,
                -32.28669357299805,
                -110.94159698486328
            ],
            "type" : "VEC3"
        },
        {
            "bufferView" : 17,
            "componentType" : 5126,
            "count" : 8,
            "type" : "VEC3"
        },
        {
            "bufferView" : 18,
            "componentType" : 5126,
            "count" : 8,
            "type" : "VEC2"
        },
        {
            "bufferView" : 19,
            "componentType" : 5123,
            "count" : 12,
            "type" : "SCALAR"
        },
        {
            "bufferView" : 20,
            "componentType" : 5126,
            "count" : 60,
            "max" : [
                29.54118537902832,
                37.65700912475586,
                18.10449981689453
            ],
            "min" : [
                23.671281814575195,
                -38.79098892211914,
                -18.10449981689453
            ],
            "type" : "VEC3"
        },
        {
            "bufferView" : 21,
            "componentType" : 5126,
            "count" : 60,
            "type" : "VEC3"
        },
        {
            "bufferView" : 22,
            "componentType" : 5123,
            "count" : 72,
            "type" : "SCALAR"
        },
        {
            "bufferView" : 23,
            "componentType" : 5126,
            "count" : 367,
            "max" : [
                19.4163875579834,
                33.18600845336914,
                110.94159698486328
            ],
            "min" : [
                -18.825414657592773,
                -32.28669357299805,
                -110.94159698486328
            ],
            "type" : "VEC3"
        },
        {
            "bufferView" : 24,
            "componentType" : 5126,
            "count" : 367,
            "type" : "VEC3"
        },
        {
            "bufferView" : 25,
            "componentType" : 5126,
            "count" : 367,
            "type" : "VEC2"
        },
        {
            "bufferView" : 26,
            "componentType" : 5123,
            "count" : 426,
            "type" : "SCALAR"
        },
        {
            "bufferView" : 27,
            "componentType" : 5126,
            "count" : 3564,
            "max" : [
                28.212791442871094,
                38.22230911254883,
                53.649200439453125
            ],
            "min" : [
                -135.1496124267578,
                -39.20479202270508,
                -53.649200439453125
            ],
            "type" : "VEC3"
        },
        {
            "bufferView" : 28,
            "componentType" : 5126,
            "count" : 3564,
            "type" : "VEC3"
        },
        {
            "bufferView" : 29,
            "componentType" : 5126,
            "count" : 3564,
            "type" : "VEC2"
        },
        {
            "bufferView" : 30,
            "componentType" : 5123,
            "count" : 12234,
            "type" : "SCALAR"
        },
        {
            "bufferView" : 31,
            "componentType" : 5126,
            "count" : 1164,
            "max" : [
                30.066387176513672,
                37.65700912475586,
                56.45909881591797
            ],
            "min" : [
                -138.2108154296875,
                -38.79098892211914,
                -56.45909881591797
            ],
            "type" : "VEC3"
        },
        {
            "bufferView" : 32,
            "componentType" : 5126,
            "count" : 1164,
            "type" : "VEC3"
        },
        {
            "bufferView" : 33,
            "componentType" : 5126,
            "count" : 1164,
            "type" : "VEC2"
        },
        {
            "bufferView" : 34,
            "componentType" : 5123,
            "count" : 4194,
            "type" : "SCALAR"
        }
    ],
    "bufferViews" : [
        {
            "buffer" : 0,
            "byteLength" : 40764,
            "byteOffset" : 0
        },
        {
            "buffer" : 0,
            "byteLength" : 40764,
            "byteOffset" : 40764
        },
        {
            "buffer" : 0,
            "byteLength" : 27176,
            "byteOffset" : 81528
        },
        {
            "buffer" : 0,
            "byteLength" : 14076,
            "byteOffset" : 108704
        },
        {
            "buffer" : 0,
            "byteLength" : 51060,
            "byteOffset" : 122780
        },
        {
            "buffer" : 0,
            "byteLength" : 51060,
            "byteOffset" : 173840
        },
        {
            "buffer" : 0,
            "byteLength" : 34040,
            "byteOffset" : 224900
        },
        {
            "buffer" : 0,
            "byteLength" : 17580,
            "byteOffset" : 258940
        },
        {
            "buffer" : 0,
            "byteLength" : 1572,
            "byteOffset" : 276520
        },
        {
            "buffer" : 0,
            "byteLength" : 1572,
            "byteOffset" : 278092
        },
        {
            "buffer" : 0,
            "byteLength" : 1048,
            "byteOffset" : 279664
        },
        {
            "buffer" : 0,
            "byteLength" : 456,
            "byteOffset" : 280712
        },
        {
            "buffer" : 0,
            "byteLength" : 5436,
            "byteOffset" : 281168
        },
        {
            "buffer" : 0,
            "byteLength" : 5436,
            "byteOffset" : 286604
        },
        {
            "buffer" : 0,
            "byteLength" : 3624,
            "byteOffset" : 292040
        },
        {
            "buffer" : 0,
            "byteLength" : 3612,
            "byteOffset" : 295664
        },
        {
            "buffer" : 0,
            "byteLength" : 96,
            "byteOffset" : 299276
        },
        {
            "buffer" : 0,
            "byteLength" : 96,
            "byteOffset" : 299372
        },
        {
            "buffer" : 0,
            "byteLength" : 64,
            "byteOffset" : 299468
        },
        {
            "buffer" : 0,
            "byteLength" : 24,
            "byteOffset" : 299532
        },
        {
            "buffer" : 0,
            "byteLength" : 720,
            "byteOffset" : 299556
        },
        {
            "buffer" : 0,
            "byteLength" : 720,
            "byteOffset" : 300276
        },
        {
            "buffer" : 0,
            "byteLength" : 144,
            "byteOffset" : 300996
        },
        {
            "buffer" : 0,
            "byteLength" : 4404,
            "byteOffset" : 301140
        },
        {
            "buffer" : 0,
            "byteLength" : 4404,
            "byteOffset" : 305544
        },
        {
            "buffer" : 0,
            "byteLength" : 2936,
            "byteOffset" : 309948
        },
        {
            "buffer" : 0,
            "byteLength" : 852,
            "byteOffset" : 312884
        },
        {
            "buffer" : 0,
            "byteLength" : 42768,
            "byteOffset" : 313736
        },
        {
            "buffer" : 0,
            "byteLength" : 42768,
            "byteOffset" : 356504
        },
        {
            "buffer" : 0,
            "byteLength" : 28512,
            "byteOffset" : 399272
        },
        {
            "buffer" : 0,
            "byteLength" : 24468,
            "byteOffset" : 427784
        },
        {
            "buffer" : 0,
            "byteLength" : 13968,
            "byteOffset" : 452252
        },
        {
            "buffer" : 0,
            "byteLength" : 13968,
            "byteOffset" : 466220
        },
        {
            "buffer" : 0,
            "byteLength" : 9312,
            "byteOffset" : 480188
        },
        {
            "buffer" : 0,
            "byteLength" : 8388,
            "byteOffset" : 489500
        }
    ],
    "buffers" : [
        {
            "byteLength" : 497888,
            "uri" : "messenger.bin"
        }
    ]
}
